%TF.GenerationSoftware,KiCad,Pcbnew,8.0.5*%
%TF.CreationDate,2025-02-17T00:09:19-06:00*%
%TF.ProjectId,ActivePrecharge,41637469-7665-4507-9265-636861726765,rev?*%
%TF.SameCoordinates,Original*%
%TF.FileFunction,Drillmap*%
%TF.FilePolarity,Positive*%
%FSLAX45Y45*%
G04 Gerber Fmt 4.5, Leading zero omitted, Abs format (unit mm)*
G04 Created by KiCad (PCBNEW 8.0.5) date 2025-02-17 00:09:19*
%MOMM*%
%LPD*%
G01*
G04 APERTURE LIST*
%ADD10C,0.050000*%
%ADD11C,0.200000*%
%ADD12C,0.100000*%
%ADD13C,0.102000*%
%ADD14C,0.102108*%
%ADD15C,0.178000*%
G04 APERTURE END LIST*
D10*
X10940000Y-5440000D02*
X10762500Y-5440000D01*
X5600000Y-13200000D02*
G75*
G02*
X5300000Y-12900000I0J300000D01*
G01*
X10762500Y-11340000D02*
G75*
G02*
X10702500Y-11280000I-1210J58790D01*
G01*
X16200000Y-12900000D02*
G75*
G02*
X15900000Y-13200000I-300000J0D01*
G01*
X11000000Y-11280000D02*
X11000000Y-5500000D01*
X5300000Y-4475000D02*
X5300000Y-12900000D01*
X5600000Y-13200000D02*
X15900000Y-13200000D01*
X15900000Y-4175000D02*
G75*
G02*
X16200000Y-4475000I0J-300000D01*
G01*
X5300000Y-4475000D02*
G75*
G02*
X5600000Y-4175000I300000J0D01*
G01*
X10702500Y-5500000D02*
X10702500Y-11280000D01*
X10762500Y-11340000D02*
X10940000Y-11340000D01*
X10702500Y-5500000D02*
G75*
G02*
X10762500Y-5440000I60000J0D01*
G01*
X10940000Y-5440000D02*
G75*
G02*
X11000000Y-5500000I0J-60000D01*
G01*
X5600000Y-4175000D02*
X15900000Y-4175000D01*
X16200000Y-4475000D02*
X16200000Y-12900000D01*
X11000000Y-11280000D02*
G75*
G02*
X10940000Y-11340000I-60000J0D01*
G01*
D11*
D12*
X5560000Y-7385000D02*
X5590000Y-7415000D01*
X5590000Y-7385000D02*
X5560000Y-7415000D01*
X5560000Y-7460000D02*
X5590000Y-7490000D01*
X5590000Y-7460000D02*
X5560000Y-7490000D01*
X5560000Y-7535000D02*
X5590000Y-7565000D01*
X5590000Y-7535000D02*
X5560000Y-7565000D01*
X5560000Y-7610000D02*
X5590000Y-7640000D01*
X5590000Y-7610000D02*
X5560000Y-7640000D01*
X5560000Y-7685000D02*
X5590000Y-7715000D01*
X5590000Y-7685000D02*
X5560000Y-7715000D01*
X5560000Y-7760000D02*
X5590000Y-7790000D01*
X5590000Y-7760000D02*
X5560000Y-7790000D01*
X5560000Y-7835000D02*
X5590000Y-7865000D01*
X5590000Y-7835000D02*
X5560000Y-7865000D01*
X5560000Y-7910000D02*
X5590000Y-7940000D01*
X5590000Y-7910000D02*
X5560000Y-7940000D01*
X5560000Y-7985000D02*
X5590000Y-8015000D01*
X5590000Y-7985000D02*
X5560000Y-8015000D01*
X5560000Y-8060000D02*
X5590000Y-8090000D01*
X5590000Y-8060000D02*
X5560000Y-8090000D01*
X5560000Y-8135000D02*
X5590000Y-8165000D01*
X5590000Y-8135000D02*
X5560000Y-8165000D01*
X5560000Y-8210000D02*
X5590000Y-8240000D01*
X5590000Y-8210000D02*
X5560000Y-8240000D01*
X5560000Y-8285000D02*
X5590000Y-8315000D01*
X5590000Y-8285000D02*
X5560000Y-8315000D01*
X5560000Y-8360000D02*
X5590000Y-8390000D01*
X5590000Y-8360000D02*
X5560000Y-8390000D01*
X5560000Y-8435000D02*
X5590000Y-8465000D01*
X5590000Y-8435000D02*
X5560000Y-8465000D01*
X5560000Y-8510000D02*
X5590000Y-8540000D01*
X5590000Y-8510000D02*
X5560000Y-8540000D01*
X5560000Y-8585000D02*
X5590000Y-8615000D01*
X5590000Y-8585000D02*
X5560000Y-8615000D01*
X5560000Y-8660000D02*
X5590000Y-8690000D01*
X5590000Y-8660000D02*
X5560000Y-8690000D01*
X5560000Y-8735000D02*
X5590000Y-8765000D01*
X5590000Y-8735000D02*
X5560000Y-8765000D01*
X5560000Y-8810000D02*
X5590000Y-8840000D01*
X5590000Y-8810000D02*
X5560000Y-8840000D01*
X5560000Y-8885000D02*
X5590000Y-8915000D01*
X5590000Y-8885000D02*
X5560000Y-8915000D01*
X5560000Y-8960000D02*
X5590000Y-8990000D01*
X5590000Y-8960000D02*
X5560000Y-8990000D01*
X5560000Y-9035000D02*
X5590000Y-9065000D01*
X5590000Y-9035000D02*
X5560000Y-9065000D01*
X5560000Y-9110000D02*
X5590000Y-9140000D01*
X5590000Y-9110000D02*
X5560000Y-9140000D01*
X5560000Y-9185000D02*
X5590000Y-9215000D01*
X5590000Y-9185000D02*
X5560000Y-9215000D01*
X5560000Y-9260000D02*
X5590000Y-9290000D01*
X5590000Y-9260000D02*
X5560000Y-9290000D01*
X5560000Y-9335000D02*
X5590000Y-9365000D01*
X5590000Y-9335000D02*
X5560000Y-9365000D01*
X5560000Y-9410000D02*
X5590000Y-9440000D01*
X5590000Y-9410000D02*
X5560000Y-9440000D01*
X5560000Y-9485000D02*
X5590000Y-9515000D01*
X5590000Y-9485000D02*
X5560000Y-9515000D01*
X5560000Y-9560000D02*
X5590000Y-9590000D01*
X5590000Y-9560000D02*
X5560000Y-9590000D01*
X5560000Y-9635000D02*
X5590000Y-9665000D01*
X5590000Y-9635000D02*
X5560000Y-9665000D01*
X5560000Y-9710000D02*
X5590000Y-9740000D01*
X5590000Y-9710000D02*
X5560000Y-9740000D01*
X5560000Y-9785000D02*
X5590000Y-9815000D01*
X5590000Y-9785000D02*
X5560000Y-9815000D01*
X5560000Y-9860000D02*
X5590000Y-9890000D01*
X5590000Y-9860000D02*
X5560000Y-9890000D01*
X5560000Y-9935000D02*
X5590000Y-9965000D01*
X5590000Y-9935000D02*
X5560000Y-9965000D01*
X5560000Y-10010000D02*
X5590000Y-10040000D01*
X5590000Y-10010000D02*
X5560000Y-10040000D01*
X5560000Y-10085000D02*
X5590000Y-10115000D01*
X5590000Y-10085000D02*
X5560000Y-10115000D01*
X5560000Y-10160000D02*
X5590000Y-10190000D01*
X5590000Y-10160000D02*
X5560000Y-10190000D01*
X5560000Y-10235000D02*
X5590000Y-10265000D01*
X5590000Y-10235000D02*
X5560000Y-10265000D01*
X5560000Y-10310000D02*
X5590000Y-10340000D01*
X5590000Y-10310000D02*
X5560000Y-10340000D01*
X5560000Y-10385000D02*
X5590000Y-10415000D01*
X5590000Y-10385000D02*
X5560000Y-10415000D01*
X5560000Y-10460000D02*
X5590000Y-10490000D01*
X5590000Y-10460000D02*
X5560000Y-10490000D01*
X5560000Y-10535000D02*
X5590000Y-10565000D01*
X5590000Y-10535000D02*
X5560000Y-10565000D01*
X5560000Y-10610000D02*
X5590000Y-10640000D01*
X5590000Y-10610000D02*
X5560000Y-10640000D01*
X5635000Y-7385000D02*
X5665000Y-7415000D01*
X5665000Y-7385000D02*
X5635000Y-7415000D01*
X5635000Y-10610000D02*
X5665000Y-10640000D01*
X5665000Y-10610000D02*
X5635000Y-10640000D01*
X5710000Y-7385000D02*
X5740000Y-7415000D01*
X5740000Y-7385000D02*
X5710000Y-7415000D01*
X5710000Y-10610000D02*
X5740000Y-10640000D01*
X5740000Y-10610000D02*
X5710000Y-10640000D01*
X5785000Y-7385000D02*
X5815000Y-7415000D01*
X5815000Y-7385000D02*
X5785000Y-7415000D01*
X5785000Y-10610000D02*
X5815000Y-10640000D01*
X5815000Y-10610000D02*
X5785000Y-10640000D01*
X5860000Y-7385000D02*
X5890000Y-7415000D01*
X5890000Y-7385000D02*
X5860000Y-7415000D01*
X5860000Y-10610000D02*
X5890000Y-10640000D01*
X5890000Y-10610000D02*
X5860000Y-10640000D01*
X5935000Y-7385000D02*
X5965000Y-7415000D01*
X5965000Y-7385000D02*
X5935000Y-7415000D01*
X5935000Y-10610000D02*
X5965000Y-10640000D01*
X5965000Y-10610000D02*
X5935000Y-10640000D01*
X6010000Y-7385000D02*
X6040000Y-7415000D01*
X6040000Y-7385000D02*
X6010000Y-7415000D01*
X6010000Y-10610000D02*
X6040000Y-10640000D01*
X6040000Y-10610000D02*
X6010000Y-10640000D01*
X6085000Y-7385000D02*
X6115000Y-7415000D01*
X6115000Y-7385000D02*
X6085000Y-7415000D01*
X6085000Y-10610000D02*
X6115000Y-10640000D01*
X6115000Y-10610000D02*
X6085000Y-10640000D01*
X6160000Y-7385000D02*
X6190000Y-7415000D01*
X6190000Y-7385000D02*
X6160000Y-7415000D01*
X6160000Y-10610000D02*
X6190000Y-10640000D01*
X6190000Y-10610000D02*
X6160000Y-10640000D01*
X6235000Y-7385000D02*
X6265000Y-7415000D01*
X6265000Y-7385000D02*
X6235000Y-7415000D01*
X6235000Y-10610000D02*
X6265000Y-10640000D01*
X6265000Y-10610000D02*
X6235000Y-10640000D01*
X6310000Y-7385000D02*
X6340000Y-7415000D01*
X6340000Y-7385000D02*
X6310000Y-7415000D01*
X6310000Y-10610000D02*
X6340000Y-10640000D01*
X6340000Y-10610000D02*
X6310000Y-10640000D01*
X6385000Y-7385000D02*
X6415000Y-7415000D01*
X6415000Y-7385000D02*
X6385000Y-7415000D01*
X6385000Y-10610000D02*
X6415000Y-10640000D01*
X6415000Y-10610000D02*
X6385000Y-10640000D01*
X6460000Y-7385000D02*
X6490000Y-7415000D01*
X6490000Y-7385000D02*
X6460000Y-7415000D01*
X6460000Y-10610000D02*
X6490000Y-10640000D01*
X6490000Y-10610000D02*
X6460000Y-10640000D01*
X6535000Y-7385000D02*
X6565000Y-7415000D01*
X6565000Y-7385000D02*
X6535000Y-7415000D01*
X6535000Y-10610000D02*
X6565000Y-10640000D01*
X6565000Y-10610000D02*
X6535000Y-10640000D01*
X6610000Y-7385000D02*
X6640000Y-7415000D01*
X6640000Y-7385000D02*
X6610000Y-7415000D01*
X6610000Y-10610000D02*
X6640000Y-10640000D01*
X6640000Y-10610000D02*
X6610000Y-10640000D01*
X6685000Y-7385000D02*
X6715000Y-7415000D01*
X6715000Y-7385000D02*
X6685000Y-7415000D01*
X6685000Y-10610000D02*
X6715000Y-10640000D01*
X6715000Y-10610000D02*
X6685000Y-10640000D01*
X6760000Y-10610000D02*
X6790000Y-10640000D01*
X6790000Y-10610000D02*
X6760000Y-10640000D01*
X6785000Y-6710000D02*
X6815000Y-6740000D01*
X6815000Y-6710000D02*
X6785000Y-6740000D01*
X6835000Y-10610000D02*
X6865000Y-10640000D01*
X6865000Y-10610000D02*
X6835000Y-10640000D01*
X6860000Y-6710000D02*
X6890000Y-6740000D01*
X6890000Y-6710000D02*
X6860000Y-6740000D01*
X6910000Y-10610000D02*
X6940000Y-10640000D01*
X6940000Y-10610000D02*
X6910000Y-10640000D01*
X6935000Y-6710000D02*
X6965000Y-6740000D01*
X6965000Y-6710000D02*
X6935000Y-6740000D01*
X6985000Y-10610000D02*
X7015000Y-10640000D01*
X7015000Y-10610000D02*
X6985000Y-10640000D01*
X7010000Y-6710000D02*
X7040000Y-6740000D01*
X7040000Y-6710000D02*
X7010000Y-6740000D01*
X7060000Y-10610000D02*
X7090000Y-10640000D01*
X7090000Y-10610000D02*
X7060000Y-10640000D01*
X7085000Y-6710000D02*
X7115000Y-6740000D01*
X7115000Y-6710000D02*
X7085000Y-6740000D01*
X7135000Y-10610000D02*
X7165000Y-10640000D01*
X7165000Y-10610000D02*
X7135000Y-10640000D01*
X7160000Y-6710000D02*
X7190000Y-6740000D01*
X7190000Y-6710000D02*
X7160000Y-6740000D01*
X7210000Y-10610000D02*
X7240000Y-10640000D01*
X7240000Y-10610000D02*
X7210000Y-10640000D01*
X7235000Y-6710000D02*
X7265000Y-6740000D01*
X7265000Y-6710000D02*
X7235000Y-6740000D01*
X7285000Y-10610000D02*
X7315000Y-10640000D01*
X7315000Y-10610000D02*
X7285000Y-10640000D01*
X7310000Y-6710000D02*
X7340000Y-6740000D01*
X7340000Y-6710000D02*
X7310000Y-6740000D01*
X7360000Y-10610000D02*
X7390000Y-10640000D01*
X7390000Y-10610000D02*
X7360000Y-10640000D01*
X7385000Y-6710000D02*
X7415000Y-6740000D01*
X7415000Y-6710000D02*
X7385000Y-6740000D01*
X7435000Y-10610000D02*
X7465000Y-10640000D01*
X7465000Y-10610000D02*
X7435000Y-10640000D01*
X7460000Y-6710000D02*
X7490000Y-6740000D01*
X7490000Y-6710000D02*
X7460000Y-6740000D01*
X7510000Y-10610000D02*
X7540000Y-10640000D01*
X7540000Y-10610000D02*
X7510000Y-10640000D01*
X7535000Y-6710000D02*
X7565000Y-6740000D01*
X7565000Y-6710000D02*
X7535000Y-6740000D01*
X7585000Y-10610000D02*
X7615000Y-10640000D01*
X7615000Y-10610000D02*
X7585000Y-10640000D01*
X7610000Y-6710000D02*
X7640000Y-6740000D01*
X7640000Y-6710000D02*
X7610000Y-6740000D01*
X7660000Y-10610000D02*
X7690000Y-10640000D01*
X7690000Y-10610000D02*
X7660000Y-10640000D01*
X7685000Y-6710000D02*
X7715000Y-6740000D01*
X7715000Y-6710000D02*
X7685000Y-6740000D01*
X7735000Y-10610000D02*
X7765000Y-10640000D01*
X7765000Y-10610000D02*
X7735000Y-10640000D01*
X7760000Y-6710000D02*
X7790000Y-6740000D01*
X7790000Y-6710000D02*
X7760000Y-6740000D01*
X7810000Y-10610000D02*
X7840000Y-10640000D01*
X7840000Y-10610000D02*
X7810000Y-10640000D01*
X7835000Y-6710000D02*
X7865000Y-6740000D01*
X7865000Y-6710000D02*
X7835000Y-6740000D01*
X7885000Y-10610000D02*
X7915000Y-10640000D01*
X7915000Y-10610000D02*
X7885000Y-10640000D01*
X7910000Y-6710000D02*
X7940000Y-6740000D01*
X7940000Y-6710000D02*
X7910000Y-6740000D01*
X7910000Y-8635000D02*
X7940000Y-8665000D01*
X7940000Y-8635000D02*
X7910000Y-8665000D01*
X7960000Y-8585000D02*
X7990000Y-8615000D01*
X7990000Y-8585000D02*
X7960000Y-8615000D01*
X7960000Y-10610000D02*
X7990000Y-10640000D01*
X7990000Y-10610000D02*
X7960000Y-10640000D01*
X7985000Y-6710000D02*
X8015000Y-6740000D01*
X8015000Y-6710000D02*
X7985000Y-6740000D01*
X8010000Y-8535000D02*
X8040000Y-8565000D01*
X8040000Y-8535000D02*
X8010000Y-8565000D01*
X8035000Y-10610000D02*
X8065000Y-10640000D01*
X8065000Y-10610000D02*
X8035000Y-10640000D01*
X8060000Y-6710000D02*
X8090000Y-6740000D01*
X8090000Y-6710000D02*
X8060000Y-6740000D01*
X8060000Y-8485000D02*
X8090000Y-8515000D01*
X8090000Y-8485000D02*
X8060000Y-8515000D01*
X8085000Y-8960000D02*
X8115000Y-8990000D01*
X8115000Y-8960000D02*
X8085000Y-8990000D01*
X8110000Y-10610000D02*
X8140000Y-10640000D01*
X8140000Y-10610000D02*
X8110000Y-10640000D01*
X8135000Y-6710000D02*
X8165000Y-6740000D01*
X8165000Y-6710000D02*
X8135000Y-6740000D01*
X8135000Y-8485000D02*
X8165000Y-8515000D01*
X8165000Y-8485000D02*
X8135000Y-8515000D01*
X8135000Y-8910000D02*
X8165000Y-8940000D01*
X8165000Y-8910000D02*
X8135000Y-8940000D01*
X8185000Y-8860000D02*
X8215000Y-8890000D01*
X8215000Y-8860000D02*
X8185000Y-8890000D01*
X8185000Y-10610000D02*
X8215000Y-10640000D01*
X8215000Y-10610000D02*
X8185000Y-10640000D01*
X8210000Y-6710000D02*
X8240000Y-6740000D01*
X8240000Y-6710000D02*
X8210000Y-6740000D01*
X8235000Y-8810000D02*
X8265000Y-8840000D01*
X8265000Y-8810000D02*
X8235000Y-8840000D01*
X8260000Y-10610000D02*
X8290000Y-10640000D01*
X8290000Y-10610000D02*
X8260000Y-10640000D01*
X8285000Y-6710000D02*
X8315000Y-6740000D01*
X8315000Y-6710000D02*
X8285000Y-6740000D01*
X8310000Y-8810000D02*
X8340000Y-8840000D01*
X8340000Y-8810000D02*
X8310000Y-8840000D01*
X8335000Y-10610000D02*
X8365000Y-10640000D01*
X8365000Y-10610000D02*
X8335000Y-10640000D01*
X8360000Y-6710000D02*
X8390000Y-6740000D01*
X8390000Y-6710000D02*
X8360000Y-6740000D01*
X8410000Y-10610000D02*
X8440000Y-10640000D01*
X8440000Y-10610000D02*
X8410000Y-10640000D01*
X8435000Y-6710000D02*
X8465000Y-6740000D01*
X8465000Y-6710000D02*
X8435000Y-6740000D01*
X8485000Y-10610000D02*
X8515000Y-10640000D01*
X8515000Y-10610000D02*
X8485000Y-10640000D01*
X8510000Y-6710000D02*
X8540000Y-6740000D01*
X8540000Y-6710000D02*
X8510000Y-6740000D01*
X8560000Y-10610000D02*
X8590000Y-10640000D01*
X8590000Y-10610000D02*
X8560000Y-10640000D01*
X8585000Y-6710000D02*
X8615000Y-6740000D01*
X8615000Y-6710000D02*
X8585000Y-6740000D01*
X8635000Y-10610000D02*
X8665000Y-10640000D01*
X8665000Y-10610000D02*
X8635000Y-10640000D01*
X8660000Y-6710000D02*
X8690000Y-6740000D01*
X8690000Y-6710000D02*
X8660000Y-6740000D01*
X8710000Y-10610000D02*
X8740000Y-10640000D01*
X8740000Y-10610000D02*
X8710000Y-10640000D01*
X8735000Y-6710000D02*
X8765000Y-6740000D01*
X8765000Y-6710000D02*
X8735000Y-6740000D01*
X8735000Y-8410000D02*
X8765000Y-8440000D01*
X8765000Y-8410000D02*
X8735000Y-8440000D01*
X8785000Y-8460000D02*
X8815000Y-8490000D01*
X8815000Y-8460000D02*
X8785000Y-8490000D01*
X8785000Y-10610000D02*
X8815000Y-10640000D01*
X8815000Y-10610000D02*
X8785000Y-10640000D01*
X8810000Y-6710000D02*
X8840000Y-6740000D01*
X8840000Y-6710000D02*
X8810000Y-6740000D01*
X8810000Y-8160000D02*
X8840000Y-8190000D01*
X8840000Y-8160000D02*
X8810000Y-8190000D01*
X8835000Y-8510000D02*
X8865000Y-8540000D01*
X8865000Y-8510000D02*
X8835000Y-8540000D01*
X8860000Y-8210000D02*
X8890000Y-8240000D01*
X8890000Y-8210000D02*
X8860000Y-8240000D01*
X8860000Y-10610000D02*
X8890000Y-10640000D01*
X8890000Y-10610000D02*
X8860000Y-10640000D01*
X8885000Y-6710000D02*
X8915000Y-6740000D01*
X8915000Y-6710000D02*
X8885000Y-6740000D01*
X8910000Y-8260000D02*
X8940000Y-8290000D01*
X8940000Y-8260000D02*
X8910000Y-8290000D01*
X8935000Y-10610000D02*
X8965000Y-10640000D01*
X8965000Y-10610000D02*
X8935000Y-10640000D01*
X8960000Y-6710000D02*
X8990000Y-6740000D01*
X8990000Y-6710000D02*
X8960000Y-6740000D01*
X9010000Y-10610000D02*
X9040000Y-10640000D01*
X9040000Y-10610000D02*
X9010000Y-10640000D01*
X9035000Y-6710000D02*
X9065000Y-6740000D01*
X9065000Y-6710000D02*
X9035000Y-6740000D01*
X9085000Y-10610000D02*
X9115000Y-10640000D01*
X9115000Y-10610000D02*
X9085000Y-10640000D01*
X9110000Y-6710000D02*
X9140000Y-6740000D01*
X9140000Y-6710000D02*
X9110000Y-6740000D01*
X9160000Y-10610000D02*
X9190000Y-10640000D01*
X9190000Y-10610000D02*
X9160000Y-10640000D01*
X9185000Y-6710000D02*
X9215000Y-6740000D01*
X9215000Y-6710000D02*
X9185000Y-6740000D01*
X9235000Y-10610000D02*
X9265000Y-10640000D01*
X9265000Y-10610000D02*
X9235000Y-10640000D01*
X9260000Y-6710000D02*
X9290000Y-6740000D01*
X9290000Y-6710000D02*
X9260000Y-6740000D01*
X9335000Y-6710000D02*
X9365000Y-6740000D01*
X9365000Y-6710000D02*
X9335000Y-6740000D01*
X9410000Y-6710000D02*
X9440000Y-6740000D01*
X9440000Y-6710000D02*
X9410000Y-6740000D01*
X9485000Y-6710000D02*
X9515000Y-6740000D01*
X9515000Y-6710000D02*
X9485000Y-6740000D01*
X9560000Y-6710000D02*
X9590000Y-6740000D01*
X9590000Y-6710000D02*
X9560000Y-6740000D01*
X9635000Y-6710000D02*
X9665000Y-6740000D01*
X9665000Y-6710000D02*
X9635000Y-6740000D01*
X9685000Y-9010000D02*
X9715000Y-9040000D01*
X9715000Y-9010000D02*
X9685000Y-9040000D01*
X9710000Y-6710000D02*
X9740000Y-6740000D01*
X9740000Y-6710000D02*
X9710000Y-6740000D01*
X9785000Y-6710000D02*
X9815000Y-6740000D01*
X9815000Y-6710000D02*
X9785000Y-6740000D01*
X9860000Y-6710000D02*
X9890000Y-6740000D01*
X9890000Y-6710000D02*
X9860000Y-6740000D01*
X9935000Y-6710000D02*
X9965000Y-6740000D01*
X9965000Y-6710000D02*
X9935000Y-6740000D01*
X10010000Y-6710000D02*
X10040000Y-6740000D01*
X10040000Y-6710000D02*
X10010000Y-6740000D01*
X10035000Y-9960000D02*
X10065000Y-9990000D01*
X10065000Y-9960000D02*
X10035000Y-9990000D01*
X10085000Y-6710000D02*
X10115000Y-6740000D01*
X10115000Y-6710000D02*
X10085000Y-6740000D01*
X10110000Y-9960000D02*
X10140000Y-9990000D01*
X10140000Y-9960000D02*
X10110000Y-9990000D01*
X10160000Y-6710000D02*
X10190000Y-6740000D01*
X10190000Y-6710000D02*
X10160000Y-6740000D01*
X10185000Y-9960000D02*
X10215000Y-9990000D01*
X10215000Y-9960000D02*
X10185000Y-9990000D01*
X10235000Y-6710000D02*
X10265000Y-6740000D01*
X10265000Y-6710000D02*
X10235000Y-6740000D01*
X10260000Y-9960000D02*
X10290000Y-9990000D01*
X10290000Y-9960000D02*
X10260000Y-9990000D01*
X10310000Y-6710000D02*
X10340000Y-6740000D01*
X10340000Y-6710000D02*
X10310000Y-6740000D01*
X10335000Y-9960000D02*
X10365000Y-9990000D01*
X10365000Y-9960000D02*
X10335000Y-9990000D01*
X10385000Y-6710000D02*
X10415000Y-6740000D01*
X10415000Y-6710000D02*
X10385000Y-6740000D01*
X10410000Y-9960000D02*
X10440000Y-9990000D01*
X10440000Y-9960000D02*
X10410000Y-9990000D01*
X10460000Y-6710000D02*
X10490000Y-6740000D01*
X10490000Y-6710000D02*
X10460000Y-6740000D01*
X10485000Y-9960000D02*
X10515000Y-9990000D01*
X10515000Y-9960000D02*
X10485000Y-9990000D01*
X10535000Y-6710000D02*
X10565000Y-6740000D01*
X10565000Y-6710000D02*
X10535000Y-6740000D01*
X10560000Y-9810000D02*
X10590000Y-9840000D01*
X10590000Y-9810000D02*
X10560000Y-9840000D01*
X10560000Y-9885000D02*
X10590000Y-9915000D01*
X10590000Y-9885000D02*
X10560000Y-9915000D01*
X10560000Y-9960000D02*
X10590000Y-9990000D01*
X10590000Y-9960000D02*
X10560000Y-9990000D01*
X11110000Y-5485000D02*
X11140000Y-5515000D01*
X11140000Y-5485000D02*
X11110000Y-5515000D01*
X11110000Y-5560000D02*
X11140000Y-5590000D01*
X11140000Y-5560000D02*
X11110000Y-5590000D01*
X11110000Y-5635000D02*
X11140000Y-5665000D01*
X11140000Y-5635000D02*
X11110000Y-5665000D01*
X11110000Y-5710000D02*
X11140000Y-5740000D01*
X11140000Y-5710000D02*
X11110000Y-5740000D01*
X11110000Y-5785000D02*
X11140000Y-5815000D01*
X11140000Y-5785000D02*
X11110000Y-5815000D01*
X11110000Y-5860000D02*
X11140000Y-5890000D01*
X11140000Y-5860000D02*
X11110000Y-5890000D01*
X11110000Y-5935000D02*
X11140000Y-5965000D01*
X11140000Y-5935000D02*
X11110000Y-5965000D01*
X11110000Y-6010000D02*
X11140000Y-6040000D01*
X11140000Y-6010000D02*
X11110000Y-6040000D01*
X11110000Y-6085000D02*
X11140000Y-6115000D01*
X11140000Y-6085000D02*
X11110000Y-6115000D01*
X11110000Y-6160000D02*
X11140000Y-6190000D01*
X11140000Y-6160000D02*
X11110000Y-6190000D01*
X11110000Y-6235000D02*
X11140000Y-6265000D01*
X11140000Y-6235000D02*
X11110000Y-6265000D01*
X11110000Y-9810000D02*
X11140000Y-9840000D01*
X11140000Y-9810000D02*
X11110000Y-9840000D01*
X11110000Y-10060000D02*
X11140000Y-10090000D01*
X11140000Y-10060000D02*
X11110000Y-10090000D01*
X11110000Y-10310000D02*
X11140000Y-10340000D01*
X11140000Y-10310000D02*
X11110000Y-10340000D01*
X11110000Y-10610000D02*
X11140000Y-10640000D01*
X11140000Y-10610000D02*
X11110000Y-10640000D01*
X11110000Y-10860000D02*
X11140000Y-10890000D01*
X11140000Y-10860000D02*
X11110000Y-10890000D01*
X11110000Y-10935000D02*
X11140000Y-10965000D01*
X11140000Y-10935000D02*
X11110000Y-10965000D01*
X11110000Y-11010000D02*
X11140000Y-11040000D01*
X11140000Y-11010000D02*
X11110000Y-11040000D01*
X11110000Y-11085000D02*
X11140000Y-11115000D01*
X11140000Y-11085000D02*
X11110000Y-11115000D01*
X11110000Y-11160000D02*
X11140000Y-11190000D01*
X11140000Y-11160000D02*
X11110000Y-11190000D01*
X11160000Y-5435000D02*
X11190000Y-5465000D01*
X11190000Y-5435000D02*
X11160000Y-5465000D01*
X11185000Y-11160000D02*
X11215000Y-11190000D01*
X11215000Y-11160000D02*
X11185000Y-11190000D01*
X11210000Y-5385000D02*
X11240000Y-5415000D01*
X11240000Y-5385000D02*
X11210000Y-5415000D01*
X11260000Y-5335000D02*
X11290000Y-5365000D01*
X11290000Y-5335000D02*
X11260000Y-5365000D01*
X11260000Y-11160000D02*
X11290000Y-11190000D01*
X11290000Y-11160000D02*
X11260000Y-11190000D01*
X11310000Y-5285000D02*
X11340000Y-5315000D01*
X11340000Y-5285000D02*
X11310000Y-5315000D01*
X11335000Y-11160000D02*
X11365000Y-11190000D01*
X11365000Y-11160000D02*
X11335000Y-11190000D01*
X11360000Y-5235000D02*
X11390000Y-5265000D01*
X11390000Y-5235000D02*
X11360000Y-5265000D01*
X11410000Y-5185000D02*
X11440000Y-5215000D01*
X11440000Y-5185000D02*
X11410000Y-5215000D01*
X11410000Y-11160000D02*
X11440000Y-11190000D01*
X11440000Y-11160000D02*
X11410000Y-11190000D01*
X11460000Y-5135000D02*
X11490000Y-5165000D01*
X11490000Y-5135000D02*
X11460000Y-5165000D01*
X11485000Y-11160000D02*
X11515000Y-11190000D01*
X11515000Y-11160000D02*
X11485000Y-11190000D01*
X11510000Y-5085000D02*
X11540000Y-5115000D01*
X11540000Y-5085000D02*
X11510000Y-5115000D01*
X11560000Y-5035000D02*
X11590000Y-5065000D01*
X11590000Y-5035000D02*
X11560000Y-5065000D01*
X11560000Y-11160000D02*
X11590000Y-11190000D01*
X11590000Y-11160000D02*
X11560000Y-11190000D01*
X11610000Y-4985000D02*
X11640000Y-5015000D01*
X11640000Y-4985000D02*
X11610000Y-5015000D01*
X11635000Y-11160000D02*
X11665000Y-11190000D01*
X11665000Y-11160000D02*
X11635000Y-11190000D01*
X11660000Y-4935000D02*
X11690000Y-4965000D01*
X11690000Y-4935000D02*
X11660000Y-4965000D01*
X11710000Y-4885000D02*
X11740000Y-4915000D01*
X11740000Y-4885000D02*
X11710000Y-4915000D01*
X11710000Y-11160000D02*
X11740000Y-11190000D01*
X11740000Y-11160000D02*
X11710000Y-11190000D01*
X11760000Y-4835000D02*
X11790000Y-4865000D01*
X11790000Y-4835000D02*
X11760000Y-4865000D01*
X11785000Y-11160000D02*
X11815000Y-11190000D01*
X11815000Y-11160000D02*
X11785000Y-11190000D01*
X11810000Y-4785000D02*
X11840000Y-4815000D01*
X11840000Y-4785000D02*
X11810000Y-4815000D01*
X11860000Y-4735000D02*
X11890000Y-4765000D01*
X11890000Y-4735000D02*
X11860000Y-4765000D01*
X11860000Y-11160000D02*
X11890000Y-11190000D01*
X11890000Y-11160000D02*
X11860000Y-11190000D01*
X11910000Y-4685000D02*
X11940000Y-4715000D01*
X11940000Y-4685000D02*
X11910000Y-4715000D01*
X11960000Y-4635000D02*
X11990000Y-4665000D01*
X11990000Y-4635000D02*
X11960000Y-4665000D01*
X12010000Y-4585000D02*
X12040000Y-4615000D01*
X12040000Y-4585000D02*
X12010000Y-4615000D01*
X12060000Y-4535000D02*
X12090000Y-4565000D01*
X12090000Y-4535000D02*
X12060000Y-4565000D01*
X12110000Y-4485000D02*
X12140000Y-4515000D01*
X12140000Y-4485000D02*
X12110000Y-4515000D01*
X12160000Y-4435000D02*
X12190000Y-4465000D01*
X12190000Y-4435000D02*
X12160000Y-4465000D01*
X12210000Y-4385000D02*
X12240000Y-4415000D01*
X12240000Y-4385000D02*
X12210000Y-4415000D01*
X12210000Y-8785000D02*
X12240000Y-8815000D01*
X12240000Y-8785000D02*
X12210000Y-8815000D01*
X12260000Y-4335000D02*
X12290000Y-4365000D01*
X12290000Y-4335000D02*
X12260000Y-4365000D01*
X12260000Y-8835000D02*
X12290000Y-8865000D01*
X12290000Y-8835000D02*
X12260000Y-8865000D01*
X12310000Y-4285000D02*
X12340000Y-4315000D01*
X12340000Y-4285000D02*
X12310000Y-4315000D01*
X12310000Y-8885000D02*
X12340000Y-8915000D01*
X12340000Y-8885000D02*
X12310000Y-8915000D01*
X12360000Y-8610000D02*
X12390000Y-8640000D01*
X12390000Y-8610000D02*
X12360000Y-8640000D01*
X12360000Y-8935000D02*
X12390000Y-8965000D01*
X12390000Y-8935000D02*
X12360000Y-8965000D01*
X12385000Y-4285000D02*
X12415000Y-4315000D01*
X12415000Y-4285000D02*
X12385000Y-4315000D01*
X12410000Y-8660000D02*
X12440000Y-8690000D01*
X12440000Y-8660000D02*
X12410000Y-8690000D01*
X12460000Y-4285000D02*
X12490000Y-4315000D01*
X12490000Y-4285000D02*
X12460000Y-4315000D01*
X12460000Y-8710000D02*
X12490000Y-8740000D01*
X12490000Y-8710000D02*
X12460000Y-8740000D01*
X12510000Y-8760000D02*
X12540000Y-8790000D01*
X12540000Y-8760000D02*
X12510000Y-8790000D01*
X12535000Y-4285000D02*
X12565000Y-4315000D01*
X12565000Y-4285000D02*
X12535000Y-4315000D01*
X12585000Y-8285000D02*
X12615000Y-8315000D01*
X12615000Y-8285000D02*
X12585000Y-8315000D01*
X12585000Y-8360000D02*
X12615000Y-8390000D01*
X12615000Y-8360000D02*
X12585000Y-8390000D01*
X12585000Y-8435000D02*
X12615000Y-8465000D01*
X12615000Y-8435000D02*
X12585000Y-8465000D01*
X12585000Y-8510000D02*
X12615000Y-8540000D01*
X12615000Y-8510000D02*
X12585000Y-8540000D01*
X12610000Y-4285000D02*
X12640000Y-4315000D01*
X12640000Y-4285000D02*
X12610000Y-4315000D01*
X12685000Y-4285000D02*
X12715000Y-4315000D01*
X12715000Y-4285000D02*
X12685000Y-4315000D01*
X12760000Y-4285000D02*
X12790000Y-4315000D01*
X12790000Y-4285000D02*
X12760000Y-4315000D01*
X12810000Y-8285000D02*
X12840000Y-8315000D01*
X12840000Y-8285000D02*
X12810000Y-8315000D01*
X12810000Y-8360000D02*
X12840000Y-8390000D01*
X12840000Y-8360000D02*
X12810000Y-8390000D01*
X12810000Y-8435000D02*
X12840000Y-8465000D01*
X12840000Y-8435000D02*
X12810000Y-8465000D01*
X12810000Y-8510000D02*
X12840000Y-8540000D01*
X12840000Y-8510000D02*
X12810000Y-8540000D01*
X12835000Y-4285000D02*
X12865000Y-4315000D01*
X12865000Y-4285000D02*
X12835000Y-4315000D01*
X12910000Y-4285000D02*
X12940000Y-4315000D01*
X12940000Y-4285000D02*
X12910000Y-4315000D01*
X12948500Y-9435000D02*
X12978500Y-9465000D01*
X12978500Y-9435000D02*
X12948500Y-9465000D01*
X12985000Y-4285000D02*
X13015000Y-4315000D01*
X13015000Y-4285000D02*
X12985000Y-4315000D01*
X13060000Y-4285000D02*
X13090000Y-4315000D01*
X13090000Y-4285000D02*
X13060000Y-4315000D01*
X13110000Y-7435000D02*
X13140000Y-7465000D01*
X13140000Y-7435000D02*
X13110000Y-7465000D01*
X13110000Y-7510000D02*
X13140000Y-7540000D01*
X13140000Y-7510000D02*
X13110000Y-7540000D01*
X13110000Y-7585000D02*
X13140000Y-7615000D01*
X13140000Y-7585000D02*
X13110000Y-7615000D01*
X13110000Y-7660000D02*
X13140000Y-7690000D01*
X13140000Y-7660000D02*
X13110000Y-7690000D01*
X13135000Y-4285000D02*
X13165000Y-4315000D01*
X13165000Y-4285000D02*
X13135000Y-4315000D01*
X13210000Y-4285000D02*
X13240000Y-4315000D01*
X13240000Y-4285000D02*
X13210000Y-4315000D01*
X13285000Y-4285000D02*
X13315000Y-4315000D01*
X13315000Y-4285000D02*
X13285000Y-4315000D01*
X13335000Y-7435000D02*
X13365000Y-7465000D01*
X13365000Y-7435000D02*
X13335000Y-7465000D01*
X13335000Y-7510000D02*
X13365000Y-7540000D01*
X13365000Y-7510000D02*
X13335000Y-7540000D01*
X13335000Y-7585000D02*
X13365000Y-7615000D01*
X13365000Y-7585000D02*
X13335000Y-7615000D01*
X13335000Y-7660000D02*
X13365000Y-7690000D01*
X13365000Y-7660000D02*
X13335000Y-7690000D01*
X13360000Y-4285000D02*
X13390000Y-4315000D01*
X13390000Y-4285000D02*
X13360000Y-4315000D01*
X13435000Y-4285000D02*
X13465000Y-4315000D01*
X13465000Y-4285000D02*
X13435000Y-4315000D01*
X13510000Y-4285000D02*
X13540000Y-4315000D01*
X13540000Y-4285000D02*
X13510000Y-4315000D01*
X13585000Y-4285000D02*
X13615000Y-4315000D01*
X13615000Y-4285000D02*
X13585000Y-4315000D01*
X13660000Y-4285000D02*
X13690000Y-4315000D01*
X13690000Y-4285000D02*
X13660000Y-4315000D01*
X13735000Y-4285000D02*
X13765000Y-4315000D01*
X13765000Y-4285000D02*
X13735000Y-4315000D01*
X13810000Y-4285000D02*
X13840000Y-4315000D01*
X13840000Y-4285000D02*
X13810000Y-4315000D01*
X13885000Y-4285000D02*
X13915000Y-4315000D01*
X13915000Y-4285000D02*
X13885000Y-4315000D01*
X13960000Y-4285000D02*
X13990000Y-4315000D01*
X13990000Y-4285000D02*
X13960000Y-4315000D01*
X14035000Y-4285000D02*
X14065000Y-4315000D01*
X14065000Y-4285000D02*
X14035000Y-4315000D01*
X14035000Y-11160000D02*
X14065000Y-11190000D01*
X14065000Y-11160000D02*
X14035000Y-11190000D01*
X14110000Y-4285000D02*
X14140000Y-4315000D01*
X14140000Y-4285000D02*
X14110000Y-4315000D01*
X14110000Y-11160000D02*
X14140000Y-11190000D01*
X14140000Y-11160000D02*
X14110000Y-11190000D01*
X14185000Y-4285000D02*
X14215000Y-4315000D01*
X14215000Y-4285000D02*
X14185000Y-4315000D01*
X14185000Y-11160000D02*
X14215000Y-11190000D01*
X14215000Y-11160000D02*
X14185000Y-11190000D01*
X14260000Y-4285000D02*
X14290000Y-4315000D01*
X14290000Y-4285000D02*
X14260000Y-4315000D01*
X14260000Y-11160000D02*
X14290000Y-11190000D01*
X14290000Y-11160000D02*
X14260000Y-11190000D01*
X14335000Y-4285000D02*
X14365000Y-4315000D01*
X14365000Y-4285000D02*
X14335000Y-4315000D01*
X14335000Y-11160000D02*
X14365000Y-11190000D01*
X14365000Y-11160000D02*
X14335000Y-11190000D01*
X14410000Y-4285000D02*
X14440000Y-4315000D01*
X14440000Y-4285000D02*
X14410000Y-4315000D01*
X14410000Y-11160000D02*
X14440000Y-11190000D01*
X14440000Y-11160000D02*
X14410000Y-11190000D01*
X14485000Y-4285000D02*
X14515000Y-4315000D01*
X14515000Y-4285000D02*
X14485000Y-4315000D01*
X14485000Y-11160000D02*
X14515000Y-11190000D01*
X14515000Y-11160000D02*
X14485000Y-11190000D01*
X14560000Y-4285000D02*
X14590000Y-4315000D01*
X14590000Y-4285000D02*
X14560000Y-4315000D01*
X14560000Y-11160000D02*
X14590000Y-11190000D01*
X14590000Y-11160000D02*
X14560000Y-11190000D01*
X14635000Y-4285000D02*
X14665000Y-4315000D01*
X14665000Y-4285000D02*
X14635000Y-4315000D01*
X14635000Y-11160000D02*
X14665000Y-11190000D01*
X14665000Y-11160000D02*
X14635000Y-11190000D01*
X14710000Y-4285000D02*
X14740000Y-4315000D01*
X14740000Y-4285000D02*
X14710000Y-4315000D01*
X14710000Y-11160000D02*
X14740000Y-11190000D01*
X14740000Y-11160000D02*
X14710000Y-11190000D01*
X14785000Y-4285000D02*
X14815000Y-4315000D01*
X14815000Y-4285000D02*
X14785000Y-4315000D01*
X14785000Y-11160000D02*
X14815000Y-11190000D01*
X14815000Y-11160000D02*
X14785000Y-11190000D01*
X14860000Y-4285000D02*
X14890000Y-4315000D01*
X14890000Y-4285000D02*
X14860000Y-4315000D01*
X14860000Y-11160000D02*
X14890000Y-11190000D01*
X14890000Y-11160000D02*
X14860000Y-11190000D01*
X14935000Y-4285000D02*
X14965000Y-4315000D01*
X14965000Y-4285000D02*
X14935000Y-4315000D01*
X14935000Y-11160000D02*
X14965000Y-11190000D01*
X14965000Y-11160000D02*
X14935000Y-11190000D01*
X15010000Y-4285000D02*
X15040000Y-4315000D01*
X15040000Y-4285000D02*
X15010000Y-4315000D01*
X15010000Y-11160000D02*
X15040000Y-11190000D01*
X15040000Y-11160000D02*
X15010000Y-11190000D01*
X15085000Y-4285000D02*
X15115000Y-4315000D01*
X15115000Y-4285000D02*
X15085000Y-4315000D01*
X15085000Y-11160000D02*
X15115000Y-11190000D01*
X15115000Y-11160000D02*
X15085000Y-11190000D01*
X15160000Y-4285000D02*
X15190000Y-4315000D01*
X15190000Y-4285000D02*
X15160000Y-4315000D01*
X15160000Y-11160000D02*
X15190000Y-11190000D01*
X15190000Y-11160000D02*
X15160000Y-11190000D01*
X15235000Y-4285000D02*
X15265000Y-4315000D01*
X15265000Y-4285000D02*
X15235000Y-4315000D01*
X15235000Y-11160000D02*
X15265000Y-11190000D01*
X15265000Y-11160000D02*
X15235000Y-11190000D01*
X15310000Y-4285000D02*
X15340000Y-4315000D01*
X15340000Y-4285000D02*
X15310000Y-4315000D01*
X15310000Y-11160000D02*
X15340000Y-11190000D01*
X15340000Y-11160000D02*
X15310000Y-11190000D01*
X15385000Y-4285000D02*
X15415000Y-4315000D01*
X15415000Y-4285000D02*
X15385000Y-4315000D01*
X15385000Y-11160000D02*
X15415000Y-11190000D01*
X15415000Y-11160000D02*
X15385000Y-11190000D01*
X15460000Y-4285000D02*
X15490000Y-4315000D01*
X15490000Y-4285000D02*
X15460000Y-4315000D01*
X15460000Y-11160000D02*
X15490000Y-11190000D01*
X15490000Y-11160000D02*
X15460000Y-11190000D01*
X15535000Y-4285000D02*
X15565000Y-4315000D01*
X15565000Y-4285000D02*
X15535000Y-4315000D01*
X15535000Y-11160000D02*
X15565000Y-11190000D01*
X15565000Y-11160000D02*
X15535000Y-11190000D01*
X15610000Y-4285000D02*
X15640000Y-4315000D01*
X15640000Y-4285000D02*
X15610000Y-4315000D01*
X15610000Y-11160000D02*
X15640000Y-11190000D01*
X15640000Y-11160000D02*
X15610000Y-11190000D01*
X15685000Y-4285000D02*
X15715000Y-4315000D01*
X15715000Y-4285000D02*
X15685000Y-4315000D01*
X15685000Y-11160000D02*
X15715000Y-11190000D01*
X15715000Y-11160000D02*
X15685000Y-11190000D01*
X15760000Y-4285000D02*
X15790000Y-4315000D01*
X15790000Y-4285000D02*
X15760000Y-4315000D01*
X15760000Y-11160000D02*
X15790000Y-11190000D01*
X15790000Y-11160000D02*
X15760000Y-11190000D01*
X15835000Y-4285000D02*
X15865000Y-4315000D01*
X15865000Y-4285000D02*
X15835000Y-4315000D01*
X15835000Y-11160000D02*
X15865000Y-11190000D01*
X15865000Y-11160000D02*
X15835000Y-11190000D01*
X15910000Y-4310000D02*
X15940000Y-4340000D01*
X15940000Y-4310000D02*
X15910000Y-4340000D01*
X15910000Y-11160000D02*
X15940000Y-11190000D01*
X15940000Y-11160000D02*
X15910000Y-11190000D01*
X15985000Y-4360000D02*
X16015000Y-4390000D01*
X16015000Y-4360000D02*
X15985000Y-4390000D01*
X15985000Y-11160000D02*
X16015000Y-11190000D01*
X16015000Y-11160000D02*
X15985000Y-11190000D01*
X16035000Y-4435000D02*
X16065000Y-4465000D01*
X16065000Y-4435000D02*
X16035000Y-4465000D01*
X16060000Y-4510000D02*
X16090000Y-4540000D01*
X16090000Y-4510000D02*
X16060000Y-4540000D01*
X16060000Y-4585000D02*
X16090000Y-4615000D01*
X16090000Y-4585000D02*
X16060000Y-4615000D01*
X16060000Y-4660000D02*
X16090000Y-4690000D01*
X16090000Y-4660000D02*
X16060000Y-4690000D01*
X16060000Y-4735000D02*
X16090000Y-4765000D01*
X16090000Y-4735000D02*
X16060000Y-4765000D01*
X16060000Y-4810000D02*
X16090000Y-4840000D01*
X16090000Y-4810000D02*
X16060000Y-4840000D01*
X16060000Y-4885000D02*
X16090000Y-4915000D01*
X16090000Y-4885000D02*
X16060000Y-4915000D01*
X16060000Y-4960000D02*
X16090000Y-4990000D01*
X16090000Y-4960000D02*
X16060000Y-4990000D01*
X16060000Y-5035000D02*
X16090000Y-5065000D01*
X16090000Y-5035000D02*
X16060000Y-5065000D01*
X16060000Y-5110000D02*
X16090000Y-5140000D01*
X16090000Y-5110000D02*
X16060000Y-5140000D01*
X16060000Y-5185000D02*
X16090000Y-5215000D01*
X16090000Y-5185000D02*
X16060000Y-5215000D01*
X16060000Y-5260000D02*
X16090000Y-5290000D01*
X16090000Y-5260000D02*
X16060000Y-5290000D01*
X16060000Y-5335000D02*
X16090000Y-5365000D01*
X16090000Y-5335000D02*
X16060000Y-5365000D01*
X16060000Y-5410000D02*
X16090000Y-5440000D01*
X16090000Y-5410000D02*
X16060000Y-5440000D01*
X16060000Y-5485000D02*
X16090000Y-5515000D01*
X16090000Y-5485000D02*
X16060000Y-5515000D01*
X16060000Y-5560000D02*
X16090000Y-5590000D01*
X16090000Y-5560000D02*
X16060000Y-5590000D01*
X16060000Y-5635000D02*
X16090000Y-5665000D01*
X16090000Y-5635000D02*
X16060000Y-5665000D01*
X16060000Y-5710000D02*
X16090000Y-5740000D01*
X16090000Y-5710000D02*
X16060000Y-5740000D01*
X16060000Y-5785000D02*
X16090000Y-5815000D01*
X16090000Y-5785000D02*
X16060000Y-5815000D01*
X16060000Y-6860000D02*
X16090000Y-6890000D01*
X16090000Y-6860000D02*
X16060000Y-6890000D01*
X16060000Y-6935000D02*
X16090000Y-6965000D01*
X16090000Y-6935000D02*
X16060000Y-6965000D01*
X16060000Y-7010000D02*
X16090000Y-7040000D01*
X16090000Y-7010000D02*
X16060000Y-7040000D01*
X16060000Y-7085000D02*
X16090000Y-7115000D01*
X16090000Y-7085000D02*
X16060000Y-7115000D01*
X16060000Y-7160000D02*
X16090000Y-7190000D01*
X16090000Y-7160000D02*
X16060000Y-7190000D01*
X16060000Y-7235000D02*
X16090000Y-7265000D01*
X16090000Y-7235000D02*
X16060000Y-7265000D01*
X16060000Y-7310000D02*
X16090000Y-7340000D01*
X16090000Y-7310000D02*
X16060000Y-7340000D01*
X16060000Y-7985000D02*
X16090000Y-8015000D01*
X16090000Y-7985000D02*
X16060000Y-8015000D01*
X16060000Y-8060000D02*
X16090000Y-8090000D01*
X16090000Y-8060000D02*
X16060000Y-8090000D01*
X16060000Y-8135000D02*
X16090000Y-8165000D01*
X16090000Y-8135000D02*
X16060000Y-8165000D01*
X16060000Y-8210000D02*
X16090000Y-8240000D01*
X16090000Y-8210000D02*
X16060000Y-8240000D01*
X16060000Y-8285000D02*
X16090000Y-8315000D01*
X16090000Y-8285000D02*
X16060000Y-8315000D01*
X16060000Y-8360000D02*
X16090000Y-8390000D01*
X16090000Y-8360000D02*
X16060000Y-8390000D01*
X16060000Y-8435000D02*
X16090000Y-8465000D01*
X16090000Y-8435000D02*
X16060000Y-8465000D01*
X16060000Y-8510000D02*
X16090000Y-8540000D01*
X16090000Y-8510000D02*
X16060000Y-8540000D01*
X16060000Y-9235000D02*
X16090000Y-9265000D01*
X16090000Y-9235000D02*
X16060000Y-9265000D01*
X16060000Y-9310000D02*
X16090000Y-9340000D01*
X16090000Y-9310000D02*
X16060000Y-9340000D01*
X16060000Y-9385000D02*
X16090000Y-9415000D01*
X16090000Y-9385000D02*
X16060000Y-9415000D01*
X16060000Y-9460000D02*
X16090000Y-9490000D01*
X16090000Y-9460000D02*
X16060000Y-9490000D01*
X16060000Y-9535000D02*
X16090000Y-9565000D01*
X16090000Y-9535000D02*
X16060000Y-9565000D01*
X16060000Y-9610000D02*
X16090000Y-9640000D01*
X16090000Y-9610000D02*
X16060000Y-9640000D01*
X16060000Y-10710000D02*
X16090000Y-10740000D01*
X16090000Y-10710000D02*
X16060000Y-10740000D01*
X16060000Y-10785000D02*
X16090000Y-10815000D01*
X16090000Y-10785000D02*
X16060000Y-10815000D01*
X16060000Y-10860000D02*
X16090000Y-10890000D01*
X16090000Y-10860000D02*
X16060000Y-10890000D01*
X16060000Y-10935000D02*
X16090000Y-10965000D01*
X16090000Y-10935000D02*
X16060000Y-10965000D01*
X16060000Y-11010000D02*
X16090000Y-11040000D01*
X16090000Y-11010000D02*
X16060000Y-11040000D01*
X16060000Y-11085000D02*
X16090000Y-11115000D01*
X16090000Y-11085000D02*
X16060000Y-11115000D01*
X16060000Y-11160000D02*
X16090000Y-11190000D01*
X16090000Y-11160000D02*
X16060000Y-11190000D01*
X5925000Y-7833000D02*
G75*
G02*
X5885000Y-7833000I-20000J0D01*
G01*
X5885000Y-7833000D02*
G75*
G02*
X5925000Y-7833000I20000J0D01*
G01*
X5925000Y-8383000D02*
G75*
G02*
X5885000Y-8383000I-20000J0D01*
G01*
X5885000Y-8383000D02*
G75*
G02*
X5925000Y-8383000I20000J0D01*
G01*
X6475000Y-8383000D02*
G75*
G02*
X6435000Y-8383000I-20000J0D01*
G01*
X6435000Y-8383000D02*
G75*
G02*
X6475000Y-8383000I20000J0D01*
G01*
X6845000Y-7588000D02*
G75*
G02*
X6805000Y-7588000I-20000J0D01*
G01*
X6805000Y-7588000D02*
G75*
G02*
X6845000Y-7588000I20000J0D01*
G01*
X6895750Y-9529000D02*
G75*
G02*
X6855750Y-9529000I-20000J0D01*
G01*
X6855750Y-9529000D02*
G75*
G02*
X6895750Y-9529000I20000J0D01*
G01*
X7192875Y-9533625D02*
G75*
G02*
X7152875Y-9533625I-20000J0D01*
G01*
X7152875Y-9533625D02*
G75*
G02*
X7192875Y-9533625I20000J0D01*
G01*
X7642000Y-9714000D02*
G75*
G02*
X7602000Y-9714000I-20000J0D01*
G01*
X7602000Y-9714000D02*
G75*
G02*
X7642000Y-9714000I20000J0D01*
G01*
X7707000Y-9232000D02*
G75*
G02*
X7667000Y-9232000I-20000J0D01*
G01*
X7667000Y-9232000D02*
G75*
G02*
X7707000Y-9232000I20000J0D01*
G01*
X7728750Y-7804000D02*
G75*
G02*
X7688750Y-7804000I-20000J0D01*
G01*
X7688750Y-7804000D02*
G75*
G02*
X7728750Y-7804000I20000J0D01*
G01*
X8025000Y-7795250D02*
G75*
G02*
X7985000Y-7795250I-20000J0D01*
G01*
X7985000Y-7795250D02*
G75*
G02*
X8025000Y-7795250I20000J0D01*
G01*
X8095750Y-9529000D02*
G75*
G02*
X8055750Y-9529000I-20000J0D01*
G01*
X8055750Y-9529000D02*
G75*
G02*
X8095750Y-9529000I20000J0D01*
G01*
X8388250Y-9529000D02*
G75*
G02*
X8348250Y-9529000I-20000J0D01*
G01*
X8348250Y-9529000D02*
G75*
G02*
X8388250Y-9529000I20000J0D01*
G01*
X8475000Y-7625000D02*
G75*
G02*
X8435000Y-7625000I-20000J0D01*
G01*
X8435000Y-7625000D02*
G75*
G02*
X8475000Y-7625000I20000J0D01*
G01*
X8495000Y-8283000D02*
G75*
G02*
X8455000Y-8283000I-20000J0D01*
G01*
X8455000Y-8283000D02*
G75*
G02*
X8495000Y-8283000I20000J0D01*
G01*
X8541250Y-8129000D02*
G75*
G02*
X8501250Y-8129000I-20000J0D01*
G01*
X8501250Y-8129000D02*
G75*
G02*
X8541250Y-8129000I20000J0D01*
G01*
X8925000Y-7795250D02*
G75*
G02*
X8885000Y-7795250I-20000J0D01*
G01*
X8885000Y-7795250D02*
G75*
G02*
X8925000Y-7795250I20000J0D01*
G01*
X9221250Y-7804000D02*
G75*
G02*
X9181250Y-7804000I-20000J0D01*
G01*
X9181250Y-7804000D02*
G75*
G02*
X9221250Y-7804000I20000J0D01*
G01*
X10200000Y-9146500D02*
G75*
G02*
X10160000Y-9146500I-20000J0D01*
G01*
X10160000Y-9146500D02*
G75*
G02*
X10200000Y-9146500I20000J0D01*
G01*
X10541250Y-8875000D02*
G75*
G02*
X10501250Y-8875000I-20000J0D01*
G01*
X10501250Y-8875000D02*
G75*
G02*
X10541250Y-8875000I20000J0D01*
G01*
X10541250Y-9400000D02*
G75*
G02*
X10501250Y-9400000I-20000J0D01*
G01*
X10501250Y-9400000D02*
G75*
G02*
X10541250Y-9400000I20000J0D01*
G01*
X10550000Y-8013000D02*
G75*
G02*
X10510000Y-8013000I-20000J0D01*
G01*
X10510000Y-8013000D02*
G75*
G02*
X10550000Y-8013000I20000J0D01*
G01*
X10613000Y-7621500D02*
G75*
G02*
X10573000Y-7621500I-20000J0D01*
G01*
X10573000Y-7621500D02*
G75*
G02*
X10613000Y-7621500I20000J0D01*
G01*
X10613000Y-8633000D02*
G75*
G02*
X10573000Y-8633000I-20000J0D01*
G01*
X10573000Y-8633000D02*
G75*
G02*
X10613000Y-8633000I20000J0D01*
G01*
X10618750Y-7283000D02*
G75*
G02*
X10578750Y-7283000I-20000J0D01*
G01*
X10578750Y-7283000D02*
G75*
G02*
X10618750Y-7283000I20000J0D01*
G01*
X11121000Y-7621500D02*
G75*
G02*
X11081000Y-7621500I-20000J0D01*
G01*
X11081000Y-7621500D02*
G75*
G02*
X11121000Y-7621500I20000J0D01*
G01*
X11200000Y-8910000D02*
G75*
G02*
X11160000Y-8910000I-20000J0D01*
G01*
X11160000Y-8910000D02*
G75*
G02*
X11200000Y-8910000I20000J0D01*
G01*
X11200000Y-9430000D02*
G75*
G02*
X11160000Y-9430000I-20000J0D01*
G01*
X11160000Y-9430000D02*
G75*
G02*
X11200000Y-9430000I20000J0D01*
G01*
X11370000Y-10200000D02*
G75*
G02*
X11330000Y-10200000I-20000J0D01*
G01*
X11330000Y-10200000D02*
G75*
G02*
X11370000Y-10200000I20000J0D01*
G01*
X11370000Y-10750000D02*
G75*
G02*
X11330000Y-10750000I-20000J0D01*
G01*
X11330000Y-10750000D02*
G75*
G02*
X11370000Y-10750000I20000J0D01*
G01*
X11420000Y-6150000D02*
G75*
G02*
X11380000Y-6150000I-20000J0D01*
G01*
X11380000Y-6150000D02*
G75*
G02*
X11420000Y-6150000I20000J0D01*
G01*
X11566250Y-9158000D02*
G75*
G02*
X11526250Y-9158000I-20000J0D01*
G01*
X11526250Y-9158000D02*
G75*
G02*
X11566250Y-9158000I20000J0D01*
G01*
X11566250Y-9683000D02*
G75*
G02*
X11526250Y-9683000I-20000J0D01*
G01*
X11526250Y-9683000D02*
G75*
G02*
X11566250Y-9683000I20000J0D01*
G01*
X11761250Y-9158000D02*
G75*
G02*
X11721250Y-9158000I-20000J0D01*
G01*
X11721250Y-9158000D02*
G75*
G02*
X11761250Y-9158000I20000J0D01*
G01*
X12303750Y-10425000D02*
G75*
G02*
X12263750Y-10425000I-20000J0D01*
G01*
X12263750Y-10425000D02*
G75*
G02*
X12303750Y-10425000I20000J0D01*
G01*
X12486250Y-10425000D02*
G75*
G02*
X12446250Y-10425000I-20000J0D01*
G01*
X12446250Y-10425000D02*
G75*
G02*
X12486250Y-10425000I20000J0D01*
G01*
X12602500Y-10800000D02*
G75*
G02*
X12562500Y-10800000I-20000J0D01*
G01*
X12562500Y-10800000D02*
G75*
G02*
X12602500Y-10800000I20000J0D01*
G01*
X12832500Y-10420000D02*
G75*
G02*
X12792500Y-10420000I-20000J0D01*
G01*
X12792500Y-10420000D02*
G75*
G02*
X12832500Y-10420000I20000J0D01*
G01*
X12832500Y-10845000D02*
G75*
G02*
X12792500Y-10845000I-20000J0D01*
G01*
X12792500Y-10845000D02*
G75*
G02*
X12832500Y-10845000I20000J0D01*
G01*
X13022500Y-10420000D02*
G75*
G02*
X12982500Y-10420000I-20000J0D01*
G01*
X12982500Y-10420000D02*
G75*
G02*
X13022500Y-10420000I20000J0D01*
G01*
X13022500Y-10845000D02*
G75*
G02*
X12982500Y-10845000I-20000J0D01*
G01*
X12982500Y-10845000D02*
G75*
G02*
X13022500Y-10845000I20000J0D01*
G01*
X13157500Y-9895000D02*
G75*
G02*
X13117500Y-9895000I-20000J0D01*
G01*
X13117500Y-9895000D02*
G75*
G02*
X13157500Y-9895000I20000J0D01*
G01*
X13202500Y-10788750D02*
G75*
G02*
X13162500Y-10788750I-20000J0D01*
G01*
X13162500Y-10788750D02*
G75*
G02*
X13202500Y-10788750I20000J0D01*
G01*
X13207500Y-10420000D02*
G75*
G02*
X13167500Y-10420000I-20000J0D01*
G01*
X13167500Y-10420000D02*
G75*
G02*
X13207500Y-10420000I20000J0D01*
G01*
X13257500Y-9470000D02*
G75*
G02*
X13217500Y-9470000I-20000J0D01*
G01*
X13217500Y-9470000D02*
G75*
G02*
X13257500Y-9470000I20000J0D01*
G01*
X13402500Y-10788750D02*
G75*
G02*
X13362500Y-10788750I-20000J0D01*
G01*
X13362500Y-10788750D02*
G75*
G02*
X13402500Y-10788750I20000J0D01*
G01*
X13402500Y-11001250D02*
G75*
G02*
X13362500Y-11001250I-20000J0D01*
G01*
X13362500Y-11001250D02*
G75*
G02*
X13402500Y-11001250I20000J0D01*
G01*
X13920000Y-6686250D02*
G75*
G02*
X13880000Y-6686250I-20000J0D01*
G01*
X13880000Y-6686250D02*
G75*
G02*
X13920000Y-6686250I20000J0D01*
G01*
X13920000Y-7961250D02*
G75*
G02*
X13880000Y-7961250I-20000J0D01*
G01*
X13880000Y-7961250D02*
G75*
G02*
X13920000Y-7961250I20000J0D01*
G01*
X13920000Y-9236250D02*
G75*
G02*
X13880000Y-9236250I-20000J0D01*
G01*
X13880000Y-9236250D02*
G75*
G02*
X13920000Y-9236250I20000J0D01*
G01*
X14020000Y-5105000D02*
G75*
G02*
X13980000Y-5105000I-20000J0D01*
G01*
X13980000Y-5105000D02*
G75*
G02*
X14020000Y-5105000I20000J0D01*
G01*
X14020000Y-5348000D02*
G75*
G02*
X13980000Y-5348000I-20000J0D01*
G01*
X13980000Y-5348000D02*
G75*
G02*
X14020000Y-5348000I20000J0D01*
G01*
X14270000Y-5870000D02*
G75*
G02*
X14230000Y-5870000I-20000J0D01*
G01*
X14230000Y-5870000D02*
G75*
G02*
X14270000Y-5870000I20000J0D01*
G01*
X14270000Y-7145000D02*
G75*
G02*
X14230000Y-7145000I-20000J0D01*
G01*
X14230000Y-7145000D02*
G75*
G02*
X14270000Y-7145000I20000J0D01*
G01*
X14270000Y-8420000D02*
G75*
G02*
X14230000Y-8420000I-20000J0D01*
G01*
X14230000Y-8420000D02*
G75*
G02*
X14270000Y-8420000I20000J0D01*
G01*
X14270000Y-9695000D02*
G75*
G02*
X14230000Y-9695000I-20000J0D01*
G01*
X14230000Y-9695000D02*
G75*
G02*
X14270000Y-9695000I20000J0D01*
G01*
X14695000Y-5975000D02*
G75*
G02*
X14655000Y-5975000I-20000J0D01*
G01*
X14655000Y-5975000D02*
G75*
G02*
X14695000Y-5975000I20000J0D01*
G01*
X14695000Y-7250000D02*
G75*
G02*
X14655000Y-7250000I-20000J0D01*
G01*
X14655000Y-7250000D02*
G75*
G02*
X14695000Y-7250000I20000J0D01*
G01*
X14695000Y-8525000D02*
G75*
G02*
X14655000Y-8525000I-20000J0D01*
G01*
X14655000Y-8525000D02*
G75*
G02*
X14695000Y-8525000I20000J0D01*
G01*
X14695000Y-9800000D02*
G75*
G02*
X14655000Y-9800000I-20000J0D01*
G01*
X14655000Y-9800000D02*
G75*
G02*
X14695000Y-9800000I20000J0D01*
G01*
X14795000Y-5348000D02*
G75*
G02*
X14755000Y-5348000I-20000J0D01*
G01*
X14755000Y-5348000D02*
G75*
G02*
X14795000Y-5348000I20000J0D01*
G01*
X15113750Y-6025000D02*
G75*
G02*
X15073750Y-6025000I-20000J0D01*
G01*
X15073750Y-6025000D02*
G75*
G02*
X15113750Y-6025000I20000J0D01*
G01*
X15113750Y-7295000D02*
G75*
G02*
X15073750Y-7295000I-20000J0D01*
G01*
X15073750Y-7295000D02*
G75*
G02*
X15113750Y-7295000I20000J0D01*
G01*
X15113750Y-8570000D02*
G75*
G02*
X15073750Y-8570000I-20000J0D01*
G01*
X15073750Y-8570000D02*
G75*
G02*
X15113750Y-8570000I20000J0D01*
G01*
X15113750Y-9845000D02*
G75*
G02*
X15073750Y-9845000I-20000J0D01*
G01*
X15073750Y-9845000D02*
G75*
G02*
X15113750Y-9845000I20000J0D01*
G01*
X11902500Y-10172500D02*
X11902500Y-10272500D01*
X11852500Y-10222500D02*
X11952500Y-10222500D01*
X11902500Y-10426500D02*
X11902500Y-10526500D01*
X11852500Y-10476500D02*
X11952500Y-10476500D01*
D13*
X7358063Y-10240063D02*
X7358063Y-10167937D01*
X7285937Y-10167937D01*
X7285937Y-10240063D01*
X7358063Y-10240063D01*
X7658063Y-10240063D02*
X7658063Y-10167937D01*
X7585937Y-10167937D01*
X7585937Y-10240063D01*
X7658063Y-10240063D01*
X7958063Y-10240063D02*
X7958063Y-10167937D01*
X7885937Y-10167937D01*
X7885937Y-10240063D01*
X7958063Y-10240063D01*
X8191063Y-7165063D02*
X8191063Y-7092937D01*
X8118937Y-7092937D01*
X8118937Y-7165063D01*
X8191063Y-7165063D01*
X8491063Y-7165063D02*
X8491063Y-7092937D01*
X8418937Y-7092937D01*
X8418937Y-7165063D01*
X8491063Y-7165063D01*
X8791063Y-7165063D02*
X8791063Y-7092937D01*
X8718937Y-7092937D01*
X8718937Y-7165063D01*
X8791063Y-7165063D01*
X12436063Y-11486063D02*
X12436063Y-11413937D01*
X12363937Y-11413937D01*
X12363937Y-11486063D01*
X12436063Y-11486063D01*
X12436063Y-12636063D02*
X12436063Y-12563937D01*
X12363937Y-12563937D01*
X12363937Y-12636063D01*
X12436063Y-12636063D01*
X12736063Y-11486063D02*
X12736063Y-11413937D01*
X12663937Y-11413937D01*
X12663937Y-11486063D01*
X12736063Y-11486063D01*
X12736063Y-12636063D02*
X12736063Y-12563937D01*
X12663937Y-12563937D01*
X12663937Y-12636063D01*
X12736063Y-12636063D01*
X13036063Y-11486063D02*
X13036063Y-11413937D01*
X12963937Y-11413937D01*
X12963937Y-11486063D01*
X13036063Y-11486063D01*
X13036063Y-12636063D02*
X13036063Y-12563937D01*
X12963937Y-12563937D01*
X12963937Y-12636063D01*
X13036063Y-12636063D01*
X13336063Y-11486063D02*
X13336063Y-11413937D01*
X13263937Y-11413937D01*
X13263937Y-11486063D01*
X13336063Y-11486063D01*
X13336063Y-12636063D02*
X13336063Y-12563937D01*
X13263937Y-12563937D01*
X13263937Y-12636063D01*
X13336063Y-12636063D01*
X14586063Y-6436063D02*
X14586063Y-6363937D01*
X14513937Y-6363937D01*
X14513937Y-6436063D01*
X14586063Y-6436063D01*
X14586063Y-7706063D02*
X14586063Y-7633937D01*
X14513937Y-7633937D01*
X14513937Y-7706063D01*
X14586063Y-7706063D01*
X14586063Y-8981063D02*
X14586063Y-8908937D01*
X14513937Y-8908937D01*
X14513937Y-8981063D01*
X14586063Y-8981063D01*
X14586063Y-10256063D02*
X14586063Y-10183937D01*
X14513937Y-10183937D01*
X14513937Y-10256063D01*
X14586063Y-10256063D01*
X14611063Y-5086063D02*
X14611063Y-5013937D01*
X14538937Y-5013937D01*
X14538937Y-5086063D01*
X14611063Y-5086063D01*
X14886063Y-6436063D02*
X14886063Y-6363937D01*
X14813937Y-6363937D01*
X14813937Y-6436063D01*
X14886063Y-6436063D01*
X14886063Y-7706063D02*
X14886063Y-7633937D01*
X14813937Y-7633937D01*
X14813937Y-7706063D01*
X14886063Y-7706063D01*
X14886063Y-8981063D02*
X14886063Y-8908937D01*
X14813937Y-8908937D01*
X14813937Y-8981063D01*
X14886063Y-8981063D01*
X14886063Y-10256063D02*
X14886063Y-10183937D01*
X14813937Y-10183937D01*
X14813937Y-10256063D01*
X14886063Y-10256063D01*
X14911063Y-5086063D02*
X14911063Y-5013937D01*
X14838937Y-5013937D01*
X14838937Y-5086063D01*
X14911063Y-5086063D01*
X15186063Y-6436063D02*
X15186063Y-6363937D01*
X15113937Y-6363937D01*
X15113937Y-6436063D01*
X15186063Y-6436063D01*
X15186063Y-7706063D02*
X15186063Y-7633937D01*
X15113937Y-7633937D01*
X15113937Y-7706063D01*
X15186063Y-7706063D01*
X15186063Y-8981063D02*
X15186063Y-8908937D01*
X15113937Y-8908937D01*
X15113937Y-8981063D01*
X15186063Y-8981063D01*
X15186063Y-10256063D02*
X15186063Y-10183937D01*
X15113937Y-10183937D01*
X15113937Y-10256063D01*
X15186063Y-10256063D01*
X15486063Y-6436063D02*
X15486063Y-6363937D01*
X15413937Y-6363937D01*
X15413937Y-6436063D01*
X15486063Y-6436063D01*
X15486063Y-7706063D02*
X15486063Y-7633937D01*
X15413937Y-7633937D01*
X15413937Y-7706063D01*
X15486063Y-7706063D01*
X15486063Y-8981063D02*
X15486063Y-8908937D01*
X15413937Y-8908937D01*
X15413937Y-8981063D01*
X15486063Y-8981063D01*
X15486063Y-10256063D02*
X15486063Y-10183937D01*
X15413937Y-10183937D01*
X15413937Y-10256063D01*
X15486063Y-10256063D01*
D14*
X11988000Y-5399054D02*
X12039054Y-5348000D01*
X11988000Y-5296946D01*
X11936946Y-5348000D01*
X11988000Y-5399054D01*
X11988000Y-5653054D02*
X12039054Y-5602000D01*
X11988000Y-5550946D01*
X11936946Y-5602000D01*
X11988000Y-5653054D01*
X11988000Y-5907054D02*
X12039054Y-5856000D01*
X11988000Y-5804946D01*
X11936946Y-5856000D01*
X11988000Y-5907054D01*
X11988000Y-6161054D02*
X12039054Y-6110000D01*
X11988000Y-6058946D01*
X11936946Y-6110000D01*
X11988000Y-6161054D01*
X11988000Y-6415054D02*
X12039054Y-6364000D01*
X11988000Y-6312946D01*
X11936946Y-6364000D01*
X11988000Y-6415054D01*
X11988000Y-6669054D02*
X12039054Y-6618000D01*
X11988000Y-6566946D01*
X11936946Y-6618000D01*
X11988000Y-6669054D01*
X11988000Y-6923054D02*
X12039054Y-6872000D01*
X11988000Y-6820946D01*
X11936946Y-6872000D01*
X11988000Y-6923054D01*
X11988000Y-7177054D02*
X12039054Y-7126000D01*
X11988000Y-7074946D01*
X11936946Y-7126000D01*
X11988000Y-7177054D01*
X11988000Y-7431054D02*
X12039054Y-7380000D01*
X11988000Y-7328946D01*
X11936946Y-7380000D01*
X11988000Y-7431054D01*
X11988000Y-7685054D02*
X12039054Y-7634000D01*
X11988000Y-7582946D01*
X11936946Y-7634000D01*
X11988000Y-7685054D01*
X11988000Y-7939054D02*
X12039054Y-7888000D01*
X11988000Y-7836946D01*
X11936946Y-7888000D01*
X11988000Y-7939054D01*
X11988000Y-8193054D02*
X12039054Y-8142000D01*
X11988000Y-8090946D01*
X11936946Y-8142000D01*
X11988000Y-8193054D01*
X11988000Y-8447054D02*
X12039054Y-8396000D01*
X11988000Y-8344946D01*
X11936946Y-8396000D01*
X11988000Y-8447054D01*
X11988000Y-8701054D02*
X12039054Y-8650000D01*
X11988000Y-8598946D01*
X11936946Y-8650000D01*
X11988000Y-8701054D01*
X11988000Y-8955054D02*
X12039054Y-8904000D01*
X11988000Y-8852946D01*
X11936946Y-8904000D01*
X11988000Y-8955054D01*
X13512000Y-5399054D02*
X13563054Y-5348000D01*
X13512000Y-5296946D01*
X13460946Y-5348000D01*
X13512000Y-5399054D01*
X13512000Y-5653054D02*
X13563054Y-5602000D01*
X13512000Y-5550946D01*
X13460946Y-5602000D01*
X13512000Y-5653054D01*
X13512000Y-5907054D02*
X13563054Y-5856000D01*
X13512000Y-5804946D01*
X13460946Y-5856000D01*
X13512000Y-5907054D01*
X13512000Y-6161054D02*
X13563054Y-6110000D01*
X13512000Y-6058946D01*
X13460946Y-6110000D01*
X13512000Y-6161054D01*
X13512000Y-6415054D02*
X13563054Y-6364000D01*
X13512000Y-6312946D01*
X13460946Y-6364000D01*
X13512000Y-6415054D01*
X13512000Y-6669054D02*
X13563054Y-6618000D01*
X13512000Y-6566946D01*
X13460946Y-6618000D01*
X13512000Y-6669054D01*
X13512000Y-6923054D02*
X13563054Y-6872000D01*
X13512000Y-6820946D01*
X13460946Y-6872000D01*
X13512000Y-6923054D01*
X13512000Y-7177054D02*
X13563054Y-7126000D01*
X13512000Y-7074946D01*
X13460946Y-7126000D01*
X13512000Y-7177054D01*
X13512000Y-7431054D02*
X13563054Y-7380000D01*
X13512000Y-7328946D01*
X13460946Y-7380000D01*
X13512000Y-7431054D01*
X13512000Y-7685054D02*
X13563054Y-7634000D01*
X13512000Y-7582946D01*
X13460946Y-7634000D01*
X13512000Y-7685054D01*
X13512000Y-7939054D02*
X13563054Y-7888000D01*
X13512000Y-7836946D01*
X13460946Y-7888000D01*
X13512000Y-7939054D01*
X13512000Y-8193054D02*
X13563054Y-8142000D01*
X13512000Y-8090946D01*
X13460946Y-8142000D01*
X13512000Y-8193054D01*
X13512000Y-8447054D02*
X13563054Y-8396000D01*
X13512000Y-8344946D01*
X13460946Y-8396000D01*
X13512000Y-8447054D01*
X13512000Y-8701054D02*
X13563054Y-8650000D01*
X13512000Y-8598946D01*
X13460946Y-8650000D01*
X13512000Y-8701054D01*
X13512000Y-8955054D02*
X13563054Y-8904000D01*
X13512000Y-8852946D01*
X13460946Y-8904000D01*
X13512000Y-8955054D01*
D15*
X6163000Y-9090000D02*
X6341000Y-9268000D01*
X6341000Y-9090000D02*
X6163000Y-9268000D01*
X6341000Y-9179000D02*
G75*
G02*
X6163000Y-9179000I-89000J0D01*
G01*
X6163000Y-9179000D02*
G75*
G02*
X6341000Y-9179000I89000J0D01*
G01*
X6163000Y-10082000D02*
X6341000Y-10260000D01*
X6341000Y-10082000D02*
X6163000Y-10260000D01*
X6341000Y-10171000D02*
G75*
G02*
X6163000Y-10171000I-89000J0D01*
G01*
X6163000Y-10171000D02*
G75*
G02*
X6341000Y-10171000I89000J0D01*
G01*
X6503000Y-9090000D02*
X6681000Y-9268000D01*
X6681000Y-9090000D02*
X6503000Y-9268000D01*
X6681000Y-9179000D02*
G75*
G02*
X6503000Y-9179000I-89000J0D01*
G01*
X6503000Y-9179000D02*
G75*
G02*
X6681000Y-9179000I89000J0D01*
G01*
X6503000Y-10082000D02*
X6681000Y-10260000D01*
X6681000Y-10082000D02*
X6503000Y-10260000D01*
X6681000Y-10171000D02*
G75*
G02*
X6503000Y-10171000I-89000J0D01*
G01*
X6503000Y-10171000D02*
G75*
G02*
X6681000Y-10171000I89000J0D01*
G01*
X6996000Y-7069000D02*
X7174000Y-7247000D01*
X7174000Y-7069000D02*
X6996000Y-7247000D01*
X7174000Y-7158000D02*
G75*
G02*
X6996000Y-7158000I-89000J0D01*
G01*
X6996000Y-7158000D02*
G75*
G02*
X7174000Y-7158000I89000J0D01*
G01*
X6996000Y-8061000D02*
X7174000Y-8239000D01*
X7174000Y-8061000D02*
X6996000Y-8239000D01*
X7174000Y-8150000D02*
G75*
G02*
X6996000Y-8150000I-89000J0D01*
G01*
X6996000Y-8150000D02*
G75*
G02*
X7174000Y-8150000I89000J0D01*
G01*
X7336000Y-7069000D02*
X7514000Y-7247000D01*
X7514000Y-7069000D02*
X7336000Y-7247000D01*
X7514000Y-7158000D02*
G75*
G02*
X7336000Y-7158000I-89000J0D01*
G01*
X7336000Y-7158000D02*
G75*
G02*
X7514000Y-7158000I89000J0D01*
G01*
X7336000Y-8061000D02*
X7514000Y-8239000D01*
X7514000Y-8061000D02*
X7336000Y-8239000D01*
X7514000Y-8150000D02*
G75*
G02*
X7336000Y-8150000I-89000J0D01*
G01*
X7336000Y-8150000D02*
G75*
G02*
X7514000Y-8150000I89000J0D01*
G01*
X8558000Y-9094000D02*
X8736000Y-9272000D01*
X8736000Y-9094000D02*
X8558000Y-9272000D01*
X8736000Y-9183000D02*
G75*
G02*
X8558000Y-9183000I-89000J0D01*
G01*
X8558000Y-9183000D02*
G75*
G02*
X8736000Y-9183000I89000J0D01*
G01*
X8558000Y-10086000D02*
X8736000Y-10264000D01*
X8736000Y-10086000D02*
X8558000Y-10264000D01*
X8736000Y-10175000D02*
G75*
G02*
X8558000Y-10175000I-89000J0D01*
G01*
X8558000Y-10175000D02*
G75*
G02*
X8736000Y-10175000I89000J0D01*
G01*
X8898000Y-9094000D02*
X9076000Y-9272000D01*
X9076000Y-9094000D02*
X8898000Y-9272000D01*
X9076000Y-9183000D02*
G75*
G02*
X8898000Y-9183000I-89000J0D01*
G01*
X8898000Y-9183000D02*
G75*
G02*
X9076000Y-9183000I89000J0D01*
G01*
X8898000Y-10086000D02*
X9076000Y-10264000D01*
X9076000Y-10086000D02*
X8898000Y-10264000D01*
X9076000Y-10175000D02*
G75*
G02*
X8898000Y-10175000I-89000J0D01*
G01*
X8898000Y-10175000D02*
G75*
G02*
X9076000Y-10175000I89000J0D01*
G01*
X9396000Y-7069000D02*
X9574000Y-7247000D01*
X9574000Y-7069000D02*
X9396000Y-7247000D01*
X9574000Y-7158000D02*
G75*
G02*
X9396000Y-7158000I-89000J0D01*
G01*
X9396000Y-7158000D02*
G75*
G02*
X9574000Y-7158000I89000J0D01*
G01*
X9396000Y-8061000D02*
X9574000Y-8239000D01*
X9574000Y-8061000D02*
X9396000Y-8239000D01*
X9574000Y-8150000D02*
G75*
G02*
X9396000Y-8150000I-89000J0D01*
G01*
X9396000Y-8150000D02*
G75*
G02*
X9574000Y-8150000I89000J0D01*
G01*
X9736000Y-7069000D02*
X9914000Y-7247000D01*
X9914000Y-7069000D02*
X9736000Y-7247000D01*
X9914000Y-7158000D02*
G75*
G02*
X9736000Y-7158000I-89000J0D01*
G01*
X9736000Y-7158000D02*
G75*
G02*
X9914000Y-7158000I89000J0D01*
G01*
X9736000Y-8061000D02*
X9914000Y-8239000D01*
X9914000Y-8061000D02*
X9736000Y-8239000D01*
X9914000Y-8150000D02*
G75*
G02*
X9736000Y-8150000I-89000J0D01*
G01*
X9736000Y-8150000D02*
G75*
G02*
X9914000Y-8150000I89000J0D01*
G01*
D11*
X5558277Y-13513984D02*
X5558277Y-13313984D01*
X5558277Y-13313984D02*
X5605896Y-13313984D01*
X5605896Y-13313984D02*
X5634467Y-13323508D01*
X5634467Y-13323508D02*
X5653515Y-13342555D01*
X5653515Y-13342555D02*
X5663039Y-13361603D01*
X5663039Y-13361603D02*
X5672562Y-13399698D01*
X5672562Y-13399698D02*
X5672562Y-13428269D01*
X5672562Y-13428269D02*
X5663039Y-13466365D01*
X5663039Y-13466365D02*
X5653515Y-13485412D01*
X5653515Y-13485412D02*
X5634467Y-13504460D01*
X5634467Y-13504460D02*
X5605896Y-13513984D01*
X5605896Y-13513984D02*
X5558277Y-13513984D01*
X5758277Y-13513984D02*
X5758277Y-13380650D01*
X5758277Y-13418746D02*
X5767801Y-13399698D01*
X5767801Y-13399698D02*
X5777324Y-13390174D01*
X5777324Y-13390174D02*
X5796372Y-13380650D01*
X5796372Y-13380650D02*
X5815420Y-13380650D01*
X5882086Y-13513984D02*
X5882086Y-13380650D01*
X5882086Y-13313984D02*
X5872562Y-13323508D01*
X5872562Y-13323508D02*
X5882086Y-13333031D01*
X5882086Y-13333031D02*
X5891610Y-13323508D01*
X5891610Y-13323508D02*
X5882086Y-13313984D01*
X5882086Y-13313984D02*
X5882086Y-13333031D01*
X6005896Y-13513984D02*
X5986848Y-13504460D01*
X5986848Y-13504460D02*
X5977324Y-13485412D01*
X5977324Y-13485412D02*
X5977324Y-13313984D01*
X6110658Y-13513984D02*
X6091610Y-13504460D01*
X6091610Y-13504460D02*
X6082086Y-13485412D01*
X6082086Y-13485412D02*
X6082086Y-13313984D01*
X6339229Y-13513984D02*
X6339229Y-13313984D01*
X6339229Y-13313984D02*
X6405896Y-13456841D01*
X6405896Y-13456841D02*
X6472562Y-13313984D01*
X6472562Y-13313984D02*
X6472562Y-13513984D01*
X6653515Y-13513984D02*
X6653515Y-13409222D01*
X6653515Y-13409222D02*
X6643991Y-13390174D01*
X6643991Y-13390174D02*
X6624943Y-13380650D01*
X6624943Y-13380650D02*
X6586848Y-13380650D01*
X6586848Y-13380650D02*
X6567801Y-13390174D01*
X6653515Y-13504460D02*
X6634467Y-13513984D01*
X6634467Y-13513984D02*
X6586848Y-13513984D01*
X6586848Y-13513984D02*
X6567801Y-13504460D01*
X6567801Y-13504460D02*
X6558277Y-13485412D01*
X6558277Y-13485412D02*
X6558277Y-13466365D01*
X6558277Y-13466365D02*
X6567801Y-13447317D01*
X6567801Y-13447317D02*
X6586848Y-13437793D01*
X6586848Y-13437793D02*
X6634467Y-13437793D01*
X6634467Y-13437793D02*
X6653515Y-13428269D01*
X6748753Y-13380650D02*
X6748753Y-13580650D01*
X6748753Y-13390174D02*
X6767801Y-13380650D01*
X6767801Y-13380650D02*
X6805896Y-13380650D01*
X6805896Y-13380650D02*
X6824943Y-13390174D01*
X6824943Y-13390174D02*
X6834467Y-13399698D01*
X6834467Y-13399698D02*
X6843991Y-13418746D01*
X6843991Y-13418746D02*
X6843991Y-13475888D01*
X6843991Y-13475888D02*
X6834467Y-13494936D01*
X6834467Y-13494936D02*
X6824943Y-13504460D01*
X6824943Y-13504460D02*
X6805896Y-13513984D01*
X6805896Y-13513984D02*
X6767801Y-13513984D01*
X6767801Y-13513984D02*
X6748753Y-13504460D01*
X6929705Y-13494936D02*
X6939229Y-13504460D01*
X6939229Y-13504460D02*
X6929705Y-13513984D01*
X6929705Y-13513984D02*
X6920182Y-13504460D01*
X6920182Y-13504460D02*
X6929705Y-13494936D01*
X6929705Y-13494936D02*
X6929705Y-13513984D01*
X6929705Y-13390174D02*
X6939229Y-13399698D01*
X6939229Y-13399698D02*
X6929705Y-13409222D01*
X6929705Y-13409222D02*
X6920182Y-13399698D01*
X6920182Y-13399698D02*
X6929705Y-13390174D01*
X6929705Y-13390174D02*
X6929705Y-13409222D01*
D12*
X5267500Y-13827500D02*
X5297500Y-13857500D01*
X5297500Y-13827500D02*
X5267500Y-13857500D01*
D11*
X5596372Y-13733984D02*
X5615420Y-13733984D01*
X5615420Y-13733984D02*
X5634467Y-13743508D01*
X5634467Y-13743508D02*
X5643991Y-13753031D01*
X5643991Y-13753031D02*
X5653515Y-13772079D01*
X5653515Y-13772079D02*
X5663039Y-13810174D01*
X5663039Y-13810174D02*
X5663039Y-13857793D01*
X5663039Y-13857793D02*
X5653515Y-13895888D01*
X5653515Y-13895888D02*
X5643991Y-13914936D01*
X5643991Y-13914936D02*
X5634467Y-13924460D01*
X5634467Y-13924460D02*
X5615420Y-13933984D01*
X5615420Y-13933984D02*
X5596372Y-13933984D01*
X5596372Y-13933984D02*
X5577324Y-13924460D01*
X5577324Y-13924460D02*
X5567801Y-13914936D01*
X5567801Y-13914936D02*
X5558277Y-13895888D01*
X5558277Y-13895888D02*
X5548753Y-13857793D01*
X5548753Y-13857793D02*
X5548753Y-13810174D01*
X5548753Y-13810174D02*
X5558277Y-13772079D01*
X5558277Y-13772079D02*
X5567801Y-13753031D01*
X5567801Y-13753031D02*
X5577324Y-13743508D01*
X5577324Y-13743508D02*
X5596372Y-13733984D01*
X5748753Y-13914936D02*
X5758277Y-13924460D01*
X5758277Y-13924460D02*
X5748753Y-13933984D01*
X5748753Y-13933984D02*
X5739229Y-13924460D01*
X5739229Y-13924460D02*
X5748753Y-13914936D01*
X5748753Y-13914936D02*
X5748753Y-13933984D01*
X5824943Y-13733984D02*
X5948753Y-13733984D01*
X5948753Y-13733984D02*
X5882086Y-13810174D01*
X5882086Y-13810174D02*
X5910658Y-13810174D01*
X5910658Y-13810174D02*
X5929705Y-13819698D01*
X5929705Y-13819698D02*
X5939229Y-13829222D01*
X5939229Y-13829222D02*
X5948753Y-13848269D01*
X5948753Y-13848269D02*
X5948753Y-13895888D01*
X5948753Y-13895888D02*
X5939229Y-13914936D01*
X5939229Y-13914936D02*
X5929705Y-13924460D01*
X5929705Y-13924460D02*
X5910658Y-13933984D01*
X5910658Y-13933984D02*
X5853515Y-13933984D01*
X5853515Y-13933984D02*
X5834467Y-13924460D01*
X5834467Y-13924460D02*
X5824943Y-13914936D01*
X6072562Y-13733984D02*
X6091610Y-13733984D01*
X6091610Y-13733984D02*
X6110658Y-13743508D01*
X6110658Y-13743508D02*
X6120182Y-13753031D01*
X6120182Y-13753031D02*
X6129705Y-13772079D01*
X6129705Y-13772079D02*
X6139229Y-13810174D01*
X6139229Y-13810174D02*
X6139229Y-13857793D01*
X6139229Y-13857793D02*
X6129705Y-13895888D01*
X6129705Y-13895888D02*
X6120182Y-13914936D01*
X6120182Y-13914936D02*
X6110658Y-13924460D01*
X6110658Y-13924460D02*
X6091610Y-13933984D01*
X6091610Y-13933984D02*
X6072562Y-13933984D01*
X6072562Y-13933984D02*
X6053515Y-13924460D01*
X6053515Y-13924460D02*
X6043991Y-13914936D01*
X6043991Y-13914936D02*
X6034467Y-13895888D01*
X6034467Y-13895888D02*
X6024943Y-13857793D01*
X6024943Y-13857793D02*
X6024943Y-13810174D01*
X6024943Y-13810174D02*
X6034467Y-13772079D01*
X6034467Y-13772079D02*
X6043991Y-13753031D01*
X6043991Y-13753031D02*
X6053515Y-13743508D01*
X6053515Y-13743508D02*
X6072562Y-13733984D01*
X6263039Y-13733984D02*
X6282086Y-13733984D01*
X6282086Y-13733984D02*
X6301134Y-13743508D01*
X6301134Y-13743508D02*
X6310658Y-13753031D01*
X6310658Y-13753031D02*
X6320182Y-13772079D01*
X6320182Y-13772079D02*
X6329705Y-13810174D01*
X6329705Y-13810174D02*
X6329705Y-13857793D01*
X6329705Y-13857793D02*
X6320182Y-13895888D01*
X6320182Y-13895888D02*
X6310658Y-13914936D01*
X6310658Y-13914936D02*
X6301134Y-13924460D01*
X6301134Y-13924460D02*
X6282086Y-13933984D01*
X6282086Y-13933984D02*
X6263039Y-13933984D01*
X6263039Y-13933984D02*
X6243991Y-13924460D01*
X6243991Y-13924460D02*
X6234467Y-13914936D01*
X6234467Y-13914936D02*
X6224943Y-13895888D01*
X6224943Y-13895888D02*
X6215420Y-13857793D01*
X6215420Y-13857793D02*
X6215420Y-13810174D01*
X6215420Y-13810174D02*
X6224943Y-13772079D01*
X6224943Y-13772079D02*
X6234467Y-13753031D01*
X6234467Y-13753031D02*
X6243991Y-13743508D01*
X6243991Y-13743508D02*
X6263039Y-13733984D01*
X6415420Y-13933984D02*
X6415420Y-13800650D01*
X6415420Y-13819698D02*
X6424943Y-13810174D01*
X6424943Y-13810174D02*
X6443991Y-13800650D01*
X6443991Y-13800650D02*
X6472563Y-13800650D01*
X6472563Y-13800650D02*
X6491610Y-13810174D01*
X6491610Y-13810174D02*
X6501134Y-13829222D01*
X6501134Y-13829222D02*
X6501134Y-13933984D01*
X6501134Y-13829222D02*
X6510658Y-13810174D01*
X6510658Y-13810174D02*
X6529705Y-13800650D01*
X6529705Y-13800650D02*
X6558277Y-13800650D01*
X6558277Y-13800650D02*
X6577324Y-13810174D01*
X6577324Y-13810174D02*
X6586848Y-13829222D01*
X6586848Y-13829222D02*
X6586848Y-13933984D01*
X6682086Y-13933984D02*
X6682086Y-13800650D01*
X6682086Y-13819698D02*
X6691610Y-13810174D01*
X6691610Y-13810174D02*
X6710658Y-13800650D01*
X6710658Y-13800650D02*
X6739229Y-13800650D01*
X6739229Y-13800650D02*
X6758277Y-13810174D01*
X6758277Y-13810174D02*
X6767801Y-13829222D01*
X6767801Y-13829222D02*
X6767801Y-13933984D01*
X6767801Y-13829222D02*
X6777324Y-13810174D01*
X6777324Y-13810174D02*
X6796372Y-13800650D01*
X6796372Y-13800650D02*
X6824943Y-13800650D01*
X6824943Y-13800650D02*
X6843991Y-13810174D01*
X6843991Y-13810174D02*
X6853515Y-13829222D01*
X6853515Y-13829222D02*
X6853515Y-13933984D01*
X7243991Y-13724460D02*
X7072563Y-13981603D01*
X7501134Y-13733984D02*
X7520182Y-13733984D01*
X7520182Y-13733984D02*
X7539229Y-13743508D01*
X7539229Y-13743508D02*
X7548753Y-13753031D01*
X7548753Y-13753031D02*
X7558277Y-13772079D01*
X7558277Y-13772079D02*
X7567801Y-13810174D01*
X7567801Y-13810174D02*
X7567801Y-13857793D01*
X7567801Y-13857793D02*
X7558277Y-13895888D01*
X7558277Y-13895888D02*
X7548753Y-13914936D01*
X7548753Y-13914936D02*
X7539229Y-13924460D01*
X7539229Y-13924460D02*
X7520182Y-13933984D01*
X7520182Y-13933984D02*
X7501134Y-13933984D01*
X7501134Y-13933984D02*
X7482086Y-13924460D01*
X7482086Y-13924460D02*
X7472563Y-13914936D01*
X7472563Y-13914936D02*
X7463039Y-13895888D01*
X7463039Y-13895888D02*
X7453515Y-13857793D01*
X7453515Y-13857793D02*
X7453515Y-13810174D01*
X7453515Y-13810174D02*
X7463039Y-13772079D01*
X7463039Y-13772079D02*
X7472563Y-13753031D01*
X7472563Y-13753031D02*
X7482086Y-13743508D01*
X7482086Y-13743508D02*
X7501134Y-13733984D01*
X7653515Y-13914936D02*
X7663039Y-13924460D01*
X7663039Y-13924460D02*
X7653515Y-13933984D01*
X7653515Y-13933984D02*
X7643991Y-13924460D01*
X7643991Y-13924460D02*
X7653515Y-13914936D01*
X7653515Y-13914936D02*
X7653515Y-13933984D01*
X7786848Y-13733984D02*
X7805896Y-13733984D01*
X7805896Y-13733984D02*
X7824944Y-13743508D01*
X7824944Y-13743508D02*
X7834467Y-13753031D01*
X7834467Y-13753031D02*
X7843991Y-13772079D01*
X7843991Y-13772079D02*
X7853515Y-13810174D01*
X7853515Y-13810174D02*
X7853515Y-13857793D01*
X7853515Y-13857793D02*
X7843991Y-13895888D01*
X7843991Y-13895888D02*
X7834467Y-13914936D01*
X7834467Y-13914936D02*
X7824944Y-13924460D01*
X7824944Y-13924460D02*
X7805896Y-13933984D01*
X7805896Y-13933984D02*
X7786848Y-13933984D01*
X7786848Y-13933984D02*
X7767801Y-13924460D01*
X7767801Y-13924460D02*
X7758277Y-13914936D01*
X7758277Y-13914936D02*
X7748753Y-13895888D01*
X7748753Y-13895888D02*
X7739229Y-13857793D01*
X7739229Y-13857793D02*
X7739229Y-13810174D01*
X7739229Y-13810174D02*
X7748753Y-13772079D01*
X7748753Y-13772079D02*
X7758277Y-13753031D01*
X7758277Y-13753031D02*
X7767801Y-13743508D01*
X7767801Y-13743508D02*
X7786848Y-13733984D01*
X8043991Y-13933984D02*
X7929706Y-13933984D01*
X7986848Y-13933984D02*
X7986848Y-13733984D01*
X7986848Y-13733984D02*
X7967801Y-13762555D01*
X7967801Y-13762555D02*
X7948753Y-13781603D01*
X7948753Y-13781603D02*
X7929706Y-13791127D01*
X8234467Y-13933984D02*
X8120182Y-13933984D01*
X8177325Y-13933984D02*
X8177325Y-13733984D01*
X8177325Y-13733984D02*
X8158277Y-13762555D01*
X8158277Y-13762555D02*
X8139229Y-13781603D01*
X8139229Y-13781603D02*
X8120182Y-13791127D01*
X8348753Y-13819698D02*
X8329706Y-13810174D01*
X8329706Y-13810174D02*
X8320182Y-13800650D01*
X8320182Y-13800650D02*
X8310658Y-13781603D01*
X8310658Y-13781603D02*
X8310658Y-13772079D01*
X8310658Y-13772079D02*
X8320182Y-13753031D01*
X8320182Y-13753031D02*
X8329706Y-13743508D01*
X8329706Y-13743508D02*
X8348753Y-13733984D01*
X8348753Y-13733984D02*
X8386848Y-13733984D01*
X8386848Y-13733984D02*
X8405896Y-13743508D01*
X8405896Y-13743508D02*
X8415420Y-13753031D01*
X8415420Y-13753031D02*
X8424944Y-13772079D01*
X8424944Y-13772079D02*
X8424944Y-13781603D01*
X8424944Y-13781603D02*
X8415420Y-13800650D01*
X8415420Y-13800650D02*
X8405896Y-13810174D01*
X8405896Y-13810174D02*
X8386848Y-13819698D01*
X8386848Y-13819698D02*
X8348753Y-13819698D01*
X8348753Y-13819698D02*
X8329706Y-13829222D01*
X8329706Y-13829222D02*
X8320182Y-13838746D01*
X8320182Y-13838746D02*
X8310658Y-13857793D01*
X8310658Y-13857793D02*
X8310658Y-13895888D01*
X8310658Y-13895888D02*
X8320182Y-13914936D01*
X8320182Y-13914936D02*
X8329706Y-13924460D01*
X8329706Y-13924460D02*
X8348753Y-13933984D01*
X8348753Y-13933984D02*
X8386848Y-13933984D01*
X8386848Y-13933984D02*
X8405896Y-13924460D01*
X8405896Y-13924460D02*
X8415420Y-13914936D01*
X8415420Y-13914936D02*
X8424944Y-13895888D01*
X8424944Y-13895888D02*
X8424944Y-13857793D01*
X8424944Y-13857793D02*
X8415420Y-13838746D01*
X8415420Y-13838746D02*
X8405896Y-13829222D01*
X8405896Y-13829222D02*
X8386848Y-13819698D01*
X8501134Y-13733984D02*
X8501134Y-13772079D01*
X8577325Y-13733984D02*
X8577325Y-13772079D01*
X8872563Y-14010174D02*
X8863039Y-14000650D01*
X8863039Y-14000650D02*
X8843991Y-13972079D01*
X8843991Y-13972079D02*
X8834468Y-13953031D01*
X8834468Y-13953031D02*
X8824944Y-13924460D01*
X8824944Y-13924460D02*
X8815420Y-13876841D01*
X8815420Y-13876841D02*
X8815420Y-13838746D01*
X8815420Y-13838746D02*
X8824944Y-13791127D01*
X8824944Y-13791127D02*
X8834468Y-13762555D01*
X8834468Y-13762555D02*
X8843991Y-13743508D01*
X8843991Y-13743508D02*
X8863039Y-13714936D01*
X8863039Y-13714936D02*
X8872563Y-13705412D01*
X8929706Y-13733984D02*
X9053515Y-13733984D01*
X9053515Y-13733984D02*
X8986849Y-13810174D01*
X8986849Y-13810174D02*
X9015420Y-13810174D01*
X9015420Y-13810174D02*
X9034468Y-13819698D01*
X9034468Y-13819698D02*
X9043991Y-13829222D01*
X9043991Y-13829222D02*
X9053515Y-13848269D01*
X9053515Y-13848269D02*
X9053515Y-13895888D01*
X9053515Y-13895888D02*
X9043991Y-13914936D01*
X9043991Y-13914936D02*
X9034468Y-13924460D01*
X9034468Y-13924460D02*
X9015420Y-13933984D01*
X9015420Y-13933984D02*
X8958277Y-13933984D01*
X8958277Y-13933984D02*
X8939230Y-13924460D01*
X8939230Y-13924460D02*
X8929706Y-13914936D01*
X9167801Y-13819698D02*
X9148753Y-13810174D01*
X9148753Y-13810174D02*
X9139230Y-13800650D01*
X9139230Y-13800650D02*
X9129706Y-13781603D01*
X9129706Y-13781603D02*
X9129706Y-13772079D01*
X9129706Y-13772079D02*
X9139230Y-13753031D01*
X9139230Y-13753031D02*
X9148753Y-13743508D01*
X9148753Y-13743508D02*
X9167801Y-13733984D01*
X9167801Y-13733984D02*
X9205896Y-13733984D01*
X9205896Y-13733984D02*
X9224944Y-13743508D01*
X9224944Y-13743508D02*
X9234468Y-13753031D01*
X9234468Y-13753031D02*
X9243991Y-13772079D01*
X9243991Y-13772079D02*
X9243991Y-13781603D01*
X9243991Y-13781603D02*
X9234468Y-13800650D01*
X9234468Y-13800650D02*
X9224944Y-13810174D01*
X9224944Y-13810174D02*
X9205896Y-13819698D01*
X9205896Y-13819698D02*
X9167801Y-13819698D01*
X9167801Y-13819698D02*
X9148753Y-13829222D01*
X9148753Y-13829222D02*
X9139230Y-13838746D01*
X9139230Y-13838746D02*
X9129706Y-13857793D01*
X9129706Y-13857793D02*
X9129706Y-13895888D01*
X9129706Y-13895888D02*
X9139230Y-13914936D01*
X9139230Y-13914936D02*
X9148753Y-13924460D01*
X9148753Y-13924460D02*
X9167801Y-13933984D01*
X9167801Y-13933984D02*
X9205896Y-13933984D01*
X9205896Y-13933984D02*
X9224944Y-13924460D01*
X9224944Y-13924460D02*
X9234468Y-13914936D01*
X9234468Y-13914936D02*
X9243991Y-13895888D01*
X9243991Y-13895888D02*
X9243991Y-13857793D01*
X9243991Y-13857793D02*
X9234468Y-13838746D01*
X9234468Y-13838746D02*
X9224944Y-13829222D01*
X9224944Y-13829222D02*
X9205896Y-13819698D01*
X9358277Y-13819698D02*
X9339230Y-13810174D01*
X9339230Y-13810174D02*
X9329706Y-13800650D01*
X9329706Y-13800650D02*
X9320182Y-13781603D01*
X9320182Y-13781603D02*
X9320182Y-13772079D01*
X9320182Y-13772079D02*
X9329706Y-13753031D01*
X9329706Y-13753031D02*
X9339230Y-13743508D01*
X9339230Y-13743508D02*
X9358277Y-13733984D01*
X9358277Y-13733984D02*
X9396372Y-13733984D01*
X9396372Y-13733984D02*
X9415420Y-13743508D01*
X9415420Y-13743508D02*
X9424944Y-13753031D01*
X9424944Y-13753031D02*
X9434468Y-13772079D01*
X9434468Y-13772079D02*
X9434468Y-13781603D01*
X9434468Y-13781603D02*
X9424944Y-13800650D01*
X9424944Y-13800650D02*
X9415420Y-13810174D01*
X9415420Y-13810174D02*
X9396372Y-13819698D01*
X9396372Y-13819698D02*
X9358277Y-13819698D01*
X9358277Y-13819698D02*
X9339230Y-13829222D01*
X9339230Y-13829222D02*
X9329706Y-13838746D01*
X9329706Y-13838746D02*
X9320182Y-13857793D01*
X9320182Y-13857793D02*
X9320182Y-13895888D01*
X9320182Y-13895888D02*
X9329706Y-13914936D01*
X9329706Y-13914936D02*
X9339230Y-13924460D01*
X9339230Y-13924460D02*
X9358277Y-13933984D01*
X9358277Y-13933984D02*
X9396372Y-13933984D01*
X9396372Y-13933984D02*
X9415420Y-13924460D01*
X9415420Y-13924460D02*
X9424944Y-13914936D01*
X9424944Y-13914936D02*
X9434468Y-13895888D01*
X9434468Y-13895888D02*
X9434468Y-13857793D01*
X9434468Y-13857793D02*
X9424944Y-13838746D01*
X9424944Y-13838746D02*
X9415420Y-13829222D01*
X9415420Y-13829222D02*
X9396372Y-13819698D01*
X9672563Y-13933984D02*
X9672563Y-13733984D01*
X9758277Y-13933984D02*
X9758277Y-13829222D01*
X9758277Y-13829222D02*
X9748753Y-13810174D01*
X9748753Y-13810174D02*
X9729706Y-13800650D01*
X9729706Y-13800650D02*
X9701134Y-13800650D01*
X9701134Y-13800650D02*
X9682087Y-13810174D01*
X9682087Y-13810174D02*
X9672563Y-13819698D01*
X9882087Y-13933984D02*
X9863039Y-13924460D01*
X9863039Y-13924460D02*
X9853515Y-13914936D01*
X9853515Y-13914936D02*
X9843992Y-13895888D01*
X9843992Y-13895888D02*
X9843992Y-13838746D01*
X9843992Y-13838746D02*
X9853515Y-13819698D01*
X9853515Y-13819698D02*
X9863039Y-13810174D01*
X9863039Y-13810174D02*
X9882087Y-13800650D01*
X9882087Y-13800650D02*
X9910658Y-13800650D01*
X9910658Y-13800650D02*
X9929706Y-13810174D01*
X9929706Y-13810174D02*
X9939230Y-13819698D01*
X9939230Y-13819698D02*
X9948753Y-13838746D01*
X9948753Y-13838746D02*
X9948753Y-13895888D01*
X9948753Y-13895888D02*
X9939230Y-13914936D01*
X9939230Y-13914936D02*
X9929706Y-13924460D01*
X9929706Y-13924460D02*
X9910658Y-13933984D01*
X9910658Y-13933984D02*
X9882087Y-13933984D01*
X10063039Y-13933984D02*
X10043992Y-13924460D01*
X10043992Y-13924460D02*
X10034468Y-13905412D01*
X10034468Y-13905412D02*
X10034468Y-13733984D01*
X10215420Y-13924460D02*
X10196373Y-13933984D01*
X10196373Y-13933984D02*
X10158277Y-13933984D01*
X10158277Y-13933984D02*
X10139230Y-13924460D01*
X10139230Y-13924460D02*
X10129706Y-13905412D01*
X10129706Y-13905412D02*
X10129706Y-13829222D01*
X10129706Y-13829222D02*
X10139230Y-13810174D01*
X10139230Y-13810174D02*
X10158277Y-13800650D01*
X10158277Y-13800650D02*
X10196373Y-13800650D01*
X10196373Y-13800650D02*
X10215420Y-13810174D01*
X10215420Y-13810174D02*
X10224944Y-13829222D01*
X10224944Y-13829222D02*
X10224944Y-13848269D01*
X10224944Y-13848269D02*
X10129706Y-13867317D01*
X10301134Y-13924460D02*
X10320182Y-13933984D01*
X10320182Y-13933984D02*
X10358277Y-13933984D01*
X10358277Y-13933984D02*
X10377325Y-13924460D01*
X10377325Y-13924460D02*
X10386849Y-13905412D01*
X10386849Y-13905412D02*
X10386849Y-13895888D01*
X10386849Y-13895888D02*
X10377325Y-13876841D01*
X10377325Y-13876841D02*
X10358277Y-13867317D01*
X10358277Y-13867317D02*
X10329706Y-13867317D01*
X10329706Y-13867317D02*
X10310658Y-13857793D01*
X10310658Y-13857793D02*
X10301134Y-13838746D01*
X10301134Y-13838746D02*
X10301134Y-13829222D01*
X10301134Y-13829222D02*
X10310658Y-13810174D01*
X10310658Y-13810174D02*
X10329706Y-13800650D01*
X10329706Y-13800650D02*
X10358277Y-13800650D01*
X10358277Y-13800650D02*
X10377325Y-13810174D01*
X10453515Y-14010174D02*
X10463039Y-14000650D01*
X10463039Y-14000650D02*
X10482087Y-13972079D01*
X10482087Y-13972079D02*
X10491611Y-13953031D01*
X10491611Y-13953031D02*
X10501134Y-13924460D01*
X10501134Y-13924460D02*
X10510658Y-13876841D01*
X10510658Y-13876841D02*
X10510658Y-13838746D01*
X10510658Y-13838746D02*
X10501134Y-13791127D01*
X10501134Y-13791127D02*
X10491611Y-13762555D01*
X10491611Y-13762555D02*
X10482087Y-13743508D01*
X10482087Y-13743508D02*
X10463039Y-13714936D01*
X10463039Y-13714936D02*
X10453515Y-13705412D01*
D12*
X5297500Y-14106500D02*
G75*
G02*
X5257500Y-14106500I-20000J0D01*
G01*
X5257500Y-14106500D02*
G75*
G02*
X5297500Y-14106500I20000J0D01*
G01*
D11*
X5596372Y-13997984D02*
X5615420Y-13997984D01*
X5615420Y-13997984D02*
X5634467Y-14007508D01*
X5634467Y-14007508D02*
X5643991Y-14017031D01*
X5643991Y-14017031D02*
X5653515Y-14036079D01*
X5653515Y-14036079D02*
X5663039Y-14074174D01*
X5663039Y-14074174D02*
X5663039Y-14121793D01*
X5663039Y-14121793D02*
X5653515Y-14159888D01*
X5653515Y-14159888D02*
X5643991Y-14178936D01*
X5643991Y-14178936D02*
X5634467Y-14188460D01*
X5634467Y-14188460D02*
X5615420Y-14197984D01*
X5615420Y-14197984D02*
X5596372Y-14197984D01*
X5596372Y-14197984D02*
X5577324Y-14188460D01*
X5577324Y-14188460D02*
X5567801Y-14178936D01*
X5567801Y-14178936D02*
X5558277Y-14159888D01*
X5558277Y-14159888D02*
X5548753Y-14121793D01*
X5548753Y-14121793D02*
X5548753Y-14074174D01*
X5548753Y-14074174D02*
X5558277Y-14036079D01*
X5558277Y-14036079D02*
X5567801Y-14017031D01*
X5567801Y-14017031D02*
X5577324Y-14007508D01*
X5577324Y-14007508D02*
X5596372Y-13997984D01*
X5748753Y-14178936D02*
X5758277Y-14188460D01*
X5758277Y-14188460D02*
X5748753Y-14197984D01*
X5748753Y-14197984D02*
X5739229Y-14188460D01*
X5739229Y-14188460D02*
X5748753Y-14178936D01*
X5748753Y-14178936D02*
X5748753Y-14197984D01*
X5929705Y-14064650D02*
X5929705Y-14197984D01*
X5882086Y-13988460D02*
X5834467Y-14131317D01*
X5834467Y-14131317D02*
X5958277Y-14131317D01*
X6072562Y-13997984D02*
X6091610Y-13997984D01*
X6091610Y-13997984D02*
X6110658Y-14007508D01*
X6110658Y-14007508D02*
X6120182Y-14017031D01*
X6120182Y-14017031D02*
X6129705Y-14036079D01*
X6129705Y-14036079D02*
X6139229Y-14074174D01*
X6139229Y-14074174D02*
X6139229Y-14121793D01*
X6139229Y-14121793D02*
X6129705Y-14159888D01*
X6129705Y-14159888D02*
X6120182Y-14178936D01*
X6120182Y-14178936D02*
X6110658Y-14188460D01*
X6110658Y-14188460D02*
X6091610Y-14197984D01*
X6091610Y-14197984D02*
X6072562Y-14197984D01*
X6072562Y-14197984D02*
X6053515Y-14188460D01*
X6053515Y-14188460D02*
X6043991Y-14178936D01*
X6043991Y-14178936D02*
X6034467Y-14159888D01*
X6034467Y-14159888D02*
X6024943Y-14121793D01*
X6024943Y-14121793D02*
X6024943Y-14074174D01*
X6024943Y-14074174D02*
X6034467Y-14036079D01*
X6034467Y-14036079D02*
X6043991Y-14017031D01*
X6043991Y-14017031D02*
X6053515Y-14007508D01*
X6053515Y-14007508D02*
X6072562Y-13997984D01*
X6263039Y-13997984D02*
X6282086Y-13997984D01*
X6282086Y-13997984D02*
X6301134Y-14007508D01*
X6301134Y-14007508D02*
X6310658Y-14017031D01*
X6310658Y-14017031D02*
X6320182Y-14036079D01*
X6320182Y-14036079D02*
X6329705Y-14074174D01*
X6329705Y-14074174D02*
X6329705Y-14121793D01*
X6329705Y-14121793D02*
X6320182Y-14159888D01*
X6320182Y-14159888D02*
X6310658Y-14178936D01*
X6310658Y-14178936D02*
X6301134Y-14188460D01*
X6301134Y-14188460D02*
X6282086Y-14197984D01*
X6282086Y-14197984D02*
X6263039Y-14197984D01*
X6263039Y-14197984D02*
X6243991Y-14188460D01*
X6243991Y-14188460D02*
X6234467Y-14178936D01*
X6234467Y-14178936D02*
X6224943Y-14159888D01*
X6224943Y-14159888D02*
X6215420Y-14121793D01*
X6215420Y-14121793D02*
X6215420Y-14074174D01*
X6215420Y-14074174D02*
X6224943Y-14036079D01*
X6224943Y-14036079D02*
X6234467Y-14017031D01*
X6234467Y-14017031D02*
X6243991Y-14007508D01*
X6243991Y-14007508D02*
X6263039Y-13997984D01*
X6415420Y-14197984D02*
X6415420Y-14064650D01*
X6415420Y-14083698D02*
X6424943Y-14074174D01*
X6424943Y-14074174D02*
X6443991Y-14064650D01*
X6443991Y-14064650D02*
X6472563Y-14064650D01*
X6472563Y-14064650D02*
X6491610Y-14074174D01*
X6491610Y-14074174D02*
X6501134Y-14093222D01*
X6501134Y-14093222D02*
X6501134Y-14197984D01*
X6501134Y-14093222D02*
X6510658Y-14074174D01*
X6510658Y-14074174D02*
X6529705Y-14064650D01*
X6529705Y-14064650D02*
X6558277Y-14064650D01*
X6558277Y-14064650D02*
X6577324Y-14074174D01*
X6577324Y-14074174D02*
X6586848Y-14093222D01*
X6586848Y-14093222D02*
X6586848Y-14197984D01*
X6682086Y-14197984D02*
X6682086Y-14064650D01*
X6682086Y-14083698D02*
X6691610Y-14074174D01*
X6691610Y-14074174D02*
X6710658Y-14064650D01*
X6710658Y-14064650D02*
X6739229Y-14064650D01*
X6739229Y-14064650D02*
X6758277Y-14074174D01*
X6758277Y-14074174D02*
X6767801Y-14093222D01*
X6767801Y-14093222D02*
X6767801Y-14197984D01*
X6767801Y-14093222D02*
X6777324Y-14074174D01*
X6777324Y-14074174D02*
X6796372Y-14064650D01*
X6796372Y-14064650D02*
X6824943Y-14064650D01*
X6824943Y-14064650D02*
X6843991Y-14074174D01*
X6843991Y-14074174D02*
X6853515Y-14093222D01*
X6853515Y-14093222D02*
X6853515Y-14197984D01*
X7243991Y-13988460D02*
X7072563Y-14245603D01*
X7501134Y-13997984D02*
X7520182Y-13997984D01*
X7520182Y-13997984D02*
X7539229Y-14007508D01*
X7539229Y-14007508D02*
X7548753Y-14017031D01*
X7548753Y-14017031D02*
X7558277Y-14036079D01*
X7558277Y-14036079D02*
X7567801Y-14074174D01*
X7567801Y-14074174D02*
X7567801Y-14121793D01*
X7567801Y-14121793D02*
X7558277Y-14159888D01*
X7558277Y-14159888D02*
X7548753Y-14178936D01*
X7548753Y-14178936D02*
X7539229Y-14188460D01*
X7539229Y-14188460D02*
X7520182Y-14197984D01*
X7520182Y-14197984D02*
X7501134Y-14197984D01*
X7501134Y-14197984D02*
X7482086Y-14188460D01*
X7482086Y-14188460D02*
X7472563Y-14178936D01*
X7472563Y-14178936D02*
X7463039Y-14159888D01*
X7463039Y-14159888D02*
X7453515Y-14121793D01*
X7453515Y-14121793D02*
X7453515Y-14074174D01*
X7453515Y-14074174D02*
X7463039Y-14036079D01*
X7463039Y-14036079D02*
X7472563Y-14017031D01*
X7472563Y-14017031D02*
X7482086Y-14007508D01*
X7482086Y-14007508D02*
X7501134Y-13997984D01*
X7653515Y-14178936D02*
X7663039Y-14188460D01*
X7663039Y-14188460D02*
X7653515Y-14197984D01*
X7653515Y-14197984D02*
X7643991Y-14188460D01*
X7643991Y-14188460D02*
X7653515Y-14178936D01*
X7653515Y-14178936D02*
X7653515Y-14197984D01*
X7786848Y-13997984D02*
X7805896Y-13997984D01*
X7805896Y-13997984D02*
X7824944Y-14007508D01*
X7824944Y-14007508D02*
X7834467Y-14017031D01*
X7834467Y-14017031D02*
X7843991Y-14036079D01*
X7843991Y-14036079D02*
X7853515Y-14074174D01*
X7853515Y-14074174D02*
X7853515Y-14121793D01*
X7853515Y-14121793D02*
X7843991Y-14159888D01*
X7843991Y-14159888D02*
X7834467Y-14178936D01*
X7834467Y-14178936D02*
X7824944Y-14188460D01*
X7824944Y-14188460D02*
X7805896Y-14197984D01*
X7805896Y-14197984D02*
X7786848Y-14197984D01*
X7786848Y-14197984D02*
X7767801Y-14188460D01*
X7767801Y-14188460D02*
X7758277Y-14178936D01*
X7758277Y-14178936D02*
X7748753Y-14159888D01*
X7748753Y-14159888D02*
X7739229Y-14121793D01*
X7739229Y-14121793D02*
X7739229Y-14074174D01*
X7739229Y-14074174D02*
X7748753Y-14036079D01*
X7748753Y-14036079D02*
X7758277Y-14017031D01*
X7758277Y-14017031D02*
X7767801Y-14007508D01*
X7767801Y-14007508D02*
X7786848Y-13997984D01*
X8043991Y-14197984D02*
X7929706Y-14197984D01*
X7986848Y-14197984D02*
X7986848Y-13997984D01*
X7986848Y-13997984D02*
X7967801Y-14026555D01*
X7967801Y-14026555D02*
X7948753Y-14045603D01*
X7948753Y-14045603D02*
X7929706Y-14055127D01*
X8224944Y-13997984D02*
X8129706Y-13997984D01*
X8129706Y-13997984D02*
X8120182Y-14093222D01*
X8120182Y-14093222D02*
X8129706Y-14083698D01*
X8129706Y-14083698D02*
X8148753Y-14074174D01*
X8148753Y-14074174D02*
X8196372Y-14074174D01*
X8196372Y-14074174D02*
X8215420Y-14083698D01*
X8215420Y-14083698D02*
X8224944Y-14093222D01*
X8224944Y-14093222D02*
X8234467Y-14112269D01*
X8234467Y-14112269D02*
X8234467Y-14159888D01*
X8234467Y-14159888D02*
X8224944Y-14178936D01*
X8224944Y-14178936D02*
X8215420Y-14188460D01*
X8215420Y-14188460D02*
X8196372Y-14197984D01*
X8196372Y-14197984D02*
X8148753Y-14197984D01*
X8148753Y-14197984D02*
X8129706Y-14188460D01*
X8129706Y-14188460D02*
X8120182Y-14178936D01*
X8301134Y-13997984D02*
X8434468Y-13997984D01*
X8434468Y-13997984D02*
X8348753Y-14197984D01*
X8501134Y-13997984D02*
X8501134Y-14036079D01*
X8577325Y-13997984D02*
X8577325Y-14036079D01*
X8872563Y-14274174D02*
X8863039Y-14264650D01*
X8863039Y-14264650D02*
X8843991Y-14236079D01*
X8843991Y-14236079D02*
X8834468Y-14217031D01*
X8834468Y-14217031D02*
X8824944Y-14188460D01*
X8824944Y-14188460D02*
X8815420Y-14140841D01*
X8815420Y-14140841D02*
X8815420Y-14102746D01*
X8815420Y-14102746D02*
X8824944Y-14055127D01*
X8824944Y-14055127D02*
X8834468Y-14026555D01*
X8834468Y-14026555D02*
X8843991Y-14007508D01*
X8843991Y-14007508D02*
X8863039Y-13978936D01*
X8863039Y-13978936D02*
X8872563Y-13969412D01*
X9034468Y-13997984D02*
X8996372Y-13997984D01*
X8996372Y-13997984D02*
X8977325Y-14007508D01*
X8977325Y-14007508D02*
X8967801Y-14017031D01*
X8967801Y-14017031D02*
X8948753Y-14045603D01*
X8948753Y-14045603D02*
X8939230Y-14083698D01*
X8939230Y-14083698D02*
X8939230Y-14159888D01*
X8939230Y-14159888D02*
X8948753Y-14178936D01*
X8948753Y-14178936D02*
X8958277Y-14188460D01*
X8958277Y-14188460D02*
X8977325Y-14197984D01*
X8977325Y-14197984D02*
X9015420Y-14197984D01*
X9015420Y-14197984D02*
X9034468Y-14188460D01*
X9034468Y-14188460D02*
X9043991Y-14178936D01*
X9043991Y-14178936D02*
X9053515Y-14159888D01*
X9053515Y-14159888D02*
X9053515Y-14112269D01*
X9053515Y-14112269D02*
X9043991Y-14093222D01*
X9043991Y-14093222D02*
X9034468Y-14083698D01*
X9034468Y-14083698D02*
X9015420Y-14074174D01*
X9015420Y-14074174D02*
X8977325Y-14074174D01*
X8977325Y-14074174D02*
X8958277Y-14083698D01*
X8958277Y-14083698D02*
X8948753Y-14093222D01*
X8948753Y-14093222D02*
X8939230Y-14112269D01*
X9224944Y-14064650D02*
X9224944Y-14197984D01*
X9177325Y-13988460D02*
X9129706Y-14131317D01*
X9129706Y-14131317D02*
X9253515Y-14131317D01*
X9482087Y-14197984D02*
X9482087Y-13997984D01*
X9567801Y-14197984D02*
X9567801Y-14093222D01*
X9567801Y-14093222D02*
X9558277Y-14074174D01*
X9558277Y-14074174D02*
X9539230Y-14064650D01*
X9539230Y-14064650D02*
X9510658Y-14064650D01*
X9510658Y-14064650D02*
X9491611Y-14074174D01*
X9491611Y-14074174D02*
X9482087Y-14083698D01*
X9691611Y-14197984D02*
X9672563Y-14188460D01*
X9672563Y-14188460D02*
X9663039Y-14178936D01*
X9663039Y-14178936D02*
X9653515Y-14159888D01*
X9653515Y-14159888D02*
X9653515Y-14102746D01*
X9653515Y-14102746D02*
X9663039Y-14083698D01*
X9663039Y-14083698D02*
X9672563Y-14074174D01*
X9672563Y-14074174D02*
X9691611Y-14064650D01*
X9691611Y-14064650D02*
X9720182Y-14064650D01*
X9720182Y-14064650D02*
X9739230Y-14074174D01*
X9739230Y-14074174D02*
X9748753Y-14083698D01*
X9748753Y-14083698D02*
X9758277Y-14102746D01*
X9758277Y-14102746D02*
X9758277Y-14159888D01*
X9758277Y-14159888D02*
X9748753Y-14178936D01*
X9748753Y-14178936D02*
X9739230Y-14188460D01*
X9739230Y-14188460D02*
X9720182Y-14197984D01*
X9720182Y-14197984D02*
X9691611Y-14197984D01*
X9872563Y-14197984D02*
X9853515Y-14188460D01*
X9853515Y-14188460D02*
X9843992Y-14169412D01*
X9843992Y-14169412D02*
X9843992Y-13997984D01*
X10024944Y-14188460D02*
X10005896Y-14197984D01*
X10005896Y-14197984D02*
X9967801Y-14197984D01*
X9967801Y-14197984D02*
X9948753Y-14188460D01*
X9948753Y-14188460D02*
X9939230Y-14169412D01*
X9939230Y-14169412D02*
X9939230Y-14093222D01*
X9939230Y-14093222D02*
X9948753Y-14074174D01*
X9948753Y-14074174D02*
X9967801Y-14064650D01*
X9967801Y-14064650D02*
X10005896Y-14064650D01*
X10005896Y-14064650D02*
X10024944Y-14074174D01*
X10024944Y-14074174D02*
X10034468Y-14093222D01*
X10034468Y-14093222D02*
X10034468Y-14112269D01*
X10034468Y-14112269D02*
X9939230Y-14131317D01*
X10110658Y-14188460D02*
X10129706Y-14197984D01*
X10129706Y-14197984D02*
X10167801Y-14197984D01*
X10167801Y-14197984D02*
X10186849Y-14188460D01*
X10186849Y-14188460D02*
X10196373Y-14169412D01*
X10196373Y-14169412D02*
X10196373Y-14159888D01*
X10196373Y-14159888D02*
X10186849Y-14140841D01*
X10186849Y-14140841D02*
X10167801Y-14131317D01*
X10167801Y-14131317D02*
X10139230Y-14131317D01*
X10139230Y-14131317D02*
X10120182Y-14121793D01*
X10120182Y-14121793D02*
X10110658Y-14102746D01*
X10110658Y-14102746D02*
X10110658Y-14093222D01*
X10110658Y-14093222D02*
X10120182Y-14074174D01*
X10120182Y-14074174D02*
X10139230Y-14064650D01*
X10139230Y-14064650D02*
X10167801Y-14064650D01*
X10167801Y-14064650D02*
X10186849Y-14074174D01*
X10263039Y-14274174D02*
X10272563Y-14264650D01*
X10272563Y-14264650D02*
X10291611Y-14236079D01*
X10291611Y-14236079D02*
X10301134Y-14217031D01*
X10301134Y-14217031D02*
X10310658Y-14188460D01*
X10310658Y-14188460D02*
X10320182Y-14140841D01*
X10320182Y-14140841D02*
X10320182Y-14102746D01*
X10320182Y-14102746D02*
X10310658Y-14055127D01*
X10310658Y-14055127D02*
X10301134Y-14026555D01*
X10301134Y-14026555D02*
X10291611Y-14007508D01*
X10291611Y-14007508D02*
X10272563Y-13978936D01*
X10272563Y-13978936D02*
X10263039Y-13969412D01*
D12*
X5247500Y-14320500D02*
X5247500Y-14420500D01*
X5197500Y-14370500D02*
X5297500Y-14370500D01*
D11*
X5663039Y-14461984D02*
X5548753Y-14461984D01*
X5605896Y-14461984D02*
X5605896Y-14261984D01*
X5605896Y-14261984D02*
X5586848Y-14290555D01*
X5586848Y-14290555D02*
X5567801Y-14309603D01*
X5567801Y-14309603D02*
X5548753Y-14319127D01*
X5748753Y-14442936D02*
X5758277Y-14452460D01*
X5758277Y-14452460D02*
X5748753Y-14461984D01*
X5748753Y-14461984D02*
X5739229Y-14452460D01*
X5739229Y-14452460D02*
X5748753Y-14442936D01*
X5748753Y-14442936D02*
X5748753Y-14461984D01*
X5882086Y-14261984D02*
X5901134Y-14261984D01*
X5901134Y-14261984D02*
X5920182Y-14271508D01*
X5920182Y-14271508D02*
X5929705Y-14281031D01*
X5929705Y-14281031D02*
X5939229Y-14300079D01*
X5939229Y-14300079D02*
X5948753Y-14338174D01*
X5948753Y-14338174D02*
X5948753Y-14385793D01*
X5948753Y-14385793D02*
X5939229Y-14423888D01*
X5939229Y-14423888D02*
X5929705Y-14442936D01*
X5929705Y-14442936D02*
X5920182Y-14452460D01*
X5920182Y-14452460D02*
X5901134Y-14461984D01*
X5901134Y-14461984D02*
X5882086Y-14461984D01*
X5882086Y-14461984D02*
X5863039Y-14452460D01*
X5863039Y-14452460D02*
X5853515Y-14442936D01*
X5853515Y-14442936D02*
X5843991Y-14423888D01*
X5843991Y-14423888D02*
X5834467Y-14385793D01*
X5834467Y-14385793D02*
X5834467Y-14338174D01*
X5834467Y-14338174D02*
X5843991Y-14300079D01*
X5843991Y-14300079D02*
X5853515Y-14281031D01*
X5853515Y-14281031D02*
X5863039Y-14271508D01*
X5863039Y-14271508D02*
X5882086Y-14261984D01*
X6072562Y-14261984D02*
X6091610Y-14261984D01*
X6091610Y-14261984D02*
X6110658Y-14271508D01*
X6110658Y-14271508D02*
X6120182Y-14281031D01*
X6120182Y-14281031D02*
X6129705Y-14300079D01*
X6129705Y-14300079D02*
X6139229Y-14338174D01*
X6139229Y-14338174D02*
X6139229Y-14385793D01*
X6139229Y-14385793D02*
X6129705Y-14423888D01*
X6129705Y-14423888D02*
X6120182Y-14442936D01*
X6120182Y-14442936D02*
X6110658Y-14452460D01*
X6110658Y-14452460D02*
X6091610Y-14461984D01*
X6091610Y-14461984D02*
X6072562Y-14461984D01*
X6072562Y-14461984D02*
X6053515Y-14452460D01*
X6053515Y-14452460D02*
X6043991Y-14442936D01*
X6043991Y-14442936D02*
X6034467Y-14423888D01*
X6034467Y-14423888D02*
X6024943Y-14385793D01*
X6024943Y-14385793D02*
X6024943Y-14338174D01*
X6024943Y-14338174D02*
X6034467Y-14300079D01*
X6034467Y-14300079D02*
X6043991Y-14281031D01*
X6043991Y-14281031D02*
X6053515Y-14271508D01*
X6053515Y-14271508D02*
X6072562Y-14261984D01*
X6263039Y-14261984D02*
X6282086Y-14261984D01*
X6282086Y-14261984D02*
X6301134Y-14271508D01*
X6301134Y-14271508D02*
X6310658Y-14281031D01*
X6310658Y-14281031D02*
X6320182Y-14300079D01*
X6320182Y-14300079D02*
X6329705Y-14338174D01*
X6329705Y-14338174D02*
X6329705Y-14385793D01*
X6329705Y-14385793D02*
X6320182Y-14423888D01*
X6320182Y-14423888D02*
X6310658Y-14442936D01*
X6310658Y-14442936D02*
X6301134Y-14452460D01*
X6301134Y-14452460D02*
X6282086Y-14461984D01*
X6282086Y-14461984D02*
X6263039Y-14461984D01*
X6263039Y-14461984D02*
X6243991Y-14452460D01*
X6243991Y-14452460D02*
X6234467Y-14442936D01*
X6234467Y-14442936D02*
X6224943Y-14423888D01*
X6224943Y-14423888D02*
X6215420Y-14385793D01*
X6215420Y-14385793D02*
X6215420Y-14338174D01*
X6215420Y-14338174D02*
X6224943Y-14300079D01*
X6224943Y-14300079D02*
X6234467Y-14281031D01*
X6234467Y-14281031D02*
X6243991Y-14271508D01*
X6243991Y-14271508D02*
X6263039Y-14261984D01*
X6415420Y-14461984D02*
X6415420Y-14328650D01*
X6415420Y-14347698D02*
X6424943Y-14338174D01*
X6424943Y-14338174D02*
X6443991Y-14328650D01*
X6443991Y-14328650D02*
X6472563Y-14328650D01*
X6472563Y-14328650D02*
X6491610Y-14338174D01*
X6491610Y-14338174D02*
X6501134Y-14357222D01*
X6501134Y-14357222D02*
X6501134Y-14461984D01*
X6501134Y-14357222D02*
X6510658Y-14338174D01*
X6510658Y-14338174D02*
X6529705Y-14328650D01*
X6529705Y-14328650D02*
X6558277Y-14328650D01*
X6558277Y-14328650D02*
X6577324Y-14338174D01*
X6577324Y-14338174D02*
X6586848Y-14357222D01*
X6586848Y-14357222D02*
X6586848Y-14461984D01*
X6682086Y-14461984D02*
X6682086Y-14328650D01*
X6682086Y-14347698D02*
X6691610Y-14338174D01*
X6691610Y-14338174D02*
X6710658Y-14328650D01*
X6710658Y-14328650D02*
X6739229Y-14328650D01*
X6739229Y-14328650D02*
X6758277Y-14338174D01*
X6758277Y-14338174D02*
X6767801Y-14357222D01*
X6767801Y-14357222D02*
X6767801Y-14461984D01*
X6767801Y-14357222D02*
X6777324Y-14338174D01*
X6777324Y-14338174D02*
X6796372Y-14328650D01*
X6796372Y-14328650D02*
X6824943Y-14328650D01*
X6824943Y-14328650D02*
X6843991Y-14338174D01*
X6843991Y-14338174D02*
X6853515Y-14357222D01*
X6853515Y-14357222D02*
X6853515Y-14461984D01*
X7243991Y-14252460D02*
X7072563Y-14509603D01*
X7501134Y-14261984D02*
X7520182Y-14261984D01*
X7520182Y-14261984D02*
X7539229Y-14271508D01*
X7539229Y-14271508D02*
X7548753Y-14281031D01*
X7548753Y-14281031D02*
X7558277Y-14300079D01*
X7558277Y-14300079D02*
X7567801Y-14338174D01*
X7567801Y-14338174D02*
X7567801Y-14385793D01*
X7567801Y-14385793D02*
X7558277Y-14423888D01*
X7558277Y-14423888D02*
X7548753Y-14442936D01*
X7548753Y-14442936D02*
X7539229Y-14452460D01*
X7539229Y-14452460D02*
X7520182Y-14461984D01*
X7520182Y-14461984D02*
X7501134Y-14461984D01*
X7501134Y-14461984D02*
X7482086Y-14452460D01*
X7482086Y-14452460D02*
X7472563Y-14442936D01*
X7472563Y-14442936D02*
X7463039Y-14423888D01*
X7463039Y-14423888D02*
X7453515Y-14385793D01*
X7453515Y-14385793D02*
X7453515Y-14338174D01*
X7453515Y-14338174D02*
X7463039Y-14300079D01*
X7463039Y-14300079D02*
X7472563Y-14281031D01*
X7472563Y-14281031D02*
X7482086Y-14271508D01*
X7482086Y-14271508D02*
X7501134Y-14261984D01*
X7653515Y-14442936D02*
X7663039Y-14452460D01*
X7663039Y-14452460D02*
X7653515Y-14461984D01*
X7653515Y-14461984D02*
X7643991Y-14452460D01*
X7643991Y-14452460D02*
X7653515Y-14442936D01*
X7653515Y-14442936D02*
X7653515Y-14461984D01*
X7786848Y-14261984D02*
X7805896Y-14261984D01*
X7805896Y-14261984D02*
X7824944Y-14271508D01*
X7824944Y-14271508D02*
X7834467Y-14281031D01*
X7834467Y-14281031D02*
X7843991Y-14300079D01*
X7843991Y-14300079D02*
X7853515Y-14338174D01*
X7853515Y-14338174D02*
X7853515Y-14385793D01*
X7853515Y-14385793D02*
X7843991Y-14423888D01*
X7843991Y-14423888D02*
X7834467Y-14442936D01*
X7834467Y-14442936D02*
X7824944Y-14452460D01*
X7824944Y-14452460D02*
X7805896Y-14461984D01*
X7805896Y-14461984D02*
X7786848Y-14461984D01*
X7786848Y-14461984D02*
X7767801Y-14452460D01*
X7767801Y-14452460D02*
X7758277Y-14442936D01*
X7758277Y-14442936D02*
X7748753Y-14423888D01*
X7748753Y-14423888D02*
X7739229Y-14385793D01*
X7739229Y-14385793D02*
X7739229Y-14338174D01*
X7739229Y-14338174D02*
X7748753Y-14300079D01*
X7748753Y-14300079D02*
X7758277Y-14281031D01*
X7758277Y-14281031D02*
X7767801Y-14271508D01*
X7767801Y-14271508D02*
X7786848Y-14261984D01*
X7920182Y-14261984D02*
X8043991Y-14261984D01*
X8043991Y-14261984D02*
X7977325Y-14338174D01*
X7977325Y-14338174D02*
X8005896Y-14338174D01*
X8005896Y-14338174D02*
X8024944Y-14347698D01*
X8024944Y-14347698D02*
X8034467Y-14357222D01*
X8034467Y-14357222D02*
X8043991Y-14376269D01*
X8043991Y-14376269D02*
X8043991Y-14423888D01*
X8043991Y-14423888D02*
X8034467Y-14442936D01*
X8034467Y-14442936D02*
X8024944Y-14452460D01*
X8024944Y-14452460D02*
X8005896Y-14461984D01*
X8005896Y-14461984D02*
X7948753Y-14461984D01*
X7948753Y-14461984D02*
X7929706Y-14452460D01*
X7929706Y-14452460D02*
X7920182Y-14442936D01*
X8139229Y-14461984D02*
X8177325Y-14461984D01*
X8177325Y-14461984D02*
X8196372Y-14452460D01*
X8196372Y-14452460D02*
X8205896Y-14442936D01*
X8205896Y-14442936D02*
X8224944Y-14414365D01*
X8224944Y-14414365D02*
X8234467Y-14376269D01*
X8234467Y-14376269D02*
X8234467Y-14300079D01*
X8234467Y-14300079D02*
X8224944Y-14281031D01*
X8224944Y-14281031D02*
X8215420Y-14271508D01*
X8215420Y-14271508D02*
X8196372Y-14261984D01*
X8196372Y-14261984D02*
X8158277Y-14261984D01*
X8158277Y-14261984D02*
X8139229Y-14271508D01*
X8139229Y-14271508D02*
X8129706Y-14281031D01*
X8129706Y-14281031D02*
X8120182Y-14300079D01*
X8120182Y-14300079D02*
X8120182Y-14347698D01*
X8120182Y-14347698D02*
X8129706Y-14366746D01*
X8129706Y-14366746D02*
X8139229Y-14376269D01*
X8139229Y-14376269D02*
X8158277Y-14385793D01*
X8158277Y-14385793D02*
X8196372Y-14385793D01*
X8196372Y-14385793D02*
X8215420Y-14376269D01*
X8215420Y-14376269D02*
X8224944Y-14366746D01*
X8224944Y-14366746D02*
X8234467Y-14347698D01*
X8405896Y-14328650D02*
X8405896Y-14461984D01*
X8358277Y-14252460D02*
X8310658Y-14395317D01*
X8310658Y-14395317D02*
X8434468Y-14395317D01*
X8501134Y-14261984D02*
X8501134Y-14300079D01*
X8577325Y-14261984D02*
X8577325Y-14300079D01*
X8872563Y-14538174D02*
X8863039Y-14528650D01*
X8863039Y-14528650D02*
X8843991Y-14500079D01*
X8843991Y-14500079D02*
X8834468Y-14481031D01*
X8834468Y-14481031D02*
X8824944Y-14452460D01*
X8824944Y-14452460D02*
X8815420Y-14404841D01*
X8815420Y-14404841D02*
X8815420Y-14366746D01*
X8815420Y-14366746D02*
X8824944Y-14319127D01*
X8824944Y-14319127D02*
X8834468Y-14290555D01*
X8834468Y-14290555D02*
X8843991Y-14271508D01*
X8843991Y-14271508D02*
X8863039Y-14242936D01*
X8863039Y-14242936D02*
X8872563Y-14233412D01*
X8939230Y-14281031D02*
X8948753Y-14271508D01*
X8948753Y-14271508D02*
X8967801Y-14261984D01*
X8967801Y-14261984D02*
X9015420Y-14261984D01*
X9015420Y-14261984D02*
X9034468Y-14271508D01*
X9034468Y-14271508D02*
X9043991Y-14281031D01*
X9043991Y-14281031D02*
X9053515Y-14300079D01*
X9053515Y-14300079D02*
X9053515Y-14319127D01*
X9053515Y-14319127D02*
X9043991Y-14347698D01*
X9043991Y-14347698D02*
X8929706Y-14461984D01*
X8929706Y-14461984D02*
X9053515Y-14461984D01*
X9291611Y-14461984D02*
X9291611Y-14261984D01*
X9377325Y-14461984D02*
X9377325Y-14357222D01*
X9377325Y-14357222D02*
X9367801Y-14338174D01*
X9367801Y-14338174D02*
X9348753Y-14328650D01*
X9348753Y-14328650D02*
X9320182Y-14328650D01*
X9320182Y-14328650D02*
X9301134Y-14338174D01*
X9301134Y-14338174D02*
X9291611Y-14347698D01*
X9501134Y-14461984D02*
X9482087Y-14452460D01*
X9482087Y-14452460D02*
X9472563Y-14442936D01*
X9472563Y-14442936D02*
X9463039Y-14423888D01*
X9463039Y-14423888D02*
X9463039Y-14366746D01*
X9463039Y-14366746D02*
X9472563Y-14347698D01*
X9472563Y-14347698D02*
X9482087Y-14338174D01*
X9482087Y-14338174D02*
X9501134Y-14328650D01*
X9501134Y-14328650D02*
X9529706Y-14328650D01*
X9529706Y-14328650D02*
X9548753Y-14338174D01*
X9548753Y-14338174D02*
X9558277Y-14347698D01*
X9558277Y-14347698D02*
X9567801Y-14366746D01*
X9567801Y-14366746D02*
X9567801Y-14423888D01*
X9567801Y-14423888D02*
X9558277Y-14442936D01*
X9558277Y-14442936D02*
X9548753Y-14452460D01*
X9548753Y-14452460D02*
X9529706Y-14461984D01*
X9529706Y-14461984D02*
X9501134Y-14461984D01*
X9682087Y-14461984D02*
X9663039Y-14452460D01*
X9663039Y-14452460D02*
X9653515Y-14433412D01*
X9653515Y-14433412D02*
X9653515Y-14261984D01*
X9834468Y-14452460D02*
X9815420Y-14461984D01*
X9815420Y-14461984D02*
X9777325Y-14461984D01*
X9777325Y-14461984D02*
X9758277Y-14452460D01*
X9758277Y-14452460D02*
X9748753Y-14433412D01*
X9748753Y-14433412D02*
X9748753Y-14357222D01*
X9748753Y-14357222D02*
X9758277Y-14338174D01*
X9758277Y-14338174D02*
X9777325Y-14328650D01*
X9777325Y-14328650D02*
X9815420Y-14328650D01*
X9815420Y-14328650D02*
X9834468Y-14338174D01*
X9834468Y-14338174D02*
X9843992Y-14357222D01*
X9843992Y-14357222D02*
X9843992Y-14376269D01*
X9843992Y-14376269D02*
X9748753Y-14395317D01*
X9920182Y-14452460D02*
X9939230Y-14461984D01*
X9939230Y-14461984D02*
X9977325Y-14461984D01*
X9977325Y-14461984D02*
X9996373Y-14452460D01*
X9996373Y-14452460D02*
X10005896Y-14433412D01*
X10005896Y-14433412D02*
X10005896Y-14423888D01*
X10005896Y-14423888D02*
X9996373Y-14404841D01*
X9996373Y-14404841D02*
X9977325Y-14395317D01*
X9977325Y-14395317D02*
X9948753Y-14395317D01*
X9948753Y-14395317D02*
X9929706Y-14385793D01*
X9929706Y-14385793D02*
X9920182Y-14366746D01*
X9920182Y-14366746D02*
X9920182Y-14357222D01*
X9920182Y-14357222D02*
X9929706Y-14338174D01*
X9929706Y-14338174D02*
X9948753Y-14328650D01*
X9948753Y-14328650D02*
X9977325Y-14328650D01*
X9977325Y-14328650D02*
X9996373Y-14338174D01*
X10072563Y-14538174D02*
X10082087Y-14528650D01*
X10082087Y-14528650D02*
X10101134Y-14500079D01*
X10101134Y-14500079D02*
X10110658Y-14481031D01*
X10110658Y-14481031D02*
X10120182Y-14452460D01*
X10120182Y-14452460D02*
X10129706Y-14404841D01*
X10129706Y-14404841D02*
X10129706Y-14366746D01*
X10129706Y-14366746D02*
X10120182Y-14319127D01*
X10120182Y-14319127D02*
X10110658Y-14290555D01*
X10110658Y-14290555D02*
X10101134Y-14271508D01*
X10101134Y-14271508D02*
X10082087Y-14242936D01*
X10082087Y-14242936D02*
X10072563Y-14233412D01*
D13*
X5282563Y-14670563D02*
X5282563Y-14598437D01*
X5210437Y-14598437D01*
X5210437Y-14670563D01*
X5282563Y-14670563D01*
D11*
X5663039Y-14725984D02*
X5548753Y-14725984D01*
X5605896Y-14725984D02*
X5605896Y-14525984D01*
X5605896Y-14525984D02*
X5586848Y-14554555D01*
X5586848Y-14554555D02*
X5567801Y-14573603D01*
X5567801Y-14573603D02*
X5548753Y-14583127D01*
X5748753Y-14706936D02*
X5758277Y-14716460D01*
X5758277Y-14716460D02*
X5748753Y-14725984D01*
X5748753Y-14725984D02*
X5739229Y-14716460D01*
X5739229Y-14716460D02*
X5748753Y-14706936D01*
X5748753Y-14706936D02*
X5748753Y-14725984D01*
X5882086Y-14525984D02*
X5901134Y-14525984D01*
X5901134Y-14525984D02*
X5920182Y-14535508D01*
X5920182Y-14535508D02*
X5929705Y-14545031D01*
X5929705Y-14545031D02*
X5939229Y-14564079D01*
X5939229Y-14564079D02*
X5948753Y-14602174D01*
X5948753Y-14602174D02*
X5948753Y-14649793D01*
X5948753Y-14649793D02*
X5939229Y-14687888D01*
X5939229Y-14687888D02*
X5929705Y-14706936D01*
X5929705Y-14706936D02*
X5920182Y-14716460D01*
X5920182Y-14716460D02*
X5901134Y-14725984D01*
X5901134Y-14725984D02*
X5882086Y-14725984D01*
X5882086Y-14725984D02*
X5863039Y-14716460D01*
X5863039Y-14716460D02*
X5853515Y-14706936D01*
X5853515Y-14706936D02*
X5843991Y-14687888D01*
X5843991Y-14687888D02*
X5834467Y-14649793D01*
X5834467Y-14649793D02*
X5834467Y-14602174D01*
X5834467Y-14602174D02*
X5843991Y-14564079D01*
X5843991Y-14564079D02*
X5853515Y-14545031D01*
X5853515Y-14545031D02*
X5863039Y-14535508D01*
X5863039Y-14535508D02*
X5882086Y-14525984D01*
X6024943Y-14545031D02*
X6034467Y-14535508D01*
X6034467Y-14535508D02*
X6053515Y-14525984D01*
X6053515Y-14525984D02*
X6101134Y-14525984D01*
X6101134Y-14525984D02*
X6120182Y-14535508D01*
X6120182Y-14535508D02*
X6129705Y-14545031D01*
X6129705Y-14545031D02*
X6139229Y-14564079D01*
X6139229Y-14564079D02*
X6139229Y-14583127D01*
X6139229Y-14583127D02*
X6129705Y-14611698D01*
X6129705Y-14611698D02*
X6015420Y-14725984D01*
X6015420Y-14725984D02*
X6139229Y-14725984D01*
X6263039Y-14525984D02*
X6282086Y-14525984D01*
X6282086Y-14525984D02*
X6301134Y-14535508D01*
X6301134Y-14535508D02*
X6310658Y-14545031D01*
X6310658Y-14545031D02*
X6320182Y-14564079D01*
X6320182Y-14564079D02*
X6329705Y-14602174D01*
X6329705Y-14602174D02*
X6329705Y-14649793D01*
X6329705Y-14649793D02*
X6320182Y-14687888D01*
X6320182Y-14687888D02*
X6310658Y-14706936D01*
X6310658Y-14706936D02*
X6301134Y-14716460D01*
X6301134Y-14716460D02*
X6282086Y-14725984D01*
X6282086Y-14725984D02*
X6263039Y-14725984D01*
X6263039Y-14725984D02*
X6243991Y-14716460D01*
X6243991Y-14716460D02*
X6234467Y-14706936D01*
X6234467Y-14706936D02*
X6224943Y-14687888D01*
X6224943Y-14687888D02*
X6215420Y-14649793D01*
X6215420Y-14649793D02*
X6215420Y-14602174D01*
X6215420Y-14602174D02*
X6224943Y-14564079D01*
X6224943Y-14564079D02*
X6234467Y-14545031D01*
X6234467Y-14545031D02*
X6243991Y-14535508D01*
X6243991Y-14535508D02*
X6263039Y-14525984D01*
X6415420Y-14725984D02*
X6415420Y-14592650D01*
X6415420Y-14611698D02*
X6424943Y-14602174D01*
X6424943Y-14602174D02*
X6443991Y-14592650D01*
X6443991Y-14592650D02*
X6472563Y-14592650D01*
X6472563Y-14592650D02*
X6491610Y-14602174D01*
X6491610Y-14602174D02*
X6501134Y-14621222D01*
X6501134Y-14621222D02*
X6501134Y-14725984D01*
X6501134Y-14621222D02*
X6510658Y-14602174D01*
X6510658Y-14602174D02*
X6529705Y-14592650D01*
X6529705Y-14592650D02*
X6558277Y-14592650D01*
X6558277Y-14592650D02*
X6577324Y-14602174D01*
X6577324Y-14602174D02*
X6586848Y-14621222D01*
X6586848Y-14621222D02*
X6586848Y-14725984D01*
X6682086Y-14725984D02*
X6682086Y-14592650D01*
X6682086Y-14611698D02*
X6691610Y-14602174D01*
X6691610Y-14602174D02*
X6710658Y-14592650D01*
X6710658Y-14592650D02*
X6739229Y-14592650D01*
X6739229Y-14592650D02*
X6758277Y-14602174D01*
X6758277Y-14602174D02*
X6767801Y-14621222D01*
X6767801Y-14621222D02*
X6767801Y-14725984D01*
X6767801Y-14621222D02*
X6777324Y-14602174D01*
X6777324Y-14602174D02*
X6796372Y-14592650D01*
X6796372Y-14592650D02*
X6824943Y-14592650D01*
X6824943Y-14592650D02*
X6843991Y-14602174D01*
X6843991Y-14602174D02*
X6853515Y-14621222D01*
X6853515Y-14621222D02*
X6853515Y-14725984D01*
X7243991Y-14516460D02*
X7072563Y-14773603D01*
X7501134Y-14525984D02*
X7520182Y-14525984D01*
X7520182Y-14525984D02*
X7539229Y-14535508D01*
X7539229Y-14535508D02*
X7548753Y-14545031D01*
X7548753Y-14545031D02*
X7558277Y-14564079D01*
X7558277Y-14564079D02*
X7567801Y-14602174D01*
X7567801Y-14602174D02*
X7567801Y-14649793D01*
X7567801Y-14649793D02*
X7558277Y-14687888D01*
X7558277Y-14687888D02*
X7548753Y-14706936D01*
X7548753Y-14706936D02*
X7539229Y-14716460D01*
X7539229Y-14716460D02*
X7520182Y-14725984D01*
X7520182Y-14725984D02*
X7501134Y-14725984D01*
X7501134Y-14725984D02*
X7482086Y-14716460D01*
X7482086Y-14716460D02*
X7472563Y-14706936D01*
X7472563Y-14706936D02*
X7463039Y-14687888D01*
X7463039Y-14687888D02*
X7453515Y-14649793D01*
X7453515Y-14649793D02*
X7453515Y-14602174D01*
X7453515Y-14602174D02*
X7463039Y-14564079D01*
X7463039Y-14564079D02*
X7472563Y-14545031D01*
X7472563Y-14545031D02*
X7482086Y-14535508D01*
X7482086Y-14535508D02*
X7501134Y-14525984D01*
X7653515Y-14706936D02*
X7663039Y-14716460D01*
X7663039Y-14716460D02*
X7653515Y-14725984D01*
X7653515Y-14725984D02*
X7643991Y-14716460D01*
X7643991Y-14716460D02*
X7653515Y-14706936D01*
X7653515Y-14706936D02*
X7653515Y-14725984D01*
X7786848Y-14525984D02*
X7805896Y-14525984D01*
X7805896Y-14525984D02*
X7824944Y-14535508D01*
X7824944Y-14535508D02*
X7834467Y-14545031D01*
X7834467Y-14545031D02*
X7843991Y-14564079D01*
X7843991Y-14564079D02*
X7853515Y-14602174D01*
X7853515Y-14602174D02*
X7853515Y-14649793D01*
X7853515Y-14649793D02*
X7843991Y-14687888D01*
X7843991Y-14687888D02*
X7834467Y-14706936D01*
X7834467Y-14706936D02*
X7824944Y-14716460D01*
X7824944Y-14716460D02*
X7805896Y-14725984D01*
X7805896Y-14725984D02*
X7786848Y-14725984D01*
X7786848Y-14725984D02*
X7767801Y-14716460D01*
X7767801Y-14716460D02*
X7758277Y-14706936D01*
X7758277Y-14706936D02*
X7748753Y-14687888D01*
X7748753Y-14687888D02*
X7739229Y-14649793D01*
X7739229Y-14649793D02*
X7739229Y-14602174D01*
X7739229Y-14602174D02*
X7748753Y-14564079D01*
X7748753Y-14564079D02*
X7758277Y-14545031D01*
X7758277Y-14545031D02*
X7767801Y-14535508D01*
X7767801Y-14535508D02*
X7786848Y-14525984D01*
X8024944Y-14592650D02*
X8024944Y-14725984D01*
X7977325Y-14516460D02*
X7929706Y-14659317D01*
X7929706Y-14659317D02*
X8053515Y-14659317D01*
X8167801Y-14525984D02*
X8186848Y-14525984D01*
X8186848Y-14525984D02*
X8205896Y-14535508D01*
X8205896Y-14535508D02*
X8215420Y-14545031D01*
X8215420Y-14545031D02*
X8224944Y-14564079D01*
X8224944Y-14564079D02*
X8234467Y-14602174D01*
X8234467Y-14602174D02*
X8234467Y-14649793D01*
X8234467Y-14649793D02*
X8224944Y-14687888D01*
X8224944Y-14687888D02*
X8215420Y-14706936D01*
X8215420Y-14706936D02*
X8205896Y-14716460D01*
X8205896Y-14716460D02*
X8186848Y-14725984D01*
X8186848Y-14725984D02*
X8167801Y-14725984D01*
X8167801Y-14725984D02*
X8148753Y-14716460D01*
X8148753Y-14716460D02*
X8139229Y-14706936D01*
X8139229Y-14706936D02*
X8129706Y-14687888D01*
X8129706Y-14687888D02*
X8120182Y-14649793D01*
X8120182Y-14649793D02*
X8120182Y-14602174D01*
X8120182Y-14602174D02*
X8129706Y-14564079D01*
X8129706Y-14564079D02*
X8139229Y-14545031D01*
X8139229Y-14545031D02*
X8148753Y-14535508D01*
X8148753Y-14535508D02*
X8167801Y-14525984D01*
X8310658Y-14545031D02*
X8320182Y-14535508D01*
X8320182Y-14535508D02*
X8339229Y-14525984D01*
X8339229Y-14525984D02*
X8386848Y-14525984D01*
X8386848Y-14525984D02*
X8405896Y-14535508D01*
X8405896Y-14535508D02*
X8415420Y-14545031D01*
X8415420Y-14545031D02*
X8424944Y-14564079D01*
X8424944Y-14564079D02*
X8424944Y-14583127D01*
X8424944Y-14583127D02*
X8415420Y-14611698D01*
X8415420Y-14611698D02*
X8301134Y-14725984D01*
X8301134Y-14725984D02*
X8424944Y-14725984D01*
X8501134Y-14525984D02*
X8501134Y-14564079D01*
X8577325Y-14525984D02*
X8577325Y-14564079D01*
X8872563Y-14802174D02*
X8863039Y-14792650D01*
X8863039Y-14792650D02*
X8843991Y-14764079D01*
X8843991Y-14764079D02*
X8834468Y-14745031D01*
X8834468Y-14745031D02*
X8824944Y-14716460D01*
X8824944Y-14716460D02*
X8815420Y-14668841D01*
X8815420Y-14668841D02*
X8815420Y-14630746D01*
X8815420Y-14630746D02*
X8824944Y-14583127D01*
X8824944Y-14583127D02*
X8834468Y-14554555D01*
X8834468Y-14554555D02*
X8843991Y-14535508D01*
X8843991Y-14535508D02*
X8863039Y-14506936D01*
X8863039Y-14506936D02*
X8872563Y-14497412D01*
X8929706Y-14525984D02*
X9053515Y-14525984D01*
X9053515Y-14525984D02*
X8986849Y-14602174D01*
X8986849Y-14602174D02*
X9015420Y-14602174D01*
X9015420Y-14602174D02*
X9034468Y-14611698D01*
X9034468Y-14611698D02*
X9043991Y-14621222D01*
X9043991Y-14621222D02*
X9053515Y-14640269D01*
X9053515Y-14640269D02*
X9053515Y-14687888D01*
X9053515Y-14687888D02*
X9043991Y-14706936D01*
X9043991Y-14706936D02*
X9034468Y-14716460D01*
X9034468Y-14716460D02*
X9015420Y-14725984D01*
X9015420Y-14725984D02*
X8958277Y-14725984D01*
X8958277Y-14725984D02*
X8939230Y-14716460D01*
X8939230Y-14716460D02*
X8929706Y-14706936D01*
X9129706Y-14545031D02*
X9139230Y-14535508D01*
X9139230Y-14535508D02*
X9158277Y-14525984D01*
X9158277Y-14525984D02*
X9205896Y-14525984D01*
X9205896Y-14525984D02*
X9224944Y-14535508D01*
X9224944Y-14535508D02*
X9234468Y-14545031D01*
X9234468Y-14545031D02*
X9243991Y-14564079D01*
X9243991Y-14564079D02*
X9243991Y-14583127D01*
X9243991Y-14583127D02*
X9234468Y-14611698D01*
X9234468Y-14611698D02*
X9120182Y-14725984D01*
X9120182Y-14725984D02*
X9243991Y-14725984D01*
X9482087Y-14725984D02*
X9482087Y-14525984D01*
X9567801Y-14725984D02*
X9567801Y-14621222D01*
X9567801Y-14621222D02*
X9558277Y-14602174D01*
X9558277Y-14602174D02*
X9539230Y-14592650D01*
X9539230Y-14592650D02*
X9510658Y-14592650D01*
X9510658Y-14592650D02*
X9491611Y-14602174D01*
X9491611Y-14602174D02*
X9482087Y-14611698D01*
X9691611Y-14725984D02*
X9672563Y-14716460D01*
X9672563Y-14716460D02*
X9663039Y-14706936D01*
X9663039Y-14706936D02*
X9653515Y-14687888D01*
X9653515Y-14687888D02*
X9653515Y-14630746D01*
X9653515Y-14630746D02*
X9663039Y-14611698D01*
X9663039Y-14611698D02*
X9672563Y-14602174D01*
X9672563Y-14602174D02*
X9691611Y-14592650D01*
X9691611Y-14592650D02*
X9720182Y-14592650D01*
X9720182Y-14592650D02*
X9739230Y-14602174D01*
X9739230Y-14602174D02*
X9748753Y-14611698D01*
X9748753Y-14611698D02*
X9758277Y-14630746D01*
X9758277Y-14630746D02*
X9758277Y-14687888D01*
X9758277Y-14687888D02*
X9748753Y-14706936D01*
X9748753Y-14706936D02*
X9739230Y-14716460D01*
X9739230Y-14716460D02*
X9720182Y-14725984D01*
X9720182Y-14725984D02*
X9691611Y-14725984D01*
X9872563Y-14725984D02*
X9853515Y-14716460D01*
X9853515Y-14716460D02*
X9843992Y-14697412D01*
X9843992Y-14697412D02*
X9843992Y-14525984D01*
X10024944Y-14716460D02*
X10005896Y-14725984D01*
X10005896Y-14725984D02*
X9967801Y-14725984D01*
X9967801Y-14725984D02*
X9948753Y-14716460D01*
X9948753Y-14716460D02*
X9939230Y-14697412D01*
X9939230Y-14697412D02*
X9939230Y-14621222D01*
X9939230Y-14621222D02*
X9948753Y-14602174D01*
X9948753Y-14602174D02*
X9967801Y-14592650D01*
X9967801Y-14592650D02*
X10005896Y-14592650D01*
X10005896Y-14592650D02*
X10024944Y-14602174D01*
X10024944Y-14602174D02*
X10034468Y-14621222D01*
X10034468Y-14621222D02*
X10034468Y-14640269D01*
X10034468Y-14640269D02*
X9939230Y-14659317D01*
X10110658Y-14716460D02*
X10129706Y-14725984D01*
X10129706Y-14725984D02*
X10167801Y-14725984D01*
X10167801Y-14725984D02*
X10186849Y-14716460D01*
X10186849Y-14716460D02*
X10196373Y-14697412D01*
X10196373Y-14697412D02*
X10196373Y-14687888D01*
X10196373Y-14687888D02*
X10186849Y-14668841D01*
X10186849Y-14668841D02*
X10167801Y-14659317D01*
X10167801Y-14659317D02*
X10139230Y-14659317D01*
X10139230Y-14659317D02*
X10120182Y-14649793D01*
X10120182Y-14649793D02*
X10110658Y-14630746D01*
X10110658Y-14630746D02*
X10110658Y-14621222D01*
X10110658Y-14621222D02*
X10120182Y-14602174D01*
X10120182Y-14602174D02*
X10139230Y-14592650D01*
X10139230Y-14592650D02*
X10167801Y-14592650D01*
X10167801Y-14592650D02*
X10186849Y-14602174D01*
X10263039Y-14802174D02*
X10272563Y-14792650D01*
X10272563Y-14792650D02*
X10291611Y-14764079D01*
X10291611Y-14764079D02*
X10301134Y-14745031D01*
X10301134Y-14745031D02*
X10310658Y-14716460D01*
X10310658Y-14716460D02*
X10320182Y-14668841D01*
X10320182Y-14668841D02*
X10320182Y-14630746D01*
X10320182Y-14630746D02*
X10310658Y-14583127D01*
X10310658Y-14583127D02*
X10301134Y-14554555D01*
X10301134Y-14554555D02*
X10291611Y-14535508D01*
X10291611Y-14535508D02*
X10272563Y-14506936D01*
X10272563Y-14506936D02*
X10263039Y-14497412D01*
D14*
X5246446Y-14949554D02*
X5297500Y-14898500D01*
X5246446Y-14847446D01*
X5195392Y-14898500D01*
X5246446Y-14949554D01*
D11*
X5663039Y-14989984D02*
X5548753Y-14989984D01*
X5605896Y-14989984D02*
X5605896Y-14789984D01*
X5605896Y-14789984D02*
X5586848Y-14818555D01*
X5586848Y-14818555D02*
X5567801Y-14837603D01*
X5567801Y-14837603D02*
X5548753Y-14847127D01*
X5748753Y-14970936D02*
X5758277Y-14980460D01*
X5758277Y-14980460D02*
X5748753Y-14989984D01*
X5748753Y-14989984D02*
X5739229Y-14980460D01*
X5739229Y-14980460D02*
X5748753Y-14970936D01*
X5748753Y-14970936D02*
X5748753Y-14989984D01*
X5882086Y-14789984D02*
X5901134Y-14789984D01*
X5901134Y-14789984D02*
X5920182Y-14799508D01*
X5920182Y-14799508D02*
X5929705Y-14809031D01*
X5929705Y-14809031D02*
X5939229Y-14828079D01*
X5939229Y-14828079D02*
X5948753Y-14866174D01*
X5948753Y-14866174D02*
X5948753Y-14913793D01*
X5948753Y-14913793D02*
X5939229Y-14951888D01*
X5939229Y-14951888D02*
X5929705Y-14970936D01*
X5929705Y-14970936D02*
X5920182Y-14980460D01*
X5920182Y-14980460D02*
X5901134Y-14989984D01*
X5901134Y-14989984D02*
X5882086Y-14989984D01*
X5882086Y-14989984D02*
X5863039Y-14980460D01*
X5863039Y-14980460D02*
X5853515Y-14970936D01*
X5853515Y-14970936D02*
X5843991Y-14951888D01*
X5843991Y-14951888D02*
X5834467Y-14913793D01*
X5834467Y-14913793D02*
X5834467Y-14866174D01*
X5834467Y-14866174D02*
X5843991Y-14828079D01*
X5843991Y-14828079D02*
X5853515Y-14809031D01*
X5853515Y-14809031D02*
X5863039Y-14799508D01*
X5863039Y-14799508D02*
X5882086Y-14789984D01*
X6024943Y-14809031D02*
X6034467Y-14799508D01*
X6034467Y-14799508D02*
X6053515Y-14789984D01*
X6053515Y-14789984D02*
X6101134Y-14789984D01*
X6101134Y-14789984D02*
X6120182Y-14799508D01*
X6120182Y-14799508D02*
X6129705Y-14809031D01*
X6129705Y-14809031D02*
X6139229Y-14828079D01*
X6139229Y-14828079D02*
X6139229Y-14847127D01*
X6139229Y-14847127D02*
X6129705Y-14875698D01*
X6129705Y-14875698D02*
X6015420Y-14989984D01*
X6015420Y-14989984D02*
X6139229Y-14989984D01*
X6329705Y-14989984D02*
X6215420Y-14989984D01*
X6272562Y-14989984D02*
X6272562Y-14789984D01*
X6272562Y-14789984D02*
X6253515Y-14818555D01*
X6253515Y-14818555D02*
X6234467Y-14837603D01*
X6234467Y-14837603D02*
X6215420Y-14847127D01*
X6415420Y-14989984D02*
X6415420Y-14856650D01*
X6415420Y-14875698D02*
X6424943Y-14866174D01*
X6424943Y-14866174D02*
X6443991Y-14856650D01*
X6443991Y-14856650D02*
X6472563Y-14856650D01*
X6472563Y-14856650D02*
X6491610Y-14866174D01*
X6491610Y-14866174D02*
X6501134Y-14885222D01*
X6501134Y-14885222D02*
X6501134Y-14989984D01*
X6501134Y-14885222D02*
X6510658Y-14866174D01*
X6510658Y-14866174D02*
X6529705Y-14856650D01*
X6529705Y-14856650D02*
X6558277Y-14856650D01*
X6558277Y-14856650D02*
X6577324Y-14866174D01*
X6577324Y-14866174D02*
X6586848Y-14885222D01*
X6586848Y-14885222D02*
X6586848Y-14989984D01*
X6682086Y-14989984D02*
X6682086Y-14856650D01*
X6682086Y-14875698D02*
X6691610Y-14866174D01*
X6691610Y-14866174D02*
X6710658Y-14856650D01*
X6710658Y-14856650D02*
X6739229Y-14856650D01*
X6739229Y-14856650D02*
X6758277Y-14866174D01*
X6758277Y-14866174D02*
X6767801Y-14885222D01*
X6767801Y-14885222D02*
X6767801Y-14989984D01*
X6767801Y-14885222D02*
X6777324Y-14866174D01*
X6777324Y-14866174D02*
X6796372Y-14856650D01*
X6796372Y-14856650D02*
X6824943Y-14856650D01*
X6824943Y-14856650D02*
X6843991Y-14866174D01*
X6843991Y-14866174D02*
X6853515Y-14885222D01*
X6853515Y-14885222D02*
X6853515Y-14989984D01*
X7243991Y-14780460D02*
X7072563Y-15037603D01*
X7501134Y-14789984D02*
X7520182Y-14789984D01*
X7520182Y-14789984D02*
X7539229Y-14799508D01*
X7539229Y-14799508D02*
X7548753Y-14809031D01*
X7548753Y-14809031D02*
X7558277Y-14828079D01*
X7558277Y-14828079D02*
X7567801Y-14866174D01*
X7567801Y-14866174D02*
X7567801Y-14913793D01*
X7567801Y-14913793D02*
X7558277Y-14951888D01*
X7558277Y-14951888D02*
X7548753Y-14970936D01*
X7548753Y-14970936D02*
X7539229Y-14980460D01*
X7539229Y-14980460D02*
X7520182Y-14989984D01*
X7520182Y-14989984D02*
X7501134Y-14989984D01*
X7501134Y-14989984D02*
X7482086Y-14980460D01*
X7482086Y-14980460D02*
X7472563Y-14970936D01*
X7472563Y-14970936D02*
X7463039Y-14951888D01*
X7463039Y-14951888D02*
X7453515Y-14913793D01*
X7453515Y-14913793D02*
X7453515Y-14866174D01*
X7453515Y-14866174D02*
X7463039Y-14828079D01*
X7463039Y-14828079D02*
X7472563Y-14809031D01*
X7472563Y-14809031D02*
X7482086Y-14799508D01*
X7482086Y-14799508D02*
X7501134Y-14789984D01*
X7653515Y-14970936D02*
X7663039Y-14980460D01*
X7663039Y-14980460D02*
X7653515Y-14989984D01*
X7653515Y-14989984D02*
X7643991Y-14980460D01*
X7643991Y-14980460D02*
X7653515Y-14970936D01*
X7653515Y-14970936D02*
X7653515Y-14989984D01*
X7786848Y-14789984D02*
X7805896Y-14789984D01*
X7805896Y-14789984D02*
X7824944Y-14799508D01*
X7824944Y-14799508D02*
X7834467Y-14809031D01*
X7834467Y-14809031D02*
X7843991Y-14828079D01*
X7843991Y-14828079D02*
X7853515Y-14866174D01*
X7853515Y-14866174D02*
X7853515Y-14913793D01*
X7853515Y-14913793D02*
X7843991Y-14951888D01*
X7843991Y-14951888D02*
X7834467Y-14970936D01*
X7834467Y-14970936D02*
X7824944Y-14980460D01*
X7824944Y-14980460D02*
X7805896Y-14989984D01*
X7805896Y-14989984D02*
X7786848Y-14989984D01*
X7786848Y-14989984D02*
X7767801Y-14980460D01*
X7767801Y-14980460D02*
X7758277Y-14970936D01*
X7758277Y-14970936D02*
X7748753Y-14951888D01*
X7748753Y-14951888D02*
X7739229Y-14913793D01*
X7739229Y-14913793D02*
X7739229Y-14866174D01*
X7739229Y-14866174D02*
X7748753Y-14828079D01*
X7748753Y-14828079D02*
X7758277Y-14809031D01*
X7758277Y-14809031D02*
X7767801Y-14799508D01*
X7767801Y-14799508D02*
X7786848Y-14789984D01*
X8024944Y-14856650D02*
X8024944Y-14989984D01*
X7977325Y-14780460D02*
X7929706Y-14923317D01*
X7929706Y-14923317D02*
X8053515Y-14923317D01*
X8167801Y-14789984D02*
X8186848Y-14789984D01*
X8186848Y-14789984D02*
X8205896Y-14799508D01*
X8205896Y-14799508D02*
X8215420Y-14809031D01*
X8215420Y-14809031D02*
X8224944Y-14828079D01*
X8224944Y-14828079D02*
X8234467Y-14866174D01*
X8234467Y-14866174D02*
X8234467Y-14913793D01*
X8234467Y-14913793D02*
X8224944Y-14951888D01*
X8224944Y-14951888D02*
X8215420Y-14970936D01*
X8215420Y-14970936D02*
X8205896Y-14980460D01*
X8205896Y-14980460D02*
X8186848Y-14989984D01*
X8186848Y-14989984D02*
X8167801Y-14989984D01*
X8167801Y-14989984D02*
X8148753Y-14980460D01*
X8148753Y-14980460D02*
X8139229Y-14970936D01*
X8139229Y-14970936D02*
X8129706Y-14951888D01*
X8129706Y-14951888D02*
X8120182Y-14913793D01*
X8120182Y-14913793D02*
X8120182Y-14866174D01*
X8120182Y-14866174D02*
X8129706Y-14828079D01*
X8129706Y-14828079D02*
X8139229Y-14809031D01*
X8139229Y-14809031D02*
X8148753Y-14799508D01*
X8148753Y-14799508D02*
X8167801Y-14789984D01*
X8310658Y-14809031D02*
X8320182Y-14799508D01*
X8320182Y-14799508D02*
X8339229Y-14789984D01*
X8339229Y-14789984D02*
X8386848Y-14789984D01*
X8386848Y-14789984D02*
X8405896Y-14799508D01*
X8405896Y-14799508D02*
X8415420Y-14809031D01*
X8415420Y-14809031D02*
X8424944Y-14828079D01*
X8424944Y-14828079D02*
X8424944Y-14847127D01*
X8424944Y-14847127D02*
X8415420Y-14875698D01*
X8415420Y-14875698D02*
X8301134Y-14989984D01*
X8301134Y-14989984D02*
X8424944Y-14989984D01*
X8501134Y-14789984D02*
X8501134Y-14828079D01*
X8577325Y-14789984D02*
X8577325Y-14828079D01*
X8872563Y-15066174D02*
X8863039Y-15056650D01*
X8863039Y-15056650D02*
X8843991Y-15028079D01*
X8843991Y-15028079D02*
X8834468Y-15009031D01*
X8834468Y-15009031D02*
X8824944Y-14980460D01*
X8824944Y-14980460D02*
X8815420Y-14932841D01*
X8815420Y-14932841D02*
X8815420Y-14894746D01*
X8815420Y-14894746D02*
X8824944Y-14847127D01*
X8824944Y-14847127D02*
X8834468Y-14818555D01*
X8834468Y-14818555D02*
X8843991Y-14799508D01*
X8843991Y-14799508D02*
X8863039Y-14770936D01*
X8863039Y-14770936D02*
X8872563Y-14761412D01*
X8929706Y-14789984D02*
X9053515Y-14789984D01*
X9053515Y-14789984D02*
X8986849Y-14866174D01*
X8986849Y-14866174D02*
X9015420Y-14866174D01*
X9015420Y-14866174D02*
X9034468Y-14875698D01*
X9034468Y-14875698D02*
X9043991Y-14885222D01*
X9043991Y-14885222D02*
X9053515Y-14904269D01*
X9053515Y-14904269D02*
X9053515Y-14951888D01*
X9053515Y-14951888D02*
X9043991Y-14970936D01*
X9043991Y-14970936D02*
X9034468Y-14980460D01*
X9034468Y-14980460D02*
X9015420Y-14989984D01*
X9015420Y-14989984D02*
X8958277Y-14989984D01*
X8958277Y-14989984D02*
X8939230Y-14980460D01*
X8939230Y-14980460D02*
X8929706Y-14970936D01*
X9177325Y-14789984D02*
X9196372Y-14789984D01*
X9196372Y-14789984D02*
X9215420Y-14799508D01*
X9215420Y-14799508D02*
X9224944Y-14809031D01*
X9224944Y-14809031D02*
X9234468Y-14828079D01*
X9234468Y-14828079D02*
X9243991Y-14866174D01*
X9243991Y-14866174D02*
X9243991Y-14913793D01*
X9243991Y-14913793D02*
X9234468Y-14951888D01*
X9234468Y-14951888D02*
X9224944Y-14970936D01*
X9224944Y-14970936D02*
X9215420Y-14980460D01*
X9215420Y-14980460D02*
X9196372Y-14989984D01*
X9196372Y-14989984D02*
X9177325Y-14989984D01*
X9177325Y-14989984D02*
X9158277Y-14980460D01*
X9158277Y-14980460D02*
X9148753Y-14970936D01*
X9148753Y-14970936D02*
X9139230Y-14951888D01*
X9139230Y-14951888D02*
X9129706Y-14913793D01*
X9129706Y-14913793D02*
X9129706Y-14866174D01*
X9129706Y-14866174D02*
X9139230Y-14828079D01*
X9139230Y-14828079D02*
X9148753Y-14809031D01*
X9148753Y-14809031D02*
X9158277Y-14799508D01*
X9158277Y-14799508D02*
X9177325Y-14789984D01*
X9482087Y-14989984D02*
X9482087Y-14789984D01*
X9567801Y-14989984D02*
X9567801Y-14885222D01*
X9567801Y-14885222D02*
X9558277Y-14866174D01*
X9558277Y-14866174D02*
X9539230Y-14856650D01*
X9539230Y-14856650D02*
X9510658Y-14856650D01*
X9510658Y-14856650D02*
X9491611Y-14866174D01*
X9491611Y-14866174D02*
X9482087Y-14875698D01*
X9691611Y-14989984D02*
X9672563Y-14980460D01*
X9672563Y-14980460D02*
X9663039Y-14970936D01*
X9663039Y-14970936D02*
X9653515Y-14951888D01*
X9653515Y-14951888D02*
X9653515Y-14894746D01*
X9653515Y-14894746D02*
X9663039Y-14875698D01*
X9663039Y-14875698D02*
X9672563Y-14866174D01*
X9672563Y-14866174D02*
X9691611Y-14856650D01*
X9691611Y-14856650D02*
X9720182Y-14856650D01*
X9720182Y-14856650D02*
X9739230Y-14866174D01*
X9739230Y-14866174D02*
X9748753Y-14875698D01*
X9748753Y-14875698D02*
X9758277Y-14894746D01*
X9758277Y-14894746D02*
X9758277Y-14951888D01*
X9758277Y-14951888D02*
X9748753Y-14970936D01*
X9748753Y-14970936D02*
X9739230Y-14980460D01*
X9739230Y-14980460D02*
X9720182Y-14989984D01*
X9720182Y-14989984D02*
X9691611Y-14989984D01*
X9872563Y-14989984D02*
X9853515Y-14980460D01*
X9853515Y-14980460D02*
X9843992Y-14961412D01*
X9843992Y-14961412D02*
X9843992Y-14789984D01*
X10024944Y-14980460D02*
X10005896Y-14989984D01*
X10005896Y-14989984D02*
X9967801Y-14989984D01*
X9967801Y-14989984D02*
X9948753Y-14980460D01*
X9948753Y-14980460D02*
X9939230Y-14961412D01*
X9939230Y-14961412D02*
X9939230Y-14885222D01*
X9939230Y-14885222D02*
X9948753Y-14866174D01*
X9948753Y-14866174D02*
X9967801Y-14856650D01*
X9967801Y-14856650D02*
X10005896Y-14856650D01*
X10005896Y-14856650D02*
X10024944Y-14866174D01*
X10024944Y-14866174D02*
X10034468Y-14885222D01*
X10034468Y-14885222D02*
X10034468Y-14904269D01*
X10034468Y-14904269D02*
X9939230Y-14923317D01*
X10110658Y-14980460D02*
X10129706Y-14989984D01*
X10129706Y-14989984D02*
X10167801Y-14989984D01*
X10167801Y-14989984D02*
X10186849Y-14980460D01*
X10186849Y-14980460D02*
X10196373Y-14961412D01*
X10196373Y-14961412D02*
X10196373Y-14951888D01*
X10196373Y-14951888D02*
X10186849Y-14932841D01*
X10186849Y-14932841D02*
X10167801Y-14923317D01*
X10167801Y-14923317D02*
X10139230Y-14923317D01*
X10139230Y-14923317D02*
X10120182Y-14913793D01*
X10120182Y-14913793D02*
X10110658Y-14894746D01*
X10110658Y-14894746D02*
X10110658Y-14885222D01*
X10110658Y-14885222D02*
X10120182Y-14866174D01*
X10120182Y-14866174D02*
X10139230Y-14856650D01*
X10139230Y-14856650D02*
X10167801Y-14856650D01*
X10167801Y-14856650D02*
X10186849Y-14866174D01*
X10263039Y-15066174D02*
X10272563Y-15056650D01*
X10272563Y-15056650D02*
X10291611Y-15028079D01*
X10291611Y-15028079D02*
X10301134Y-15009031D01*
X10301134Y-15009031D02*
X10310658Y-14980460D01*
X10310658Y-14980460D02*
X10320182Y-14932841D01*
X10320182Y-14932841D02*
X10320182Y-14894746D01*
X10320182Y-14894746D02*
X10310658Y-14847127D01*
X10310658Y-14847127D02*
X10301134Y-14818555D01*
X10301134Y-14818555D02*
X10291611Y-14799508D01*
X10291611Y-14799508D02*
X10272563Y-14770936D01*
X10272563Y-14770936D02*
X10263039Y-14761412D01*
D15*
X5119500Y-15073500D02*
X5297500Y-15251500D01*
X5297500Y-15073500D02*
X5119500Y-15251500D01*
X5297500Y-15162500D02*
G75*
G02*
X5119500Y-15162500I-89000J0D01*
G01*
X5119500Y-15162500D02*
G75*
G02*
X5297500Y-15162500I89000J0D01*
G01*
D11*
X5663039Y-15253984D02*
X5548753Y-15253984D01*
X5605896Y-15253984D02*
X5605896Y-15053984D01*
X5605896Y-15053984D02*
X5586848Y-15082555D01*
X5586848Y-15082555D02*
X5567801Y-15101603D01*
X5567801Y-15101603D02*
X5548753Y-15111127D01*
X5748753Y-15234936D02*
X5758277Y-15244460D01*
X5758277Y-15244460D02*
X5748753Y-15253984D01*
X5748753Y-15253984D02*
X5739229Y-15244460D01*
X5739229Y-15244460D02*
X5748753Y-15234936D01*
X5748753Y-15234936D02*
X5748753Y-15253984D01*
X5824943Y-15053984D02*
X5958277Y-15053984D01*
X5958277Y-15053984D02*
X5872562Y-15253984D01*
X6063039Y-15139698D02*
X6043991Y-15130174D01*
X6043991Y-15130174D02*
X6034467Y-15120650D01*
X6034467Y-15120650D02*
X6024943Y-15101603D01*
X6024943Y-15101603D02*
X6024943Y-15092079D01*
X6024943Y-15092079D02*
X6034467Y-15073031D01*
X6034467Y-15073031D02*
X6043991Y-15063508D01*
X6043991Y-15063508D02*
X6063039Y-15053984D01*
X6063039Y-15053984D02*
X6101134Y-15053984D01*
X6101134Y-15053984D02*
X6120182Y-15063508D01*
X6120182Y-15063508D02*
X6129705Y-15073031D01*
X6129705Y-15073031D02*
X6139229Y-15092079D01*
X6139229Y-15092079D02*
X6139229Y-15101603D01*
X6139229Y-15101603D02*
X6129705Y-15120650D01*
X6129705Y-15120650D02*
X6120182Y-15130174D01*
X6120182Y-15130174D02*
X6101134Y-15139698D01*
X6101134Y-15139698D02*
X6063039Y-15139698D01*
X6063039Y-15139698D02*
X6043991Y-15149222D01*
X6043991Y-15149222D02*
X6034467Y-15158746D01*
X6034467Y-15158746D02*
X6024943Y-15177793D01*
X6024943Y-15177793D02*
X6024943Y-15215888D01*
X6024943Y-15215888D02*
X6034467Y-15234936D01*
X6034467Y-15234936D02*
X6043991Y-15244460D01*
X6043991Y-15244460D02*
X6063039Y-15253984D01*
X6063039Y-15253984D02*
X6101134Y-15253984D01*
X6101134Y-15253984D02*
X6120182Y-15244460D01*
X6120182Y-15244460D02*
X6129705Y-15234936D01*
X6129705Y-15234936D02*
X6139229Y-15215888D01*
X6139229Y-15215888D02*
X6139229Y-15177793D01*
X6139229Y-15177793D02*
X6129705Y-15158746D01*
X6129705Y-15158746D02*
X6120182Y-15149222D01*
X6120182Y-15149222D02*
X6101134Y-15139698D01*
X6263039Y-15053984D02*
X6282086Y-15053984D01*
X6282086Y-15053984D02*
X6301134Y-15063508D01*
X6301134Y-15063508D02*
X6310658Y-15073031D01*
X6310658Y-15073031D02*
X6320182Y-15092079D01*
X6320182Y-15092079D02*
X6329705Y-15130174D01*
X6329705Y-15130174D02*
X6329705Y-15177793D01*
X6329705Y-15177793D02*
X6320182Y-15215888D01*
X6320182Y-15215888D02*
X6310658Y-15234936D01*
X6310658Y-15234936D02*
X6301134Y-15244460D01*
X6301134Y-15244460D02*
X6282086Y-15253984D01*
X6282086Y-15253984D02*
X6263039Y-15253984D01*
X6263039Y-15253984D02*
X6243991Y-15244460D01*
X6243991Y-15244460D02*
X6234467Y-15234936D01*
X6234467Y-15234936D02*
X6224943Y-15215888D01*
X6224943Y-15215888D02*
X6215420Y-15177793D01*
X6215420Y-15177793D02*
X6215420Y-15130174D01*
X6215420Y-15130174D02*
X6224943Y-15092079D01*
X6224943Y-15092079D02*
X6234467Y-15073031D01*
X6234467Y-15073031D02*
X6243991Y-15063508D01*
X6243991Y-15063508D02*
X6263039Y-15053984D01*
X6415420Y-15253984D02*
X6415420Y-15120650D01*
X6415420Y-15139698D02*
X6424943Y-15130174D01*
X6424943Y-15130174D02*
X6443991Y-15120650D01*
X6443991Y-15120650D02*
X6472563Y-15120650D01*
X6472563Y-15120650D02*
X6491610Y-15130174D01*
X6491610Y-15130174D02*
X6501134Y-15149222D01*
X6501134Y-15149222D02*
X6501134Y-15253984D01*
X6501134Y-15149222D02*
X6510658Y-15130174D01*
X6510658Y-15130174D02*
X6529705Y-15120650D01*
X6529705Y-15120650D02*
X6558277Y-15120650D01*
X6558277Y-15120650D02*
X6577324Y-15130174D01*
X6577324Y-15130174D02*
X6586848Y-15149222D01*
X6586848Y-15149222D02*
X6586848Y-15253984D01*
X6682086Y-15253984D02*
X6682086Y-15120650D01*
X6682086Y-15139698D02*
X6691610Y-15130174D01*
X6691610Y-15130174D02*
X6710658Y-15120650D01*
X6710658Y-15120650D02*
X6739229Y-15120650D01*
X6739229Y-15120650D02*
X6758277Y-15130174D01*
X6758277Y-15130174D02*
X6767801Y-15149222D01*
X6767801Y-15149222D02*
X6767801Y-15253984D01*
X6767801Y-15149222D02*
X6777324Y-15130174D01*
X6777324Y-15130174D02*
X6796372Y-15120650D01*
X6796372Y-15120650D02*
X6824943Y-15120650D01*
X6824943Y-15120650D02*
X6843991Y-15130174D01*
X6843991Y-15130174D02*
X6853515Y-15149222D01*
X6853515Y-15149222D02*
X6853515Y-15253984D01*
X7243991Y-15044460D02*
X7072563Y-15301603D01*
X7501134Y-15053984D02*
X7520182Y-15053984D01*
X7520182Y-15053984D02*
X7539229Y-15063508D01*
X7539229Y-15063508D02*
X7548753Y-15073031D01*
X7548753Y-15073031D02*
X7558277Y-15092079D01*
X7558277Y-15092079D02*
X7567801Y-15130174D01*
X7567801Y-15130174D02*
X7567801Y-15177793D01*
X7567801Y-15177793D02*
X7558277Y-15215888D01*
X7558277Y-15215888D02*
X7548753Y-15234936D01*
X7548753Y-15234936D02*
X7539229Y-15244460D01*
X7539229Y-15244460D02*
X7520182Y-15253984D01*
X7520182Y-15253984D02*
X7501134Y-15253984D01*
X7501134Y-15253984D02*
X7482086Y-15244460D01*
X7482086Y-15244460D02*
X7472563Y-15234936D01*
X7472563Y-15234936D02*
X7463039Y-15215888D01*
X7463039Y-15215888D02*
X7453515Y-15177793D01*
X7453515Y-15177793D02*
X7453515Y-15130174D01*
X7453515Y-15130174D02*
X7463039Y-15092079D01*
X7463039Y-15092079D02*
X7472563Y-15073031D01*
X7472563Y-15073031D02*
X7482086Y-15063508D01*
X7482086Y-15063508D02*
X7501134Y-15053984D01*
X7653515Y-15234936D02*
X7663039Y-15244460D01*
X7663039Y-15244460D02*
X7653515Y-15253984D01*
X7653515Y-15253984D02*
X7643991Y-15244460D01*
X7643991Y-15244460D02*
X7653515Y-15234936D01*
X7653515Y-15234936D02*
X7653515Y-15253984D01*
X7786848Y-15053984D02*
X7805896Y-15053984D01*
X7805896Y-15053984D02*
X7824944Y-15063508D01*
X7824944Y-15063508D02*
X7834467Y-15073031D01*
X7834467Y-15073031D02*
X7843991Y-15092079D01*
X7843991Y-15092079D02*
X7853515Y-15130174D01*
X7853515Y-15130174D02*
X7853515Y-15177793D01*
X7853515Y-15177793D02*
X7843991Y-15215888D01*
X7843991Y-15215888D02*
X7834467Y-15234936D01*
X7834467Y-15234936D02*
X7824944Y-15244460D01*
X7824944Y-15244460D02*
X7805896Y-15253984D01*
X7805896Y-15253984D02*
X7786848Y-15253984D01*
X7786848Y-15253984D02*
X7767801Y-15244460D01*
X7767801Y-15244460D02*
X7758277Y-15234936D01*
X7758277Y-15234936D02*
X7748753Y-15215888D01*
X7748753Y-15215888D02*
X7739229Y-15177793D01*
X7739229Y-15177793D02*
X7739229Y-15130174D01*
X7739229Y-15130174D02*
X7748753Y-15092079D01*
X7748753Y-15092079D02*
X7758277Y-15073031D01*
X7758277Y-15073031D02*
X7767801Y-15063508D01*
X7767801Y-15063508D02*
X7786848Y-15053984D01*
X7920182Y-15053984D02*
X8053515Y-15053984D01*
X8053515Y-15053984D02*
X7967801Y-15253984D01*
X8167801Y-15053984D02*
X8186848Y-15053984D01*
X8186848Y-15053984D02*
X8205896Y-15063508D01*
X8205896Y-15063508D02*
X8215420Y-15073031D01*
X8215420Y-15073031D02*
X8224944Y-15092079D01*
X8224944Y-15092079D02*
X8234467Y-15130174D01*
X8234467Y-15130174D02*
X8234467Y-15177793D01*
X8234467Y-15177793D02*
X8224944Y-15215888D01*
X8224944Y-15215888D02*
X8215420Y-15234936D01*
X8215420Y-15234936D02*
X8205896Y-15244460D01*
X8205896Y-15244460D02*
X8186848Y-15253984D01*
X8186848Y-15253984D02*
X8167801Y-15253984D01*
X8167801Y-15253984D02*
X8148753Y-15244460D01*
X8148753Y-15244460D02*
X8139229Y-15234936D01*
X8139229Y-15234936D02*
X8129706Y-15215888D01*
X8129706Y-15215888D02*
X8120182Y-15177793D01*
X8120182Y-15177793D02*
X8120182Y-15130174D01*
X8120182Y-15130174D02*
X8129706Y-15092079D01*
X8129706Y-15092079D02*
X8139229Y-15073031D01*
X8139229Y-15073031D02*
X8148753Y-15063508D01*
X8148753Y-15063508D02*
X8167801Y-15053984D01*
X8424944Y-15253984D02*
X8310658Y-15253984D01*
X8367801Y-15253984D02*
X8367801Y-15053984D01*
X8367801Y-15053984D02*
X8348753Y-15082555D01*
X8348753Y-15082555D02*
X8329706Y-15101603D01*
X8329706Y-15101603D02*
X8310658Y-15111127D01*
X8501134Y-15053984D02*
X8501134Y-15092079D01*
X8577325Y-15053984D02*
X8577325Y-15092079D01*
X8872563Y-15330174D02*
X8863039Y-15320650D01*
X8863039Y-15320650D02*
X8843991Y-15292079D01*
X8843991Y-15292079D02*
X8834468Y-15273031D01*
X8834468Y-15273031D02*
X8824944Y-15244460D01*
X8824944Y-15244460D02*
X8815420Y-15196841D01*
X8815420Y-15196841D02*
X8815420Y-15158746D01*
X8815420Y-15158746D02*
X8824944Y-15111127D01*
X8824944Y-15111127D02*
X8834468Y-15082555D01*
X8834468Y-15082555D02*
X8843991Y-15063508D01*
X8843991Y-15063508D02*
X8863039Y-15034936D01*
X8863039Y-15034936D02*
X8872563Y-15025412D01*
X9053515Y-15253984D02*
X8939230Y-15253984D01*
X8996372Y-15253984D02*
X8996372Y-15053984D01*
X8996372Y-15053984D02*
X8977325Y-15082555D01*
X8977325Y-15082555D02*
X8958277Y-15101603D01*
X8958277Y-15101603D02*
X8939230Y-15111127D01*
X9224944Y-15053984D02*
X9186849Y-15053984D01*
X9186849Y-15053984D02*
X9167801Y-15063508D01*
X9167801Y-15063508D02*
X9158277Y-15073031D01*
X9158277Y-15073031D02*
X9139230Y-15101603D01*
X9139230Y-15101603D02*
X9129706Y-15139698D01*
X9129706Y-15139698D02*
X9129706Y-15215888D01*
X9129706Y-15215888D02*
X9139230Y-15234936D01*
X9139230Y-15234936D02*
X9148753Y-15244460D01*
X9148753Y-15244460D02*
X9167801Y-15253984D01*
X9167801Y-15253984D02*
X9205896Y-15253984D01*
X9205896Y-15253984D02*
X9224944Y-15244460D01*
X9224944Y-15244460D02*
X9234468Y-15234936D01*
X9234468Y-15234936D02*
X9243991Y-15215888D01*
X9243991Y-15215888D02*
X9243991Y-15168269D01*
X9243991Y-15168269D02*
X9234468Y-15149222D01*
X9234468Y-15149222D02*
X9224944Y-15139698D01*
X9224944Y-15139698D02*
X9205896Y-15130174D01*
X9205896Y-15130174D02*
X9167801Y-15130174D01*
X9167801Y-15130174D02*
X9148753Y-15139698D01*
X9148753Y-15139698D02*
X9139230Y-15149222D01*
X9139230Y-15149222D02*
X9129706Y-15168269D01*
X9482087Y-15253984D02*
X9482087Y-15053984D01*
X9567801Y-15253984D02*
X9567801Y-15149222D01*
X9567801Y-15149222D02*
X9558277Y-15130174D01*
X9558277Y-15130174D02*
X9539230Y-15120650D01*
X9539230Y-15120650D02*
X9510658Y-15120650D01*
X9510658Y-15120650D02*
X9491611Y-15130174D01*
X9491611Y-15130174D02*
X9482087Y-15139698D01*
X9691611Y-15253984D02*
X9672563Y-15244460D01*
X9672563Y-15244460D02*
X9663039Y-15234936D01*
X9663039Y-15234936D02*
X9653515Y-15215888D01*
X9653515Y-15215888D02*
X9653515Y-15158746D01*
X9653515Y-15158746D02*
X9663039Y-15139698D01*
X9663039Y-15139698D02*
X9672563Y-15130174D01*
X9672563Y-15130174D02*
X9691611Y-15120650D01*
X9691611Y-15120650D02*
X9720182Y-15120650D01*
X9720182Y-15120650D02*
X9739230Y-15130174D01*
X9739230Y-15130174D02*
X9748753Y-15139698D01*
X9748753Y-15139698D02*
X9758277Y-15158746D01*
X9758277Y-15158746D02*
X9758277Y-15215888D01*
X9758277Y-15215888D02*
X9748753Y-15234936D01*
X9748753Y-15234936D02*
X9739230Y-15244460D01*
X9739230Y-15244460D02*
X9720182Y-15253984D01*
X9720182Y-15253984D02*
X9691611Y-15253984D01*
X9872563Y-15253984D02*
X9853515Y-15244460D01*
X9853515Y-15244460D02*
X9843992Y-15225412D01*
X9843992Y-15225412D02*
X9843992Y-15053984D01*
X10024944Y-15244460D02*
X10005896Y-15253984D01*
X10005896Y-15253984D02*
X9967801Y-15253984D01*
X9967801Y-15253984D02*
X9948753Y-15244460D01*
X9948753Y-15244460D02*
X9939230Y-15225412D01*
X9939230Y-15225412D02*
X9939230Y-15149222D01*
X9939230Y-15149222D02*
X9948753Y-15130174D01*
X9948753Y-15130174D02*
X9967801Y-15120650D01*
X9967801Y-15120650D02*
X10005896Y-15120650D01*
X10005896Y-15120650D02*
X10024944Y-15130174D01*
X10024944Y-15130174D02*
X10034468Y-15149222D01*
X10034468Y-15149222D02*
X10034468Y-15168269D01*
X10034468Y-15168269D02*
X9939230Y-15187317D01*
X10110658Y-15244460D02*
X10129706Y-15253984D01*
X10129706Y-15253984D02*
X10167801Y-15253984D01*
X10167801Y-15253984D02*
X10186849Y-15244460D01*
X10186849Y-15244460D02*
X10196373Y-15225412D01*
X10196373Y-15225412D02*
X10196373Y-15215888D01*
X10196373Y-15215888D02*
X10186849Y-15196841D01*
X10186849Y-15196841D02*
X10167801Y-15187317D01*
X10167801Y-15187317D02*
X10139230Y-15187317D01*
X10139230Y-15187317D02*
X10120182Y-15177793D01*
X10120182Y-15177793D02*
X10110658Y-15158746D01*
X10110658Y-15158746D02*
X10110658Y-15149222D01*
X10110658Y-15149222D02*
X10120182Y-15130174D01*
X10120182Y-15130174D02*
X10139230Y-15120650D01*
X10139230Y-15120650D02*
X10167801Y-15120650D01*
X10167801Y-15120650D02*
X10186849Y-15130174D01*
X10263039Y-15330174D02*
X10272563Y-15320650D01*
X10272563Y-15320650D02*
X10291611Y-15292079D01*
X10291611Y-15292079D02*
X10301134Y-15273031D01*
X10301134Y-15273031D02*
X10310658Y-15244460D01*
X10310658Y-15244460D02*
X10320182Y-15196841D01*
X10320182Y-15196841D02*
X10320182Y-15158746D01*
X10320182Y-15158746D02*
X10310658Y-15111127D01*
X10310658Y-15111127D02*
X10301134Y-15082555D01*
X10301134Y-15082555D02*
X10291611Y-15063508D01*
X10291611Y-15063508D02*
X10272563Y-15034936D01*
X10272563Y-15034936D02*
X10263039Y-15025412D01*
M02*
