M48
; DRILL file {KiCad 8.0.5} date 2025-02-17T00:09:09-0600
; FORMAT={-:-/ absolute / metric / decimal}
; #@! TF.CreationDate,2025-02-17T00:09:09-06:00
; #@! TF.GenerationSoftware,Kicad,Pcbnew,8.0.5
; #@! TF.FileFunction,NonPlated,1,2,NPTH
FMAT,2
METRIC
; #@! TA.AperFunction,NonPlated,NPTH,ComponentDrill
T1C1.270
; #@! TA.AperFunction,NonPlated,NPTH,ComponentDrill
T2C3.000
; #@! TA.AperFunction,NonPlated,NPTH,ComponentDrill
T3C3.200
%
G90
G05
T1
X70.22Y-104.0
X78.55Y-69.33
X82.22Y-104.0
X90.55Y-69.33
X121.0Y-116.46
X121.0Y-127.96
X136.0Y-116.46
X136.0Y-127.96
X142.5Y-62.04
X142.5Y-74.74
X142.5Y-87.49
X142.5Y-100.24
X142.75Y-48.54
X151.75Y-48.54
X157.5Y-62.04
X157.5Y-74.74
X157.5Y-87.49
X157.5Y-100.24
T2
X157.0Y-46.625
X157.0Y-127.0
T3
X60.66Y-68.065
X60.66Y-127.0
X100.33Y-46.625
X100.33Y-105.54
M30
