%TF.GenerationSoftware,KiCad,Pcbnew,8.0.5*%
%TF.CreationDate,2025-01-06T01:13:20-06:00*%
%TF.ProjectId,ActivePrecharge,41637469-7665-4507-9265-636861726765,rev?*%
%TF.SameCoordinates,Original*%
%TF.FileFunction,Drillmap*%
%TF.FilePolarity,Positive*%
%FSLAX45Y45*%
G04 Gerber Fmt 4.5, Leading zero omitted, Abs format (unit mm)*
G04 Created by KiCad (PCBNEW 8.0.5) date 2025-01-06 01:13:20*
%MOMM*%
%LPD*%
G01*
G04 APERTURE LIST*
%ADD10C,0.050000*%
%ADD11C,0.200000*%
%ADD12C,0.100000*%
%ADD13C,0.102000*%
%ADD14C,0.106680*%
%ADD15C,0.178000*%
G04 APERTURE END LIST*
D10*
X12825500Y-7550000D02*
X12645000Y-7550000D01*
X14700000Y-13000000D02*
G75*
G02*
X14300000Y-13400000I-400000J0D01*
G01*
X7700000Y-7150000D02*
G75*
G02*
X8100000Y-6750000I400000J0D01*
G01*
X12645000Y-12125000D02*
G75*
G02*
X12585000Y-12065000I-1210J58790D01*
G01*
X12882500Y-12065000D02*
X12882500Y-7610000D01*
X12585000Y-7610000D02*
X12585000Y-12065000D01*
X14700000Y-7150000D02*
X14700000Y-13000000D01*
X14300000Y-13400000D02*
X8100000Y-13400000D01*
X8100000Y-6750000D02*
X14300000Y-6750000D01*
X12645000Y-12125000D02*
X12822500Y-12125000D01*
X12585000Y-7610000D02*
G75*
G02*
X12645000Y-7550000I60000J0D01*
G01*
X14300000Y-6750000D02*
G75*
G02*
X14700000Y-7150000I0J-400000D01*
G01*
X12825500Y-7550000D02*
G75*
G02*
X12882500Y-7610000I-1500J-58500D01*
G01*
X8100000Y-13400000D02*
G75*
G02*
X7700000Y-13000000I0J400000D01*
G01*
X7700000Y-13000000D02*
X7700000Y-7150000D01*
X12882500Y-12065000D02*
G75*
G02*
X12822500Y-12125000I-60000J0D01*
G01*
D11*
D12*
X10355000Y-7780000D02*
X10395000Y-7820000D01*
X10395000Y-7780000D02*
X10355000Y-7820000D01*
X10355000Y-7880000D02*
X10395000Y-7920000D01*
X10395000Y-7880000D02*
X10355000Y-7920000D01*
X10355000Y-7980000D02*
X10395000Y-8020000D01*
X10395000Y-7980000D02*
X10355000Y-8020000D01*
X10355000Y-8080000D02*
X10395000Y-8120000D01*
X10395000Y-8080000D02*
X10355000Y-8120000D01*
X10355000Y-8180000D02*
X10395000Y-8220000D01*
X10395000Y-8180000D02*
X10355000Y-8220000D01*
X10355000Y-8280000D02*
X10395000Y-8320000D01*
X10395000Y-8280000D02*
X10355000Y-8320000D01*
X10355000Y-8380000D02*
X10395000Y-8420000D01*
X10395000Y-8380000D02*
X10355000Y-8420000D01*
X10355000Y-8480000D02*
X10395000Y-8520000D01*
X10395000Y-8480000D02*
X10355000Y-8520000D01*
X10355000Y-8580000D02*
X10395000Y-8620000D01*
X10395000Y-8580000D02*
X10355000Y-8620000D01*
X10355000Y-8680000D02*
X10395000Y-8720000D01*
X10395000Y-8680000D02*
X10355000Y-8720000D01*
X10355000Y-8780000D02*
X10395000Y-8820000D01*
X10395000Y-8780000D02*
X10355000Y-8820000D01*
X10355000Y-8880000D02*
X10395000Y-8920000D01*
X10395000Y-8880000D02*
X10355000Y-8920000D01*
X10355000Y-8980000D02*
X10395000Y-9020000D01*
X10395000Y-8980000D02*
X10355000Y-9020000D01*
X10355000Y-9080000D02*
X10395000Y-9120000D01*
X10395000Y-9080000D02*
X10355000Y-9120000D01*
X10355000Y-9180000D02*
X10395000Y-9220000D01*
X10395000Y-9180000D02*
X10355000Y-9220000D01*
X10355000Y-9280000D02*
X10395000Y-9320000D01*
X10395000Y-9280000D02*
X10355000Y-9320000D01*
X10355000Y-9380000D02*
X10395000Y-9420000D01*
X10395000Y-9380000D02*
X10355000Y-9420000D01*
X10355000Y-9480000D02*
X10395000Y-9520000D01*
X10395000Y-9480000D02*
X10355000Y-9520000D01*
X10355000Y-9580000D02*
X10395000Y-9620000D01*
X10395000Y-9580000D02*
X10355000Y-9620000D01*
X10355000Y-9830000D02*
X10395000Y-9870000D01*
X10395000Y-9830000D02*
X10355000Y-9870000D01*
X10355000Y-10155000D02*
X10395000Y-10195000D01*
X10395000Y-10155000D02*
X10355000Y-10195000D01*
X10355000Y-10480000D02*
X10395000Y-10520000D01*
X10395000Y-10480000D02*
X10355000Y-10520000D01*
X10355000Y-10780000D02*
X10395000Y-10820000D01*
X10395000Y-10780000D02*
X10355000Y-10820000D01*
X10355000Y-11055000D02*
X10395000Y-11095000D01*
X10395000Y-11055000D02*
X10355000Y-11095000D01*
X10355000Y-11155000D02*
X10395000Y-11195000D01*
X10395000Y-11155000D02*
X10355000Y-11195000D01*
X10355000Y-11255000D02*
X10395000Y-11295000D01*
X10395000Y-11255000D02*
X10355000Y-11295000D01*
X10355000Y-11355000D02*
X10395000Y-11395000D01*
X10395000Y-11355000D02*
X10355000Y-11395000D01*
X10355000Y-11455000D02*
X10395000Y-11495000D01*
X10395000Y-11455000D02*
X10355000Y-11495000D01*
X10355000Y-11555000D02*
X10395000Y-11595000D01*
X10395000Y-11555000D02*
X10355000Y-11595000D01*
X10355000Y-11655000D02*
X10395000Y-11695000D01*
X10395000Y-11655000D02*
X10355000Y-11695000D01*
X10355000Y-11755000D02*
X10395000Y-11795000D01*
X10395000Y-11755000D02*
X10355000Y-11795000D01*
X10355000Y-11855000D02*
X10395000Y-11895000D01*
X10395000Y-11855000D02*
X10355000Y-11895000D01*
X10455000Y-7780000D02*
X10495000Y-7820000D01*
X10495000Y-7780000D02*
X10455000Y-7820000D01*
X10455000Y-11855000D02*
X10495000Y-11895000D01*
X10495000Y-11855000D02*
X10455000Y-11895000D01*
X10555000Y-7780000D02*
X10595000Y-7820000D01*
X10595000Y-7780000D02*
X10555000Y-7820000D01*
X10655000Y-7780000D02*
X10695000Y-7820000D01*
X10695000Y-7780000D02*
X10655000Y-7820000D01*
X10755000Y-7780000D02*
X10795000Y-7820000D01*
X10795000Y-7780000D02*
X10755000Y-7820000D01*
X10855000Y-7780000D02*
X10895000Y-7820000D01*
X10895000Y-7780000D02*
X10855000Y-7820000D01*
X10955000Y-7780000D02*
X10995000Y-7820000D01*
X10995000Y-7780000D02*
X10955000Y-7820000D01*
X10955000Y-11855000D02*
X10995000Y-11895000D01*
X10995000Y-11855000D02*
X10955000Y-11895000D01*
X11055000Y-7780000D02*
X11095000Y-7820000D01*
X11095000Y-7780000D02*
X11055000Y-7820000D01*
X11055000Y-11855000D02*
X11095000Y-11895000D01*
X11095000Y-11855000D02*
X11055000Y-11895000D01*
X11155000Y-7780000D02*
X11195000Y-7820000D01*
X11195000Y-7780000D02*
X11155000Y-7820000D01*
X11155000Y-11855000D02*
X11195000Y-11895000D01*
X11195000Y-11855000D02*
X11155000Y-11895000D01*
X11173750Y-10310000D02*
X11213750Y-10350000D01*
X11213750Y-10310000D02*
X11173750Y-10350000D01*
X11255000Y-7780000D02*
X11295000Y-7820000D01*
X11295000Y-7780000D02*
X11255000Y-7820000D01*
X11255000Y-11855000D02*
X11295000Y-11895000D01*
X11295000Y-11855000D02*
X11255000Y-11895000D01*
X11328750Y-9488750D02*
X11368750Y-9528750D01*
X11368750Y-9488750D02*
X11328750Y-9528750D01*
X11333750Y-10743750D02*
X11373750Y-10783750D01*
X11373750Y-10743750D02*
X11333750Y-10783750D01*
X11333750Y-11036250D02*
X11373750Y-11076250D01*
X11373750Y-11036250D02*
X11333750Y-11076250D01*
X11337500Y-9960000D02*
X11377500Y-10000000D01*
X11377500Y-9960000D02*
X11337500Y-10000000D01*
X11355000Y-7780000D02*
X11395000Y-7820000D01*
X11395000Y-7780000D02*
X11355000Y-7820000D01*
X11355000Y-11855000D02*
X11395000Y-11895000D01*
X11395000Y-11855000D02*
X11355000Y-11895000D01*
X11455000Y-7780000D02*
X11495000Y-7820000D01*
X11495000Y-7780000D02*
X11455000Y-7820000D01*
X11455000Y-11855000D02*
X11495000Y-11895000D01*
X11495000Y-11855000D02*
X11455000Y-11895000D01*
X11520000Y-9960000D02*
X11560000Y-10000000D01*
X11560000Y-9960000D02*
X11520000Y-10000000D01*
X11520000Y-10560000D02*
X11560000Y-10600000D01*
X11560000Y-10560000D02*
X11520000Y-10600000D01*
X11555000Y-7780000D02*
X11595000Y-7820000D01*
X11595000Y-7780000D02*
X11555000Y-7820000D01*
X11580000Y-8305000D02*
X11620000Y-8345000D01*
X11620000Y-8305000D02*
X11580000Y-8345000D01*
X11655000Y-7780000D02*
X11695000Y-7820000D01*
X11695000Y-7780000D02*
X11655000Y-7820000D01*
X11683750Y-10361250D02*
X11723750Y-10401250D01*
X11723750Y-10361250D02*
X11683750Y-10401250D01*
X11755000Y-7780000D02*
X11795000Y-7820000D01*
X11795000Y-7780000D02*
X11755000Y-7820000D01*
X11855000Y-7780000D02*
X11895000Y-7820000D01*
X11895000Y-7780000D02*
X11855000Y-7820000D01*
X11873750Y-10361250D02*
X11913750Y-10401250D01*
X11913750Y-10361250D02*
X11873750Y-10401250D01*
X11955000Y-7780000D02*
X11995000Y-7820000D01*
X11995000Y-7780000D02*
X11955000Y-7820000D01*
X11980000Y-8336250D02*
X12020000Y-8376250D01*
X12020000Y-8336250D02*
X11980000Y-8376250D01*
X12030000Y-11855000D02*
X12070000Y-11895000D01*
X12070000Y-11855000D02*
X12030000Y-11895000D01*
X12055000Y-7780000D02*
X12095000Y-7820000D01*
X12095000Y-7780000D02*
X12055000Y-7820000D01*
X12080000Y-10600000D02*
X12120000Y-10640000D01*
X12120000Y-10600000D02*
X12080000Y-10640000D01*
X12125000Y-10110000D02*
X12165000Y-10150000D01*
X12165000Y-10110000D02*
X12125000Y-10150000D01*
X12130000Y-11855000D02*
X12170000Y-11895000D01*
X12170000Y-11855000D02*
X12130000Y-11895000D01*
X12155000Y-7780000D02*
X12195000Y-7820000D01*
X12195000Y-7780000D02*
X12155000Y-7820000D01*
X12230000Y-11855000D02*
X12270000Y-11895000D01*
X12270000Y-11855000D02*
X12230000Y-11895000D01*
X12255000Y-7780000D02*
X12295000Y-7820000D01*
X12295000Y-7780000D02*
X12255000Y-7820000D01*
X12330000Y-10480000D02*
X12370000Y-10520000D01*
X12370000Y-10480000D02*
X12330000Y-10520000D01*
X12330000Y-11855000D02*
X12370000Y-11895000D01*
X12370000Y-11855000D02*
X12330000Y-11895000D01*
X12355000Y-7780000D02*
X12395000Y-7820000D01*
X12395000Y-7780000D02*
X12355000Y-7820000D01*
X12386000Y-9891250D02*
X12426000Y-9931250D01*
X12426000Y-9891250D02*
X12386000Y-9931250D01*
X12430000Y-11855000D02*
X12470000Y-11895000D01*
X12470000Y-11855000D02*
X12430000Y-11895000D01*
X12455000Y-8985000D02*
X12495000Y-9025000D01*
X12495000Y-8985000D02*
X12455000Y-9025000D01*
X13023750Y-10018500D02*
X13063750Y-10058500D01*
X13063750Y-10018500D02*
X13023750Y-10058500D01*
X13205000Y-10955000D02*
X13245000Y-10995000D01*
X13245000Y-10955000D02*
X13205000Y-10995000D01*
X13217000Y-7975000D02*
X13257000Y-8015000D01*
X13257000Y-7975000D02*
X13217000Y-8015000D01*
X13380000Y-11855000D02*
X13420000Y-11895000D01*
X13420000Y-11855000D02*
X13380000Y-11895000D01*
X13438750Y-8205000D02*
X13478750Y-8245000D01*
X13478750Y-8205000D02*
X13438750Y-8245000D01*
X13480000Y-11855000D02*
X13520000Y-11895000D01*
X13520000Y-11855000D02*
X13480000Y-11895000D01*
X13505000Y-9280000D02*
X13545000Y-9320000D01*
X13545000Y-9280000D02*
X13505000Y-9320000D01*
X13505000Y-9380000D02*
X13545000Y-9420000D01*
X13545000Y-9380000D02*
X13505000Y-9420000D01*
X13505000Y-9480000D02*
X13545000Y-9520000D01*
X13545000Y-9480000D02*
X13505000Y-9520000D01*
X13505000Y-9580000D02*
X13545000Y-9620000D01*
X13545000Y-9580000D02*
X13505000Y-9620000D01*
X13505000Y-9680000D02*
X13545000Y-9720000D01*
X13545000Y-9680000D02*
X13505000Y-9720000D01*
X13505000Y-9780000D02*
X13545000Y-9820000D01*
X13545000Y-9780000D02*
X13505000Y-9820000D01*
X13580000Y-11855000D02*
X13620000Y-11895000D01*
X13620000Y-11855000D02*
X13580000Y-11895000D01*
X13680000Y-11855000D02*
X13720000Y-11895000D01*
X13720000Y-11855000D02*
X13680000Y-11895000D01*
X13780000Y-7755000D02*
X13820000Y-7795000D01*
X13820000Y-7755000D02*
X13780000Y-7795000D01*
X13780000Y-11855000D02*
X13820000Y-11895000D01*
X13820000Y-11855000D02*
X13780000Y-11895000D01*
X13880000Y-7755000D02*
X13920000Y-7795000D01*
X13920000Y-7755000D02*
X13880000Y-7795000D01*
X13880000Y-11855000D02*
X13920000Y-11895000D01*
X13920000Y-11855000D02*
X13880000Y-11895000D01*
X13961250Y-7930000D02*
X14001250Y-7970000D01*
X14001250Y-7930000D02*
X13961250Y-7970000D01*
X13980000Y-7755000D02*
X14020000Y-7795000D01*
X14020000Y-7755000D02*
X13980000Y-7795000D01*
X13980000Y-11855000D02*
X14020000Y-11895000D01*
X14020000Y-11855000D02*
X13980000Y-11895000D01*
X14080000Y-7755000D02*
X14120000Y-7795000D01*
X14120000Y-7755000D02*
X14080000Y-7795000D01*
X14080000Y-11855000D02*
X14120000Y-11895000D01*
X14120000Y-11855000D02*
X14080000Y-11895000D01*
X14180000Y-7755000D02*
X14220000Y-7795000D01*
X14220000Y-7755000D02*
X14180000Y-7795000D01*
X14255000Y-9313750D02*
X14295000Y-9353750D01*
X14295000Y-9313750D02*
X14255000Y-9353750D01*
X14280000Y-7755000D02*
X14320000Y-7795000D01*
X14320000Y-7755000D02*
X14280000Y-7795000D01*
X14331250Y-9800000D02*
X14371250Y-9840000D01*
X14371250Y-9800000D02*
X14331250Y-9840000D01*
X14380000Y-7755000D02*
X14420000Y-7795000D01*
X14420000Y-7755000D02*
X14380000Y-7795000D01*
X14480000Y-7755000D02*
X14520000Y-7795000D01*
X14520000Y-7755000D02*
X14480000Y-7795000D01*
X14480000Y-7855000D02*
X14520000Y-7895000D01*
X14520000Y-7855000D02*
X14480000Y-7895000D01*
X14480000Y-7955000D02*
X14520000Y-7995000D01*
X14520000Y-7955000D02*
X14480000Y-7995000D01*
X14480000Y-8055000D02*
X14520000Y-8095000D01*
X14520000Y-8055000D02*
X14480000Y-8095000D01*
X14480000Y-8155000D02*
X14520000Y-8195000D01*
X14520000Y-8155000D02*
X14480000Y-8195000D01*
X14480000Y-8255000D02*
X14520000Y-8295000D01*
X14520000Y-8255000D02*
X14480000Y-8295000D01*
X14480000Y-8355000D02*
X14520000Y-8395000D01*
X14520000Y-8355000D02*
X14480000Y-8395000D01*
X14480000Y-8630000D02*
X14520000Y-8670000D01*
X14520000Y-8630000D02*
X14480000Y-8670000D01*
X14480000Y-8955000D02*
X14520000Y-8995000D01*
X14520000Y-8955000D02*
X14480000Y-8995000D01*
X14480000Y-9055000D02*
X14520000Y-9095000D01*
X14520000Y-9055000D02*
X14480000Y-9095000D01*
X14480000Y-9155000D02*
X14520000Y-9195000D01*
X14520000Y-9155000D02*
X14480000Y-9195000D01*
X14480000Y-9255000D02*
X14520000Y-9295000D01*
X14520000Y-9255000D02*
X14480000Y-9295000D01*
X14480000Y-9355000D02*
X14520000Y-9395000D01*
X14520000Y-9355000D02*
X14480000Y-9395000D01*
X14480000Y-9455000D02*
X14520000Y-9495000D01*
X14520000Y-9455000D02*
X14480000Y-9495000D01*
X14480000Y-9730000D02*
X14520000Y-9770000D01*
X14520000Y-9730000D02*
X14480000Y-9770000D01*
X14480000Y-10105000D02*
X14520000Y-10145000D01*
X14520000Y-10105000D02*
X14480000Y-10145000D01*
X14480000Y-10680000D02*
X14520000Y-10720000D01*
X14520000Y-10680000D02*
X14480000Y-10720000D01*
X14480000Y-11055000D02*
X14520000Y-11095000D01*
X14520000Y-11055000D02*
X14480000Y-11095000D01*
X14480000Y-11155000D02*
X14520000Y-11195000D01*
X14520000Y-11155000D02*
X14480000Y-11195000D01*
X14480000Y-11255000D02*
X14520000Y-11295000D01*
X14520000Y-11255000D02*
X14480000Y-11295000D01*
D13*
X10754750Y-10030000D02*
G75*
G02*
X10652750Y-10030000I-51000J0D01*
G01*
X10652750Y-10030000D02*
G75*
G02*
X10754750Y-10030000I51000J0D01*
G01*
X10754750Y-10330000D02*
G75*
G02*
X10652750Y-10330000I-51000J0D01*
G01*
X10652750Y-10330000D02*
G75*
G02*
X10754750Y-10330000I51000J0D01*
G01*
X10754750Y-10630000D02*
G75*
G02*
X10652750Y-10630000I-51000J0D01*
G01*
X10652750Y-10630000D02*
G75*
G02*
X10754750Y-10630000I51000J0D01*
G01*
X13501000Y-11580000D02*
G75*
G02*
X13399000Y-11580000I-51000J0D01*
G01*
X13399000Y-11580000D02*
G75*
G02*
X13501000Y-11580000I51000J0D01*
G01*
X13801000Y-11580000D02*
G75*
G02*
X13699000Y-11580000I-51000J0D01*
G01*
X13699000Y-11580000D02*
G75*
G02*
X13801000Y-11580000I51000J0D01*
G01*
X14101000Y-11580000D02*
G75*
G02*
X13999000Y-11580000I-51000J0D01*
G01*
X13999000Y-11580000D02*
G75*
G02*
X14101000Y-11580000I51000J0D01*
G01*
X14106000Y-8525000D02*
G75*
G02*
X14004000Y-8525000I-51000J0D01*
G01*
X14004000Y-8525000D02*
G75*
G02*
X14106000Y-8525000I51000J0D01*
G01*
X14106000Y-8825000D02*
G75*
G02*
X14004000Y-8825000I-51000J0D01*
G01*
X14004000Y-8825000D02*
G75*
G02*
X14106000Y-8825000I51000J0D01*
G01*
D14*
X13850000Y-10071660D02*
X13850000Y-10178340D01*
X13796660Y-10125000D02*
X13903340Y-10125000D01*
X13850000Y-10371660D02*
X13850000Y-10478340D01*
X13796660Y-10425000D02*
X13903340Y-10425000D01*
X13850000Y-10671660D02*
X13850000Y-10778340D01*
X13796660Y-10725000D02*
X13903340Y-10725000D01*
X14150000Y-10071660D02*
X14150000Y-10178340D01*
X14096660Y-10125000D02*
X14203340Y-10125000D01*
X14150000Y-10371660D02*
X14150000Y-10478340D01*
X14096660Y-10425000D02*
X14203340Y-10425000D01*
X14150000Y-10671660D02*
X14150000Y-10778340D01*
X14096660Y-10725000D02*
X14203340Y-10725000D01*
D15*
X10795683Y-8947933D02*
X10795683Y-8822067D01*
X10669817Y-8822067D01*
X10669817Y-8947933D01*
X10795683Y-8947933D01*
X10795683Y-9287933D02*
X10795683Y-9162067D01*
X10669817Y-9162067D01*
X10669817Y-9287933D01*
X10795683Y-9287933D01*
X10795683Y-11397933D02*
X10795683Y-11272067D01*
X10669817Y-11272067D01*
X10669817Y-11397933D01*
X10795683Y-11397933D01*
X10795683Y-11737933D02*
X10795683Y-11612067D01*
X10669817Y-11612067D01*
X10669817Y-11737933D01*
X10795683Y-11737933D01*
X11787683Y-8947933D02*
X11787683Y-8822067D01*
X11661817Y-8822067D01*
X11661817Y-8947933D01*
X11787683Y-8947933D01*
X11787683Y-9287933D02*
X11787683Y-9162067D01*
X11661817Y-9162067D01*
X11661817Y-9287933D01*
X11787683Y-9287933D01*
X11787683Y-11397933D02*
X11787683Y-11272067D01*
X11661817Y-11272067D01*
X11661817Y-11397933D01*
X11787683Y-11397933D01*
X11787683Y-11737933D02*
X11787683Y-11612067D01*
X11661817Y-11612067D01*
X11661817Y-11737933D01*
X11787683Y-11737933D01*
D11*
X7958277Y-13713984D02*
X7958277Y-13513984D01*
X7958277Y-13513984D02*
X8005896Y-13513984D01*
X8005896Y-13513984D02*
X8034467Y-13523508D01*
X8034467Y-13523508D02*
X8053515Y-13542555D01*
X8053515Y-13542555D02*
X8063039Y-13561603D01*
X8063039Y-13561603D02*
X8072562Y-13599698D01*
X8072562Y-13599698D02*
X8072562Y-13628269D01*
X8072562Y-13628269D02*
X8063039Y-13666365D01*
X8063039Y-13666365D02*
X8053515Y-13685412D01*
X8053515Y-13685412D02*
X8034467Y-13704460D01*
X8034467Y-13704460D02*
X8005896Y-13713984D01*
X8005896Y-13713984D02*
X7958277Y-13713984D01*
X8158277Y-13713984D02*
X8158277Y-13580650D01*
X8158277Y-13618746D02*
X8167801Y-13599698D01*
X8167801Y-13599698D02*
X8177324Y-13590174D01*
X8177324Y-13590174D02*
X8196372Y-13580650D01*
X8196372Y-13580650D02*
X8215420Y-13580650D01*
X8282086Y-13713984D02*
X8282086Y-13580650D01*
X8282086Y-13513984D02*
X8272562Y-13523508D01*
X8272562Y-13523508D02*
X8282086Y-13533031D01*
X8282086Y-13533031D02*
X8291610Y-13523508D01*
X8291610Y-13523508D02*
X8282086Y-13513984D01*
X8282086Y-13513984D02*
X8282086Y-13533031D01*
X8405896Y-13713984D02*
X8386848Y-13704460D01*
X8386848Y-13704460D02*
X8377324Y-13685412D01*
X8377324Y-13685412D02*
X8377324Y-13513984D01*
X8510658Y-13713984D02*
X8491610Y-13704460D01*
X8491610Y-13704460D02*
X8482086Y-13685412D01*
X8482086Y-13685412D02*
X8482086Y-13513984D01*
X8739229Y-13713984D02*
X8739229Y-13513984D01*
X8739229Y-13513984D02*
X8805896Y-13656841D01*
X8805896Y-13656841D02*
X8872563Y-13513984D01*
X8872563Y-13513984D02*
X8872563Y-13713984D01*
X9053515Y-13713984D02*
X9053515Y-13609222D01*
X9053515Y-13609222D02*
X9043991Y-13590174D01*
X9043991Y-13590174D02*
X9024944Y-13580650D01*
X9024944Y-13580650D02*
X8986848Y-13580650D01*
X8986848Y-13580650D02*
X8967801Y-13590174D01*
X9053515Y-13704460D02*
X9034467Y-13713984D01*
X9034467Y-13713984D02*
X8986848Y-13713984D01*
X8986848Y-13713984D02*
X8967801Y-13704460D01*
X8967801Y-13704460D02*
X8958277Y-13685412D01*
X8958277Y-13685412D02*
X8958277Y-13666365D01*
X8958277Y-13666365D02*
X8967801Y-13647317D01*
X8967801Y-13647317D02*
X8986848Y-13637793D01*
X8986848Y-13637793D02*
X9034467Y-13637793D01*
X9034467Y-13637793D02*
X9053515Y-13628269D01*
X9148753Y-13580650D02*
X9148753Y-13780650D01*
X9148753Y-13590174D02*
X9167801Y-13580650D01*
X9167801Y-13580650D02*
X9205896Y-13580650D01*
X9205896Y-13580650D02*
X9224944Y-13590174D01*
X9224944Y-13590174D02*
X9234467Y-13599698D01*
X9234467Y-13599698D02*
X9243991Y-13618746D01*
X9243991Y-13618746D02*
X9243991Y-13675888D01*
X9243991Y-13675888D02*
X9234467Y-13694936D01*
X9234467Y-13694936D02*
X9224944Y-13704460D01*
X9224944Y-13704460D02*
X9205896Y-13713984D01*
X9205896Y-13713984D02*
X9167801Y-13713984D01*
X9167801Y-13713984D02*
X9148753Y-13704460D01*
X9329705Y-13694936D02*
X9339229Y-13704460D01*
X9339229Y-13704460D02*
X9329705Y-13713984D01*
X9329705Y-13713984D02*
X9320182Y-13704460D01*
X9320182Y-13704460D02*
X9329705Y-13694936D01*
X9329705Y-13694936D02*
X9329705Y-13713984D01*
X9329705Y-13590174D02*
X9339229Y-13599698D01*
X9339229Y-13599698D02*
X9329705Y-13609222D01*
X9329705Y-13609222D02*
X9320182Y-13599698D01*
X9320182Y-13599698D02*
X9329705Y-13590174D01*
X9329705Y-13590174D02*
X9329705Y-13609222D01*
D12*
X7657500Y-14022500D02*
X7697500Y-14062500D01*
X7697500Y-14022500D02*
X7657500Y-14062500D01*
D11*
X7996372Y-13933984D02*
X8015420Y-13933984D01*
X8015420Y-13933984D02*
X8034467Y-13943508D01*
X8034467Y-13943508D02*
X8043991Y-13953031D01*
X8043991Y-13953031D02*
X8053515Y-13972079D01*
X8053515Y-13972079D02*
X8063039Y-14010174D01*
X8063039Y-14010174D02*
X8063039Y-14057793D01*
X8063039Y-14057793D02*
X8053515Y-14095888D01*
X8053515Y-14095888D02*
X8043991Y-14114936D01*
X8043991Y-14114936D02*
X8034467Y-14124460D01*
X8034467Y-14124460D02*
X8015420Y-14133984D01*
X8015420Y-14133984D02*
X7996372Y-14133984D01*
X7996372Y-14133984D02*
X7977324Y-14124460D01*
X7977324Y-14124460D02*
X7967801Y-14114936D01*
X7967801Y-14114936D02*
X7958277Y-14095888D01*
X7958277Y-14095888D02*
X7948753Y-14057793D01*
X7948753Y-14057793D02*
X7948753Y-14010174D01*
X7948753Y-14010174D02*
X7958277Y-13972079D01*
X7958277Y-13972079D02*
X7967801Y-13953031D01*
X7967801Y-13953031D02*
X7977324Y-13943508D01*
X7977324Y-13943508D02*
X7996372Y-13933984D01*
X8148753Y-14114936D02*
X8158277Y-14124460D01*
X8158277Y-14124460D02*
X8148753Y-14133984D01*
X8148753Y-14133984D02*
X8139229Y-14124460D01*
X8139229Y-14124460D02*
X8148753Y-14114936D01*
X8148753Y-14114936D02*
X8148753Y-14133984D01*
X8329705Y-14000650D02*
X8329705Y-14133984D01*
X8282086Y-13924460D02*
X8234467Y-14067317D01*
X8234467Y-14067317D02*
X8358277Y-14067317D01*
X8472563Y-13933984D02*
X8491610Y-13933984D01*
X8491610Y-13933984D02*
X8510658Y-13943508D01*
X8510658Y-13943508D02*
X8520182Y-13953031D01*
X8520182Y-13953031D02*
X8529705Y-13972079D01*
X8529705Y-13972079D02*
X8539229Y-14010174D01*
X8539229Y-14010174D02*
X8539229Y-14057793D01*
X8539229Y-14057793D02*
X8529705Y-14095888D01*
X8529705Y-14095888D02*
X8520182Y-14114936D01*
X8520182Y-14114936D02*
X8510658Y-14124460D01*
X8510658Y-14124460D02*
X8491610Y-14133984D01*
X8491610Y-14133984D02*
X8472563Y-14133984D01*
X8472563Y-14133984D02*
X8453515Y-14124460D01*
X8453515Y-14124460D02*
X8443991Y-14114936D01*
X8443991Y-14114936D02*
X8434467Y-14095888D01*
X8434467Y-14095888D02*
X8424944Y-14057793D01*
X8424944Y-14057793D02*
X8424944Y-14010174D01*
X8424944Y-14010174D02*
X8434467Y-13972079D01*
X8434467Y-13972079D02*
X8443991Y-13953031D01*
X8443991Y-13953031D02*
X8453515Y-13943508D01*
X8453515Y-13943508D02*
X8472563Y-13933984D01*
X8663039Y-13933984D02*
X8682086Y-13933984D01*
X8682086Y-13933984D02*
X8701134Y-13943508D01*
X8701134Y-13943508D02*
X8710658Y-13953031D01*
X8710658Y-13953031D02*
X8720182Y-13972079D01*
X8720182Y-13972079D02*
X8729705Y-14010174D01*
X8729705Y-14010174D02*
X8729705Y-14057793D01*
X8729705Y-14057793D02*
X8720182Y-14095888D01*
X8720182Y-14095888D02*
X8710658Y-14114936D01*
X8710658Y-14114936D02*
X8701134Y-14124460D01*
X8701134Y-14124460D02*
X8682086Y-14133984D01*
X8682086Y-14133984D02*
X8663039Y-14133984D01*
X8663039Y-14133984D02*
X8643991Y-14124460D01*
X8643991Y-14124460D02*
X8634467Y-14114936D01*
X8634467Y-14114936D02*
X8624944Y-14095888D01*
X8624944Y-14095888D02*
X8615420Y-14057793D01*
X8615420Y-14057793D02*
X8615420Y-14010174D01*
X8615420Y-14010174D02*
X8624944Y-13972079D01*
X8624944Y-13972079D02*
X8634467Y-13953031D01*
X8634467Y-13953031D02*
X8643991Y-13943508D01*
X8643991Y-13943508D02*
X8663039Y-13933984D01*
X8815420Y-14133984D02*
X8815420Y-14000650D01*
X8815420Y-14019698D02*
X8824944Y-14010174D01*
X8824944Y-14010174D02*
X8843991Y-14000650D01*
X8843991Y-14000650D02*
X8872563Y-14000650D01*
X8872563Y-14000650D02*
X8891610Y-14010174D01*
X8891610Y-14010174D02*
X8901134Y-14029222D01*
X8901134Y-14029222D02*
X8901134Y-14133984D01*
X8901134Y-14029222D02*
X8910658Y-14010174D01*
X8910658Y-14010174D02*
X8929705Y-14000650D01*
X8929705Y-14000650D02*
X8958277Y-14000650D01*
X8958277Y-14000650D02*
X8977325Y-14010174D01*
X8977325Y-14010174D02*
X8986848Y-14029222D01*
X8986848Y-14029222D02*
X8986848Y-14133984D01*
X9082086Y-14133984D02*
X9082086Y-14000650D01*
X9082086Y-14019698D02*
X9091610Y-14010174D01*
X9091610Y-14010174D02*
X9110658Y-14000650D01*
X9110658Y-14000650D02*
X9139229Y-14000650D01*
X9139229Y-14000650D02*
X9158277Y-14010174D01*
X9158277Y-14010174D02*
X9167801Y-14029222D01*
X9167801Y-14029222D02*
X9167801Y-14133984D01*
X9167801Y-14029222D02*
X9177325Y-14010174D01*
X9177325Y-14010174D02*
X9196372Y-14000650D01*
X9196372Y-14000650D02*
X9224944Y-14000650D01*
X9224944Y-14000650D02*
X9243991Y-14010174D01*
X9243991Y-14010174D02*
X9253515Y-14029222D01*
X9253515Y-14029222D02*
X9253515Y-14133984D01*
X9643991Y-13924460D02*
X9472563Y-14181603D01*
X9901134Y-13933984D02*
X9920182Y-13933984D01*
X9920182Y-13933984D02*
X9939229Y-13943508D01*
X9939229Y-13943508D02*
X9948753Y-13953031D01*
X9948753Y-13953031D02*
X9958277Y-13972079D01*
X9958277Y-13972079D02*
X9967801Y-14010174D01*
X9967801Y-14010174D02*
X9967801Y-14057793D01*
X9967801Y-14057793D02*
X9958277Y-14095888D01*
X9958277Y-14095888D02*
X9948753Y-14114936D01*
X9948753Y-14114936D02*
X9939229Y-14124460D01*
X9939229Y-14124460D02*
X9920182Y-14133984D01*
X9920182Y-14133984D02*
X9901134Y-14133984D01*
X9901134Y-14133984D02*
X9882087Y-14124460D01*
X9882087Y-14124460D02*
X9872563Y-14114936D01*
X9872563Y-14114936D02*
X9863039Y-14095888D01*
X9863039Y-14095888D02*
X9853515Y-14057793D01*
X9853515Y-14057793D02*
X9853515Y-14010174D01*
X9853515Y-14010174D02*
X9863039Y-13972079D01*
X9863039Y-13972079D02*
X9872563Y-13953031D01*
X9872563Y-13953031D02*
X9882087Y-13943508D01*
X9882087Y-13943508D02*
X9901134Y-13933984D01*
X10053515Y-14114936D02*
X10063039Y-14124460D01*
X10063039Y-14124460D02*
X10053515Y-14133984D01*
X10053515Y-14133984D02*
X10043991Y-14124460D01*
X10043991Y-14124460D02*
X10053515Y-14114936D01*
X10053515Y-14114936D02*
X10053515Y-14133984D01*
X10186848Y-13933984D02*
X10205896Y-13933984D01*
X10205896Y-13933984D02*
X10224944Y-13943508D01*
X10224944Y-13943508D02*
X10234468Y-13953031D01*
X10234468Y-13953031D02*
X10243991Y-13972079D01*
X10243991Y-13972079D02*
X10253515Y-14010174D01*
X10253515Y-14010174D02*
X10253515Y-14057793D01*
X10253515Y-14057793D02*
X10243991Y-14095888D01*
X10243991Y-14095888D02*
X10234468Y-14114936D01*
X10234468Y-14114936D02*
X10224944Y-14124460D01*
X10224944Y-14124460D02*
X10205896Y-14133984D01*
X10205896Y-14133984D02*
X10186848Y-14133984D01*
X10186848Y-14133984D02*
X10167801Y-14124460D01*
X10167801Y-14124460D02*
X10158277Y-14114936D01*
X10158277Y-14114936D02*
X10148753Y-14095888D01*
X10148753Y-14095888D02*
X10139229Y-14057793D01*
X10139229Y-14057793D02*
X10139229Y-14010174D01*
X10139229Y-14010174D02*
X10148753Y-13972079D01*
X10148753Y-13972079D02*
X10158277Y-13953031D01*
X10158277Y-13953031D02*
X10167801Y-13943508D01*
X10167801Y-13943508D02*
X10186848Y-13933984D01*
X10443991Y-14133984D02*
X10329706Y-14133984D01*
X10386848Y-14133984D02*
X10386848Y-13933984D01*
X10386848Y-13933984D02*
X10367801Y-13962555D01*
X10367801Y-13962555D02*
X10348753Y-13981603D01*
X10348753Y-13981603D02*
X10329706Y-13991127D01*
X10624944Y-13933984D02*
X10529706Y-13933984D01*
X10529706Y-13933984D02*
X10520182Y-14029222D01*
X10520182Y-14029222D02*
X10529706Y-14019698D01*
X10529706Y-14019698D02*
X10548753Y-14010174D01*
X10548753Y-14010174D02*
X10596372Y-14010174D01*
X10596372Y-14010174D02*
X10615420Y-14019698D01*
X10615420Y-14019698D02*
X10624944Y-14029222D01*
X10624944Y-14029222D02*
X10634468Y-14048269D01*
X10634468Y-14048269D02*
X10634468Y-14095888D01*
X10634468Y-14095888D02*
X10624944Y-14114936D01*
X10624944Y-14114936D02*
X10615420Y-14124460D01*
X10615420Y-14124460D02*
X10596372Y-14133984D01*
X10596372Y-14133984D02*
X10548753Y-14133984D01*
X10548753Y-14133984D02*
X10529706Y-14124460D01*
X10529706Y-14124460D02*
X10520182Y-14114936D01*
X10701134Y-13933984D02*
X10834468Y-13933984D01*
X10834468Y-13933984D02*
X10748753Y-14133984D01*
X10901134Y-13933984D02*
X10901134Y-13972079D01*
X10977325Y-13933984D02*
X10977325Y-13972079D01*
X11272563Y-14210174D02*
X11263039Y-14200650D01*
X11263039Y-14200650D02*
X11243991Y-14172079D01*
X11243991Y-14172079D02*
X11234468Y-14153031D01*
X11234468Y-14153031D02*
X11224944Y-14124460D01*
X11224944Y-14124460D02*
X11215420Y-14076841D01*
X11215420Y-14076841D02*
X11215420Y-14038746D01*
X11215420Y-14038746D02*
X11224944Y-13991127D01*
X11224944Y-13991127D02*
X11234468Y-13962555D01*
X11234468Y-13962555D02*
X11243991Y-13943508D01*
X11243991Y-13943508D02*
X11263039Y-13914936D01*
X11263039Y-13914936D02*
X11272563Y-13905412D01*
X11453515Y-14133984D02*
X11339229Y-14133984D01*
X11396372Y-14133984D02*
X11396372Y-13933984D01*
X11396372Y-13933984D02*
X11377325Y-13962555D01*
X11377325Y-13962555D02*
X11358277Y-13981603D01*
X11358277Y-13981603D02*
X11339229Y-13991127D01*
X11529706Y-13953031D02*
X11539229Y-13943508D01*
X11539229Y-13943508D02*
X11558277Y-13933984D01*
X11558277Y-13933984D02*
X11605896Y-13933984D01*
X11605896Y-13933984D02*
X11624944Y-13943508D01*
X11624944Y-13943508D02*
X11634468Y-13953031D01*
X11634468Y-13953031D02*
X11643991Y-13972079D01*
X11643991Y-13972079D02*
X11643991Y-13991127D01*
X11643991Y-13991127D02*
X11634468Y-14019698D01*
X11634468Y-14019698D02*
X11520182Y-14133984D01*
X11520182Y-14133984D02*
X11643991Y-14133984D01*
X11758277Y-14019698D02*
X11739229Y-14010174D01*
X11739229Y-14010174D02*
X11729706Y-14000650D01*
X11729706Y-14000650D02*
X11720182Y-13981603D01*
X11720182Y-13981603D02*
X11720182Y-13972079D01*
X11720182Y-13972079D02*
X11729706Y-13953031D01*
X11729706Y-13953031D02*
X11739229Y-13943508D01*
X11739229Y-13943508D02*
X11758277Y-13933984D01*
X11758277Y-13933984D02*
X11796372Y-13933984D01*
X11796372Y-13933984D02*
X11815420Y-13943508D01*
X11815420Y-13943508D02*
X11824944Y-13953031D01*
X11824944Y-13953031D02*
X11834468Y-13972079D01*
X11834468Y-13972079D02*
X11834468Y-13981603D01*
X11834468Y-13981603D02*
X11824944Y-14000650D01*
X11824944Y-14000650D02*
X11815420Y-14010174D01*
X11815420Y-14010174D02*
X11796372Y-14019698D01*
X11796372Y-14019698D02*
X11758277Y-14019698D01*
X11758277Y-14019698D02*
X11739229Y-14029222D01*
X11739229Y-14029222D02*
X11729706Y-14038746D01*
X11729706Y-14038746D02*
X11720182Y-14057793D01*
X11720182Y-14057793D02*
X11720182Y-14095888D01*
X11720182Y-14095888D02*
X11729706Y-14114936D01*
X11729706Y-14114936D02*
X11739229Y-14124460D01*
X11739229Y-14124460D02*
X11758277Y-14133984D01*
X11758277Y-14133984D02*
X11796372Y-14133984D01*
X11796372Y-14133984D02*
X11815420Y-14124460D01*
X11815420Y-14124460D02*
X11824944Y-14114936D01*
X11824944Y-14114936D02*
X11834468Y-14095888D01*
X11834468Y-14095888D02*
X11834468Y-14057793D01*
X11834468Y-14057793D02*
X11824944Y-14038746D01*
X11824944Y-14038746D02*
X11815420Y-14029222D01*
X11815420Y-14029222D02*
X11796372Y-14019698D01*
X12072563Y-14133984D02*
X12072563Y-13933984D01*
X12158277Y-14133984D02*
X12158277Y-14029222D01*
X12158277Y-14029222D02*
X12148753Y-14010174D01*
X12148753Y-14010174D02*
X12129706Y-14000650D01*
X12129706Y-14000650D02*
X12101134Y-14000650D01*
X12101134Y-14000650D02*
X12082087Y-14010174D01*
X12082087Y-14010174D02*
X12072563Y-14019698D01*
X12282087Y-14133984D02*
X12263039Y-14124460D01*
X12263039Y-14124460D02*
X12253515Y-14114936D01*
X12253515Y-14114936D02*
X12243991Y-14095888D01*
X12243991Y-14095888D02*
X12243991Y-14038746D01*
X12243991Y-14038746D02*
X12253515Y-14019698D01*
X12253515Y-14019698D02*
X12263039Y-14010174D01*
X12263039Y-14010174D02*
X12282087Y-14000650D01*
X12282087Y-14000650D02*
X12310658Y-14000650D01*
X12310658Y-14000650D02*
X12329706Y-14010174D01*
X12329706Y-14010174D02*
X12339230Y-14019698D01*
X12339230Y-14019698D02*
X12348753Y-14038746D01*
X12348753Y-14038746D02*
X12348753Y-14095888D01*
X12348753Y-14095888D02*
X12339230Y-14114936D01*
X12339230Y-14114936D02*
X12329706Y-14124460D01*
X12329706Y-14124460D02*
X12310658Y-14133984D01*
X12310658Y-14133984D02*
X12282087Y-14133984D01*
X12463039Y-14133984D02*
X12443991Y-14124460D01*
X12443991Y-14124460D02*
X12434468Y-14105412D01*
X12434468Y-14105412D02*
X12434468Y-13933984D01*
X12615420Y-14124460D02*
X12596372Y-14133984D01*
X12596372Y-14133984D02*
X12558277Y-14133984D01*
X12558277Y-14133984D02*
X12539230Y-14124460D01*
X12539230Y-14124460D02*
X12529706Y-14105412D01*
X12529706Y-14105412D02*
X12529706Y-14029222D01*
X12529706Y-14029222D02*
X12539230Y-14010174D01*
X12539230Y-14010174D02*
X12558277Y-14000650D01*
X12558277Y-14000650D02*
X12596372Y-14000650D01*
X12596372Y-14000650D02*
X12615420Y-14010174D01*
X12615420Y-14010174D02*
X12624944Y-14029222D01*
X12624944Y-14029222D02*
X12624944Y-14048269D01*
X12624944Y-14048269D02*
X12529706Y-14067317D01*
X12701134Y-14124460D02*
X12720182Y-14133984D01*
X12720182Y-14133984D02*
X12758277Y-14133984D01*
X12758277Y-14133984D02*
X12777325Y-14124460D01*
X12777325Y-14124460D02*
X12786849Y-14105412D01*
X12786849Y-14105412D02*
X12786849Y-14095888D01*
X12786849Y-14095888D02*
X12777325Y-14076841D01*
X12777325Y-14076841D02*
X12758277Y-14067317D01*
X12758277Y-14067317D02*
X12729706Y-14067317D01*
X12729706Y-14067317D02*
X12710658Y-14057793D01*
X12710658Y-14057793D02*
X12701134Y-14038746D01*
X12701134Y-14038746D02*
X12701134Y-14029222D01*
X12701134Y-14029222D02*
X12710658Y-14010174D01*
X12710658Y-14010174D02*
X12729706Y-14000650D01*
X12729706Y-14000650D02*
X12758277Y-14000650D01*
X12758277Y-14000650D02*
X12777325Y-14010174D01*
X12853515Y-14210174D02*
X12863039Y-14200650D01*
X12863039Y-14200650D02*
X12882087Y-14172079D01*
X12882087Y-14172079D02*
X12891611Y-14153031D01*
X12891611Y-14153031D02*
X12901134Y-14124460D01*
X12901134Y-14124460D02*
X12910658Y-14076841D01*
X12910658Y-14076841D02*
X12910658Y-14038746D01*
X12910658Y-14038746D02*
X12901134Y-13991127D01*
X12901134Y-13991127D02*
X12891611Y-13962555D01*
X12891611Y-13962555D02*
X12882087Y-13943508D01*
X12882087Y-13943508D02*
X12863039Y-13914936D01*
X12863039Y-13914936D02*
X12853515Y-13905412D01*
D13*
X7697500Y-14306500D02*
G75*
G02*
X7595500Y-14306500I-51000J0D01*
G01*
X7595500Y-14306500D02*
G75*
G02*
X7697500Y-14306500I51000J0D01*
G01*
D11*
X8063039Y-14397984D02*
X7948753Y-14397984D01*
X8005896Y-14397984D02*
X8005896Y-14197984D01*
X8005896Y-14197984D02*
X7986848Y-14226555D01*
X7986848Y-14226555D02*
X7967801Y-14245603D01*
X7967801Y-14245603D02*
X7948753Y-14255127D01*
X8148753Y-14378936D02*
X8158277Y-14388460D01*
X8158277Y-14388460D02*
X8148753Y-14397984D01*
X8148753Y-14397984D02*
X8139229Y-14388460D01*
X8139229Y-14388460D02*
X8148753Y-14378936D01*
X8148753Y-14378936D02*
X8148753Y-14397984D01*
X8282086Y-14197984D02*
X8301134Y-14197984D01*
X8301134Y-14197984D02*
X8320182Y-14207508D01*
X8320182Y-14207508D02*
X8329705Y-14217031D01*
X8329705Y-14217031D02*
X8339229Y-14236079D01*
X8339229Y-14236079D02*
X8348753Y-14274174D01*
X8348753Y-14274174D02*
X8348753Y-14321793D01*
X8348753Y-14321793D02*
X8339229Y-14359888D01*
X8339229Y-14359888D02*
X8329705Y-14378936D01*
X8329705Y-14378936D02*
X8320182Y-14388460D01*
X8320182Y-14388460D02*
X8301134Y-14397984D01*
X8301134Y-14397984D02*
X8282086Y-14397984D01*
X8282086Y-14397984D02*
X8263039Y-14388460D01*
X8263039Y-14388460D02*
X8253515Y-14378936D01*
X8253515Y-14378936D02*
X8243991Y-14359888D01*
X8243991Y-14359888D02*
X8234467Y-14321793D01*
X8234467Y-14321793D02*
X8234467Y-14274174D01*
X8234467Y-14274174D02*
X8243991Y-14236079D01*
X8243991Y-14236079D02*
X8253515Y-14217031D01*
X8253515Y-14217031D02*
X8263039Y-14207508D01*
X8263039Y-14207508D02*
X8282086Y-14197984D01*
X8424944Y-14217031D02*
X8434467Y-14207508D01*
X8434467Y-14207508D02*
X8453515Y-14197984D01*
X8453515Y-14197984D02*
X8501134Y-14197984D01*
X8501134Y-14197984D02*
X8520182Y-14207508D01*
X8520182Y-14207508D02*
X8529705Y-14217031D01*
X8529705Y-14217031D02*
X8539229Y-14236079D01*
X8539229Y-14236079D02*
X8539229Y-14255127D01*
X8539229Y-14255127D02*
X8529705Y-14283698D01*
X8529705Y-14283698D02*
X8415420Y-14397984D01*
X8415420Y-14397984D02*
X8539229Y-14397984D01*
X8663039Y-14197984D02*
X8682086Y-14197984D01*
X8682086Y-14197984D02*
X8701134Y-14207508D01*
X8701134Y-14207508D02*
X8710658Y-14217031D01*
X8710658Y-14217031D02*
X8720182Y-14236079D01*
X8720182Y-14236079D02*
X8729705Y-14274174D01*
X8729705Y-14274174D02*
X8729705Y-14321793D01*
X8729705Y-14321793D02*
X8720182Y-14359888D01*
X8720182Y-14359888D02*
X8710658Y-14378936D01*
X8710658Y-14378936D02*
X8701134Y-14388460D01*
X8701134Y-14388460D02*
X8682086Y-14397984D01*
X8682086Y-14397984D02*
X8663039Y-14397984D01*
X8663039Y-14397984D02*
X8643991Y-14388460D01*
X8643991Y-14388460D02*
X8634467Y-14378936D01*
X8634467Y-14378936D02*
X8624944Y-14359888D01*
X8624944Y-14359888D02*
X8615420Y-14321793D01*
X8615420Y-14321793D02*
X8615420Y-14274174D01*
X8615420Y-14274174D02*
X8624944Y-14236079D01*
X8624944Y-14236079D02*
X8634467Y-14217031D01*
X8634467Y-14217031D02*
X8643991Y-14207508D01*
X8643991Y-14207508D02*
X8663039Y-14197984D01*
X8815420Y-14397984D02*
X8815420Y-14264650D01*
X8815420Y-14283698D02*
X8824944Y-14274174D01*
X8824944Y-14274174D02*
X8843991Y-14264650D01*
X8843991Y-14264650D02*
X8872563Y-14264650D01*
X8872563Y-14264650D02*
X8891610Y-14274174D01*
X8891610Y-14274174D02*
X8901134Y-14293222D01*
X8901134Y-14293222D02*
X8901134Y-14397984D01*
X8901134Y-14293222D02*
X8910658Y-14274174D01*
X8910658Y-14274174D02*
X8929705Y-14264650D01*
X8929705Y-14264650D02*
X8958277Y-14264650D01*
X8958277Y-14264650D02*
X8977325Y-14274174D01*
X8977325Y-14274174D02*
X8986848Y-14293222D01*
X8986848Y-14293222D02*
X8986848Y-14397984D01*
X9082086Y-14397984D02*
X9082086Y-14264650D01*
X9082086Y-14283698D02*
X9091610Y-14274174D01*
X9091610Y-14274174D02*
X9110658Y-14264650D01*
X9110658Y-14264650D02*
X9139229Y-14264650D01*
X9139229Y-14264650D02*
X9158277Y-14274174D01*
X9158277Y-14274174D02*
X9167801Y-14293222D01*
X9167801Y-14293222D02*
X9167801Y-14397984D01*
X9167801Y-14293222D02*
X9177325Y-14274174D01*
X9177325Y-14274174D02*
X9196372Y-14264650D01*
X9196372Y-14264650D02*
X9224944Y-14264650D01*
X9224944Y-14264650D02*
X9243991Y-14274174D01*
X9243991Y-14274174D02*
X9253515Y-14293222D01*
X9253515Y-14293222D02*
X9253515Y-14397984D01*
X9643991Y-14188460D02*
X9472563Y-14445603D01*
X9901134Y-14197984D02*
X9920182Y-14197984D01*
X9920182Y-14197984D02*
X9939229Y-14207508D01*
X9939229Y-14207508D02*
X9948753Y-14217031D01*
X9948753Y-14217031D02*
X9958277Y-14236079D01*
X9958277Y-14236079D02*
X9967801Y-14274174D01*
X9967801Y-14274174D02*
X9967801Y-14321793D01*
X9967801Y-14321793D02*
X9958277Y-14359888D01*
X9958277Y-14359888D02*
X9948753Y-14378936D01*
X9948753Y-14378936D02*
X9939229Y-14388460D01*
X9939229Y-14388460D02*
X9920182Y-14397984D01*
X9920182Y-14397984D02*
X9901134Y-14397984D01*
X9901134Y-14397984D02*
X9882087Y-14388460D01*
X9882087Y-14388460D02*
X9872563Y-14378936D01*
X9872563Y-14378936D02*
X9863039Y-14359888D01*
X9863039Y-14359888D02*
X9853515Y-14321793D01*
X9853515Y-14321793D02*
X9853515Y-14274174D01*
X9853515Y-14274174D02*
X9863039Y-14236079D01*
X9863039Y-14236079D02*
X9872563Y-14217031D01*
X9872563Y-14217031D02*
X9882087Y-14207508D01*
X9882087Y-14207508D02*
X9901134Y-14197984D01*
X10053515Y-14378936D02*
X10063039Y-14388460D01*
X10063039Y-14388460D02*
X10053515Y-14397984D01*
X10053515Y-14397984D02*
X10043991Y-14388460D01*
X10043991Y-14388460D02*
X10053515Y-14378936D01*
X10053515Y-14378936D02*
X10053515Y-14397984D01*
X10186848Y-14197984D02*
X10205896Y-14197984D01*
X10205896Y-14197984D02*
X10224944Y-14207508D01*
X10224944Y-14207508D02*
X10234468Y-14217031D01*
X10234468Y-14217031D02*
X10243991Y-14236079D01*
X10243991Y-14236079D02*
X10253515Y-14274174D01*
X10253515Y-14274174D02*
X10253515Y-14321793D01*
X10253515Y-14321793D02*
X10243991Y-14359888D01*
X10243991Y-14359888D02*
X10234468Y-14378936D01*
X10234468Y-14378936D02*
X10224944Y-14388460D01*
X10224944Y-14388460D02*
X10205896Y-14397984D01*
X10205896Y-14397984D02*
X10186848Y-14397984D01*
X10186848Y-14397984D02*
X10167801Y-14388460D01*
X10167801Y-14388460D02*
X10158277Y-14378936D01*
X10158277Y-14378936D02*
X10148753Y-14359888D01*
X10148753Y-14359888D02*
X10139229Y-14321793D01*
X10139229Y-14321793D02*
X10139229Y-14274174D01*
X10139229Y-14274174D02*
X10148753Y-14236079D01*
X10148753Y-14236079D02*
X10158277Y-14217031D01*
X10158277Y-14217031D02*
X10167801Y-14207508D01*
X10167801Y-14207508D02*
X10186848Y-14197984D01*
X10424944Y-14264650D02*
X10424944Y-14397984D01*
X10377325Y-14188460D02*
X10329706Y-14331317D01*
X10329706Y-14331317D02*
X10453515Y-14331317D01*
X10567801Y-14197984D02*
X10586849Y-14197984D01*
X10586849Y-14197984D02*
X10605896Y-14207508D01*
X10605896Y-14207508D02*
X10615420Y-14217031D01*
X10615420Y-14217031D02*
X10624944Y-14236079D01*
X10624944Y-14236079D02*
X10634468Y-14274174D01*
X10634468Y-14274174D02*
X10634468Y-14321793D01*
X10634468Y-14321793D02*
X10624944Y-14359888D01*
X10624944Y-14359888D02*
X10615420Y-14378936D01*
X10615420Y-14378936D02*
X10605896Y-14388460D01*
X10605896Y-14388460D02*
X10586849Y-14397984D01*
X10586849Y-14397984D02*
X10567801Y-14397984D01*
X10567801Y-14397984D02*
X10548753Y-14388460D01*
X10548753Y-14388460D02*
X10539229Y-14378936D01*
X10539229Y-14378936D02*
X10529706Y-14359888D01*
X10529706Y-14359888D02*
X10520182Y-14321793D01*
X10520182Y-14321793D02*
X10520182Y-14274174D01*
X10520182Y-14274174D02*
X10529706Y-14236079D01*
X10529706Y-14236079D02*
X10539229Y-14217031D01*
X10539229Y-14217031D02*
X10548753Y-14207508D01*
X10548753Y-14207508D02*
X10567801Y-14197984D01*
X10710658Y-14217031D02*
X10720182Y-14207508D01*
X10720182Y-14207508D02*
X10739229Y-14197984D01*
X10739229Y-14197984D02*
X10786849Y-14197984D01*
X10786849Y-14197984D02*
X10805896Y-14207508D01*
X10805896Y-14207508D02*
X10815420Y-14217031D01*
X10815420Y-14217031D02*
X10824944Y-14236079D01*
X10824944Y-14236079D02*
X10824944Y-14255127D01*
X10824944Y-14255127D02*
X10815420Y-14283698D01*
X10815420Y-14283698D02*
X10701134Y-14397984D01*
X10701134Y-14397984D02*
X10824944Y-14397984D01*
X10901134Y-14197984D02*
X10901134Y-14236079D01*
X10977325Y-14197984D02*
X10977325Y-14236079D01*
X11272563Y-14474174D02*
X11263039Y-14464650D01*
X11263039Y-14464650D02*
X11243991Y-14436079D01*
X11243991Y-14436079D02*
X11234468Y-14417031D01*
X11234468Y-14417031D02*
X11224944Y-14388460D01*
X11224944Y-14388460D02*
X11215420Y-14340841D01*
X11215420Y-14340841D02*
X11215420Y-14302746D01*
X11215420Y-14302746D02*
X11224944Y-14255127D01*
X11224944Y-14255127D02*
X11234468Y-14226555D01*
X11234468Y-14226555D02*
X11243991Y-14207508D01*
X11243991Y-14207508D02*
X11263039Y-14178936D01*
X11263039Y-14178936D02*
X11272563Y-14169412D01*
X11377325Y-14283698D02*
X11358277Y-14274174D01*
X11358277Y-14274174D02*
X11348753Y-14264650D01*
X11348753Y-14264650D02*
X11339229Y-14245603D01*
X11339229Y-14245603D02*
X11339229Y-14236079D01*
X11339229Y-14236079D02*
X11348753Y-14217031D01*
X11348753Y-14217031D02*
X11358277Y-14207508D01*
X11358277Y-14207508D02*
X11377325Y-14197984D01*
X11377325Y-14197984D02*
X11415420Y-14197984D01*
X11415420Y-14197984D02*
X11434468Y-14207508D01*
X11434468Y-14207508D02*
X11443991Y-14217031D01*
X11443991Y-14217031D02*
X11453515Y-14236079D01*
X11453515Y-14236079D02*
X11453515Y-14245603D01*
X11453515Y-14245603D02*
X11443991Y-14264650D01*
X11443991Y-14264650D02*
X11434468Y-14274174D01*
X11434468Y-14274174D02*
X11415420Y-14283698D01*
X11415420Y-14283698D02*
X11377325Y-14283698D01*
X11377325Y-14283698D02*
X11358277Y-14293222D01*
X11358277Y-14293222D02*
X11348753Y-14302746D01*
X11348753Y-14302746D02*
X11339229Y-14321793D01*
X11339229Y-14321793D02*
X11339229Y-14359888D01*
X11339229Y-14359888D02*
X11348753Y-14378936D01*
X11348753Y-14378936D02*
X11358277Y-14388460D01*
X11358277Y-14388460D02*
X11377325Y-14397984D01*
X11377325Y-14397984D02*
X11415420Y-14397984D01*
X11415420Y-14397984D02*
X11434468Y-14388460D01*
X11434468Y-14388460D02*
X11443991Y-14378936D01*
X11443991Y-14378936D02*
X11453515Y-14359888D01*
X11453515Y-14359888D02*
X11453515Y-14321793D01*
X11453515Y-14321793D02*
X11443991Y-14302746D01*
X11443991Y-14302746D02*
X11434468Y-14293222D01*
X11434468Y-14293222D02*
X11415420Y-14283698D01*
X11691610Y-14397984D02*
X11691610Y-14197984D01*
X11777325Y-14397984D02*
X11777325Y-14293222D01*
X11777325Y-14293222D02*
X11767801Y-14274174D01*
X11767801Y-14274174D02*
X11748753Y-14264650D01*
X11748753Y-14264650D02*
X11720182Y-14264650D01*
X11720182Y-14264650D02*
X11701134Y-14274174D01*
X11701134Y-14274174D02*
X11691610Y-14283698D01*
X11901134Y-14397984D02*
X11882087Y-14388460D01*
X11882087Y-14388460D02*
X11872563Y-14378936D01*
X11872563Y-14378936D02*
X11863039Y-14359888D01*
X11863039Y-14359888D02*
X11863039Y-14302746D01*
X11863039Y-14302746D02*
X11872563Y-14283698D01*
X11872563Y-14283698D02*
X11882087Y-14274174D01*
X11882087Y-14274174D02*
X11901134Y-14264650D01*
X11901134Y-14264650D02*
X11929706Y-14264650D01*
X11929706Y-14264650D02*
X11948753Y-14274174D01*
X11948753Y-14274174D02*
X11958277Y-14283698D01*
X11958277Y-14283698D02*
X11967801Y-14302746D01*
X11967801Y-14302746D02*
X11967801Y-14359888D01*
X11967801Y-14359888D02*
X11958277Y-14378936D01*
X11958277Y-14378936D02*
X11948753Y-14388460D01*
X11948753Y-14388460D02*
X11929706Y-14397984D01*
X11929706Y-14397984D02*
X11901134Y-14397984D01*
X12082087Y-14397984D02*
X12063039Y-14388460D01*
X12063039Y-14388460D02*
X12053515Y-14369412D01*
X12053515Y-14369412D02*
X12053515Y-14197984D01*
X12234468Y-14388460D02*
X12215420Y-14397984D01*
X12215420Y-14397984D02*
X12177325Y-14397984D01*
X12177325Y-14397984D02*
X12158277Y-14388460D01*
X12158277Y-14388460D02*
X12148753Y-14369412D01*
X12148753Y-14369412D02*
X12148753Y-14293222D01*
X12148753Y-14293222D02*
X12158277Y-14274174D01*
X12158277Y-14274174D02*
X12177325Y-14264650D01*
X12177325Y-14264650D02*
X12215420Y-14264650D01*
X12215420Y-14264650D02*
X12234468Y-14274174D01*
X12234468Y-14274174D02*
X12243991Y-14293222D01*
X12243991Y-14293222D02*
X12243991Y-14312269D01*
X12243991Y-14312269D02*
X12148753Y-14331317D01*
X12320182Y-14388460D02*
X12339230Y-14397984D01*
X12339230Y-14397984D02*
X12377325Y-14397984D01*
X12377325Y-14397984D02*
X12396372Y-14388460D01*
X12396372Y-14388460D02*
X12405896Y-14369412D01*
X12405896Y-14369412D02*
X12405896Y-14359888D01*
X12405896Y-14359888D02*
X12396372Y-14340841D01*
X12396372Y-14340841D02*
X12377325Y-14331317D01*
X12377325Y-14331317D02*
X12348753Y-14331317D01*
X12348753Y-14331317D02*
X12329706Y-14321793D01*
X12329706Y-14321793D02*
X12320182Y-14302746D01*
X12320182Y-14302746D02*
X12320182Y-14293222D01*
X12320182Y-14293222D02*
X12329706Y-14274174D01*
X12329706Y-14274174D02*
X12348753Y-14264650D01*
X12348753Y-14264650D02*
X12377325Y-14264650D01*
X12377325Y-14264650D02*
X12396372Y-14274174D01*
X12472563Y-14474174D02*
X12482087Y-14464650D01*
X12482087Y-14464650D02*
X12501134Y-14436079D01*
X12501134Y-14436079D02*
X12510658Y-14417031D01*
X12510658Y-14417031D02*
X12520182Y-14388460D01*
X12520182Y-14388460D02*
X12529706Y-14340841D01*
X12529706Y-14340841D02*
X12529706Y-14302746D01*
X12529706Y-14302746D02*
X12520182Y-14255127D01*
X12520182Y-14255127D02*
X12510658Y-14226555D01*
X12510658Y-14226555D02*
X12501134Y-14207508D01*
X12501134Y-14207508D02*
X12482087Y-14178936D01*
X12482087Y-14178936D02*
X12472563Y-14169412D01*
D14*
X7644160Y-14517160D02*
X7644160Y-14623840D01*
X7590820Y-14570500D02*
X7697500Y-14570500D01*
D11*
X8063039Y-14661984D02*
X7948753Y-14661984D01*
X8005896Y-14661984D02*
X8005896Y-14461984D01*
X8005896Y-14461984D02*
X7986848Y-14490555D01*
X7986848Y-14490555D02*
X7967801Y-14509603D01*
X7967801Y-14509603D02*
X7948753Y-14519127D01*
X8148753Y-14642936D02*
X8158277Y-14652460D01*
X8158277Y-14652460D02*
X8148753Y-14661984D01*
X8148753Y-14661984D02*
X8139229Y-14652460D01*
X8139229Y-14652460D02*
X8148753Y-14642936D01*
X8148753Y-14642936D02*
X8148753Y-14661984D01*
X8282086Y-14461984D02*
X8301134Y-14461984D01*
X8301134Y-14461984D02*
X8320182Y-14471508D01*
X8320182Y-14471508D02*
X8329705Y-14481031D01*
X8329705Y-14481031D02*
X8339229Y-14500079D01*
X8339229Y-14500079D02*
X8348753Y-14538174D01*
X8348753Y-14538174D02*
X8348753Y-14585793D01*
X8348753Y-14585793D02*
X8339229Y-14623888D01*
X8339229Y-14623888D02*
X8329705Y-14642936D01*
X8329705Y-14642936D02*
X8320182Y-14652460D01*
X8320182Y-14652460D02*
X8301134Y-14661984D01*
X8301134Y-14661984D02*
X8282086Y-14661984D01*
X8282086Y-14661984D02*
X8263039Y-14652460D01*
X8263039Y-14652460D02*
X8253515Y-14642936D01*
X8253515Y-14642936D02*
X8243991Y-14623888D01*
X8243991Y-14623888D02*
X8234467Y-14585793D01*
X8234467Y-14585793D02*
X8234467Y-14538174D01*
X8234467Y-14538174D02*
X8243991Y-14500079D01*
X8243991Y-14500079D02*
X8253515Y-14481031D01*
X8253515Y-14481031D02*
X8263039Y-14471508D01*
X8263039Y-14471508D02*
X8282086Y-14461984D01*
X8520182Y-14461984D02*
X8482086Y-14461984D01*
X8482086Y-14461984D02*
X8463039Y-14471508D01*
X8463039Y-14471508D02*
X8453515Y-14481031D01*
X8453515Y-14481031D02*
X8434467Y-14509603D01*
X8434467Y-14509603D02*
X8424944Y-14547698D01*
X8424944Y-14547698D02*
X8424944Y-14623888D01*
X8424944Y-14623888D02*
X8434467Y-14642936D01*
X8434467Y-14642936D02*
X8443991Y-14652460D01*
X8443991Y-14652460D02*
X8463039Y-14661984D01*
X8463039Y-14661984D02*
X8501134Y-14661984D01*
X8501134Y-14661984D02*
X8520182Y-14652460D01*
X8520182Y-14652460D02*
X8529705Y-14642936D01*
X8529705Y-14642936D02*
X8539229Y-14623888D01*
X8539229Y-14623888D02*
X8539229Y-14576269D01*
X8539229Y-14576269D02*
X8529705Y-14557222D01*
X8529705Y-14557222D02*
X8520182Y-14547698D01*
X8520182Y-14547698D02*
X8501134Y-14538174D01*
X8501134Y-14538174D02*
X8463039Y-14538174D01*
X8463039Y-14538174D02*
X8443991Y-14547698D01*
X8443991Y-14547698D02*
X8434467Y-14557222D01*
X8434467Y-14557222D02*
X8424944Y-14576269D01*
X8605896Y-14461984D02*
X8739229Y-14461984D01*
X8739229Y-14461984D02*
X8653515Y-14661984D01*
X8815420Y-14661984D02*
X8815420Y-14528650D01*
X8815420Y-14547698D02*
X8824944Y-14538174D01*
X8824944Y-14538174D02*
X8843991Y-14528650D01*
X8843991Y-14528650D02*
X8872563Y-14528650D01*
X8872563Y-14528650D02*
X8891610Y-14538174D01*
X8891610Y-14538174D02*
X8901134Y-14557222D01*
X8901134Y-14557222D02*
X8901134Y-14661984D01*
X8901134Y-14557222D02*
X8910658Y-14538174D01*
X8910658Y-14538174D02*
X8929705Y-14528650D01*
X8929705Y-14528650D02*
X8958277Y-14528650D01*
X8958277Y-14528650D02*
X8977325Y-14538174D01*
X8977325Y-14538174D02*
X8986848Y-14557222D01*
X8986848Y-14557222D02*
X8986848Y-14661984D01*
X9082086Y-14661984D02*
X9082086Y-14528650D01*
X9082086Y-14547698D02*
X9091610Y-14538174D01*
X9091610Y-14538174D02*
X9110658Y-14528650D01*
X9110658Y-14528650D02*
X9139229Y-14528650D01*
X9139229Y-14528650D02*
X9158277Y-14538174D01*
X9158277Y-14538174D02*
X9167801Y-14557222D01*
X9167801Y-14557222D02*
X9167801Y-14661984D01*
X9167801Y-14557222D02*
X9177325Y-14538174D01*
X9177325Y-14538174D02*
X9196372Y-14528650D01*
X9196372Y-14528650D02*
X9224944Y-14528650D01*
X9224944Y-14528650D02*
X9243991Y-14538174D01*
X9243991Y-14538174D02*
X9253515Y-14557222D01*
X9253515Y-14557222D02*
X9253515Y-14661984D01*
X9643991Y-14452460D02*
X9472563Y-14709603D01*
X9901134Y-14461984D02*
X9920182Y-14461984D01*
X9920182Y-14461984D02*
X9939229Y-14471508D01*
X9939229Y-14471508D02*
X9948753Y-14481031D01*
X9948753Y-14481031D02*
X9958277Y-14500079D01*
X9958277Y-14500079D02*
X9967801Y-14538174D01*
X9967801Y-14538174D02*
X9967801Y-14585793D01*
X9967801Y-14585793D02*
X9958277Y-14623888D01*
X9958277Y-14623888D02*
X9948753Y-14642936D01*
X9948753Y-14642936D02*
X9939229Y-14652460D01*
X9939229Y-14652460D02*
X9920182Y-14661984D01*
X9920182Y-14661984D02*
X9901134Y-14661984D01*
X9901134Y-14661984D02*
X9882087Y-14652460D01*
X9882087Y-14652460D02*
X9872563Y-14642936D01*
X9872563Y-14642936D02*
X9863039Y-14623888D01*
X9863039Y-14623888D02*
X9853515Y-14585793D01*
X9853515Y-14585793D02*
X9853515Y-14538174D01*
X9853515Y-14538174D02*
X9863039Y-14500079D01*
X9863039Y-14500079D02*
X9872563Y-14481031D01*
X9872563Y-14481031D02*
X9882087Y-14471508D01*
X9882087Y-14471508D02*
X9901134Y-14461984D01*
X10053515Y-14642936D02*
X10063039Y-14652460D01*
X10063039Y-14652460D02*
X10053515Y-14661984D01*
X10053515Y-14661984D02*
X10043991Y-14652460D01*
X10043991Y-14652460D02*
X10053515Y-14642936D01*
X10053515Y-14642936D02*
X10053515Y-14661984D01*
X10186848Y-14461984D02*
X10205896Y-14461984D01*
X10205896Y-14461984D02*
X10224944Y-14471508D01*
X10224944Y-14471508D02*
X10234468Y-14481031D01*
X10234468Y-14481031D02*
X10243991Y-14500079D01*
X10243991Y-14500079D02*
X10253515Y-14538174D01*
X10253515Y-14538174D02*
X10253515Y-14585793D01*
X10253515Y-14585793D02*
X10243991Y-14623888D01*
X10243991Y-14623888D02*
X10234468Y-14642936D01*
X10234468Y-14642936D02*
X10224944Y-14652460D01*
X10224944Y-14652460D02*
X10205896Y-14661984D01*
X10205896Y-14661984D02*
X10186848Y-14661984D01*
X10186848Y-14661984D02*
X10167801Y-14652460D01*
X10167801Y-14652460D02*
X10158277Y-14642936D01*
X10158277Y-14642936D02*
X10148753Y-14623888D01*
X10148753Y-14623888D02*
X10139229Y-14585793D01*
X10139229Y-14585793D02*
X10139229Y-14538174D01*
X10139229Y-14538174D02*
X10148753Y-14500079D01*
X10148753Y-14500079D02*
X10158277Y-14481031D01*
X10158277Y-14481031D02*
X10167801Y-14471508D01*
X10167801Y-14471508D02*
X10186848Y-14461984D01*
X10424944Y-14528650D02*
X10424944Y-14661984D01*
X10377325Y-14452460D02*
X10329706Y-14595317D01*
X10329706Y-14595317D02*
X10453515Y-14595317D01*
X10520182Y-14481031D02*
X10529706Y-14471508D01*
X10529706Y-14471508D02*
X10548753Y-14461984D01*
X10548753Y-14461984D02*
X10596372Y-14461984D01*
X10596372Y-14461984D02*
X10615420Y-14471508D01*
X10615420Y-14471508D02*
X10624944Y-14481031D01*
X10624944Y-14481031D02*
X10634468Y-14500079D01*
X10634468Y-14500079D02*
X10634468Y-14519127D01*
X10634468Y-14519127D02*
X10624944Y-14547698D01*
X10624944Y-14547698D02*
X10510658Y-14661984D01*
X10510658Y-14661984D02*
X10634468Y-14661984D01*
X10758277Y-14461984D02*
X10777325Y-14461984D01*
X10777325Y-14461984D02*
X10796372Y-14471508D01*
X10796372Y-14471508D02*
X10805896Y-14481031D01*
X10805896Y-14481031D02*
X10815420Y-14500079D01*
X10815420Y-14500079D02*
X10824944Y-14538174D01*
X10824944Y-14538174D02*
X10824944Y-14585793D01*
X10824944Y-14585793D02*
X10815420Y-14623888D01*
X10815420Y-14623888D02*
X10805896Y-14642936D01*
X10805896Y-14642936D02*
X10796372Y-14652460D01*
X10796372Y-14652460D02*
X10777325Y-14661984D01*
X10777325Y-14661984D02*
X10758277Y-14661984D01*
X10758277Y-14661984D02*
X10739229Y-14652460D01*
X10739229Y-14652460D02*
X10729706Y-14642936D01*
X10729706Y-14642936D02*
X10720182Y-14623888D01*
X10720182Y-14623888D02*
X10710658Y-14585793D01*
X10710658Y-14585793D02*
X10710658Y-14538174D01*
X10710658Y-14538174D02*
X10720182Y-14500079D01*
X10720182Y-14500079D02*
X10729706Y-14481031D01*
X10729706Y-14481031D02*
X10739229Y-14471508D01*
X10739229Y-14471508D02*
X10758277Y-14461984D01*
X10901134Y-14461984D02*
X10901134Y-14500079D01*
X10977325Y-14461984D02*
X10977325Y-14500079D01*
X11272563Y-14738174D02*
X11263039Y-14728650D01*
X11263039Y-14728650D02*
X11243991Y-14700079D01*
X11243991Y-14700079D02*
X11234468Y-14681031D01*
X11234468Y-14681031D02*
X11224944Y-14652460D01*
X11224944Y-14652460D02*
X11215420Y-14604841D01*
X11215420Y-14604841D02*
X11215420Y-14566746D01*
X11215420Y-14566746D02*
X11224944Y-14519127D01*
X11224944Y-14519127D02*
X11234468Y-14490555D01*
X11234468Y-14490555D02*
X11243991Y-14471508D01*
X11243991Y-14471508D02*
X11263039Y-14442936D01*
X11263039Y-14442936D02*
X11272563Y-14433412D01*
X11434468Y-14461984D02*
X11396372Y-14461984D01*
X11396372Y-14461984D02*
X11377325Y-14471508D01*
X11377325Y-14471508D02*
X11367801Y-14481031D01*
X11367801Y-14481031D02*
X11348753Y-14509603D01*
X11348753Y-14509603D02*
X11339229Y-14547698D01*
X11339229Y-14547698D02*
X11339229Y-14623888D01*
X11339229Y-14623888D02*
X11348753Y-14642936D01*
X11348753Y-14642936D02*
X11358277Y-14652460D01*
X11358277Y-14652460D02*
X11377325Y-14661984D01*
X11377325Y-14661984D02*
X11415420Y-14661984D01*
X11415420Y-14661984D02*
X11434468Y-14652460D01*
X11434468Y-14652460D02*
X11443991Y-14642936D01*
X11443991Y-14642936D02*
X11453515Y-14623888D01*
X11453515Y-14623888D02*
X11453515Y-14576269D01*
X11453515Y-14576269D02*
X11443991Y-14557222D01*
X11443991Y-14557222D02*
X11434468Y-14547698D01*
X11434468Y-14547698D02*
X11415420Y-14538174D01*
X11415420Y-14538174D02*
X11377325Y-14538174D01*
X11377325Y-14538174D02*
X11358277Y-14547698D01*
X11358277Y-14547698D02*
X11348753Y-14557222D01*
X11348753Y-14557222D02*
X11339229Y-14576269D01*
X11691610Y-14661984D02*
X11691610Y-14461984D01*
X11777325Y-14661984D02*
X11777325Y-14557222D01*
X11777325Y-14557222D02*
X11767801Y-14538174D01*
X11767801Y-14538174D02*
X11748753Y-14528650D01*
X11748753Y-14528650D02*
X11720182Y-14528650D01*
X11720182Y-14528650D02*
X11701134Y-14538174D01*
X11701134Y-14538174D02*
X11691610Y-14547698D01*
X11901134Y-14661984D02*
X11882087Y-14652460D01*
X11882087Y-14652460D02*
X11872563Y-14642936D01*
X11872563Y-14642936D02*
X11863039Y-14623888D01*
X11863039Y-14623888D02*
X11863039Y-14566746D01*
X11863039Y-14566746D02*
X11872563Y-14547698D01*
X11872563Y-14547698D02*
X11882087Y-14538174D01*
X11882087Y-14538174D02*
X11901134Y-14528650D01*
X11901134Y-14528650D02*
X11929706Y-14528650D01*
X11929706Y-14528650D02*
X11948753Y-14538174D01*
X11948753Y-14538174D02*
X11958277Y-14547698D01*
X11958277Y-14547698D02*
X11967801Y-14566746D01*
X11967801Y-14566746D02*
X11967801Y-14623888D01*
X11967801Y-14623888D02*
X11958277Y-14642936D01*
X11958277Y-14642936D02*
X11948753Y-14652460D01*
X11948753Y-14652460D02*
X11929706Y-14661984D01*
X11929706Y-14661984D02*
X11901134Y-14661984D01*
X12082087Y-14661984D02*
X12063039Y-14652460D01*
X12063039Y-14652460D02*
X12053515Y-14633412D01*
X12053515Y-14633412D02*
X12053515Y-14461984D01*
X12234468Y-14652460D02*
X12215420Y-14661984D01*
X12215420Y-14661984D02*
X12177325Y-14661984D01*
X12177325Y-14661984D02*
X12158277Y-14652460D01*
X12158277Y-14652460D02*
X12148753Y-14633412D01*
X12148753Y-14633412D02*
X12148753Y-14557222D01*
X12148753Y-14557222D02*
X12158277Y-14538174D01*
X12158277Y-14538174D02*
X12177325Y-14528650D01*
X12177325Y-14528650D02*
X12215420Y-14528650D01*
X12215420Y-14528650D02*
X12234468Y-14538174D01*
X12234468Y-14538174D02*
X12243991Y-14557222D01*
X12243991Y-14557222D02*
X12243991Y-14576269D01*
X12243991Y-14576269D02*
X12148753Y-14595317D01*
X12320182Y-14652460D02*
X12339230Y-14661984D01*
X12339230Y-14661984D02*
X12377325Y-14661984D01*
X12377325Y-14661984D02*
X12396372Y-14652460D01*
X12396372Y-14652460D02*
X12405896Y-14633412D01*
X12405896Y-14633412D02*
X12405896Y-14623888D01*
X12405896Y-14623888D02*
X12396372Y-14604841D01*
X12396372Y-14604841D02*
X12377325Y-14595317D01*
X12377325Y-14595317D02*
X12348753Y-14595317D01*
X12348753Y-14595317D02*
X12329706Y-14585793D01*
X12329706Y-14585793D02*
X12320182Y-14566746D01*
X12320182Y-14566746D02*
X12320182Y-14557222D01*
X12320182Y-14557222D02*
X12329706Y-14538174D01*
X12329706Y-14538174D02*
X12348753Y-14528650D01*
X12348753Y-14528650D02*
X12377325Y-14528650D01*
X12377325Y-14528650D02*
X12396372Y-14538174D01*
X12472563Y-14738174D02*
X12482087Y-14728650D01*
X12482087Y-14728650D02*
X12501134Y-14700079D01*
X12501134Y-14700079D02*
X12510658Y-14681031D01*
X12510658Y-14681031D02*
X12520182Y-14652460D01*
X12520182Y-14652460D02*
X12529706Y-14604841D01*
X12529706Y-14604841D02*
X12529706Y-14566746D01*
X12529706Y-14566746D02*
X12520182Y-14519127D01*
X12520182Y-14519127D02*
X12510658Y-14490555D01*
X12510658Y-14490555D02*
X12501134Y-14471508D01*
X12501134Y-14471508D02*
X12482087Y-14442936D01*
X12482087Y-14442936D02*
X12472563Y-14433412D01*
D15*
X7671433Y-14897433D02*
X7671433Y-14771567D01*
X7545567Y-14771567D01*
X7545567Y-14897433D01*
X7671433Y-14897433D01*
D11*
X8063039Y-14925984D02*
X7948753Y-14925984D01*
X8005896Y-14925984D02*
X8005896Y-14725984D01*
X8005896Y-14725984D02*
X7986848Y-14754555D01*
X7986848Y-14754555D02*
X7967801Y-14773603D01*
X7967801Y-14773603D02*
X7948753Y-14783127D01*
X8148753Y-14906936D02*
X8158277Y-14916460D01*
X8158277Y-14916460D02*
X8148753Y-14925984D01*
X8148753Y-14925984D02*
X8139229Y-14916460D01*
X8139229Y-14916460D02*
X8148753Y-14906936D01*
X8148753Y-14906936D02*
X8148753Y-14925984D01*
X8224943Y-14725984D02*
X8358277Y-14725984D01*
X8358277Y-14725984D02*
X8272562Y-14925984D01*
X8463039Y-14811698D02*
X8443991Y-14802174D01*
X8443991Y-14802174D02*
X8434467Y-14792650D01*
X8434467Y-14792650D02*
X8424944Y-14773603D01*
X8424944Y-14773603D02*
X8424944Y-14764079D01*
X8424944Y-14764079D02*
X8434467Y-14745031D01*
X8434467Y-14745031D02*
X8443991Y-14735508D01*
X8443991Y-14735508D02*
X8463039Y-14725984D01*
X8463039Y-14725984D02*
X8501134Y-14725984D01*
X8501134Y-14725984D02*
X8520182Y-14735508D01*
X8520182Y-14735508D02*
X8529705Y-14745031D01*
X8529705Y-14745031D02*
X8539229Y-14764079D01*
X8539229Y-14764079D02*
X8539229Y-14773603D01*
X8539229Y-14773603D02*
X8529705Y-14792650D01*
X8529705Y-14792650D02*
X8520182Y-14802174D01*
X8520182Y-14802174D02*
X8501134Y-14811698D01*
X8501134Y-14811698D02*
X8463039Y-14811698D01*
X8463039Y-14811698D02*
X8443991Y-14821222D01*
X8443991Y-14821222D02*
X8434467Y-14830746D01*
X8434467Y-14830746D02*
X8424944Y-14849793D01*
X8424944Y-14849793D02*
X8424944Y-14887888D01*
X8424944Y-14887888D02*
X8434467Y-14906936D01*
X8434467Y-14906936D02*
X8443991Y-14916460D01*
X8443991Y-14916460D02*
X8463039Y-14925984D01*
X8463039Y-14925984D02*
X8501134Y-14925984D01*
X8501134Y-14925984D02*
X8520182Y-14916460D01*
X8520182Y-14916460D02*
X8529705Y-14906936D01*
X8529705Y-14906936D02*
X8539229Y-14887888D01*
X8539229Y-14887888D02*
X8539229Y-14849793D01*
X8539229Y-14849793D02*
X8529705Y-14830746D01*
X8529705Y-14830746D02*
X8520182Y-14821222D01*
X8520182Y-14821222D02*
X8501134Y-14811698D01*
X8663039Y-14725984D02*
X8682086Y-14725984D01*
X8682086Y-14725984D02*
X8701134Y-14735508D01*
X8701134Y-14735508D02*
X8710658Y-14745031D01*
X8710658Y-14745031D02*
X8720182Y-14764079D01*
X8720182Y-14764079D02*
X8729705Y-14802174D01*
X8729705Y-14802174D02*
X8729705Y-14849793D01*
X8729705Y-14849793D02*
X8720182Y-14887888D01*
X8720182Y-14887888D02*
X8710658Y-14906936D01*
X8710658Y-14906936D02*
X8701134Y-14916460D01*
X8701134Y-14916460D02*
X8682086Y-14925984D01*
X8682086Y-14925984D02*
X8663039Y-14925984D01*
X8663039Y-14925984D02*
X8643991Y-14916460D01*
X8643991Y-14916460D02*
X8634467Y-14906936D01*
X8634467Y-14906936D02*
X8624944Y-14887888D01*
X8624944Y-14887888D02*
X8615420Y-14849793D01*
X8615420Y-14849793D02*
X8615420Y-14802174D01*
X8615420Y-14802174D02*
X8624944Y-14764079D01*
X8624944Y-14764079D02*
X8634467Y-14745031D01*
X8634467Y-14745031D02*
X8643991Y-14735508D01*
X8643991Y-14735508D02*
X8663039Y-14725984D01*
X8815420Y-14925984D02*
X8815420Y-14792650D01*
X8815420Y-14811698D02*
X8824944Y-14802174D01*
X8824944Y-14802174D02*
X8843991Y-14792650D01*
X8843991Y-14792650D02*
X8872563Y-14792650D01*
X8872563Y-14792650D02*
X8891610Y-14802174D01*
X8891610Y-14802174D02*
X8901134Y-14821222D01*
X8901134Y-14821222D02*
X8901134Y-14925984D01*
X8901134Y-14821222D02*
X8910658Y-14802174D01*
X8910658Y-14802174D02*
X8929705Y-14792650D01*
X8929705Y-14792650D02*
X8958277Y-14792650D01*
X8958277Y-14792650D02*
X8977325Y-14802174D01*
X8977325Y-14802174D02*
X8986848Y-14821222D01*
X8986848Y-14821222D02*
X8986848Y-14925984D01*
X9082086Y-14925984D02*
X9082086Y-14792650D01*
X9082086Y-14811698D02*
X9091610Y-14802174D01*
X9091610Y-14802174D02*
X9110658Y-14792650D01*
X9110658Y-14792650D02*
X9139229Y-14792650D01*
X9139229Y-14792650D02*
X9158277Y-14802174D01*
X9158277Y-14802174D02*
X9167801Y-14821222D01*
X9167801Y-14821222D02*
X9167801Y-14925984D01*
X9167801Y-14821222D02*
X9177325Y-14802174D01*
X9177325Y-14802174D02*
X9196372Y-14792650D01*
X9196372Y-14792650D02*
X9224944Y-14792650D01*
X9224944Y-14792650D02*
X9243991Y-14802174D01*
X9243991Y-14802174D02*
X9253515Y-14821222D01*
X9253515Y-14821222D02*
X9253515Y-14925984D01*
X9643991Y-14716460D02*
X9472563Y-14973603D01*
X9901134Y-14725984D02*
X9920182Y-14725984D01*
X9920182Y-14725984D02*
X9939229Y-14735508D01*
X9939229Y-14735508D02*
X9948753Y-14745031D01*
X9948753Y-14745031D02*
X9958277Y-14764079D01*
X9958277Y-14764079D02*
X9967801Y-14802174D01*
X9967801Y-14802174D02*
X9967801Y-14849793D01*
X9967801Y-14849793D02*
X9958277Y-14887888D01*
X9958277Y-14887888D02*
X9948753Y-14906936D01*
X9948753Y-14906936D02*
X9939229Y-14916460D01*
X9939229Y-14916460D02*
X9920182Y-14925984D01*
X9920182Y-14925984D02*
X9901134Y-14925984D01*
X9901134Y-14925984D02*
X9882087Y-14916460D01*
X9882087Y-14916460D02*
X9872563Y-14906936D01*
X9872563Y-14906936D02*
X9863039Y-14887888D01*
X9863039Y-14887888D02*
X9853515Y-14849793D01*
X9853515Y-14849793D02*
X9853515Y-14802174D01*
X9853515Y-14802174D02*
X9863039Y-14764079D01*
X9863039Y-14764079D02*
X9872563Y-14745031D01*
X9872563Y-14745031D02*
X9882087Y-14735508D01*
X9882087Y-14735508D02*
X9901134Y-14725984D01*
X10053515Y-14906936D02*
X10063039Y-14916460D01*
X10063039Y-14916460D02*
X10053515Y-14925984D01*
X10053515Y-14925984D02*
X10043991Y-14916460D01*
X10043991Y-14916460D02*
X10053515Y-14906936D01*
X10053515Y-14906936D02*
X10053515Y-14925984D01*
X10186848Y-14725984D02*
X10205896Y-14725984D01*
X10205896Y-14725984D02*
X10224944Y-14735508D01*
X10224944Y-14735508D02*
X10234468Y-14745031D01*
X10234468Y-14745031D02*
X10243991Y-14764079D01*
X10243991Y-14764079D02*
X10253515Y-14802174D01*
X10253515Y-14802174D02*
X10253515Y-14849793D01*
X10253515Y-14849793D02*
X10243991Y-14887888D01*
X10243991Y-14887888D02*
X10234468Y-14906936D01*
X10234468Y-14906936D02*
X10224944Y-14916460D01*
X10224944Y-14916460D02*
X10205896Y-14925984D01*
X10205896Y-14925984D02*
X10186848Y-14925984D01*
X10186848Y-14925984D02*
X10167801Y-14916460D01*
X10167801Y-14916460D02*
X10158277Y-14906936D01*
X10158277Y-14906936D02*
X10148753Y-14887888D01*
X10148753Y-14887888D02*
X10139229Y-14849793D01*
X10139229Y-14849793D02*
X10139229Y-14802174D01*
X10139229Y-14802174D02*
X10148753Y-14764079D01*
X10148753Y-14764079D02*
X10158277Y-14745031D01*
X10158277Y-14745031D02*
X10167801Y-14735508D01*
X10167801Y-14735508D02*
X10186848Y-14725984D01*
X10320182Y-14725984D02*
X10453515Y-14725984D01*
X10453515Y-14725984D02*
X10367801Y-14925984D01*
X10567801Y-14725984D02*
X10586849Y-14725984D01*
X10586849Y-14725984D02*
X10605896Y-14735508D01*
X10605896Y-14735508D02*
X10615420Y-14745031D01*
X10615420Y-14745031D02*
X10624944Y-14764079D01*
X10624944Y-14764079D02*
X10634468Y-14802174D01*
X10634468Y-14802174D02*
X10634468Y-14849793D01*
X10634468Y-14849793D02*
X10624944Y-14887888D01*
X10624944Y-14887888D02*
X10615420Y-14906936D01*
X10615420Y-14906936D02*
X10605896Y-14916460D01*
X10605896Y-14916460D02*
X10586849Y-14925984D01*
X10586849Y-14925984D02*
X10567801Y-14925984D01*
X10567801Y-14925984D02*
X10548753Y-14916460D01*
X10548753Y-14916460D02*
X10539229Y-14906936D01*
X10539229Y-14906936D02*
X10529706Y-14887888D01*
X10529706Y-14887888D02*
X10520182Y-14849793D01*
X10520182Y-14849793D02*
X10520182Y-14802174D01*
X10520182Y-14802174D02*
X10529706Y-14764079D01*
X10529706Y-14764079D02*
X10539229Y-14745031D01*
X10539229Y-14745031D02*
X10548753Y-14735508D01*
X10548753Y-14735508D02*
X10567801Y-14725984D01*
X10824944Y-14925984D02*
X10710658Y-14925984D01*
X10767801Y-14925984D02*
X10767801Y-14725984D01*
X10767801Y-14725984D02*
X10748753Y-14754555D01*
X10748753Y-14754555D02*
X10729706Y-14773603D01*
X10729706Y-14773603D02*
X10710658Y-14783127D01*
X10901134Y-14725984D02*
X10901134Y-14764079D01*
X10977325Y-14725984D02*
X10977325Y-14764079D01*
X11272563Y-15002174D02*
X11263039Y-14992650D01*
X11263039Y-14992650D02*
X11243991Y-14964079D01*
X11243991Y-14964079D02*
X11234468Y-14945031D01*
X11234468Y-14945031D02*
X11224944Y-14916460D01*
X11224944Y-14916460D02*
X11215420Y-14868841D01*
X11215420Y-14868841D02*
X11215420Y-14830746D01*
X11215420Y-14830746D02*
X11224944Y-14783127D01*
X11224944Y-14783127D02*
X11234468Y-14754555D01*
X11234468Y-14754555D02*
X11243991Y-14735508D01*
X11243991Y-14735508D02*
X11263039Y-14706936D01*
X11263039Y-14706936D02*
X11272563Y-14697412D01*
X11377325Y-14811698D02*
X11358277Y-14802174D01*
X11358277Y-14802174D02*
X11348753Y-14792650D01*
X11348753Y-14792650D02*
X11339229Y-14773603D01*
X11339229Y-14773603D02*
X11339229Y-14764079D01*
X11339229Y-14764079D02*
X11348753Y-14745031D01*
X11348753Y-14745031D02*
X11358277Y-14735508D01*
X11358277Y-14735508D02*
X11377325Y-14725984D01*
X11377325Y-14725984D02*
X11415420Y-14725984D01*
X11415420Y-14725984D02*
X11434468Y-14735508D01*
X11434468Y-14735508D02*
X11443991Y-14745031D01*
X11443991Y-14745031D02*
X11453515Y-14764079D01*
X11453515Y-14764079D02*
X11453515Y-14773603D01*
X11453515Y-14773603D02*
X11443991Y-14792650D01*
X11443991Y-14792650D02*
X11434468Y-14802174D01*
X11434468Y-14802174D02*
X11415420Y-14811698D01*
X11415420Y-14811698D02*
X11377325Y-14811698D01*
X11377325Y-14811698D02*
X11358277Y-14821222D01*
X11358277Y-14821222D02*
X11348753Y-14830746D01*
X11348753Y-14830746D02*
X11339229Y-14849793D01*
X11339229Y-14849793D02*
X11339229Y-14887888D01*
X11339229Y-14887888D02*
X11348753Y-14906936D01*
X11348753Y-14906936D02*
X11358277Y-14916460D01*
X11358277Y-14916460D02*
X11377325Y-14925984D01*
X11377325Y-14925984D02*
X11415420Y-14925984D01*
X11415420Y-14925984D02*
X11434468Y-14916460D01*
X11434468Y-14916460D02*
X11443991Y-14906936D01*
X11443991Y-14906936D02*
X11453515Y-14887888D01*
X11453515Y-14887888D02*
X11453515Y-14849793D01*
X11453515Y-14849793D02*
X11443991Y-14830746D01*
X11443991Y-14830746D02*
X11434468Y-14821222D01*
X11434468Y-14821222D02*
X11415420Y-14811698D01*
X11691610Y-14925984D02*
X11691610Y-14725984D01*
X11777325Y-14925984D02*
X11777325Y-14821222D01*
X11777325Y-14821222D02*
X11767801Y-14802174D01*
X11767801Y-14802174D02*
X11748753Y-14792650D01*
X11748753Y-14792650D02*
X11720182Y-14792650D01*
X11720182Y-14792650D02*
X11701134Y-14802174D01*
X11701134Y-14802174D02*
X11691610Y-14811698D01*
X11901134Y-14925984D02*
X11882087Y-14916460D01*
X11882087Y-14916460D02*
X11872563Y-14906936D01*
X11872563Y-14906936D02*
X11863039Y-14887888D01*
X11863039Y-14887888D02*
X11863039Y-14830746D01*
X11863039Y-14830746D02*
X11872563Y-14811698D01*
X11872563Y-14811698D02*
X11882087Y-14802174D01*
X11882087Y-14802174D02*
X11901134Y-14792650D01*
X11901134Y-14792650D02*
X11929706Y-14792650D01*
X11929706Y-14792650D02*
X11948753Y-14802174D01*
X11948753Y-14802174D02*
X11958277Y-14811698D01*
X11958277Y-14811698D02*
X11967801Y-14830746D01*
X11967801Y-14830746D02*
X11967801Y-14887888D01*
X11967801Y-14887888D02*
X11958277Y-14906936D01*
X11958277Y-14906936D02*
X11948753Y-14916460D01*
X11948753Y-14916460D02*
X11929706Y-14925984D01*
X11929706Y-14925984D02*
X11901134Y-14925984D01*
X12082087Y-14925984D02*
X12063039Y-14916460D01*
X12063039Y-14916460D02*
X12053515Y-14897412D01*
X12053515Y-14897412D02*
X12053515Y-14725984D01*
X12234468Y-14916460D02*
X12215420Y-14925984D01*
X12215420Y-14925984D02*
X12177325Y-14925984D01*
X12177325Y-14925984D02*
X12158277Y-14916460D01*
X12158277Y-14916460D02*
X12148753Y-14897412D01*
X12148753Y-14897412D02*
X12148753Y-14821222D01*
X12148753Y-14821222D02*
X12158277Y-14802174D01*
X12158277Y-14802174D02*
X12177325Y-14792650D01*
X12177325Y-14792650D02*
X12215420Y-14792650D01*
X12215420Y-14792650D02*
X12234468Y-14802174D01*
X12234468Y-14802174D02*
X12243991Y-14821222D01*
X12243991Y-14821222D02*
X12243991Y-14840269D01*
X12243991Y-14840269D02*
X12148753Y-14859317D01*
X12320182Y-14916460D02*
X12339230Y-14925984D01*
X12339230Y-14925984D02*
X12377325Y-14925984D01*
X12377325Y-14925984D02*
X12396372Y-14916460D01*
X12396372Y-14916460D02*
X12405896Y-14897412D01*
X12405896Y-14897412D02*
X12405896Y-14887888D01*
X12405896Y-14887888D02*
X12396372Y-14868841D01*
X12396372Y-14868841D02*
X12377325Y-14859317D01*
X12377325Y-14859317D02*
X12348753Y-14859317D01*
X12348753Y-14859317D02*
X12329706Y-14849793D01*
X12329706Y-14849793D02*
X12320182Y-14830746D01*
X12320182Y-14830746D02*
X12320182Y-14821222D01*
X12320182Y-14821222D02*
X12329706Y-14802174D01*
X12329706Y-14802174D02*
X12348753Y-14792650D01*
X12348753Y-14792650D02*
X12377325Y-14792650D01*
X12377325Y-14792650D02*
X12396372Y-14802174D01*
X12472563Y-15002174D02*
X12482087Y-14992650D01*
X12482087Y-14992650D02*
X12501134Y-14964079D01*
X12501134Y-14964079D02*
X12510658Y-14945031D01*
X12510658Y-14945031D02*
X12520182Y-14916460D01*
X12520182Y-14916460D02*
X12529706Y-14868841D01*
X12529706Y-14868841D02*
X12529706Y-14830746D01*
X12529706Y-14830746D02*
X12520182Y-14783127D01*
X12520182Y-14783127D02*
X12510658Y-14754555D01*
X12510658Y-14754555D02*
X12501134Y-14735508D01*
X12501134Y-14735508D02*
X12482087Y-14706936D01*
X12482087Y-14706936D02*
X12472563Y-14697412D01*
M02*
