%TF.GenerationSoftware,KiCad,Pcbnew,8.0.5*%
%TF.CreationDate,2024-11-25T00:57:53-06:00*%
%TF.ProjectId,ActivePrecharge,41637469-7665-4507-9265-636861726765,rev?*%
%TF.SameCoordinates,Original*%
%TF.FileFunction,Copper,L1,Top*%
%TF.FilePolarity,Positive*%
%FSLAX46Y46*%
G04 Gerber Fmt 4.6, Leading zero omitted, Abs format (unit mm)*
G04 Created by KiCad (PCBNEW 8.0.5) date 2024-11-25 00:57:53*
%MOMM*%
%LPD*%
G01*
G04 APERTURE LIST*
G04 Aperture macros list*
%AMRoundRect*
0 Rectangle with rounded corners*
0 $1 Rounding radius*
0 $2 $3 $4 $5 $6 $7 $8 $9 X,Y pos of 4 corners*
0 Add a 4 corners polygon primitive as box body*
4,1,4,$2,$3,$4,$5,$6,$7,$8,$9,$2,$3,0*
0 Add four circle primitives for the rounded corners*
1,1,$1+$1,$2,$3*
1,1,$1+$1,$4,$5*
1,1,$1+$1,$6,$7*
1,1,$1+$1,$8,$9*
0 Add four rect primitives between the rounded corners*
20,1,$1+$1,$2,$3,$4,$5,0*
20,1,$1+$1,$4,$5,$6,$7,0*
20,1,$1+$1,$6,$7,$8,$9,0*
20,1,$1+$1,$8,$9,$2,$3,0*%
%AMFreePoly0*
4,1,7,1.500000,0.866025,1.500000,-0.866025,0.000000,-1.732051,-1.500000,-0.866025,-1.500000,0.866025,0.000000,1.732051,1.500000,0.866025,1.500000,0.866025,$1*%
G04 Aperture macros list end*
%TA.AperFunction,SMDPad,CuDef*%
%ADD10RoundRect,0.250000X0.250000X0.475000X-0.250000X0.475000X-0.250000X-0.475000X0.250000X-0.475000X0*%
%TD*%
%TA.AperFunction,ConnectorPad*%
%ADD11FreePoly0,90.000000*%
%TD*%
%TA.AperFunction,SMDPad,CuDef*%
%ADD12RoundRect,0.243750X0.456250X-0.243750X0.456250X0.243750X-0.456250X0.243750X-0.456250X-0.243750X0*%
%TD*%
%TA.AperFunction,SMDPad,CuDef*%
%ADD13RoundRect,0.250000X-0.312500X-0.625000X0.312500X-0.625000X0.312500X0.625000X-0.312500X0.625000X0*%
%TD*%
%TA.AperFunction,SMDPad,CuDef*%
%ADD14RoundRect,0.250000X0.312500X0.625000X-0.312500X0.625000X-0.312500X-0.625000X0.312500X-0.625000X0*%
%TD*%
%TA.AperFunction,ComponentPad*%
%ADD15C,1.700000*%
%TD*%
%TA.AperFunction,SMDPad,CuDef*%
%ADD16RoundRect,0.250000X0.450000X-0.262500X0.450000X0.262500X-0.450000X0.262500X-0.450000X-0.262500X0*%
%TD*%
%TA.AperFunction,SMDPad,CuDef*%
%ADD17RoundRect,0.150000X-0.662500X-0.150000X0.662500X-0.150000X0.662500X0.150000X-0.662500X0.150000X0*%
%TD*%
%TA.AperFunction,SMDPad,CuDef*%
%ADD18RoundRect,0.243750X0.243750X0.456250X-0.243750X0.456250X-0.243750X-0.456250X0.243750X-0.456250X0*%
%TD*%
%TA.AperFunction,SMDPad,CuDef*%
%ADD19R,1.000000X2.100000*%
%TD*%
%TA.AperFunction,SMDPad,CuDef*%
%ADD20RoundRect,0.100000X-0.225000X-0.100000X0.225000X-0.100000X0.225000X0.100000X-0.225000X0.100000X0*%
%TD*%
%TA.AperFunction,ViaPad*%
%ADD21C,0.800000*%
%TD*%
%TA.AperFunction,Conductor*%
%ADD22C,0.400000*%
%TD*%
G04 APERTURE END LIST*
D10*
%TO.P,C5,2*%
%TO.N,/HVGND*%
X117550000Y-97900000D03*
%TO.P,C5,1*%
%TO.N,/ISO_PWR*%
X119450000Y-97900000D03*
%TD*%
D11*
%TO.P,SigLV_TP1,1,1*%
%TO.N,/SignalLV*%
X131250000Y-105000000D03*
%TD*%
%TO.P,SigHV_TP1,1,1*%
%TO.N,Net-(Q1-S)*%
X123500000Y-110750000D03*
%TD*%
%TO.P,Ref_TP1,1,1*%
%TO.N,/Vref*%
X116000000Y-88000000D03*
%TD*%
%TO.P,OptVf_TP1,1,1*%
%TO.N,Net-(OptVf_TP1-Pad1)*%
X123500000Y-105000000D03*
%TD*%
%TO.P,LVGND_TP1,1,1*%
%TO.N,LVGND*%
X141000000Y-80750000D03*
%TD*%
%TO.P,ISO_PWR_TP1,1,1*%
%TO.N,/ISO_PWR*%
X116000000Y-81500000D03*
%TD*%
%TO.P,IN_TP1,1,1*%
%TO.N,/Vin*%
X116500000Y-111000000D03*
%TD*%
%TO.P,HVR_TP1,1,1*%
%TO.N,HRef*%
X109500000Y-88000000D03*
%TD*%
%TO.P,HVI_TP1,1,1*%
%TO.N,/HIn*%
X109500000Y-111000000D03*
%TD*%
%TO.P,HVG_TP1,1,1*%
%TO.N,/HVGND*%
X109500000Y-81500000D03*
%TD*%
%TO.P,Con-_TP1,1,1*%
%TO.N,Net-(Con1-K)*%
X131250000Y-110750000D03*
%TD*%
%TO.P,12V_TP1,1,1*%
%TO.N,/LV+*%
X135450000Y-97000000D03*
%TD*%
D12*
%TO.P,HV1,1,K*%
%TO.N,/HVGND*%
X120000000Y-85437500D03*
%TO.P,HV1,2,A*%
%TO.N,Net-(HV1-A)*%
X120000000Y-83562500D03*
%TD*%
D13*
%TO.P,R1,1*%
%TO.N,/HVRef*%
X113575000Y-93887500D03*
%TO.P,R1,2*%
%TO.N,/Vref*%
X116500000Y-93887500D03*
%TD*%
D14*
%TO.P,R3,1*%
%TO.N,/Vin*%
X116500000Y-106112500D03*
%TO.P,R3,2*%
%TO.N,/HVIn*%
X113575000Y-106112500D03*
%TD*%
D15*
%TO.P,J3,1,Pin_1*%
%TO.N,/LV+*%
X139800000Y-104750000D03*
%TO.P,J3,2,Pin_2*%
%TO.N,Net-(Con1-K)*%
X139800000Y-107750000D03*
%TD*%
D16*
%TO.P,R8,1*%
%TO.N,Net-(OptVf_TP1-Pad1)*%
X124060000Y-95162500D03*
%TO.P,R8,2*%
%TO.N,/ISO_PWR*%
X124060000Y-93337500D03*
%TD*%
D17*
%TO.P,U4,1*%
%TO.N,Net-(OptVf_TP1-Pad1)*%
X124062500Y-96965000D03*
%TO.P,U4,2*%
%TO.N,/SignalHV*%
X124062500Y-98235000D03*
%TO.P,U4,3*%
%TO.N,/SignalLV*%
X130437500Y-98235000D03*
%TO.P,U4,4*%
%TO.N,/LV+*%
X130437500Y-96965000D03*
%TD*%
D16*
%TO.P,R5,1*%
%TO.N,Net-(Q1-S)*%
X118500000Y-95662500D03*
%TO.P,R5,2*%
%TO.N,/Vref*%
X118500000Y-93837500D03*
%TD*%
D18*
%TO.P,LV1,1,K*%
%TO.N,LVGND*%
X140937500Y-84750000D03*
%TO.P,LV1,2,A*%
%TO.N,Net-(LV1-A)*%
X139062500Y-84750000D03*
%TD*%
D12*
%TO.P,Con1,1,K*%
%TO.N,Net-(Con1-K)*%
X135550000Y-110187500D03*
%TO.P,Con1,2,A*%
%TO.N,Net-(Con1-A)*%
X135550000Y-108312500D03*
%TD*%
D19*
%TO.P,IC1,1,-VIN*%
%TO.N,LVGND*%
X132370000Y-79950000D03*
%TO.P,IC1,2,+VIN*%
%TO.N,/LV+*%
X129830000Y-79950000D03*
%TO.P,IC1,4,-VOUT*%
%TO.N,/HVGND*%
X124750000Y-79950000D03*
%TO.P,IC1,5,+VOUT*%
%TO.N,/ISO_PWR*%
X124750000Y-90050000D03*
%TO.P,IC1,8,NC*%
%TO.N,unconnected-(IC1-NC-Pad8)*%
X132370000Y-90050000D03*
%TD*%
D16*
%TO.P,R12,1*%
%TO.N,Net-(Con1-A)*%
X135550000Y-106562500D03*
%TO.P,R12,2*%
%TO.N,/LV+*%
X135550000Y-104737500D03*
%TD*%
D20*
%TO.P,U3,1,+*%
%TO.N,/Vref*%
X114637500Y-100362500D03*
%TO.P,U3,2,V-*%
%TO.N,/HVGND*%
X114637500Y-101012500D03*
%TO.P,U3,3,-*%
%TO.N,/Vin*%
X114637500Y-101662500D03*
%TO.P,U3,4*%
%TO.N,Net-(Q1-S)*%
X116537500Y-101662500D03*
%TO.P,U3,5,V+*%
%TO.N,/ISO_PWR*%
X116537500Y-100362500D03*
%TD*%
D15*
%TO.P,J1,1,Pin_1*%
%TO.N,/HIn*%
X110267500Y-103012500D03*
%TO.P,J1,2,Pin_2*%
%TO.N,HGND*%
X110267500Y-100012500D03*
%TO.P,J1,3,Pin_3*%
%TO.N,HRef*%
X110267500Y-97012500D03*
%TD*%
%TO.P,J2,1,Pin_1*%
%TO.N,LVGND*%
X139800000Y-90750000D03*
%TO.P,J2,2,Pin_2*%
%TO.N,+12V*%
X139800000Y-93750000D03*
%TD*%
D21*
%TO.N,/HVGND*%
X117500000Y-97900000D03*
%TO.N,LVGND*%
X130250000Y-95250000D03*
X130250000Y-94250000D03*
X130250000Y-93250000D03*
X130250000Y-92250000D03*
X130250000Y-91250000D03*
X130250000Y-90250000D03*
X130250000Y-88250000D03*
%TO.N,/LV+*%
X135250000Y-99635000D03*
%TO.N,LVGND*%
X144750000Y-102250000D03*
X144750000Y-82750000D03*
X144750000Y-88750000D03*
X142750000Y-77750000D03*
X144750000Y-78750000D03*
X144750000Y-111750000D03*
X144750000Y-80750000D03*
X130250000Y-87250000D03*
X144750000Y-85750000D03*
X139250000Y-77750000D03*
X144750000Y-106250000D03*
X144750000Y-110750000D03*
X141750000Y-112750000D03*
X144750000Y-96250000D03*
X144750000Y-86750000D03*
X144750000Y-100250000D03*
X139750000Y-112750000D03*
X144750000Y-108750000D03*
X131250000Y-77750000D03*
X144750000Y-97250000D03*
X134250000Y-77750000D03*
X135750000Y-112750000D03*
X144750000Y-101250000D03*
X144750000Y-98250000D03*
X134750000Y-112750000D03*
X143750000Y-112750000D03*
X144750000Y-103250000D03*
X130250000Y-86250000D03*
X137750000Y-112750000D03*
X144750000Y-99250000D03*
X144750000Y-77750000D03*
X133750000Y-112750000D03*
X135250000Y-77750000D03*
X137250000Y-77750000D03*
X140750000Y-112750000D03*
X144750000Y-92000000D03*
X133250000Y-77750000D03*
X144750000Y-112750000D03*
X130250000Y-77750000D03*
X143750000Y-77750000D03*
X130250000Y-85250000D03*
X144750000Y-109750000D03*
X138750000Y-112750000D03*
X144750000Y-83750000D03*
X144750000Y-84750000D03*
X144750000Y-95250000D03*
X144750000Y-79750000D03*
X136750000Y-112750000D03*
X144750000Y-87750000D03*
X144750000Y-81750000D03*
X138250000Y-77750000D03*
X132250000Y-77750000D03*
X136250000Y-77750000D03*
X142750000Y-112750000D03*
%TO.N,/LV+*%
X135550000Y-104737500D03*
X135425000Y-84750000D03*
%TO.N,/SignalHV*%
X119250000Y-99812500D03*
%TO.N,/HVGND*%
X107500000Y-108250000D03*
X107500000Y-109250000D03*
X107500000Y-89750000D03*
X107500000Y-77750000D03*
X107500000Y-84250000D03*
X122500000Y-77750000D03*
X107500000Y-79750000D03*
X107500000Y-85250000D03*
X112500000Y-77750000D03*
X124500000Y-77750000D03*
X121500000Y-77750000D03*
X120500000Y-112750000D03*
X108500000Y-77750000D03*
X120500000Y-77750000D03*
X113500000Y-112750000D03*
X107500000Y-90750000D03*
X115600000Y-101012501D03*
X109500000Y-77750000D03*
X107500000Y-112750000D03*
X107500000Y-101500000D03*
X118500000Y-112750000D03*
X112500000Y-112750000D03*
X117500000Y-77750000D03*
X120470000Y-104050000D03*
X115500000Y-77750000D03*
X111500000Y-77750000D03*
X107500000Y-98250000D03*
X107500000Y-83250000D03*
X110500000Y-77750000D03*
X116500000Y-77750000D03*
X113500000Y-77750000D03*
X119500000Y-77750000D03*
X114500000Y-112750000D03*
X123500000Y-77750000D03*
X107500000Y-91750000D03*
X119500000Y-112750000D03*
X107500000Y-78750000D03*
X118500000Y-77750000D03*
X107500000Y-86250000D03*
X121500000Y-112750000D03*
X114500000Y-77750000D03*
X111500000Y-112750000D03*
%TO.N,/Vin*%
X116487500Y-106150000D03*
%TO.N,/Vref*%
X118500000Y-90500000D03*
%TO.N,/HVIn*%
X113575000Y-106112500D03*
%TO.N,/SignalLV*%
X130437500Y-98235000D03*
%TO.N,Net-(LV1-A)*%
X139062500Y-84750000D03*
%TO.N,Net-(Con1-K)*%
X131250000Y-110750000D03*
X135550000Y-110187500D03*
%TO.N,Net-(OptVf_TP1-Pad1)*%
X124062500Y-96965000D03*
X123500000Y-105000000D03*
%TO.N,Net-(HV1-A)*%
X120000000Y-83562500D03*
%TO.N,/ISO_PWR*%
X124750000Y-90050000D03*
X116000000Y-81500000D03*
%TO.N,Net-(Q1-S)*%
X118300000Y-101687500D03*
X118500000Y-95662500D03*
%TO.N,/HVRef*%
X113575000Y-93887500D03*
%TD*%
D22*
%TO.N,/Vref*%
X116500000Y-98500000D02*
X114637500Y-100362500D01*
X116500000Y-93887500D02*
X116500000Y-98500000D01*
%TO.N,/HVGND*%
X117550000Y-97900000D02*
X117500000Y-97900000D01*
X115237500Y-101012500D02*
X114637500Y-101012500D01*
X115237501Y-101012501D02*
X115237500Y-101012500D01*
X115600000Y-101012501D02*
X115237501Y-101012501D01*
%TO.N,Net-(Q1-S)*%
X118275000Y-101662500D02*
X118300000Y-101687500D01*
X116537500Y-101662500D02*
X118275000Y-101662500D01*
%TO.N,/ISO_PWR*%
X117035000Y-100362500D02*
X124060000Y-93337500D01*
X116537500Y-100362500D02*
X117035000Y-100362500D01*
%TO.N,/LV+*%
X135250000Y-97200000D02*
X135450000Y-97000000D01*
X135250000Y-99635000D02*
X135250000Y-97200000D01*
X135450000Y-84775000D02*
X135425000Y-84750000D01*
X135450000Y-97000000D02*
X135450000Y-84775000D01*
X135415000Y-96965000D02*
X135450000Y-97000000D01*
X130437500Y-96965000D02*
X135415000Y-96965000D01*
X129830000Y-82330000D02*
X132250000Y-84750000D01*
X132250000Y-84750000D02*
X135425000Y-84750000D01*
X129830000Y-79950000D02*
X129830000Y-82330000D01*
%TO.N,/SignalHV*%
X124062500Y-98235000D02*
X120827500Y-98235000D01*
X120827500Y-98235000D02*
X119250000Y-99812500D01*
%TO.N,/Vin*%
X116487500Y-106150000D02*
X116487500Y-110987500D01*
X116487500Y-110987500D02*
X116500000Y-111000000D01*
%TO.N,/Vref*%
X116500000Y-93887500D02*
X118450000Y-93887500D01*
X118450000Y-93887500D02*
X118500000Y-93837500D01*
X118500000Y-90500000D02*
X116000000Y-88000000D01*
X118500000Y-90500000D02*
X118500000Y-93837500D01*
%TO.N,/SignalLV*%
X130437500Y-98235000D02*
X130437500Y-104187500D01*
X130437500Y-104187500D02*
X131250000Y-105000000D01*
%TO.N,Net-(OptVf_TP1-Pad1)*%
X124060000Y-96962500D02*
X124062500Y-96965000D01*
X124060000Y-95162500D02*
X124060000Y-96962500D01*
%TO.N,Net-(Con1-A)*%
X135550000Y-106562500D02*
X135550000Y-108312500D01*
%TO.N,HRef*%
X110267500Y-88767500D02*
X109500000Y-88000000D01*
X110267500Y-97012500D02*
X110267500Y-88767500D01*
%TO.N,/ISO_PWR*%
X124073750Y-93323750D02*
X124060000Y-93337500D01*
X124750000Y-90050000D02*
X124750000Y-92647500D01*
X124750000Y-92647500D02*
X124073750Y-93323750D01*
%TO.N,Net-(Q1-S)*%
X123500000Y-110750000D02*
X118300000Y-105550000D01*
X118300000Y-105550000D02*
X118300000Y-101687500D01*
%TO.N,/HIn*%
X110267500Y-103012500D02*
X110267500Y-110232500D01*
X110267500Y-110232500D02*
X109500000Y-111000000D01*
%TO.N,/Vin*%
X116500000Y-106112500D02*
X116500000Y-103525000D01*
X116500000Y-103525000D02*
X114637500Y-101662500D01*
%TD*%
%TA.AperFunction,Conductor*%
%TO.N,LVGND*%
G36*
X145442539Y-77019685D02*
G01*
X145488294Y-77072489D01*
X145499500Y-77124000D01*
X145499500Y-113376000D01*
X145479815Y-113443039D01*
X145427011Y-113488794D01*
X145375500Y-113500000D01*
X129449500Y-113500000D01*
X129382461Y-113480315D01*
X129336706Y-113427511D01*
X129325500Y-113376000D01*
X129325500Y-111893794D01*
X129345185Y-111826755D01*
X129397989Y-111781000D01*
X129467147Y-111771056D01*
X129530703Y-111800081D01*
X129553307Y-111825971D01*
X129569948Y-111851441D01*
X129573526Y-111857260D01*
X129946199Y-112502750D01*
X130001944Y-112581032D01*
X130110681Y-112675254D01*
X130151149Y-112693735D01*
X130241555Y-112735023D01*
X130241558Y-112735023D01*
X130241559Y-112735024D01*
X130383975Y-112755500D01*
X131161932Y-112755500D01*
X131172170Y-112755923D01*
X131208256Y-112758914D01*
X131208260Y-112758914D01*
X131291740Y-112758914D01*
X131291744Y-112758914D01*
X131327829Y-112755923D01*
X131338068Y-112755500D01*
X132116018Y-112755500D01*
X132116025Y-112755500D01*
X132211692Y-112746365D01*
X132347659Y-112699306D01*
X132464860Y-112615847D01*
X132553801Y-112502750D01*
X132926491Y-111857227D01*
X132930035Y-111851463D01*
X132954630Y-111813822D01*
X132999845Y-111730267D01*
X133001457Y-111727383D01*
X133419827Y-111002750D01*
X133459749Y-110915332D01*
X133486978Y-110774052D01*
X133473302Y-110630823D01*
X133419827Y-110497250D01*
X133174499Y-110072331D01*
X133001503Y-109772694D01*
X132999835Y-109769711D01*
X132954626Y-109686171D01*
X132930051Y-109648559D01*
X132926470Y-109642734D01*
X132917430Y-109627077D01*
X132553801Y-108997250D01*
X132498056Y-108918968D01*
X132389319Y-108824746D01*
X132389315Y-108824744D01*
X132258444Y-108764976D01*
X132258439Y-108764975D01*
X132116025Y-108744500D01*
X131338068Y-108744500D01*
X131327829Y-108744076D01*
X131323596Y-108743725D01*
X131291752Y-108741086D01*
X131291744Y-108741086D01*
X131208256Y-108741086D01*
X131208247Y-108741086D01*
X131175982Y-108743760D01*
X131172170Y-108744076D01*
X131161932Y-108744500D01*
X130383975Y-108744500D01*
X130288308Y-108753635D01*
X130288305Y-108753635D01*
X130288305Y-108753636D01*
X130152340Y-108800694D01*
X130152339Y-108800694D01*
X130035140Y-108884153D01*
X130035138Y-108884155D01*
X129946200Y-108997247D01*
X129946199Y-108997249D01*
X129573525Y-109642739D01*
X129569947Y-109648559D01*
X129553309Y-109674026D01*
X129500164Y-109719384D01*
X129430932Y-109728808D01*
X129367596Y-109699307D01*
X129330264Y-109640247D01*
X129325500Y-109606206D01*
X129325500Y-106143794D01*
X129345185Y-106076755D01*
X129397989Y-106031000D01*
X129467147Y-106021056D01*
X129530703Y-106050081D01*
X129553307Y-106075971D01*
X129569948Y-106101441D01*
X129573528Y-106107264D01*
X129786473Y-106476097D01*
X129946199Y-106752750D01*
X130001944Y-106831032D01*
X130110681Y-106925254D01*
X130151149Y-106943735D01*
X130241555Y-106985023D01*
X130241558Y-106985023D01*
X130241559Y-106985024D01*
X130383975Y-107005500D01*
X131161932Y-107005500D01*
X131172170Y-107005923D01*
X131208256Y-107008914D01*
X131208260Y-107008914D01*
X131291740Y-107008914D01*
X131291744Y-107008914D01*
X131327829Y-107005923D01*
X131338068Y-107005500D01*
X132116018Y-107005500D01*
X132116025Y-107005500D01*
X132211692Y-106996365D01*
X132347659Y-106949306D01*
X132464860Y-106865847D01*
X132553801Y-106752750D01*
X132926491Y-106107227D01*
X132930035Y-106101463D01*
X132954630Y-106063822D01*
X132999845Y-105980267D01*
X133001457Y-105977383D01*
X133419827Y-105252750D01*
X133459749Y-105165332D01*
X133486978Y-105024052D01*
X133473302Y-104880823D01*
X133419827Y-104747250D01*
X133233766Y-104424983D01*
X134349500Y-104424983D01*
X134349500Y-105050001D01*
X134349501Y-105050019D01*
X134360000Y-105152796D01*
X134360001Y-105152799D01*
X134380167Y-105213655D01*
X134415186Y-105319334D01*
X134482106Y-105427830D01*
X134507289Y-105468657D01*
X134600951Y-105562319D01*
X134634436Y-105623642D01*
X134629452Y-105693334D01*
X134600951Y-105737681D01*
X134507289Y-105831342D01*
X134415187Y-105980663D01*
X134415185Y-105980668D01*
X134400858Y-106023905D01*
X134360001Y-106147203D01*
X134360001Y-106147204D01*
X134360000Y-106147204D01*
X134349500Y-106249983D01*
X134349500Y-106875001D01*
X134349501Y-106875019D01*
X134360000Y-106977796D01*
X134360001Y-106977799D01*
X134415185Y-107144331D01*
X134415186Y-107144334D01*
X134502772Y-107286335D01*
X134507289Y-107293657D01*
X134574120Y-107360488D01*
X134607605Y-107421811D01*
X134602621Y-107491503D01*
X134574121Y-107535850D01*
X134505971Y-107604000D01*
X134414642Y-107752066D01*
X134414637Y-107752077D01*
X134359913Y-107917223D01*
X134349500Y-108019144D01*
X134349500Y-108605855D01*
X134359913Y-108707776D01*
X134414637Y-108872922D01*
X134414642Y-108872933D01*
X134505971Y-109020999D01*
X134505974Y-109021003D01*
X134628996Y-109144025D01*
X134629000Y-109144028D01*
X134629703Y-109144462D01*
X134630083Y-109144885D01*
X134634664Y-109148507D01*
X134634045Y-109149289D01*
X134676428Y-109196410D01*
X134687649Y-109265372D01*
X134659806Y-109329454D01*
X134634544Y-109351342D01*
X134634664Y-109351493D01*
X134631315Y-109354140D01*
X134629703Y-109355538D01*
X134629000Y-109355971D01*
X134628996Y-109355974D01*
X134505974Y-109478996D01*
X134505971Y-109479000D01*
X134414642Y-109627066D01*
X134414637Y-109627077D01*
X134359913Y-109792223D01*
X134349500Y-109894144D01*
X134349500Y-110480855D01*
X134359913Y-110582776D01*
X134414637Y-110747922D01*
X134414642Y-110747933D01*
X134505971Y-110895999D01*
X134505974Y-110896003D01*
X134628996Y-111019025D01*
X134629000Y-111019028D01*
X134777066Y-111110357D01*
X134777069Y-111110358D01*
X134777075Y-111110362D01*
X134942225Y-111165087D01*
X135044152Y-111175500D01*
X135044157Y-111175500D01*
X136055843Y-111175500D01*
X136055848Y-111175500D01*
X136157775Y-111165087D01*
X136322925Y-111110362D01*
X136471003Y-111019026D01*
X136594026Y-110896003D01*
X136685362Y-110747925D01*
X136713576Y-110662781D01*
X140874500Y-110662781D01*
X140874500Y-110837218D01*
X140908527Y-111008283D01*
X140908529Y-111008291D01*
X140975278Y-111169439D01*
X140975283Y-111169448D01*
X141072186Y-111314473D01*
X141072189Y-111314477D01*
X141195522Y-111437810D01*
X141195526Y-111437813D01*
X141340551Y-111534716D01*
X141340557Y-111534719D01*
X141340558Y-111534720D01*
X141501709Y-111601471D01*
X141672781Y-111635499D01*
X141672785Y-111635500D01*
X141672786Y-111635500D01*
X141847215Y-111635500D01*
X141847216Y-111635499D01*
X142018291Y-111601471D01*
X142179442Y-111534720D01*
X142324474Y-111437813D01*
X142447813Y-111314474D01*
X142544720Y-111169442D01*
X142611471Y-111008291D01*
X142645500Y-110837214D01*
X142645500Y-110662786D01*
X142611471Y-110491709D01*
X142544720Y-110330558D01*
X142544719Y-110330557D01*
X142544716Y-110330551D01*
X142447813Y-110185526D01*
X142447810Y-110185522D01*
X142324477Y-110062189D01*
X142324473Y-110062186D01*
X142179448Y-109965283D01*
X142179439Y-109965278D01*
X142018291Y-109898529D01*
X142018283Y-109898527D01*
X141847218Y-109864500D01*
X141847214Y-109864500D01*
X141672786Y-109864500D01*
X141672781Y-109864500D01*
X141501716Y-109898527D01*
X141501708Y-109898529D01*
X141340560Y-109965278D01*
X141340551Y-109965283D01*
X141195526Y-110062186D01*
X141195522Y-110062189D01*
X141072189Y-110185522D01*
X141072186Y-110185526D01*
X140975283Y-110330551D01*
X140975278Y-110330560D01*
X140908529Y-110491708D01*
X140908527Y-110491716D01*
X140874500Y-110662781D01*
X136713576Y-110662781D01*
X136740087Y-110582775D01*
X136750500Y-110480848D01*
X136750500Y-109894152D01*
X136740087Y-109792225D01*
X136685362Y-109627075D01*
X136685358Y-109627069D01*
X136685357Y-109627066D01*
X136594028Y-109479000D01*
X136594025Y-109478996D01*
X136471004Y-109355975D01*
X136471003Y-109355974D01*
X136470301Y-109355541D01*
X136469921Y-109355118D01*
X136465336Y-109351493D01*
X136465955Y-109350709D01*
X136423575Y-109303598D01*
X136412349Y-109234636D01*
X136440188Y-109170552D01*
X136465455Y-109148657D01*
X136465336Y-109148507D01*
X136468687Y-109145856D01*
X136470299Y-109144459D01*
X136471003Y-109144026D01*
X136594026Y-109021003D01*
X136685362Y-108872925D01*
X136740087Y-108707775D01*
X136750500Y-108605848D01*
X136750500Y-108019152D01*
X136740087Y-107917225D01*
X136685362Y-107752075D01*
X136685358Y-107752069D01*
X136685357Y-107752066D01*
X136684082Y-107749999D01*
X138444341Y-107749999D01*
X138444341Y-107750000D01*
X138464936Y-107985403D01*
X138464938Y-107985413D01*
X138526094Y-108213655D01*
X138526096Y-108213659D01*
X138526097Y-108213663D01*
X138625965Y-108427830D01*
X138625967Y-108427834D01*
X138734281Y-108582521D01*
X138761505Y-108621401D01*
X138928599Y-108788495D01*
X139025384Y-108856265D01*
X139122165Y-108924032D01*
X139122167Y-108924033D01*
X139122170Y-108924035D01*
X139336337Y-109023903D01*
X139564592Y-109085063D01*
X139752918Y-109101539D01*
X139799999Y-109105659D01*
X139800000Y-109105659D01*
X139800001Y-109105659D01*
X139839234Y-109102226D01*
X140035408Y-109085063D01*
X140263663Y-109023903D01*
X140477830Y-108924035D01*
X140671401Y-108788495D01*
X140838495Y-108621401D01*
X140974035Y-108427830D01*
X141073903Y-108213663D01*
X141135063Y-107985408D01*
X141155659Y-107750000D01*
X141135063Y-107514592D01*
X141073903Y-107286337D01*
X140974035Y-107072171D01*
X140929743Y-107008914D01*
X140838494Y-106878597D01*
X140671402Y-106711506D01*
X140671395Y-106711501D01*
X140477834Y-106575967D01*
X140477830Y-106575965D01*
X140477828Y-106575964D01*
X140263663Y-106476097D01*
X140263659Y-106476096D01*
X140263655Y-106476094D01*
X140035413Y-106414938D01*
X140035403Y-106414936D01*
X139800001Y-106394341D01*
X139799999Y-106394341D01*
X139564596Y-106414936D01*
X139564586Y-106414938D01*
X139336344Y-106476094D01*
X139336335Y-106476098D01*
X139122171Y-106575964D01*
X139122169Y-106575965D01*
X138928597Y-106711505D01*
X138761505Y-106878597D01*
X138625965Y-107072169D01*
X138625964Y-107072171D01*
X138526098Y-107286335D01*
X138526094Y-107286344D01*
X138464938Y-107514586D01*
X138464936Y-107514596D01*
X138444341Y-107749999D01*
X136684082Y-107749999D01*
X136594028Y-107604000D01*
X136594027Y-107603999D01*
X136594026Y-107603997D01*
X136525879Y-107535850D01*
X136492395Y-107474526D01*
X136497380Y-107404835D01*
X136525880Y-107360488D01*
X136592712Y-107293656D01*
X136684814Y-107144334D01*
X136739999Y-106977797D01*
X136750500Y-106875009D01*
X136750499Y-106249992D01*
X136739999Y-106147203D01*
X136684814Y-105980666D01*
X136592712Y-105831344D01*
X136499049Y-105737681D01*
X136465564Y-105676358D01*
X136470548Y-105606666D01*
X136499049Y-105562319D01*
X136592712Y-105468656D01*
X136684814Y-105319334D01*
X136739999Y-105152797D01*
X136750500Y-105050009D01*
X136750500Y-104749999D01*
X138444341Y-104749999D01*
X138444341Y-104750000D01*
X138464936Y-104985403D01*
X138464938Y-104985413D01*
X138526094Y-105213655D01*
X138526096Y-105213659D01*
X138526097Y-105213663D01*
X138625965Y-105427830D01*
X138625967Y-105427834D01*
X138654552Y-105468657D01*
X138761505Y-105621401D01*
X138928599Y-105788495D01*
X138989791Y-105831342D01*
X139122165Y-105924032D01*
X139122167Y-105924033D01*
X139122170Y-105924035D01*
X139336337Y-106023903D01*
X139336343Y-106023904D01*
X139336344Y-106023905D01*
X139391285Y-106038626D01*
X139564592Y-106085063D01*
X139751686Y-106101432D01*
X139799999Y-106105659D01*
X139800000Y-106105659D01*
X139800001Y-106105659D01*
X139848314Y-106101432D01*
X140035408Y-106085063D01*
X140263663Y-106023903D01*
X140477830Y-105924035D01*
X140671401Y-105788495D01*
X140838495Y-105621401D01*
X140974035Y-105427830D01*
X141073903Y-105213663D01*
X141135063Y-104985408D01*
X141155659Y-104750000D01*
X141135063Y-104514592D01*
X141073903Y-104286337D01*
X140974035Y-104072171D01*
X140938344Y-104021198D01*
X140838494Y-103878597D01*
X140671402Y-103711506D01*
X140671395Y-103711501D01*
X140477834Y-103575967D01*
X140477830Y-103575965D01*
X140477828Y-103575964D01*
X140263663Y-103476097D01*
X140263659Y-103476096D01*
X140263655Y-103476094D01*
X140035413Y-103414938D01*
X140035403Y-103414936D01*
X139800001Y-103394341D01*
X139799999Y-103394341D01*
X139564596Y-103414936D01*
X139564586Y-103414938D01*
X139336344Y-103476094D01*
X139336335Y-103476098D01*
X139122171Y-103575964D01*
X139122169Y-103575965D01*
X138928597Y-103711505D01*
X138761505Y-103878597D01*
X138625965Y-104072169D01*
X138625964Y-104072171D01*
X138526098Y-104286335D01*
X138526094Y-104286344D01*
X138464938Y-104514586D01*
X138464936Y-104514596D01*
X138444341Y-104749999D01*
X136750500Y-104749999D01*
X136750499Y-104424992D01*
X136739999Y-104322203D01*
X136684814Y-104155666D01*
X136592712Y-104006344D01*
X136468656Y-103882288D01*
X136319334Y-103790186D01*
X136152797Y-103735001D01*
X136152795Y-103735000D01*
X136050010Y-103724500D01*
X135049998Y-103724500D01*
X135049980Y-103724501D01*
X134947203Y-103735000D01*
X134947200Y-103735001D01*
X134780668Y-103790185D01*
X134780663Y-103790187D01*
X134631342Y-103882289D01*
X134507289Y-104006342D01*
X134415187Y-104155663D01*
X134415186Y-104155666D01*
X134360001Y-104322203D01*
X134360001Y-104322204D01*
X134360000Y-104322204D01*
X134349500Y-104424983D01*
X133233766Y-104424983D01*
X133078276Y-104155668D01*
X133001503Y-104022694D01*
X132999835Y-104019711D01*
X132954626Y-103936171D01*
X132930051Y-103898559D01*
X132926470Y-103892734D01*
X132867263Y-103790185D01*
X132553801Y-103247250D01*
X132498056Y-103168968D01*
X132389319Y-103074746D01*
X132389315Y-103074744D01*
X132258444Y-103014976D01*
X132258439Y-103014975D01*
X132116025Y-102994500D01*
X131338068Y-102994500D01*
X131327829Y-102994076D01*
X131323596Y-102993725D01*
X131291752Y-102991086D01*
X131291744Y-102991086D01*
X131262000Y-102991086D01*
X131194961Y-102971401D01*
X131149206Y-102918597D01*
X131138000Y-102867086D01*
X131138000Y-101662781D01*
X140874500Y-101662781D01*
X140874500Y-101837218D01*
X140908527Y-102008283D01*
X140908529Y-102008291D01*
X140975278Y-102169439D01*
X140975283Y-102169448D01*
X141072186Y-102314473D01*
X141072189Y-102314477D01*
X141195522Y-102437810D01*
X141195526Y-102437813D01*
X141340551Y-102534716D01*
X141340557Y-102534719D01*
X141340558Y-102534720D01*
X141501709Y-102601471D01*
X141672781Y-102635499D01*
X141672785Y-102635500D01*
X141672786Y-102635500D01*
X141847215Y-102635500D01*
X141847216Y-102635499D01*
X142018291Y-102601471D01*
X142179442Y-102534720D01*
X142324474Y-102437813D01*
X142447813Y-102314474D01*
X142544720Y-102169442D01*
X142611471Y-102008291D01*
X142645500Y-101837214D01*
X142645500Y-101662786D01*
X142611471Y-101491709D01*
X142544720Y-101330558D01*
X142544719Y-101330557D01*
X142544716Y-101330551D01*
X142447813Y-101185526D01*
X142447810Y-101185522D01*
X142324477Y-101062189D01*
X142324473Y-101062186D01*
X142179448Y-100965283D01*
X142179439Y-100965278D01*
X142018291Y-100898529D01*
X142018283Y-100898527D01*
X141847218Y-100864500D01*
X141847214Y-100864500D01*
X141672786Y-100864500D01*
X141672781Y-100864500D01*
X141501716Y-100898527D01*
X141501708Y-100898529D01*
X141340560Y-100965278D01*
X141340551Y-100965283D01*
X141195526Y-101062186D01*
X141195522Y-101062189D01*
X141072189Y-101185522D01*
X141072186Y-101185526D01*
X140975283Y-101330551D01*
X140975278Y-101330560D01*
X140908529Y-101491708D01*
X140908527Y-101491716D01*
X140874500Y-101662781D01*
X131138000Y-101662781D01*
X131138000Y-99144458D01*
X131157685Y-99077419D01*
X131210489Y-99031664D01*
X131227392Y-99025386D01*
X131360398Y-98986744D01*
X131501865Y-98903081D01*
X131618081Y-98786865D01*
X131701744Y-98645398D01*
X131747598Y-98487569D01*
X131750500Y-98450694D01*
X131750500Y-98019306D01*
X131747598Y-97982431D01*
X131746983Y-97980315D01*
X131701597Y-97824095D01*
X131701796Y-97754226D01*
X131739738Y-97695556D01*
X131803376Y-97666712D01*
X131820673Y-97665500D01*
X133446884Y-97665500D01*
X133513923Y-97685185D01*
X133554271Y-97727500D01*
X133698511Y-97977331D01*
X133700158Y-97980277D01*
X133745370Y-98063822D01*
X133745372Y-98063825D01*
X133769948Y-98101440D01*
X133773528Y-98107264D01*
X134084216Y-98645393D01*
X134146199Y-98752750D01*
X134201944Y-98831032D01*
X134310681Y-98925254D01*
X134310685Y-98925256D01*
X134310687Y-98925257D01*
X134431352Y-98980363D01*
X134484156Y-99026117D01*
X134503841Y-99093157D01*
X134487229Y-99155156D01*
X134422820Y-99266717D01*
X134422818Y-99266722D01*
X134364327Y-99446740D01*
X134364326Y-99446744D01*
X134344540Y-99635000D01*
X134364326Y-99823256D01*
X134364327Y-99823259D01*
X134422818Y-100003277D01*
X134422821Y-100003284D01*
X134517467Y-100167216D01*
X134644129Y-100307888D01*
X134797265Y-100419148D01*
X134797270Y-100419151D01*
X134970192Y-100496142D01*
X134970197Y-100496144D01*
X135155354Y-100535500D01*
X135155355Y-100535500D01*
X135344644Y-100535500D01*
X135344646Y-100535500D01*
X135529803Y-100496144D01*
X135702730Y-100419151D01*
X135855871Y-100307888D01*
X135982533Y-100167216D01*
X136077179Y-100003284D01*
X136135674Y-99823256D01*
X136155460Y-99635000D01*
X136135674Y-99446744D01*
X136077179Y-99266716D01*
X136033752Y-99191499D01*
X136017280Y-99123599D01*
X136040133Y-99057573D01*
X136095054Y-99014382D01*
X136141140Y-99005500D01*
X136316018Y-99005500D01*
X136316025Y-99005500D01*
X136411692Y-98996365D01*
X136547659Y-98949306D01*
X136664860Y-98865847D01*
X136753801Y-98752750D01*
X137126491Y-98107227D01*
X137130035Y-98101463D01*
X137154630Y-98063822D01*
X137199845Y-97980267D01*
X137201457Y-97977383D01*
X137619827Y-97252750D01*
X137659749Y-97165332D01*
X137686978Y-97024052D01*
X137673302Y-96880823D01*
X137619827Y-96747250D01*
X137571059Y-96662781D01*
X140874500Y-96662781D01*
X140874500Y-96837218D01*
X140908527Y-97008283D01*
X140908529Y-97008291D01*
X140975278Y-97169439D01*
X140975283Y-97169448D01*
X141072186Y-97314473D01*
X141072189Y-97314477D01*
X141195522Y-97437810D01*
X141195526Y-97437813D01*
X141340551Y-97534716D01*
X141340557Y-97534719D01*
X141340558Y-97534720D01*
X141501709Y-97601471D01*
X141672781Y-97635499D01*
X141672785Y-97635500D01*
X141672786Y-97635500D01*
X141847215Y-97635500D01*
X141847216Y-97635499D01*
X142018291Y-97601471D01*
X142179442Y-97534720D01*
X142324474Y-97437813D01*
X142447813Y-97314474D01*
X142544720Y-97169442D01*
X142611471Y-97008291D01*
X142645500Y-96837214D01*
X142645500Y-96662786D01*
X142611471Y-96491709D01*
X142544720Y-96330558D01*
X142544719Y-96330557D01*
X142544716Y-96330551D01*
X142447813Y-96185526D01*
X142447810Y-96185522D01*
X142324477Y-96062189D01*
X142324473Y-96062186D01*
X142179448Y-95965283D01*
X142179439Y-95965278D01*
X142018291Y-95898529D01*
X142018283Y-95898527D01*
X141847218Y-95864500D01*
X141847214Y-95864500D01*
X141672786Y-95864500D01*
X141672781Y-95864500D01*
X141501716Y-95898527D01*
X141501708Y-95898529D01*
X141340560Y-95965278D01*
X141340551Y-95965283D01*
X141195526Y-96062186D01*
X141195522Y-96062189D01*
X141072189Y-96185522D01*
X141072186Y-96185526D01*
X140975283Y-96330551D01*
X140975278Y-96330560D01*
X140908529Y-96491708D01*
X140908527Y-96491716D01*
X140874500Y-96662781D01*
X137571059Y-96662781D01*
X137201503Y-96022694D01*
X137199835Y-96019711D01*
X137154626Y-95936171D01*
X137130051Y-95898559D01*
X137126470Y-95892734D01*
X136753802Y-95247252D01*
X136753800Y-95247249D01*
X136698056Y-95168968D01*
X136624994Y-95105659D01*
X136589324Y-95074750D01*
X136589322Y-95074748D01*
X136589319Y-95074746D01*
X136589315Y-95074744D01*
X136458444Y-95014976D01*
X136458439Y-95014975D01*
X136316025Y-94994500D01*
X136274500Y-94994500D01*
X136207461Y-94974815D01*
X136161706Y-94922011D01*
X136150500Y-94870500D01*
X136150500Y-93749999D01*
X138444341Y-93749999D01*
X138444341Y-93750000D01*
X138464936Y-93985403D01*
X138464938Y-93985413D01*
X138526094Y-94213655D01*
X138526096Y-94213659D01*
X138526097Y-94213663D01*
X138625965Y-94427830D01*
X138625967Y-94427834D01*
X138734281Y-94582521D01*
X138761505Y-94621401D01*
X138928599Y-94788495D01*
X139025384Y-94856265D01*
X139122165Y-94924032D01*
X139122167Y-94924033D01*
X139122170Y-94924035D01*
X139336337Y-95023903D01*
X139564592Y-95085063D01*
X139752918Y-95101539D01*
X139799999Y-95105659D01*
X139800000Y-95105659D01*
X139800001Y-95105659D01*
X139839234Y-95102226D01*
X140035408Y-95085063D01*
X140263663Y-95023903D01*
X140477830Y-94924035D01*
X140671401Y-94788495D01*
X140838495Y-94621401D01*
X140974035Y-94427830D01*
X141073903Y-94213663D01*
X141135063Y-93985408D01*
X141155659Y-93750000D01*
X141135063Y-93514592D01*
X141073903Y-93286337D01*
X140974035Y-93072171D01*
X140838495Y-92878599D01*
X140838494Y-92878597D01*
X140671402Y-92711506D01*
X140671395Y-92711501D01*
X140477834Y-92575967D01*
X140477830Y-92575965D01*
X140477828Y-92575964D01*
X140263663Y-92476097D01*
X140263659Y-92476096D01*
X140263655Y-92476094D01*
X140035413Y-92414938D01*
X140035403Y-92414936D01*
X139800001Y-92394341D01*
X139799999Y-92394341D01*
X139564596Y-92414936D01*
X139564586Y-92414938D01*
X139336344Y-92476094D01*
X139336335Y-92476098D01*
X139122171Y-92575964D01*
X139122169Y-92575965D01*
X138928597Y-92711505D01*
X138761505Y-92878597D01*
X138625965Y-93072169D01*
X138625964Y-93072171D01*
X138526098Y-93286335D01*
X138526094Y-93286344D01*
X138464938Y-93514586D01*
X138464936Y-93514596D01*
X138444341Y-93749999D01*
X136150500Y-93749999D01*
X136150500Y-90749998D01*
X138444843Y-90749998D01*
X138444843Y-90750001D01*
X138465430Y-90985315D01*
X138465432Y-90985326D01*
X138526566Y-91213483D01*
X138526570Y-91213492D01*
X138626400Y-91427579D01*
X138626402Y-91427583D01*
X138685072Y-91511373D01*
X138685073Y-91511373D01*
X139308871Y-90887574D01*
X139324755Y-90946853D01*
X139391898Y-91063147D01*
X139486853Y-91158102D01*
X139603147Y-91225245D01*
X139662424Y-91241128D01*
X139038625Y-91864925D01*
X139122421Y-91923599D01*
X139336507Y-92023429D01*
X139336516Y-92023433D01*
X139564673Y-92084567D01*
X139564684Y-92084569D01*
X139799998Y-92105157D01*
X139800002Y-92105157D01*
X140035315Y-92084569D01*
X140035326Y-92084567D01*
X140263483Y-92023433D01*
X140263492Y-92023429D01*
X140477578Y-91923600D01*
X140477582Y-91923598D01*
X140561373Y-91864926D01*
X140561373Y-91864925D01*
X139937575Y-91241128D01*
X139996853Y-91225245D01*
X140113147Y-91158102D01*
X140208102Y-91063147D01*
X140275245Y-90946853D01*
X140291128Y-90887575D01*
X140914925Y-91511373D01*
X140914926Y-91511373D01*
X140973598Y-91427582D01*
X140973600Y-91427578D01*
X141073429Y-91213492D01*
X141073433Y-91213483D01*
X141134567Y-90985326D01*
X141134569Y-90985315D01*
X141155157Y-90750001D01*
X141155157Y-90749998D01*
X141134569Y-90514684D01*
X141134567Y-90514673D01*
X141073433Y-90286516D01*
X141073429Y-90286507D01*
X140973600Y-90072423D01*
X140973599Y-90072421D01*
X140914925Y-89988626D01*
X140914925Y-89988625D01*
X140291127Y-90612423D01*
X140275245Y-90553147D01*
X140208102Y-90436853D01*
X140113147Y-90341898D01*
X139996853Y-90274755D01*
X139937575Y-90258871D01*
X140561373Y-89635073D01*
X140561373Y-89635072D01*
X140477583Y-89576402D01*
X140477579Y-89576400D01*
X140263492Y-89476570D01*
X140263483Y-89476566D01*
X140035326Y-89415432D01*
X140035315Y-89415430D01*
X139800002Y-89394843D01*
X139799998Y-89394843D01*
X139564684Y-89415430D01*
X139564673Y-89415432D01*
X139336516Y-89476566D01*
X139336507Y-89476570D01*
X139122419Y-89576401D01*
X139038625Y-89635072D01*
X139662424Y-90258871D01*
X139603147Y-90274755D01*
X139486853Y-90341898D01*
X139391898Y-90436853D01*
X139324755Y-90553147D01*
X139308871Y-90612424D01*
X138685072Y-89988625D01*
X138626401Y-90072419D01*
X138526570Y-90286507D01*
X138526566Y-90286516D01*
X138465432Y-90514673D01*
X138465430Y-90514684D01*
X138444843Y-90749998D01*
X136150500Y-90749998D01*
X136150500Y-87662781D01*
X140874500Y-87662781D01*
X140874500Y-87837218D01*
X140908527Y-88008283D01*
X140908529Y-88008291D01*
X140975278Y-88169439D01*
X140975283Y-88169448D01*
X141072186Y-88314473D01*
X141072189Y-88314477D01*
X141195522Y-88437810D01*
X141195526Y-88437813D01*
X141340551Y-88534716D01*
X141340557Y-88534719D01*
X141340558Y-88534720D01*
X141501709Y-88601471D01*
X141672781Y-88635499D01*
X141672785Y-88635500D01*
X141672786Y-88635500D01*
X141847215Y-88635500D01*
X141847216Y-88635499D01*
X142018291Y-88601471D01*
X142179442Y-88534720D01*
X142324474Y-88437813D01*
X142447813Y-88314474D01*
X142544720Y-88169442D01*
X142611471Y-88008291D01*
X142645500Y-87837214D01*
X142645500Y-87662786D01*
X142611471Y-87491709D01*
X142544720Y-87330558D01*
X142544719Y-87330557D01*
X142544716Y-87330551D01*
X142447813Y-87185526D01*
X142447810Y-87185522D01*
X142324477Y-87062189D01*
X142324473Y-87062186D01*
X142179448Y-86965283D01*
X142179439Y-86965278D01*
X142018291Y-86898529D01*
X142018283Y-86898527D01*
X141847218Y-86864500D01*
X141847214Y-86864500D01*
X141672786Y-86864500D01*
X141672781Y-86864500D01*
X141501716Y-86898527D01*
X141501708Y-86898529D01*
X141340560Y-86965278D01*
X141340551Y-86965283D01*
X141195526Y-87062186D01*
X141195522Y-87062189D01*
X141072189Y-87185522D01*
X141072186Y-87185526D01*
X140975283Y-87330551D01*
X140975278Y-87330560D01*
X140908529Y-87491708D01*
X140908527Y-87491716D01*
X140874500Y-87662781D01*
X136150500Y-87662781D01*
X136150500Y-85327622D01*
X136167112Y-85265623D01*
X136252179Y-85118284D01*
X136310674Y-84938256D01*
X136330460Y-84750000D01*
X136310674Y-84561744D01*
X136252179Y-84381716D01*
X136172752Y-84244144D01*
X138074500Y-84244144D01*
X138074500Y-85255855D01*
X138084913Y-85357776D01*
X138139637Y-85522922D01*
X138139642Y-85522933D01*
X138230971Y-85670999D01*
X138230974Y-85671003D01*
X138353996Y-85794025D01*
X138354000Y-85794028D01*
X138502066Y-85885357D01*
X138502069Y-85885358D01*
X138502075Y-85885362D01*
X138667225Y-85940087D01*
X138769152Y-85950500D01*
X138769157Y-85950500D01*
X139355843Y-85950500D01*
X139355848Y-85950500D01*
X139457775Y-85940087D01*
X139622925Y-85885362D01*
X139771003Y-85794026D01*
X139894026Y-85671003D01*
X139894755Y-85669821D01*
X139895466Y-85669181D01*
X139898507Y-85665336D01*
X139899163Y-85665855D01*
X139946701Y-85623097D01*
X140015664Y-85611873D01*
X140079746Y-85639715D01*
X140101761Y-85665123D01*
X140101888Y-85665023D01*
X140104113Y-85667838D01*
X140105833Y-85669822D01*
X140106365Y-85670685D01*
X140106369Y-85670690D01*
X140229308Y-85793629D01*
X140377285Y-85884903D01*
X140377290Y-85884905D01*
X140542326Y-85939592D01*
X140644184Y-85949999D01*
X140644197Y-85950000D01*
X140687500Y-85950000D01*
X141187500Y-85950000D01*
X141230803Y-85950000D01*
X141230815Y-85949999D01*
X141332673Y-85939592D01*
X141497709Y-85884905D01*
X141497714Y-85884903D01*
X141645691Y-85793629D01*
X141768629Y-85670691D01*
X141859903Y-85522714D01*
X141859905Y-85522709D01*
X141914592Y-85357673D01*
X141924999Y-85255815D01*
X141925000Y-85255802D01*
X141925000Y-85000000D01*
X141187500Y-85000000D01*
X141187500Y-85950000D01*
X140687500Y-85950000D01*
X140687500Y-84500000D01*
X141187500Y-84500000D01*
X141925000Y-84500000D01*
X141925000Y-84244197D01*
X141924999Y-84244184D01*
X141914592Y-84142326D01*
X141859905Y-83977290D01*
X141859903Y-83977285D01*
X141768629Y-83829308D01*
X141645691Y-83706370D01*
X141497714Y-83615096D01*
X141497709Y-83615094D01*
X141332673Y-83560407D01*
X141230815Y-83550000D01*
X141187500Y-83550000D01*
X141187500Y-84500000D01*
X140687500Y-84500000D01*
X140687500Y-83550000D01*
X140644184Y-83550000D01*
X140542326Y-83560407D01*
X140377290Y-83615094D01*
X140377285Y-83615096D01*
X140229308Y-83706370D01*
X140106369Y-83829309D01*
X140106364Y-83829315D01*
X140105829Y-83830184D01*
X140105306Y-83830654D01*
X140101888Y-83834977D01*
X140101149Y-83834392D01*
X140053879Y-83876906D01*
X139984916Y-83888125D01*
X139920835Y-83860278D01*
X139898586Y-83834601D01*
X139898507Y-83834664D01*
X139897111Y-83832898D01*
X139894758Y-83830183D01*
X139894028Y-83828999D01*
X139771003Y-83705974D01*
X139770999Y-83705971D01*
X139622933Y-83614642D01*
X139622927Y-83614639D01*
X139622925Y-83614638D01*
X139622922Y-83614637D01*
X139457776Y-83559913D01*
X139355855Y-83549500D01*
X139355848Y-83549500D01*
X138769152Y-83549500D01*
X138769144Y-83549500D01*
X138667223Y-83559913D01*
X138502077Y-83614637D01*
X138502066Y-83614642D01*
X138354000Y-83705971D01*
X138353996Y-83705974D01*
X138230974Y-83828996D01*
X138230971Y-83829000D01*
X138139642Y-83977066D01*
X138139637Y-83977077D01*
X138084913Y-84142223D01*
X138074500Y-84244144D01*
X136172752Y-84244144D01*
X136157533Y-84217784D01*
X136030871Y-84077112D01*
X136030870Y-84077111D01*
X135877734Y-83965851D01*
X135877729Y-83965848D01*
X135704807Y-83888857D01*
X135704802Y-83888855D01*
X135559001Y-83857865D01*
X135519646Y-83849500D01*
X135330354Y-83849500D01*
X135297897Y-83856398D01*
X135145197Y-83888855D01*
X135145192Y-83888857D01*
X134972270Y-83965848D01*
X134972265Y-83965851D01*
X134889729Y-84025818D01*
X134823923Y-84049298D01*
X134816844Y-84049500D01*
X132591519Y-84049500D01*
X132524480Y-84029815D01*
X132503838Y-84013181D01*
X130932561Y-82441904D01*
X139661647Y-82441904D01*
X139661647Y-82441905D01*
X139696628Y-82502493D01*
X139696634Y-82502503D01*
X139752319Y-82580703D01*
X139860950Y-82674832D01*
X139860952Y-82674833D01*
X139991696Y-82734543D01*
X139991700Y-82734544D01*
X140133976Y-82754999D01*
X140133978Y-82755000D01*
X140911950Y-82755000D01*
X140922191Y-82755424D01*
X140958289Y-82758415D01*
X140958302Y-82758416D01*
X141041698Y-82758416D01*
X141041710Y-82758415D01*
X141077809Y-82755424D01*
X141088050Y-82755000D01*
X141866030Y-82755000D01*
X141961592Y-82745874D01*
X141961601Y-82745872D01*
X142097430Y-82698862D01*
X142214512Y-82615488D01*
X142214515Y-82615484D01*
X142303368Y-82502499D01*
X142338351Y-82441903D01*
X141000000Y-81103553D01*
X139661647Y-82441904D01*
X130932561Y-82441904D01*
X130566819Y-82076162D01*
X130533334Y-82014839D01*
X130530500Y-81988481D01*
X130530500Y-81537180D01*
X130550185Y-81470141D01*
X130580187Y-81437914D01*
X130687546Y-81357546D01*
X130773796Y-81242331D01*
X130824091Y-81107483D01*
X130830500Y-81047873D01*
X130830500Y-81047844D01*
X131370000Y-81047844D01*
X131376401Y-81107372D01*
X131376403Y-81107379D01*
X131426645Y-81242086D01*
X131426649Y-81242093D01*
X131512809Y-81357187D01*
X131512812Y-81357190D01*
X131627906Y-81443350D01*
X131627913Y-81443354D01*
X131762620Y-81493596D01*
X131762627Y-81493598D01*
X131822155Y-81499999D01*
X131822172Y-81500000D01*
X132120000Y-81500000D01*
X132620000Y-81500000D01*
X132917828Y-81500000D01*
X132917844Y-81499999D01*
X132977372Y-81493598D01*
X132977379Y-81493596D01*
X133112086Y-81443354D01*
X133112093Y-81443350D01*
X133227187Y-81357190D01*
X133227190Y-81357187D01*
X133313350Y-81242093D01*
X133313354Y-81242086D01*
X133363596Y-81107379D01*
X133363598Y-81107372D01*
X133369999Y-81047844D01*
X133370000Y-81047827D01*
X133370000Y-80725968D01*
X138763521Y-80725968D01*
X138763521Y-80725972D01*
X138777184Y-80869059D01*
X138830604Y-81002496D01*
X138830605Y-81002499D01*
X139248943Y-81727080D01*
X139250611Y-81730063D01*
X139295806Y-81813578D01*
X139295812Y-81813587D01*
X139320387Y-81851200D01*
X139323967Y-81857024D01*
X139402829Y-81993616D01*
X139402830Y-81993617D01*
X140646447Y-80750000D01*
X140646447Y-80749999D01*
X141353553Y-80749999D01*
X141353553Y-80750000D01*
X142597169Y-81993616D01*
X142676028Y-81857029D01*
X142679611Y-81851201D01*
X142704183Y-81813595D01*
X142704186Y-81813589D01*
X142749393Y-81730052D01*
X142751062Y-81727067D01*
X143169389Y-81002508D01*
X143169397Y-81002492D01*
X143209275Y-80915172D01*
X143209277Y-80915166D01*
X143236478Y-80774031D01*
X143236478Y-80774027D01*
X143222815Y-80630940D01*
X143169395Y-80497503D01*
X143169394Y-80497500D01*
X142751062Y-79772931D01*
X142749393Y-79769947D01*
X142704192Y-79686421D01*
X142679606Y-79648791D01*
X142676026Y-79642966D01*
X142597169Y-79506382D01*
X141353553Y-80749999D01*
X140646447Y-80749999D01*
X139402829Y-79506382D01*
X139402828Y-79506382D01*
X139323969Y-79642970D01*
X139320391Y-79648791D01*
X139295812Y-79686411D01*
X139295806Y-79686421D01*
X139250612Y-79769935D01*
X139248944Y-79772918D01*
X138830610Y-80497491D01*
X138830602Y-80497507D01*
X138790724Y-80584827D01*
X138790722Y-80584833D01*
X138763521Y-80725968D01*
X133370000Y-80725968D01*
X133370000Y-80200000D01*
X132620000Y-80200000D01*
X132620000Y-81500000D01*
X132120000Y-81500000D01*
X132120000Y-80200000D01*
X131370000Y-80200000D01*
X131370000Y-81047844D01*
X130830500Y-81047844D01*
X130830499Y-78852155D01*
X131370000Y-78852155D01*
X131370000Y-79700000D01*
X132120000Y-79700000D01*
X132620000Y-79700000D01*
X133370000Y-79700000D01*
X133370000Y-79058093D01*
X139661647Y-79058093D01*
X139661647Y-79058094D01*
X141000000Y-80396447D01*
X141000001Y-80396447D01*
X142338351Y-79058094D01*
X142303370Y-78997505D01*
X142303360Y-78997488D01*
X142247680Y-78919296D01*
X142139049Y-78825167D01*
X142139047Y-78825166D01*
X142008303Y-78765456D01*
X142008299Y-78765455D01*
X141866023Y-78745000D01*
X141088050Y-78745000D01*
X141077809Y-78744576D01*
X141041710Y-78741584D01*
X140958289Y-78741584D01*
X140922191Y-78744576D01*
X140911950Y-78745000D01*
X140133970Y-78745000D01*
X140038407Y-78754125D01*
X140038398Y-78754127D01*
X139902569Y-78801137D01*
X139785487Y-78884511D01*
X139785483Y-78884516D01*
X139696637Y-78997492D01*
X139696628Y-78997504D01*
X139661647Y-79058093D01*
X133370000Y-79058093D01*
X133370000Y-78852172D01*
X133369999Y-78852155D01*
X133363598Y-78792627D01*
X133363596Y-78792620D01*
X133313354Y-78657913D01*
X133313350Y-78657906D01*
X133227190Y-78542812D01*
X133227187Y-78542809D01*
X133112093Y-78456649D01*
X133112086Y-78456645D01*
X132977379Y-78406403D01*
X132977372Y-78406401D01*
X132917844Y-78400000D01*
X132620000Y-78400000D01*
X132620000Y-79700000D01*
X132120000Y-79700000D01*
X132120000Y-78400000D01*
X131822155Y-78400000D01*
X131762627Y-78406401D01*
X131762620Y-78406403D01*
X131627913Y-78456645D01*
X131627906Y-78456649D01*
X131512812Y-78542809D01*
X131512809Y-78542812D01*
X131426649Y-78657906D01*
X131426645Y-78657913D01*
X131376403Y-78792620D01*
X131376401Y-78792627D01*
X131370000Y-78852155D01*
X130830499Y-78852155D01*
X130830499Y-78852128D01*
X130824091Y-78792517D01*
X130809772Y-78754127D01*
X130773797Y-78657671D01*
X130773793Y-78657664D01*
X130687547Y-78542455D01*
X130687544Y-78542452D01*
X130572335Y-78456206D01*
X130572328Y-78456202D01*
X130437482Y-78405908D01*
X130437483Y-78405908D01*
X130377883Y-78399501D01*
X130377881Y-78399500D01*
X130377873Y-78399500D01*
X130377865Y-78399500D01*
X129449500Y-78399500D01*
X129382461Y-78379815D01*
X129336706Y-78327011D01*
X129325500Y-78275500D01*
X129325500Y-77124000D01*
X129345185Y-77056961D01*
X129397989Y-77011206D01*
X129449500Y-77000000D01*
X145375500Y-77000000D01*
X145442539Y-77019685D01*
G37*
%TD.AperFunction*%
%TA.AperFunction,Conductor*%
G36*
X129530703Y-83021806D02*
G01*
X129537181Y-83027838D01*
X131803453Y-85294111D01*
X131803454Y-85294112D01*
X131918192Y-85370777D01*
X132045667Y-85423578D01*
X132045672Y-85423580D01*
X132045676Y-85423580D01*
X132045677Y-85423581D01*
X132181003Y-85450500D01*
X132181006Y-85450500D01*
X132181007Y-85450500D01*
X134625500Y-85450500D01*
X134692539Y-85470185D01*
X134738294Y-85522989D01*
X134749500Y-85574500D01*
X134749500Y-94870500D01*
X134729815Y-94937539D01*
X134677011Y-94983294D01*
X134625500Y-94994500D01*
X134583975Y-94994500D01*
X134488308Y-95003635D01*
X134488305Y-95003635D01*
X134488305Y-95003636D01*
X134352340Y-95050694D01*
X134352339Y-95050694D01*
X134235140Y-95134153D01*
X134235138Y-95134155D01*
X134146200Y-95247247D01*
X134146199Y-95247249D01*
X133773525Y-95892739D01*
X133769947Y-95898560D01*
X133745366Y-95936184D01*
X133700171Y-96019699D01*
X133698503Y-96022682D01*
X133594685Y-96202500D01*
X133544118Y-96250716D01*
X133487298Y-96264500D01*
X131480969Y-96264500D01*
X131417848Y-96247232D01*
X131365634Y-96216353D01*
X131360398Y-96213256D01*
X131360397Y-96213255D01*
X131360396Y-96213255D01*
X131360393Y-96213254D01*
X131202573Y-96167402D01*
X131202567Y-96167401D01*
X131165701Y-96164500D01*
X131165694Y-96164500D01*
X129709306Y-96164500D01*
X129709298Y-96164500D01*
X129672432Y-96167401D01*
X129672426Y-96167402D01*
X129514606Y-96213254D01*
X129514598Y-96213257D01*
X129512614Y-96214431D01*
X129510857Y-96214876D01*
X129507446Y-96216353D01*
X129507207Y-96215802D01*
X129444889Y-96231609D01*
X129378628Y-96209445D01*
X129334868Y-96154976D01*
X129325500Y-96107695D01*
X129325500Y-88952135D01*
X131369500Y-88952135D01*
X131369500Y-91147870D01*
X131369501Y-91147876D01*
X131375908Y-91207483D01*
X131426202Y-91342328D01*
X131426206Y-91342335D01*
X131512452Y-91457544D01*
X131512455Y-91457547D01*
X131627664Y-91543793D01*
X131627671Y-91543797D01*
X131762517Y-91594091D01*
X131762516Y-91594091D01*
X131769444Y-91594835D01*
X131822127Y-91600500D01*
X132917872Y-91600499D01*
X132977483Y-91594091D01*
X133112331Y-91543796D01*
X133227546Y-91457546D01*
X133313796Y-91342331D01*
X133364091Y-91207483D01*
X133370500Y-91147873D01*
X133370499Y-88952128D01*
X133364091Y-88892517D01*
X133313796Y-88757669D01*
X133313795Y-88757668D01*
X133313793Y-88757664D01*
X133227547Y-88642455D01*
X133227544Y-88642452D01*
X133112335Y-88556206D01*
X133112328Y-88556202D01*
X132977482Y-88505908D01*
X132977483Y-88505908D01*
X132917883Y-88499501D01*
X132917881Y-88499500D01*
X132917873Y-88499500D01*
X132917864Y-88499500D01*
X131822129Y-88499500D01*
X131822123Y-88499501D01*
X131762516Y-88505908D01*
X131627671Y-88556202D01*
X131627664Y-88556206D01*
X131512455Y-88642452D01*
X131512452Y-88642455D01*
X131426206Y-88757664D01*
X131426202Y-88757671D01*
X131375908Y-88892517D01*
X131369501Y-88952116D01*
X131369501Y-88952123D01*
X131369500Y-88952135D01*
X129325500Y-88952135D01*
X129325500Y-83115519D01*
X129345185Y-83048480D01*
X129397989Y-83002725D01*
X129467147Y-82992781D01*
X129530703Y-83021806D01*
G37*
%TD.AperFunction*%
%TD*%
%TA.AperFunction,Conductor*%
%TO.N,/HVGND*%
G36*
X125292539Y-77019685D02*
G01*
X125338294Y-77072489D01*
X125349500Y-77124000D01*
X125349500Y-78276000D01*
X125329815Y-78343039D01*
X125277011Y-78388794D01*
X125225500Y-78400000D01*
X125000000Y-78400000D01*
X125000000Y-81500000D01*
X125225500Y-81500000D01*
X125292539Y-81519685D01*
X125338294Y-81572489D01*
X125349500Y-81624000D01*
X125349500Y-88375500D01*
X125329815Y-88442539D01*
X125277011Y-88488294D01*
X125225500Y-88499500D01*
X124202129Y-88499500D01*
X124202123Y-88499501D01*
X124142516Y-88505908D01*
X124007671Y-88556202D01*
X124007664Y-88556206D01*
X123892455Y-88642452D01*
X123892452Y-88642455D01*
X123806206Y-88757664D01*
X123806202Y-88757671D01*
X123755908Y-88892517D01*
X123749501Y-88952116D01*
X123749500Y-88952135D01*
X123749500Y-91147870D01*
X123749501Y-91147876D01*
X123755908Y-91207483D01*
X123806202Y-91342328D01*
X123806206Y-91342335D01*
X123875358Y-91434709D01*
X123892454Y-91457546D01*
X123999811Y-91537914D01*
X124041682Y-91593847D01*
X124049500Y-91637180D01*
X124049500Y-92200500D01*
X124029815Y-92267539D01*
X123977011Y-92313294D01*
X123925500Y-92324500D01*
X123559998Y-92324500D01*
X123559980Y-92324501D01*
X123457203Y-92335000D01*
X123457200Y-92335001D01*
X123290668Y-92390185D01*
X123290663Y-92390187D01*
X123141342Y-92482289D01*
X123017289Y-92606342D01*
X122925187Y-92755663D01*
X122925185Y-92755668D01*
X122912536Y-92793842D01*
X122870001Y-92922203D01*
X122870001Y-92922204D01*
X122870000Y-92922204D01*
X122859500Y-93024983D01*
X122859500Y-93495980D01*
X122839815Y-93563019D01*
X122823181Y-93583661D01*
X119768660Y-96638181D01*
X119707337Y-96671666D01*
X119680979Y-96674500D01*
X119561229Y-96674500D01*
X119494190Y-96654815D01*
X119448435Y-96602011D01*
X119438491Y-96532853D01*
X119467516Y-96469297D01*
X119473521Y-96462846D01*
X119542712Y-96393656D01*
X119634814Y-96244334D01*
X119689999Y-96077797D01*
X119700500Y-95975009D01*
X119700499Y-95349992D01*
X119691612Y-95262998D01*
X119689999Y-95247203D01*
X119689998Y-95247200D01*
X119664606Y-95170573D01*
X119634814Y-95080666D01*
X119542712Y-94931344D01*
X119449049Y-94837681D01*
X119415564Y-94776358D01*
X119420548Y-94706666D01*
X119449049Y-94662319D01*
X119542712Y-94568656D01*
X119634814Y-94419334D01*
X119689999Y-94252797D01*
X119700500Y-94150009D01*
X119700499Y-93524992D01*
X119697535Y-93495980D01*
X119689999Y-93422203D01*
X119689998Y-93422200D01*
X119657685Y-93324686D01*
X119634814Y-93255666D01*
X119542712Y-93106344D01*
X119418656Y-92982288D01*
X119269334Y-92890186D01*
X119269332Y-92890185D01*
X119263187Y-92886395D01*
X119264290Y-92884605D01*
X119219649Y-92845290D01*
X119200500Y-92779091D01*
X119200500Y-91115391D01*
X119220185Y-91048352D01*
X119232352Y-91032417D01*
X119232533Y-91032216D01*
X119327179Y-90868284D01*
X119385674Y-90688256D01*
X119405460Y-90500000D01*
X119385674Y-90311744D01*
X119327179Y-90131716D01*
X119232533Y-89967784D01*
X119105871Y-89827112D01*
X119105870Y-89827111D01*
X118952734Y-89715851D01*
X118952729Y-89715848D01*
X118779807Y-89638857D01*
X118779802Y-89638855D01*
X118643490Y-89609882D01*
X118624872Y-89605924D01*
X118563391Y-89572733D01*
X118562973Y-89572316D01*
X117898012Y-88907355D01*
X117864527Y-88846032D01*
X117869511Y-88776340D01*
X117878300Y-88757684D01*
X118169827Y-88252750D01*
X118209749Y-88165332D01*
X118236978Y-88024052D01*
X118223302Y-87880823D01*
X118169827Y-87747250D01*
X117751496Y-87022682D01*
X117749835Y-87019711D01*
X117704626Y-86936171D01*
X117680051Y-86898559D01*
X117676470Y-86892734D01*
X117400415Y-86414592D01*
X117303801Y-86247250D01*
X117248056Y-86168968D01*
X117139319Y-86074746D01*
X117139315Y-86074744D01*
X117008444Y-86014976D01*
X117008439Y-86014975D01*
X116866025Y-85994500D01*
X116088068Y-85994500D01*
X116077829Y-85994076D01*
X116073596Y-85993725D01*
X116041752Y-85991086D01*
X116041744Y-85991086D01*
X115958256Y-85991086D01*
X115958247Y-85991086D01*
X115925982Y-85993760D01*
X115922170Y-85994076D01*
X115911932Y-85994500D01*
X115133975Y-85994500D01*
X115038308Y-86003635D01*
X115038305Y-86003635D01*
X115038305Y-86003636D01*
X114902340Y-86050694D01*
X114902339Y-86050694D01*
X114785140Y-86134153D01*
X114785138Y-86134155D01*
X114696200Y-86247247D01*
X114696199Y-86247249D01*
X114323525Y-86892739D01*
X114319947Y-86898560D01*
X114295366Y-86936184D01*
X114250171Y-87019699D01*
X114248503Y-87022682D01*
X113830174Y-87747247D01*
X113830172Y-87747250D01*
X113790253Y-87834661D01*
X113790250Y-87834670D01*
X113763022Y-87975943D01*
X113763021Y-87975948D01*
X113776697Y-88119176D01*
X113830171Y-88252746D01*
X113830172Y-88252749D01*
X114248511Y-88977331D01*
X114250158Y-88980277D01*
X114295370Y-89063822D01*
X114295372Y-89063825D01*
X114319948Y-89101440D01*
X114323528Y-89107264D01*
X114674893Y-89715848D01*
X114696199Y-89752750D01*
X114751944Y-89831032D01*
X114860681Y-89925254D01*
X114901149Y-89943735D01*
X114991555Y-89985023D01*
X114991558Y-89985023D01*
X114991559Y-89985024D01*
X115133975Y-90005500D01*
X115911932Y-90005500D01*
X115922170Y-90005923D01*
X115958256Y-90008914D01*
X115958260Y-90008914D01*
X116041740Y-90008914D01*
X116041744Y-90008914D01*
X116077829Y-90005923D01*
X116088068Y-90005500D01*
X116866026Y-90005500D01*
X116873052Y-90004828D01*
X116943714Y-89998081D01*
X117012319Y-90011303D01*
X117043181Y-90033838D01*
X117573495Y-90564152D01*
X117606980Y-90625475D01*
X117609134Y-90638869D01*
X117614325Y-90688249D01*
X117614327Y-90688260D01*
X117672818Y-90868277D01*
X117672821Y-90868284D01*
X117767466Y-91032215D01*
X117767648Y-91032417D01*
X117767716Y-91032559D01*
X117771285Y-91037471D01*
X117770386Y-91038123D01*
X117797879Y-91095408D01*
X117799500Y-91115391D01*
X117799500Y-92779091D01*
X117779815Y-92846130D01*
X117735730Y-92884641D01*
X117736812Y-92886395D01*
X117643491Y-92943955D01*
X117576099Y-92962395D01*
X117509435Y-92941472D01*
X117472856Y-92903513D01*
X117464636Y-92890186D01*
X117405212Y-92793844D01*
X117281156Y-92669788D01*
X117131834Y-92577686D01*
X116965297Y-92522501D01*
X116965295Y-92522500D01*
X116862510Y-92512000D01*
X116137498Y-92512000D01*
X116137480Y-92512001D01*
X116034703Y-92522500D01*
X116034700Y-92522501D01*
X115868168Y-92577685D01*
X115868163Y-92577687D01*
X115718842Y-92669789D01*
X115594789Y-92793842D01*
X115502687Y-92943163D01*
X115502685Y-92943168D01*
X115496314Y-92962395D01*
X115447501Y-93109703D01*
X115447501Y-93109704D01*
X115447500Y-93109704D01*
X115437000Y-93212483D01*
X115437000Y-94562501D01*
X115437001Y-94562518D01*
X115447500Y-94665296D01*
X115447501Y-94665299D01*
X115502685Y-94831831D01*
X115502687Y-94831836D01*
X115522508Y-94863971D01*
X115594788Y-94981156D01*
X115718844Y-95105212D01*
X115740594Y-95118627D01*
X115787320Y-95170573D01*
X115799500Y-95224167D01*
X115799500Y-98158480D01*
X115779815Y-98225519D01*
X115763181Y-98246161D01*
X114373194Y-99636147D01*
X114311871Y-99669632D01*
X114301699Y-99671405D01*
X114279701Y-99674301D01*
X114255738Y-99677456D01*
X114255737Y-99677456D01*
X114109660Y-99737963D01*
X113984218Y-99834218D01*
X113887963Y-99959660D01*
X113827456Y-100105737D01*
X113827455Y-100105739D01*
X113812000Y-100223138D01*
X113812000Y-100501863D01*
X113827453Y-100619253D01*
X113827456Y-100619262D01*
X113836337Y-100640703D01*
X113843804Y-100710173D01*
X113836338Y-100735603D01*
X113827943Y-100755870D01*
X113820487Y-100812500D01*
X113863000Y-100812500D01*
X113930039Y-100832185D01*
X113961375Y-100861013D01*
X113975676Y-100879650D01*
X113984218Y-100890782D01*
X114014640Y-100914125D01*
X114055841Y-100970552D01*
X114059996Y-101040298D01*
X114025783Y-101101219D01*
X114014646Y-101110869D01*
X113984218Y-101134218D01*
X113984217Y-101134219D01*
X113984216Y-101134220D01*
X113961375Y-101163987D01*
X113904947Y-101205190D01*
X113863000Y-101212500D01*
X113820490Y-101212500D01*
X113820488Y-101212501D01*
X113827941Y-101269122D01*
X113827945Y-101269134D01*
X113836337Y-101289395D01*
X113843804Y-101358864D01*
X113836338Y-101384294D01*
X113827456Y-101405738D01*
X113827455Y-101405739D01*
X113812000Y-101523138D01*
X113812000Y-101801863D01*
X113827453Y-101919253D01*
X113827456Y-101919262D01*
X113887964Y-102065341D01*
X113984218Y-102190782D01*
X114109659Y-102287036D01*
X114255738Y-102347544D01*
X114301700Y-102353594D01*
X114365595Y-102381859D01*
X114373195Y-102388852D01*
X115763181Y-103778838D01*
X115796666Y-103840161D01*
X115799500Y-103866519D01*
X115799500Y-104775831D01*
X115779815Y-104842870D01*
X115740600Y-104881368D01*
X115718843Y-104894788D01*
X115594789Y-105018842D01*
X115502687Y-105168163D01*
X115502685Y-105168168D01*
X115482932Y-105227780D01*
X115447501Y-105334703D01*
X115447501Y-105334704D01*
X115447500Y-105334704D01*
X115437000Y-105437483D01*
X115437000Y-106787501D01*
X115437001Y-106787518D01*
X115447500Y-106890296D01*
X115447501Y-106890299D01*
X115486807Y-107008914D01*
X115502686Y-107056834D01*
X115594788Y-107206156D01*
X115718844Y-107330212D01*
X115728091Y-107335916D01*
X115774818Y-107387860D01*
X115787000Y-107441457D01*
X115787000Y-108870500D01*
X115767315Y-108937539D01*
X115714511Y-108983294D01*
X115663000Y-108994500D01*
X115633975Y-108994500D01*
X115538308Y-109003635D01*
X115538305Y-109003635D01*
X115538305Y-109003636D01*
X115402340Y-109050694D01*
X115402339Y-109050694D01*
X115285140Y-109134153D01*
X115285138Y-109134155D01*
X115196200Y-109247247D01*
X115196199Y-109247249D01*
X114823525Y-109892739D01*
X114819947Y-109898560D01*
X114795366Y-109936184D01*
X114750171Y-110019699D01*
X114748503Y-110022682D01*
X114330174Y-110747247D01*
X114330172Y-110747250D01*
X114290253Y-110834661D01*
X114290250Y-110834670D01*
X114263022Y-110975943D01*
X114263021Y-110975948D01*
X114276697Y-111119176D01*
X114330171Y-111252746D01*
X114330172Y-111252749D01*
X114748511Y-111977331D01*
X114750158Y-111980277D01*
X114795370Y-112063822D01*
X114795372Y-112063825D01*
X114819948Y-112101440D01*
X114823528Y-112107264D01*
X115192512Y-112746365D01*
X115196199Y-112752750D01*
X115251944Y-112831032D01*
X115360681Y-112925254D01*
X115401149Y-112943735D01*
X115491555Y-112985023D01*
X115491558Y-112985023D01*
X115491559Y-112985024D01*
X115633975Y-113005500D01*
X116411932Y-113005500D01*
X116422170Y-113005923D01*
X116458256Y-113008914D01*
X116458260Y-113008914D01*
X116541740Y-113008914D01*
X116541744Y-113008914D01*
X116577829Y-113005923D01*
X116588068Y-113005500D01*
X117366018Y-113005500D01*
X117366025Y-113005500D01*
X117461692Y-112996365D01*
X117597659Y-112949306D01*
X117714860Y-112865847D01*
X117803801Y-112752750D01*
X118176491Y-112107227D01*
X118180035Y-112101463D01*
X118204630Y-112063822D01*
X118249845Y-111980267D01*
X118251457Y-111977383D01*
X118669827Y-111252750D01*
X118709749Y-111165332D01*
X118736978Y-111024052D01*
X118723302Y-110880823D01*
X118669827Y-110747250D01*
X118251496Y-110022682D01*
X118249835Y-110019711D01*
X118204626Y-109936171D01*
X118180051Y-109898559D01*
X118176470Y-109892734D01*
X118147549Y-109842642D01*
X117803801Y-109247250D01*
X117748056Y-109168968D01*
X117639319Y-109074746D01*
X117639315Y-109074744D01*
X117508444Y-109014976D01*
X117508439Y-109014975D01*
X117366025Y-108994500D01*
X117312000Y-108994500D01*
X117244961Y-108974815D01*
X117199206Y-108922011D01*
X117188000Y-108870500D01*
X117188000Y-107456877D01*
X117207685Y-107389838D01*
X117246906Y-107351337D01*
X117281156Y-107330212D01*
X117405212Y-107206156D01*
X117497314Y-107056834D01*
X117552499Y-106890297D01*
X117563000Y-106787509D01*
X117562999Y-106103017D01*
X117582683Y-106035980D01*
X117635487Y-105990225D01*
X117704646Y-105980281D01*
X117768202Y-106009306D01*
X117774680Y-106015338D01*
X121601985Y-109842642D01*
X121635470Y-109903965D01*
X121630486Y-109973657D01*
X121621691Y-109992323D01*
X121330174Y-110497247D01*
X121330172Y-110497250D01*
X121290253Y-110584661D01*
X121290250Y-110584670D01*
X121263022Y-110725943D01*
X121263021Y-110725948D01*
X121276697Y-110869176D01*
X121330171Y-111002746D01*
X121330172Y-111002749D01*
X121748511Y-111727331D01*
X121750158Y-111730277D01*
X121795370Y-111813822D01*
X121795372Y-111813825D01*
X121819948Y-111851440D01*
X121823528Y-111857264D01*
X121894571Y-111980315D01*
X122196199Y-112502750D01*
X122251944Y-112581032D01*
X122360681Y-112675254D01*
X122401149Y-112693735D01*
X122491555Y-112735023D01*
X122491558Y-112735023D01*
X122491559Y-112735024D01*
X122633975Y-112755500D01*
X123411932Y-112755500D01*
X123422170Y-112755923D01*
X123458256Y-112758914D01*
X123458260Y-112758914D01*
X123541740Y-112758914D01*
X123541744Y-112758914D01*
X123577829Y-112755923D01*
X123588068Y-112755500D01*
X124366018Y-112755500D01*
X124366025Y-112755500D01*
X124461692Y-112746365D01*
X124597659Y-112699306D01*
X124714860Y-112615847D01*
X124803801Y-112502750D01*
X125118113Y-111958342D01*
X125168680Y-111910128D01*
X125237287Y-111896904D01*
X125302151Y-111922872D01*
X125342680Y-111979786D01*
X125349500Y-112020343D01*
X125349500Y-113376000D01*
X125329815Y-113443039D01*
X125277011Y-113488794D01*
X125225500Y-113500000D01*
X106874000Y-113500000D01*
X106806961Y-113480315D01*
X106761206Y-113427511D01*
X106750000Y-113376000D01*
X106750000Y-110975948D01*
X107263021Y-110975948D01*
X107276697Y-111119176D01*
X107330171Y-111252746D01*
X107330172Y-111252749D01*
X107748511Y-111977331D01*
X107750158Y-111980277D01*
X107795370Y-112063822D01*
X107795372Y-112063825D01*
X107819948Y-112101440D01*
X107823528Y-112107264D01*
X108192512Y-112746365D01*
X108196199Y-112752750D01*
X108251944Y-112831032D01*
X108360681Y-112925254D01*
X108401149Y-112943735D01*
X108491555Y-112985023D01*
X108491558Y-112985023D01*
X108491559Y-112985024D01*
X108633975Y-113005500D01*
X109411932Y-113005500D01*
X109422170Y-113005923D01*
X109458256Y-113008914D01*
X109458260Y-113008914D01*
X109541740Y-113008914D01*
X109541744Y-113008914D01*
X109577829Y-113005923D01*
X109588068Y-113005500D01*
X110366018Y-113005500D01*
X110366025Y-113005500D01*
X110461692Y-112996365D01*
X110597659Y-112949306D01*
X110714860Y-112865847D01*
X110803801Y-112752750D01*
X111176491Y-112107227D01*
X111180035Y-112101463D01*
X111204630Y-112063822D01*
X111249845Y-111980267D01*
X111251457Y-111977383D01*
X111669827Y-111252750D01*
X111709749Y-111165332D01*
X111736978Y-111024052D01*
X111723302Y-110880823D01*
X111669827Y-110747250D01*
X111251496Y-110022682D01*
X111249835Y-110019711D01*
X111204626Y-109936171D01*
X111180051Y-109898559D01*
X111176470Y-109892734D01*
X110984613Y-109560425D01*
X110968000Y-109498425D01*
X110968000Y-105437483D01*
X112512000Y-105437483D01*
X112512000Y-106787501D01*
X112512001Y-106787518D01*
X112522500Y-106890296D01*
X112522501Y-106890299D01*
X112561807Y-107008914D01*
X112577686Y-107056834D01*
X112669788Y-107206156D01*
X112793844Y-107330212D01*
X112943166Y-107422314D01*
X113109703Y-107477499D01*
X113212491Y-107488000D01*
X113937508Y-107487999D01*
X113937516Y-107487998D01*
X113937519Y-107487998D01*
X113993802Y-107482248D01*
X114040297Y-107477499D01*
X114206834Y-107422314D01*
X114356156Y-107330212D01*
X114480212Y-107206156D01*
X114572314Y-107056834D01*
X114627499Y-106890297D01*
X114638000Y-106787509D01*
X114637999Y-105437492D01*
X114627499Y-105334703D01*
X114572314Y-105168166D01*
X114480212Y-105018844D01*
X114356156Y-104894788D01*
X114206834Y-104802686D01*
X114040297Y-104747501D01*
X114040295Y-104747500D01*
X113937510Y-104737000D01*
X113212498Y-104737000D01*
X113212480Y-104737001D01*
X113109703Y-104747500D01*
X113109700Y-104747501D01*
X112943168Y-104802685D01*
X112943163Y-104802687D01*
X112793842Y-104894789D01*
X112669789Y-105018842D01*
X112577687Y-105168163D01*
X112577685Y-105168168D01*
X112557932Y-105227780D01*
X112522501Y-105334703D01*
X112522501Y-105334704D01*
X112522500Y-105334704D01*
X112512000Y-105437483D01*
X110968000Y-105437483D01*
X110968000Y-104235211D01*
X110987685Y-104168172D01*
X111020877Y-104133636D01*
X111138902Y-104050994D01*
X111170197Y-104019699D01*
X111305995Y-103883901D01*
X111441535Y-103690330D01*
X111541403Y-103476163D01*
X111602563Y-103247908D01*
X111623159Y-103012500D01*
X111622383Y-103003636D01*
X111602563Y-102777096D01*
X111602563Y-102777092D01*
X111541403Y-102548837D01*
X111441535Y-102334671D01*
X111419283Y-102302891D01*
X111305994Y-102141097D01*
X111138902Y-101974006D01*
X111138895Y-101974001D01*
X110945334Y-101838467D01*
X110945330Y-101838465D01*
X110866837Y-101801863D01*
X110731163Y-101738597D01*
X110731159Y-101738596D01*
X110731155Y-101738594D01*
X110502913Y-101677438D01*
X110502903Y-101677436D01*
X110267501Y-101656841D01*
X110267499Y-101656841D01*
X110032096Y-101677436D01*
X110032086Y-101677438D01*
X109803844Y-101738594D01*
X109803835Y-101738598D01*
X109589671Y-101838464D01*
X109589669Y-101838465D01*
X109396097Y-101974005D01*
X109229005Y-102141097D01*
X109093465Y-102334669D01*
X109093464Y-102334671D01*
X108993598Y-102548835D01*
X108993594Y-102548844D01*
X108932438Y-102777086D01*
X108932436Y-102777096D01*
X108911841Y-103012499D01*
X108911841Y-103012500D01*
X108932436Y-103247903D01*
X108932438Y-103247913D01*
X108993594Y-103476155D01*
X108993596Y-103476159D01*
X108993597Y-103476163D01*
X109093465Y-103690330D01*
X109093467Y-103690334D01*
X109229001Y-103883895D01*
X109229006Y-103883902D01*
X109396097Y-104050994D01*
X109514123Y-104133636D01*
X109557748Y-104188213D01*
X109567000Y-104235211D01*
X109567000Y-108867925D01*
X109547315Y-108934964D01*
X109494511Y-108980719D01*
X109453242Y-108991501D01*
X109433009Y-108993178D01*
X109422169Y-108994076D01*
X109411932Y-108994500D01*
X108633975Y-108994500D01*
X108538308Y-109003635D01*
X108538305Y-109003635D01*
X108538305Y-109003636D01*
X108402340Y-109050694D01*
X108402339Y-109050694D01*
X108285140Y-109134153D01*
X108285138Y-109134155D01*
X108196200Y-109247247D01*
X108196199Y-109247249D01*
X107823525Y-109892739D01*
X107819947Y-109898560D01*
X107795366Y-109936184D01*
X107750171Y-110019699D01*
X107748503Y-110022682D01*
X107330174Y-110747247D01*
X107330172Y-110747250D01*
X107290253Y-110834661D01*
X107290250Y-110834670D01*
X107263022Y-110975943D01*
X107263021Y-110975948D01*
X106750000Y-110975948D01*
X106750000Y-105925281D01*
X107422000Y-105925281D01*
X107422000Y-106099718D01*
X107456027Y-106270783D01*
X107456029Y-106270791D01*
X107522778Y-106431939D01*
X107522783Y-106431948D01*
X107619686Y-106576973D01*
X107619689Y-106576977D01*
X107743022Y-106700310D01*
X107743026Y-106700313D01*
X107888051Y-106797216D01*
X107888057Y-106797219D01*
X107888058Y-106797220D01*
X108049209Y-106863971D01*
X108220281Y-106897999D01*
X108220285Y-106898000D01*
X108220286Y-106898000D01*
X108394715Y-106898000D01*
X108394716Y-106897999D01*
X108565791Y-106863971D01*
X108726942Y-106797220D01*
X108871974Y-106700313D01*
X108995313Y-106576974D01*
X109092220Y-106431942D01*
X109158971Y-106270791D01*
X109193000Y-106099714D01*
X109193000Y-105925286D01*
X109158971Y-105754209D01*
X109092220Y-105593058D01*
X109092219Y-105593057D01*
X109092216Y-105593051D01*
X108995313Y-105448026D01*
X108995310Y-105448022D01*
X108871977Y-105324689D01*
X108871973Y-105324686D01*
X108726948Y-105227783D01*
X108726939Y-105227778D01*
X108565791Y-105161029D01*
X108565783Y-105161027D01*
X108394718Y-105127000D01*
X108394714Y-105127000D01*
X108220286Y-105127000D01*
X108220281Y-105127000D01*
X108049216Y-105161027D01*
X108049208Y-105161029D01*
X107888060Y-105227778D01*
X107888051Y-105227783D01*
X107743026Y-105324686D01*
X107743022Y-105324689D01*
X107619689Y-105448022D01*
X107619686Y-105448026D01*
X107522783Y-105593051D01*
X107522778Y-105593060D01*
X107456029Y-105754208D01*
X107456027Y-105754216D01*
X107422000Y-105925281D01*
X106750000Y-105925281D01*
X106750000Y-100012499D01*
X108911841Y-100012499D01*
X108911841Y-100012500D01*
X108932436Y-100247903D01*
X108932438Y-100247913D01*
X108993594Y-100476155D01*
X108993596Y-100476159D01*
X108993597Y-100476163D01*
X109082184Y-100666137D01*
X109093465Y-100690330D01*
X109093467Y-100690334D01*
X109188712Y-100826357D01*
X109229005Y-100883901D01*
X109396099Y-101050995D01*
X109401032Y-101054449D01*
X109589665Y-101186532D01*
X109589667Y-101186533D01*
X109589670Y-101186535D01*
X109803837Y-101286403D01*
X109803843Y-101286404D01*
X109803844Y-101286405D01*
X109815003Y-101289395D01*
X110032092Y-101347563D01*
X110220418Y-101364039D01*
X110267499Y-101368159D01*
X110267500Y-101368159D01*
X110267501Y-101368159D01*
X110306734Y-101364726D01*
X110502908Y-101347563D01*
X110731163Y-101286403D01*
X110945330Y-101186535D01*
X111138901Y-101050995D01*
X111305995Y-100883901D01*
X111441535Y-100690330D01*
X111541403Y-100476163D01*
X111602563Y-100247908D01*
X111623159Y-100012500D01*
X111602563Y-99777092D01*
X111541403Y-99548837D01*
X111441535Y-99334671D01*
X111412186Y-99292755D01*
X111305994Y-99141097D01*
X111138902Y-98974006D01*
X111138895Y-98974001D01*
X111134556Y-98970963D01*
X111083910Y-98935500D01*
X110945334Y-98838467D01*
X110945330Y-98838465D01*
X110931060Y-98831811D01*
X110731163Y-98738597D01*
X110731159Y-98738596D01*
X110731155Y-98738594D01*
X110502913Y-98677438D01*
X110502903Y-98677436D01*
X110267501Y-98656841D01*
X110267499Y-98656841D01*
X110032096Y-98677436D01*
X110032086Y-98677438D01*
X109803844Y-98738594D01*
X109803835Y-98738598D01*
X109589671Y-98838464D01*
X109589669Y-98838465D01*
X109396097Y-98974005D01*
X109229005Y-99141097D01*
X109093465Y-99334669D01*
X109093464Y-99334671D01*
X108993598Y-99548835D01*
X108993594Y-99548844D01*
X108932438Y-99777086D01*
X108932436Y-99777096D01*
X108911841Y-100012499D01*
X106750000Y-100012499D01*
X106750000Y-93925281D01*
X107422000Y-93925281D01*
X107422000Y-94099718D01*
X107456027Y-94270783D01*
X107456029Y-94270791D01*
X107522778Y-94431939D01*
X107522783Y-94431948D01*
X107619686Y-94576973D01*
X107619689Y-94576977D01*
X107743022Y-94700310D01*
X107743026Y-94700313D01*
X107888051Y-94797216D01*
X107888057Y-94797219D01*
X107888058Y-94797220D01*
X108049209Y-94863971D01*
X108220281Y-94897999D01*
X108220285Y-94898000D01*
X108220286Y-94898000D01*
X108394715Y-94898000D01*
X108394716Y-94897999D01*
X108565791Y-94863971D01*
X108726942Y-94797220D01*
X108871974Y-94700313D01*
X108995313Y-94576974D01*
X109092220Y-94431942D01*
X109158971Y-94270791D01*
X109193000Y-94099714D01*
X109193000Y-93925286D01*
X109158971Y-93754209D01*
X109092220Y-93593058D01*
X109092219Y-93593057D01*
X109092216Y-93593051D01*
X108995313Y-93448026D01*
X108995310Y-93448022D01*
X108871977Y-93324689D01*
X108871973Y-93324686D01*
X108726948Y-93227783D01*
X108726939Y-93227778D01*
X108565791Y-93161029D01*
X108565783Y-93161027D01*
X108394718Y-93127000D01*
X108394714Y-93127000D01*
X108220286Y-93127000D01*
X108220281Y-93127000D01*
X108049216Y-93161027D01*
X108049208Y-93161029D01*
X107888060Y-93227778D01*
X107888051Y-93227783D01*
X107743026Y-93324686D01*
X107743022Y-93324689D01*
X107619689Y-93448022D01*
X107619686Y-93448026D01*
X107522783Y-93593051D01*
X107522778Y-93593060D01*
X107456029Y-93754208D01*
X107456027Y-93754216D01*
X107422000Y-93925281D01*
X106750000Y-93925281D01*
X106750000Y-87975948D01*
X107263021Y-87975948D01*
X107276697Y-88119176D01*
X107330171Y-88252746D01*
X107330172Y-88252749D01*
X107748511Y-88977331D01*
X107750158Y-88980277D01*
X107795370Y-89063822D01*
X107795372Y-89063825D01*
X107819948Y-89101440D01*
X107823528Y-89107264D01*
X108174893Y-89715848D01*
X108196199Y-89752750D01*
X108251944Y-89831032D01*
X108360681Y-89925254D01*
X108401149Y-89943735D01*
X108491555Y-89985023D01*
X108491558Y-89985023D01*
X108491559Y-89985024D01*
X108633975Y-90005500D01*
X109411932Y-90005500D01*
X109422149Y-90005922D01*
X109453241Y-90008498D01*
X109518424Y-90033650D01*
X109559662Y-90090052D01*
X109567000Y-90132074D01*
X109567000Y-95789788D01*
X109547315Y-95856827D01*
X109514124Y-95891363D01*
X109396094Y-95974008D01*
X109229005Y-96141097D01*
X109093465Y-96334669D01*
X109093464Y-96334671D01*
X108993598Y-96548835D01*
X108993594Y-96548844D01*
X108932438Y-96777086D01*
X108932436Y-96777096D01*
X108911841Y-97012499D01*
X108911841Y-97012500D01*
X108932436Y-97247903D01*
X108932438Y-97247913D01*
X108993594Y-97476155D01*
X108993596Y-97476159D01*
X108993597Y-97476163D01*
X109090110Y-97683135D01*
X109093465Y-97690330D01*
X109093467Y-97690334D01*
X109187483Y-97824602D01*
X109229005Y-97883901D01*
X109396099Y-98050995D01*
X109492884Y-98118765D01*
X109589665Y-98186532D01*
X109589667Y-98186533D01*
X109589670Y-98186535D01*
X109803837Y-98286403D01*
X110032092Y-98347563D01*
X110220418Y-98364039D01*
X110267499Y-98368159D01*
X110267500Y-98368159D01*
X110267501Y-98368159D01*
X110306734Y-98364726D01*
X110502908Y-98347563D01*
X110731163Y-98286403D01*
X110945330Y-98186535D01*
X111138901Y-98050995D01*
X111305995Y-97883901D01*
X111441535Y-97690330D01*
X111541403Y-97476163D01*
X111602563Y-97247908D01*
X111623159Y-97012500D01*
X111602563Y-96777092D01*
X111541403Y-96548837D01*
X111441535Y-96334671D01*
X111440355Y-96332985D01*
X111305994Y-96141097D01*
X111138904Y-95974008D01*
X111138901Y-95974005D01*
X111138896Y-95974001D01*
X111138893Y-95973999D01*
X111020876Y-95891361D01*
X110977251Y-95836784D01*
X110968000Y-95789787D01*
X110968000Y-93212483D01*
X112512000Y-93212483D01*
X112512000Y-94562501D01*
X112512001Y-94562518D01*
X112522500Y-94665296D01*
X112522501Y-94665299D01*
X112577685Y-94831831D01*
X112577687Y-94831836D01*
X112597508Y-94863971D01*
X112669788Y-94981156D01*
X112793844Y-95105212D01*
X112943166Y-95197314D01*
X113109703Y-95252499D01*
X113212491Y-95263000D01*
X113937508Y-95262999D01*
X113937516Y-95262998D01*
X113937519Y-95262998D01*
X113993802Y-95257248D01*
X114040297Y-95252499D01*
X114206834Y-95197314D01*
X114356156Y-95105212D01*
X114480212Y-94981156D01*
X114572314Y-94831834D01*
X114627499Y-94665297D01*
X114638000Y-94562509D01*
X114637999Y-93212492D01*
X114627499Y-93109703D01*
X114572314Y-92943166D01*
X114480212Y-92793844D01*
X114356156Y-92669788D01*
X114206834Y-92577686D01*
X114040297Y-92522501D01*
X114040295Y-92522500D01*
X113937510Y-92512000D01*
X113212498Y-92512000D01*
X113212480Y-92512001D01*
X113109703Y-92522500D01*
X113109700Y-92522501D01*
X112943168Y-92577685D01*
X112943163Y-92577687D01*
X112793842Y-92669789D01*
X112669789Y-92793842D01*
X112577687Y-92943163D01*
X112577685Y-92943168D01*
X112571314Y-92962395D01*
X112522501Y-93109703D01*
X112522501Y-93109704D01*
X112522500Y-93109704D01*
X112512000Y-93212483D01*
X110968000Y-93212483D01*
X110968000Y-89501572D01*
X110984613Y-89439572D01*
X111176491Y-89107227D01*
X111180035Y-89101463D01*
X111204630Y-89063822D01*
X111249845Y-88980267D01*
X111251457Y-88977383D01*
X111669827Y-88252750D01*
X111709749Y-88165332D01*
X111736978Y-88024052D01*
X111723302Y-87880823D01*
X111669827Y-87747250D01*
X111251496Y-87022682D01*
X111249835Y-87019711D01*
X111204626Y-86936171D01*
X111180051Y-86898559D01*
X111176470Y-86892734D01*
X110900415Y-86414592D01*
X110803801Y-86247250D01*
X110748056Y-86168968D01*
X110639319Y-86074746D01*
X110639315Y-86074744D01*
X110508444Y-86014976D01*
X110508439Y-86014975D01*
X110366025Y-85994500D01*
X109588068Y-85994500D01*
X109577829Y-85994076D01*
X109573596Y-85993725D01*
X109541752Y-85991086D01*
X109541744Y-85991086D01*
X109458256Y-85991086D01*
X109458247Y-85991086D01*
X109425982Y-85993760D01*
X109422170Y-85994076D01*
X109411932Y-85994500D01*
X108633975Y-85994500D01*
X108538308Y-86003635D01*
X108538305Y-86003635D01*
X108538305Y-86003636D01*
X108402340Y-86050694D01*
X108402339Y-86050694D01*
X108285140Y-86134153D01*
X108285138Y-86134155D01*
X108196200Y-86247247D01*
X108196199Y-86247249D01*
X107823525Y-86892739D01*
X107819947Y-86898560D01*
X107795366Y-86936184D01*
X107750171Y-87019699D01*
X107748503Y-87022682D01*
X107330174Y-87747247D01*
X107330172Y-87747250D01*
X107290253Y-87834661D01*
X107290250Y-87834670D01*
X107263022Y-87975943D01*
X107263021Y-87975948D01*
X106750000Y-87975948D01*
X106750000Y-85730815D01*
X118800000Y-85730815D01*
X118810407Y-85832673D01*
X118865094Y-85997709D01*
X118865096Y-85997714D01*
X118956370Y-86145691D01*
X119079308Y-86268629D01*
X119227285Y-86359903D01*
X119227290Y-86359905D01*
X119392326Y-86414592D01*
X119494184Y-86424999D01*
X119494197Y-86425000D01*
X119750000Y-86425000D01*
X120250000Y-86425000D01*
X120505803Y-86425000D01*
X120505815Y-86424999D01*
X120607673Y-86414592D01*
X120772709Y-86359905D01*
X120772714Y-86359903D01*
X120920691Y-86268629D01*
X121043629Y-86145691D01*
X121134903Y-85997714D01*
X121134905Y-85997709D01*
X121189592Y-85832673D01*
X121199999Y-85730815D01*
X121200000Y-85730802D01*
X121200000Y-85687500D01*
X120250000Y-85687500D01*
X120250000Y-86425000D01*
X119750000Y-86425000D01*
X119750000Y-85687500D01*
X118800000Y-85687500D01*
X118800000Y-85730815D01*
X106750000Y-85730815D01*
X106750000Y-83191904D01*
X108161647Y-83191904D01*
X108161647Y-83191905D01*
X108196628Y-83252493D01*
X108196634Y-83252503D01*
X108252319Y-83330703D01*
X108360950Y-83424832D01*
X108360952Y-83424833D01*
X108491696Y-83484543D01*
X108491700Y-83484544D01*
X108633976Y-83504999D01*
X108633978Y-83505000D01*
X109411950Y-83505000D01*
X109422191Y-83505424D01*
X109458289Y-83508415D01*
X109458302Y-83508416D01*
X109541698Y-83508416D01*
X109541710Y-83508415D01*
X109577809Y-83505424D01*
X109588050Y-83505000D01*
X110366030Y-83505000D01*
X110461592Y-83495874D01*
X110461601Y-83495872D01*
X110597430Y-83448862D01*
X110714512Y-83365488D01*
X110714515Y-83365484D01*
X110803368Y-83252499D01*
X110838351Y-83191903D01*
X109500000Y-81853553D01*
X108161647Y-83191904D01*
X106750000Y-83191904D01*
X106750000Y-81475968D01*
X107263521Y-81475968D01*
X107263521Y-81475972D01*
X107277184Y-81619059D01*
X107330604Y-81752496D01*
X107330605Y-81752499D01*
X107748943Y-82477080D01*
X107750611Y-82480063D01*
X107795806Y-82563578D01*
X107795812Y-82563587D01*
X107820387Y-82601200D01*
X107823967Y-82607024D01*
X107902829Y-82743616D01*
X107902830Y-82743617D01*
X109146447Y-81500000D01*
X109146447Y-81499999D01*
X109853553Y-81499999D01*
X109853553Y-81500000D01*
X111097169Y-82743616D01*
X111176028Y-82607029D01*
X111179611Y-82601201D01*
X111204183Y-82563595D01*
X111204186Y-82563589D01*
X111249393Y-82480052D01*
X111251062Y-82477067D01*
X111669389Y-81752508D01*
X111669397Y-81752492D01*
X111709275Y-81665172D01*
X111709277Y-81665166D01*
X111736478Y-81524031D01*
X111736478Y-81524027D01*
X111731887Y-81475948D01*
X113763021Y-81475948D01*
X113776697Y-81619176D01*
X113830171Y-81752746D01*
X113830172Y-81752749D01*
X114248511Y-82477331D01*
X114250158Y-82480277D01*
X114295370Y-82563822D01*
X114295372Y-82563825D01*
X114319948Y-82601440D01*
X114323528Y-82607264D01*
X114696050Y-83252493D01*
X114696199Y-83252750D01*
X114751944Y-83331032D01*
X114860681Y-83425254D01*
X114901149Y-83443735D01*
X114991555Y-83485023D01*
X114991558Y-83485023D01*
X114991559Y-83485024D01*
X115133975Y-83505500D01*
X115911932Y-83505500D01*
X115922170Y-83505923D01*
X115958256Y-83508914D01*
X115958260Y-83508914D01*
X116041740Y-83508914D01*
X116041744Y-83508914D01*
X116077829Y-83505923D01*
X116088068Y-83505500D01*
X116866018Y-83505500D01*
X116866025Y-83505500D01*
X116961692Y-83496365D01*
X117097659Y-83449306D01*
X117214860Y-83365847D01*
X117290909Y-83269144D01*
X118799500Y-83269144D01*
X118799500Y-83855855D01*
X118809913Y-83957776D01*
X118864637Y-84122922D01*
X118864642Y-84122933D01*
X118955971Y-84270999D01*
X118955974Y-84271003D01*
X119078999Y-84394028D01*
X119080183Y-84394758D01*
X119080823Y-84395470D01*
X119084664Y-84398507D01*
X119084145Y-84399163D01*
X119126906Y-84446708D01*
X119138125Y-84515671D01*
X119110279Y-84579752D01*
X119084877Y-84601762D01*
X119084977Y-84601888D01*
X119082177Y-84604101D01*
X119080184Y-84605829D01*
X119079315Y-84606364D01*
X119079309Y-84606369D01*
X118956370Y-84729308D01*
X118865096Y-84877285D01*
X118865094Y-84877290D01*
X118810407Y-85042326D01*
X118800000Y-85144184D01*
X118800000Y-85187500D01*
X121200000Y-85187500D01*
X121200000Y-85144197D01*
X121199999Y-85144184D01*
X121189592Y-85042326D01*
X121134905Y-84877290D01*
X121134903Y-84877285D01*
X121043629Y-84729308D01*
X120920690Y-84606369D01*
X120920685Y-84606365D01*
X120919822Y-84605833D01*
X120919353Y-84605312D01*
X120915023Y-84601888D01*
X120915608Y-84601148D01*
X120873096Y-84553886D01*
X120861873Y-84484924D01*
X120889716Y-84420841D01*
X120915398Y-84398586D01*
X120915336Y-84398507D01*
X120917106Y-84397107D01*
X120919820Y-84394755D01*
X120921003Y-84394026D01*
X121044026Y-84271003D01*
X121135362Y-84122925D01*
X121190087Y-83957775D01*
X121200500Y-83855848D01*
X121200500Y-83269152D01*
X121190087Y-83167225D01*
X121135362Y-83002075D01*
X121135358Y-83002069D01*
X121135357Y-83002066D01*
X121044028Y-82854000D01*
X121044025Y-82853996D01*
X120921003Y-82730974D01*
X120920999Y-82730971D01*
X120772933Y-82639642D01*
X120772927Y-82639639D01*
X120772925Y-82639638D01*
X120772922Y-82639637D01*
X120607776Y-82584913D01*
X120505855Y-82574500D01*
X120505848Y-82574500D01*
X119494152Y-82574500D01*
X119494144Y-82574500D01*
X119392223Y-82584913D01*
X119227077Y-82639637D01*
X119227066Y-82639642D01*
X119079000Y-82730971D01*
X119078996Y-82730974D01*
X118955974Y-82853996D01*
X118955971Y-82854000D01*
X118864642Y-83002066D01*
X118864637Y-83002077D01*
X118809913Y-83167223D01*
X118799500Y-83269144D01*
X117290909Y-83269144D01*
X117303801Y-83252750D01*
X117676491Y-82607227D01*
X117680035Y-82601463D01*
X117704630Y-82563822D01*
X117749845Y-82480267D01*
X117751457Y-82477383D01*
X118169827Y-81752750D01*
X118209749Y-81665332D01*
X118236978Y-81524052D01*
X118234681Y-81500000D01*
X118223302Y-81380823D01*
X118169828Y-81247253D01*
X118169827Y-81247250D01*
X118054700Y-81047844D01*
X123750000Y-81047844D01*
X123756401Y-81107372D01*
X123756403Y-81107379D01*
X123806645Y-81242086D01*
X123806649Y-81242093D01*
X123892809Y-81357187D01*
X123892812Y-81357190D01*
X124007906Y-81443350D01*
X124007913Y-81443354D01*
X124142620Y-81493596D01*
X124142627Y-81493598D01*
X124202155Y-81499999D01*
X124202172Y-81500000D01*
X124500000Y-81500000D01*
X124500000Y-80200000D01*
X123750000Y-80200000D01*
X123750000Y-81047844D01*
X118054700Y-81047844D01*
X117751503Y-80522694D01*
X117749835Y-80519711D01*
X117715160Y-80455637D01*
X117704630Y-80436178D01*
X117704628Y-80436176D01*
X117704626Y-80436171D01*
X117680051Y-80398559D01*
X117676470Y-80392734D01*
X117597747Y-80256382D01*
X117303801Y-79747250D01*
X117248056Y-79668968D01*
X117139319Y-79574746D01*
X117139315Y-79574744D01*
X117008444Y-79514976D01*
X117008439Y-79514975D01*
X116866025Y-79494500D01*
X116088068Y-79494500D01*
X116077829Y-79494076D01*
X116073596Y-79493725D01*
X116041752Y-79491086D01*
X116041744Y-79491086D01*
X115958256Y-79491086D01*
X115958247Y-79491086D01*
X115925982Y-79493760D01*
X115922170Y-79494076D01*
X115911932Y-79494500D01*
X115133975Y-79494500D01*
X115038308Y-79503635D01*
X115038305Y-79503635D01*
X115038305Y-79503636D01*
X114902340Y-79550694D01*
X114902339Y-79550694D01*
X114785140Y-79634153D01*
X114785138Y-79634155D01*
X114696200Y-79747247D01*
X114696199Y-79747249D01*
X114323525Y-80392739D01*
X114319947Y-80398560D01*
X114295366Y-80436184D01*
X114250171Y-80519699D01*
X114248503Y-80522682D01*
X113830174Y-81247247D01*
X113830172Y-81247250D01*
X113790253Y-81334661D01*
X113790250Y-81334670D01*
X113763022Y-81475943D01*
X113763021Y-81475948D01*
X111731887Y-81475948D01*
X111722815Y-81380940D01*
X111669395Y-81247503D01*
X111669394Y-81247500D01*
X111251062Y-80522931D01*
X111249393Y-80519947D01*
X111204192Y-80436421D01*
X111179606Y-80398791D01*
X111176026Y-80392966D01*
X111097169Y-80256382D01*
X109853553Y-81499999D01*
X109146447Y-81499999D01*
X107902829Y-80256382D01*
X107902828Y-80256382D01*
X107823969Y-80392970D01*
X107820391Y-80398791D01*
X107795812Y-80436411D01*
X107795806Y-80436421D01*
X107750612Y-80519935D01*
X107748944Y-80522918D01*
X107330610Y-81247491D01*
X107330602Y-81247507D01*
X107290724Y-81334827D01*
X107290722Y-81334833D01*
X107263521Y-81475968D01*
X106750000Y-81475968D01*
X106750000Y-79808093D01*
X108161647Y-79808093D01*
X108161647Y-79808094D01*
X109500000Y-81146447D01*
X109500001Y-81146447D01*
X110838351Y-79808094D01*
X110803370Y-79747505D01*
X110803360Y-79747488D01*
X110747680Y-79669296D01*
X110639049Y-79575167D01*
X110639047Y-79575166D01*
X110508303Y-79515456D01*
X110508299Y-79515455D01*
X110366023Y-79495000D01*
X109588050Y-79495000D01*
X109577809Y-79494576D01*
X109541710Y-79491584D01*
X109458289Y-79491584D01*
X109422191Y-79494576D01*
X109411950Y-79495000D01*
X108633970Y-79495000D01*
X108538407Y-79504125D01*
X108538398Y-79504127D01*
X108402569Y-79551137D01*
X108285487Y-79634511D01*
X108285483Y-79634516D01*
X108196637Y-79747492D01*
X108196628Y-79747504D01*
X108161647Y-79808093D01*
X106750000Y-79808093D01*
X106750000Y-78852155D01*
X123750000Y-78852155D01*
X123750000Y-79700000D01*
X124500000Y-79700000D01*
X124500000Y-78400000D01*
X124202155Y-78400000D01*
X124142627Y-78406401D01*
X124142620Y-78406403D01*
X124007913Y-78456645D01*
X124007906Y-78456649D01*
X123892812Y-78542809D01*
X123892809Y-78542812D01*
X123806649Y-78657906D01*
X123806645Y-78657913D01*
X123756403Y-78792620D01*
X123756401Y-78792627D01*
X123750000Y-78852155D01*
X106750000Y-78852155D01*
X106750000Y-77124000D01*
X106769685Y-77056961D01*
X106822489Y-77011206D01*
X106874000Y-77000000D01*
X125225500Y-77000000D01*
X125292539Y-77019685D01*
G37*
%TD.AperFunction*%
%TA.AperFunction,Conductor*%
G36*
X125268834Y-98863627D02*
G01*
X125324767Y-98905499D01*
X125349184Y-98970963D01*
X125349500Y-98979809D01*
X125349500Y-103729655D01*
X125329815Y-103796694D01*
X125277011Y-103842449D01*
X125207853Y-103852393D01*
X125144297Y-103823368D01*
X125118113Y-103791655D01*
X124803802Y-103247252D01*
X124803800Y-103247249D01*
X124748056Y-103168968D01*
X124643602Y-103078457D01*
X124639324Y-103074750D01*
X124639322Y-103074748D01*
X124639319Y-103074746D01*
X124639315Y-103074744D01*
X124508444Y-103014976D01*
X124508439Y-103014975D01*
X124366025Y-102994500D01*
X123588068Y-102994500D01*
X123577829Y-102994076D01*
X123573596Y-102993725D01*
X123541752Y-102991086D01*
X123541744Y-102991086D01*
X123458256Y-102991086D01*
X123458247Y-102991086D01*
X123425982Y-102993760D01*
X123422170Y-102994076D01*
X123411932Y-102994500D01*
X122633975Y-102994500D01*
X122538308Y-103003635D01*
X122538305Y-103003635D01*
X122538305Y-103003636D01*
X122402340Y-103050694D01*
X122402339Y-103050694D01*
X122285140Y-103134153D01*
X122285138Y-103134155D01*
X122196200Y-103247247D01*
X122196199Y-103247249D01*
X121823525Y-103892739D01*
X121819947Y-103898560D01*
X121795366Y-103936184D01*
X121750171Y-104019699D01*
X121748503Y-104022682D01*
X121330174Y-104747247D01*
X121330172Y-104747250D01*
X121290253Y-104834661D01*
X121290250Y-104834670D01*
X121263022Y-104975943D01*
X121263021Y-104975948D01*
X121276697Y-105119176D01*
X121330171Y-105252746D01*
X121330172Y-105252749D01*
X121748511Y-105977331D01*
X121750158Y-105980277D01*
X121780303Y-106035980D01*
X121795372Y-106063825D01*
X121819948Y-106101440D01*
X121823528Y-106107264D01*
X122165924Y-106700313D01*
X122196199Y-106752750D01*
X122251944Y-106831032D01*
X122360681Y-106925254D01*
X122401149Y-106943735D01*
X122491555Y-106985023D01*
X122491558Y-106985023D01*
X122491559Y-106985024D01*
X122633975Y-107005500D01*
X123411932Y-107005500D01*
X123422170Y-107005923D01*
X123458256Y-107008914D01*
X123458260Y-107008914D01*
X123541740Y-107008914D01*
X123541744Y-107008914D01*
X123577829Y-107005923D01*
X123588068Y-107005500D01*
X124366018Y-107005500D01*
X124366025Y-107005500D01*
X124461692Y-106996365D01*
X124597659Y-106949306D01*
X124714860Y-106865847D01*
X124803801Y-106752750D01*
X125118113Y-106208342D01*
X125168680Y-106160128D01*
X125237287Y-106146904D01*
X125302151Y-106172872D01*
X125342680Y-106229786D01*
X125349500Y-106270343D01*
X125349500Y-109479655D01*
X125329815Y-109546694D01*
X125277011Y-109592449D01*
X125207853Y-109602393D01*
X125144297Y-109573368D01*
X125118113Y-109541655D01*
X124877147Y-109124289D01*
X124803801Y-108997250D01*
X124748056Y-108918968D01*
X124639319Y-108824746D01*
X124639315Y-108824744D01*
X124508444Y-108764976D01*
X124508439Y-108764975D01*
X124366025Y-108744500D01*
X123588068Y-108744500D01*
X123577829Y-108744076D01*
X123573596Y-108743725D01*
X123541752Y-108741086D01*
X123541744Y-108741086D01*
X123458256Y-108741086D01*
X123458247Y-108741086D01*
X123425982Y-108743760D01*
X123422170Y-108744076D01*
X123411932Y-108744500D01*
X122633975Y-108744500D01*
X122556283Y-108751918D01*
X122487679Y-108738696D01*
X122456818Y-108716161D01*
X119036819Y-105296162D01*
X119003334Y-105234839D01*
X119000500Y-105208481D01*
X119000500Y-102302891D01*
X119020185Y-102235852D01*
X119032352Y-102219917D01*
X119032533Y-102219716D01*
X119127179Y-102055784D01*
X119185674Y-101875756D01*
X119205460Y-101687500D01*
X119185674Y-101499244D01*
X119127179Y-101319216D01*
X119032533Y-101155284D01*
X118905871Y-101014612D01*
X118864705Y-100984703D01*
X118752734Y-100903351D01*
X118752729Y-100903348D01*
X118579807Y-100826357D01*
X118579802Y-100826355D01*
X118434001Y-100795365D01*
X118394646Y-100787000D01*
X118205354Y-100787000D01*
X118172897Y-100793898D01*
X118020197Y-100826355D01*
X118020192Y-100826357D01*
X117847270Y-100903348D01*
X117847265Y-100903351D01*
X117799138Y-100938318D01*
X117733331Y-100961798D01*
X117726253Y-100962000D01*
X117725520Y-100962000D01*
X117658481Y-100942315D01*
X117612726Y-100889511D01*
X117602782Y-100820353D01*
X117631807Y-100756797D01*
X117637839Y-100750319D01*
X118229693Y-100158463D01*
X118291016Y-100124978D01*
X118360707Y-100129962D01*
X118416641Y-100171833D01*
X118424760Y-100184142D01*
X118517467Y-100344716D01*
X118611308Y-100448937D01*
X118644129Y-100485388D01*
X118797265Y-100596648D01*
X118797270Y-100596651D01*
X118970192Y-100673642D01*
X118970197Y-100673644D01*
X119155354Y-100713000D01*
X119155355Y-100713000D01*
X119344644Y-100713000D01*
X119344646Y-100713000D01*
X119529803Y-100673644D01*
X119702730Y-100596651D01*
X119855871Y-100485388D01*
X119982533Y-100344716D01*
X120077179Y-100180784D01*
X120135674Y-100000756D01*
X120140864Y-99951369D01*
X120167447Y-99886758D01*
X120176494Y-99876661D01*
X121081338Y-98971819D01*
X121142661Y-98938334D01*
X121169019Y-98935500D01*
X123019031Y-98935500D01*
X123082151Y-98952767D01*
X123139602Y-98986744D01*
X123181224Y-98998836D01*
X123297426Y-99032597D01*
X123297429Y-99032597D01*
X123297431Y-99032598D01*
X123334306Y-99035500D01*
X123334314Y-99035500D01*
X124790686Y-99035500D01*
X124790694Y-99035500D01*
X124827569Y-99032598D01*
X124827571Y-99032597D01*
X124827573Y-99032597D01*
X124869191Y-99020505D01*
X124985398Y-98986744D01*
X125126865Y-98903081D01*
X125126870Y-98903076D01*
X125137819Y-98892128D01*
X125199142Y-98858643D01*
X125268834Y-98863627D01*
G37*
%TD.AperFunction*%
%TA.AperFunction,Conductor*%
G36*
X115639248Y-100453921D02*
G01*
X115695181Y-100495793D01*
X115718853Y-100553918D01*
X115727454Y-100619254D01*
X115727456Y-100619262D01*
X115736335Y-100640699D01*
X115787964Y-100765341D01*
X115884218Y-100890782D01*
X115914640Y-100914125D01*
X115955841Y-100970552D01*
X115959996Y-101040298D01*
X115925783Y-101101219D01*
X115914646Y-101110869D01*
X115884218Y-101134218D01*
X115787963Y-101259660D01*
X115727456Y-101405737D01*
X115727456Y-101405739D01*
X115718853Y-101471081D01*
X115690586Y-101534978D01*
X115632261Y-101573448D01*
X115562396Y-101574279D01*
X115508233Y-101542576D01*
X115488852Y-101523195D01*
X115455367Y-101461872D01*
X115453596Y-101451718D01*
X115447544Y-101405738D01*
X115438662Y-101384297D01*
X115431194Y-101314828D01*
X115438664Y-101289390D01*
X115447055Y-101269132D01*
X115447055Y-101269130D01*
X115454512Y-101212500D01*
X115412000Y-101212500D01*
X115344961Y-101192815D01*
X115313625Y-101163987D01*
X115290783Y-101134219D01*
X115290782Y-101134218D01*
X115260360Y-101110874D01*
X115219158Y-101054449D01*
X115215003Y-100984703D01*
X115249214Y-100923782D01*
X115260351Y-100914131D01*
X115290782Y-100890782D01*
X115302521Y-100875482D01*
X115313625Y-100861013D01*
X115370053Y-100819810D01*
X115412000Y-100812500D01*
X115454510Y-100812500D01*
X115454511Y-100812498D01*
X115447058Y-100755877D01*
X115447054Y-100755865D01*
X115438663Y-100735606D01*
X115431194Y-100666137D01*
X115438664Y-100640699D01*
X115447544Y-100619262D01*
X115453595Y-100573298D01*
X115481859Y-100509404D01*
X115488840Y-100501815D01*
X115508235Y-100482420D01*
X115569556Y-100448937D01*
X115639248Y-100453921D01*
G37*
%TD.AperFunction*%
%TD*%
M02*
