M48
; DRILL file {KiCad 8.0.5} date 2025-02-17T00:09:09-0600
; FORMAT={-:-/ absolute / metric / decimal}
; #@! TF.CreationDate,2025-02-17T00:09:09-06:00
; #@! TF.GenerationSoftware,Kicad,Pcbnew,8.0.5
; #@! TF.FileFunction,Plated,1,2,PTH
FMAT,2
METRIC
; #@! TA.AperFunction,Plated,PTH,ViaDrill
T1C0.300
; #@! TA.AperFunction,Plated,PTH,ViaDrill
T2C0.400
; #@! TA.AperFunction,Plated,PTH,ComponentDrill
T3C1.000
; #@! TA.AperFunction,Plated,PTH,ComponentDrill
T4C1.020
; #@! TA.AperFunction,Plated,PTH,ComponentDrill
T5C1.021
; #@! TA.AperFunction,Plated,PTH,ComponentDrill
T6C1.780
%
G90
G05
T1
X55.75Y-74.0
X55.75Y-74.75
X55.75Y-75.5
X55.75Y-76.25
X55.75Y-77.0
X55.75Y-77.75
X55.75Y-78.5
X55.75Y-79.25
X55.75Y-80.0
X55.75Y-80.75
X55.75Y-81.5
X55.75Y-82.25
X55.75Y-83.0
X55.75Y-83.75
X55.75Y-84.5
X55.75Y-85.25
X55.75Y-86.0
X55.75Y-86.75
X55.75Y-87.5
X55.75Y-88.25
X55.75Y-89.0
X55.75Y-89.75
X55.75Y-90.5
X55.75Y-91.25
X55.75Y-92.0
X55.75Y-92.75
X55.75Y-93.5
X55.75Y-94.25
X55.75Y-95.0
X55.75Y-95.75
X55.75Y-96.5
X55.75Y-97.25
X55.75Y-98.0
X55.75Y-98.75
X55.75Y-99.5
X55.75Y-100.25
X55.75Y-101.0
X55.75Y-101.75
X55.75Y-102.5
X55.75Y-103.25
X55.75Y-104.0
X55.75Y-104.75
X55.75Y-105.5
X55.75Y-106.25
X56.5Y-74.0
X56.5Y-106.25
X57.25Y-74.0
X57.25Y-106.25
X58.0Y-74.0
X58.0Y-106.25
X58.75Y-74.0
X58.75Y-106.25
X59.5Y-74.0
X59.5Y-106.25
X60.25Y-74.0
X60.25Y-106.25
X61.0Y-74.0
X61.0Y-106.25
X61.75Y-74.0
X61.75Y-106.25
X62.5Y-74.0
X62.5Y-106.25
X63.25Y-74.0
X63.25Y-106.25
X64.0Y-74.0
X64.0Y-106.25
X64.75Y-74.0
X64.75Y-106.25
X65.5Y-74.0
X65.5Y-106.25
X66.25Y-74.0
X66.25Y-106.25
X67.0Y-74.0
X67.0Y-106.25
X67.75Y-106.25
X68.0Y-67.25
X68.5Y-106.25
X68.75Y-67.25
X69.25Y-106.25
X69.5Y-67.25
X70.0Y-106.25
X70.25Y-67.25
X70.75Y-106.25
X71.0Y-67.25
X71.5Y-106.25
X71.75Y-67.25
X72.25Y-106.25
X72.5Y-67.25
X73.0Y-106.25
X73.25Y-67.25
X73.75Y-106.25
X74.0Y-67.25
X74.5Y-106.25
X74.75Y-67.25
X75.25Y-106.25
X75.5Y-67.25
X76.0Y-106.25
X76.25Y-67.25
X76.75Y-106.25
X77.0Y-67.25
X77.5Y-106.25
X77.75Y-67.25
X78.25Y-106.25
X78.5Y-67.25
X79.0Y-106.25
X79.25Y-67.25
X79.25Y-86.5
X79.75Y-86.0
X79.75Y-106.25
X80.0Y-67.25
X80.25Y-85.5
X80.5Y-106.25
X80.75Y-67.25
X80.75Y-85.0
X81.0Y-89.75
X81.25Y-106.25
X81.5Y-67.25
X81.5Y-85.0
X81.5Y-89.25
X82.0Y-88.75
X82.0Y-106.25
X82.25Y-67.25
X82.5Y-88.25
X82.75Y-106.25
X83.0Y-67.25
X83.25Y-88.25
X83.5Y-106.25
X83.75Y-67.25
X84.25Y-106.25
X84.5Y-67.25
X85.0Y-106.25
X85.25Y-67.25
X85.75Y-106.25
X86.0Y-67.25
X86.5Y-106.25
X86.75Y-67.25
X87.25Y-106.25
X87.5Y-67.25
X87.5Y-84.25
X88.0Y-84.75
X88.0Y-106.25
X88.25Y-67.25
X88.25Y-81.75
X88.5Y-85.25
X88.75Y-82.25
X88.75Y-106.25
X89.0Y-67.25
X89.25Y-82.75
X89.5Y-106.25
X89.75Y-67.25
X90.25Y-106.25
X90.5Y-67.25
X91.0Y-106.25
X91.25Y-67.25
X91.75Y-106.25
X92.0Y-67.25
X92.5Y-106.25
X92.75Y-67.25
X93.5Y-67.25
X94.25Y-67.25
X95.0Y-67.25
X95.75Y-67.25
X96.5Y-67.25
X97.0Y-90.25
X97.25Y-67.25
X98.0Y-67.25
X98.75Y-67.25
X99.5Y-67.25
X100.25Y-67.25
X100.5Y-99.75
X101.0Y-67.25
X101.25Y-99.75
X101.75Y-67.25
X102.0Y-99.75
X102.5Y-67.25
X102.75Y-99.75
X103.25Y-67.25
X103.5Y-99.75
X104.0Y-67.25
X104.25Y-99.75
X104.75Y-67.25
X105.0Y-99.75
X105.5Y-67.25
X105.75Y-98.25
X105.75Y-99.0
X105.75Y-99.75
X111.25Y-55.0
X111.25Y-55.75
X111.25Y-56.5
X111.25Y-57.25
X111.25Y-58.0
X111.25Y-58.75
X111.25Y-59.5
X111.25Y-60.25
X111.25Y-61.0
X111.25Y-61.75
X111.25Y-62.5
X111.25Y-98.25
X111.25Y-100.75
X111.25Y-103.25
X111.25Y-106.25
X111.25Y-108.75
X111.25Y-109.5
X111.25Y-110.25
X111.25Y-111.0
X111.25Y-111.75
X111.75Y-54.5
X112.0Y-111.75
X112.25Y-54.0
X112.75Y-53.5
X112.75Y-111.75
X113.25Y-53.0
X113.5Y-111.75
X113.75Y-52.5
X114.25Y-52.0
X114.25Y-111.75
X114.75Y-51.5
X115.0Y-111.75
X115.25Y-51.0
X115.75Y-50.5
X115.75Y-111.75
X116.25Y-50.0
X116.5Y-111.75
X116.75Y-49.5
X117.25Y-49.0
X117.25Y-111.75
X117.75Y-48.5
X118.0Y-111.75
X118.25Y-48.0
X118.75Y-47.5
X118.75Y-111.75
X119.25Y-47.0
X119.75Y-46.5
X120.25Y-46.0
X120.75Y-45.5
X121.25Y-45.0
X121.75Y-44.5
X122.25Y-44.0
X122.25Y-88.0
X122.75Y-43.5
X122.75Y-88.5
X123.25Y-43.0
X123.25Y-89.0
X123.75Y-86.25
X123.75Y-89.5
X124.0Y-43.0
X124.25Y-86.75
X124.75Y-43.0
X124.75Y-87.25
X125.25Y-87.75
X125.5Y-43.0
X126.0Y-83.0
X126.0Y-83.75
X126.0Y-84.5
X126.0Y-85.25
X126.25Y-43.0
X127.0Y-43.0
X127.75Y-43.0
X128.25Y-83.0
X128.25Y-83.75
X128.25Y-84.5
X128.25Y-85.25
X128.5Y-43.0
X129.25Y-43.0
X129.635Y-94.5
X130.0Y-43.0
X130.75Y-43.0
X131.25Y-74.5
X131.25Y-75.25
X131.25Y-76.0
X131.25Y-76.75
X131.5Y-43.0
X132.25Y-43.0
X133.0Y-43.0
X133.5Y-74.5
X133.5Y-75.25
X133.5Y-76.0
X133.5Y-76.75
X133.75Y-43.0
X134.5Y-43.0
X135.25Y-43.0
X136.0Y-43.0
X136.75Y-43.0
X137.5Y-43.0
X138.25Y-43.0
X139.0Y-43.0
X139.75Y-43.0
X140.5Y-43.0
X140.5Y-111.75
X141.25Y-43.0
X141.25Y-111.75
X142.0Y-43.0
X142.0Y-111.75
X142.75Y-43.0
X142.75Y-111.75
X143.5Y-43.0
X143.5Y-111.75
X144.25Y-43.0
X144.25Y-111.75
X145.0Y-43.0
X145.0Y-111.75
X145.75Y-43.0
X145.75Y-111.75
X146.5Y-43.0
X146.5Y-111.75
X147.25Y-43.0
X147.25Y-111.75
X148.0Y-43.0
X148.0Y-111.75
X148.75Y-43.0
X148.75Y-111.75
X149.5Y-43.0
X149.5Y-111.75
X150.25Y-43.0
X150.25Y-111.75
X151.0Y-43.0
X151.0Y-111.75
X151.75Y-43.0
X151.75Y-111.75
X152.5Y-43.0
X152.5Y-111.75
X153.25Y-43.0
X153.25Y-111.75
X154.0Y-43.0
X154.0Y-111.75
X154.75Y-43.0
X154.75Y-111.75
X155.5Y-43.0
X155.5Y-111.75
X156.25Y-43.0
X156.25Y-111.75
X157.0Y-43.0
X157.0Y-111.75
X157.75Y-43.0
X157.75Y-111.75
X158.5Y-43.0
X158.5Y-111.75
X159.25Y-43.25
X159.25Y-111.75
X160.0Y-43.75
X160.0Y-111.75
X160.5Y-44.5
X160.75Y-45.25
X160.75Y-46.0
X160.75Y-46.75
X160.75Y-47.5
X160.75Y-48.25
X160.75Y-49.0
X160.75Y-49.75
X160.75Y-50.5
X160.75Y-51.25
X160.75Y-52.0
X160.75Y-52.75
X160.75Y-53.5
X160.75Y-54.25
X160.75Y-55.0
X160.75Y-55.75
X160.75Y-56.5
X160.75Y-57.25
X160.75Y-58.0
X160.75Y-68.75
X160.75Y-69.5
X160.75Y-70.25
X160.75Y-71.0
X160.75Y-71.75
X160.75Y-72.5
X160.75Y-73.25
X160.75Y-80.0
X160.75Y-80.75
X160.75Y-81.5
X160.75Y-82.25
X160.75Y-83.0
X160.75Y-83.75
X160.75Y-84.5
X160.75Y-85.25
X160.75Y-92.5
X160.75Y-93.25
X160.75Y-94.0
X160.75Y-94.75
X160.75Y-95.5
X160.75Y-96.25
X160.75Y-107.25
X160.75Y-108.0
X160.75Y-108.75
X160.75Y-109.5
X160.75Y-110.25
X160.75Y-111.0
X160.75Y-111.75
T2
X59.05Y-78.33
X59.05Y-83.83
X64.55Y-83.83
X68.25Y-75.88
X68.757Y-95.29
X71.729Y-95.336
X76.22Y-97.14
X76.87Y-92.32
X77.087Y-78.04
X80.05Y-77.953
X80.757Y-95.29
X83.682Y-95.29
X84.55Y-76.25
X84.75Y-82.83
X85.212Y-81.29
X89.05Y-77.953
X92.013Y-78.04
X101.8Y-91.465
X105.212Y-88.75
X105.212Y-94.0
X105.3Y-80.13
X105.93Y-76.215
X105.93Y-86.33
X105.987Y-72.83
X111.01Y-76.215
X111.8Y-89.1
X111.8Y-94.3
X113.5Y-102.0
X113.5Y-107.5
X114.0Y-61.5
X115.462Y-91.58
X115.462Y-96.83
X117.412Y-91.58
X122.837Y-104.25
X124.662Y-104.25
X125.825Y-108.0
X128.125Y-104.2
X128.125Y-108.45
X130.025Y-104.2
X130.025Y-108.45
X131.375Y-98.95
X131.825Y-107.887
X131.875Y-104.2
X132.375Y-94.7
X133.825Y-107.887
X133.825Y-110.012
X139.0Y-66.862
X139.0Y-79.612
X139.0Y-92.362
X140.0Y-51.05
X140.0Y-53.48
X142.5Y-58.7
X142.5Y-71.45
X142.5Y-84.2
X142.5Y-96.95
X146.75Y-59.75
X146.75Y-72.5
X146.75Y-85.25
X146.75Y-98.0
X147.75Y-53.48
X150.938Y-60.25
X150.938Y-72.95
X150.938Y-85.7
X150.938Y-98.45
T3
X119.025Y-102.225
X119.025Y-104.765
T4
X73.22Y-102.04
X76.22Y-102.04
X79.22Y-102.04
X81.55Y-71.29
X84.55Y-71.29
X87.55Y-71.29
X124.0Y-114.5
X124.0Y-126.0
X127.0Y-114.5
X127.0Y-126.0
X130.0Y-114.5
X130.0Y-126.0
X133.0Y-114.5
X133.0Y-126.0
X145.5Y-64.0
X145.5Y-76.7
X145.5Y-89.45
X145.5Y-102.2
X145.75Y-50.5
X148.5Y-64.0
X148.5Y-76.7
X148.5Y-89.45
X148.5Y-102.2
X148.75Y-50.5
X151.5Y-64.0
X151.5Y-76.7
X151.5Y-89.45
X151.5Y-102.2
X154.5Y-64.0
X154.5Y-76.7
X154.5Y-89.45
X154.5Y-102.2
T5
X119.88Y-53.48
X119.88Y-56.02
X119.88Y-58.56
X119.88Y-61.1
X119.88Y-63.64
X119.88Y-66.18
X119.88Y-68.72
X119.88Y-71.26
X119.88Y-73.8
X119.88Y-76.34
X119.88Y-78.88
X119.88Y-81.42
X119.88Y-83.96
X119.88Y-86.5
X119.88Y-89.04
X135.12Y-53.48
X135.12Y-56.02
X135.12Y-58.56
X135.12Y-61.1
X135.12Y-63.64
X135.12Y-66.18
X135.12Y-68.72
X135.12Y-71.26
X135.12Y-73.8
X135.12Y-76.34
X135.12Y-78.88
X135.12Y-81.42
X135.12Y-83.96
X135.12Y-86.5
X135.12Y-89.04
T6
X62.52Y-91.79
X62.52Y-101.71
X65.92Y-91.79
X65.92Y-101.71
X70.85Y-71.58
X70.85Y-81.5
X74.25Y-71.58
X74.25Y-81.5
X86.47Y-91.83
X86.47Y-101.75
X89.87Y-91.83
X89.87Y-101.75
X94.85Y-71.58
X94.85Y-81.5
X98.25Y-71.58
X98.25Y-81.5
M30
