M48
; DRILL file {KiCad 8.0.5} date 2024-11-25T01:02:43-0600
; FORMAT={-:-/ absolute / metric / decimal}
; #@! TF.CreationDate,2024-11-25T01:02:43-06:00
; #@! TF.GenerationSoftware,Kicad,Pcbnew,8.0.5
; #@! TF.FileFunction,Plated,1,2,PTH
FMAT,2
METRIC
; #@! TA.AperFunction,Plated,PTH,ViaDrill
T1C0.400
; #@! TA.AperFunction,Plated,PTH,ComponentDrill
T2C1.020
%
G90
G05
T1
X107.5Y-77.75
X107.5Y-78.75
X107.5Y-79.75
X107.5Y-83.25
X107.5Y-84.25
X107.5Y-85.25
X107.5Y-86.25
X107.5Y-89.75
X107.5Y-90.75
X107.5Y-91.75
X107.5Y-98.25
X107.5Y-101.5
X107.5Y-108.25
X107.5Y-109.25
X107.5Y-112.75
X108.5Y-77.75
X109.5Y-77.75
X110.5Y-77.75
X111.5Y-77.75
X111.5Y-112.75
X112.5Y-77.75
X112.5Y-112.75
X113.5Y-77.75
X113.5Y-112.75
X113.575Y-93.888
X113.575Y-106.112
X114.5Y-77.75
X114.5Y-112.75
X115.5Y-77.75
X115.6Y-101.013
X116.0Y-81.5
X116.487Y-106.15
X116.5Y-77.75
X117.5Y-77.75
X117.5Y-97.9
X118.3Y-101.688
X118.5Y-77.75
X118.5Y-90.5
X118.5Y-95.662
X118.5Y-112.75
X119.25Y-99.812
X119.5Y-77.75
X119.5Y-112.75
X120.0Y-83.562
X120.47Y-104.05
X120.5Y-77.75
X120.5Y-112.75
X121.5Y-77.75
X121.5Y-112.75
X122.5Y-77.75
X123.5Y-77.75
X123.5Y-105.0
X124.062Y-96.965
X124.5Y-77.75
X124.75Y-90.05
X130.25Y-77.75
X130.25Y-85.25
X130.25Y-86.25
X130.25Y-87.25
X130.25Y-88.25
X130.25Y-90.25
X130.25Y-91.25
X130.25Y-92.25
X130.25Y-93.25
X130.25Y-94.25
X130.25Y-95.25
X130.438Y-98.235
X131.25Y-77.75
X131.25Y-110.75
X132.25Y-77.75
X133.25Y-77.75
X133.75Y-112.75
X134.25Y-77.75
X134.75Y-112.75
X135.25Y-77.75
X135.25Y-99.635
X135.425Y-84.75
X135.55Y-104.737
X135.55Y-110.188
X135.75Y-112.75
X136.25Y-77.75
X136.75Y-112.75
X137.25Y-77.75
X137.75Y-112.75
X138.25Y-77.75
X138.75Y-112.75
X139.062Y-84.75
X139.25Y-77.75
X139.75Y-112.75
X140.75Y-112.75
X141.75Y-112.75
X142.75Y-77.75
X142.75Y-112.75
X143.75Y-77.75
X143.75Y-112.75
X144.75Y-77.75
X144.75Y-78.75
X144.75Y-79.75
X144.75Y-80.75
X144.75Y-81.75
X144.75Y-82.75
X144.75Y-83.75
X144.75Y-84.75
X144.75Y-85.75
X144.75Y-86.75
X144.75Y-87.75
X144.75Y-88.75
X144.75Y-92.0
X144.75Y-95.25
X144.75Y-96.25
X144.75Y-97.25
X144.75Y-98.25
X144.75Y-99.25
X144.75Y-100.25
X144.75Y-101.25
X144.75Y-102.25
X144.75Y-103.25
X144.75Y-106.25
X144.75Y-108.75
X144.75Y-109.75
X144.75Y-110.75
X144.75Y-111.75
X144.75Y-112.75
T2
X110.267Y-97.012
X110.267Y-100.012
X110.267Y-103.012
X139.8Y-90.75
X139.8Y-93.75
X139.8Y-104.75
X139.8Y-107.75
M30
