G04 #@! TF.GenerationSoftware,KiCad,Pcbnew,8.0.5*
G04 #@! TF.CreationDate,2025-01-06T01:12:58-06:00*
G04 #@! TF.ProjectId,ActivePrecharge,41637469-7665-4507-9265-636861726765,rev?*
G04 #@! TF.SameCoordinates,Original*
G04 #@! TF.FileFunction,Soldermask,Top*
G04 #@! TF.FilePolarity,Negative*
%FSLAX46Y46*%
G04 Gerber Fmt 4.6, Leading zero omitted, Abs format (unit mm)*
G04 Created by KiCad (PCBNEW 8.0.5) date 2025-01-06 01:12:58*
%MOMM*%
%LPD*%
G01*
G04 APERTURE LIST*
G04 Aperture macros list*
%AMRoundRect*
0 Rectangle with rounded corners*
0 $1 Rounding radius*
0 $2 $3 $4 $5 $6 $7 $8 $9 X,Y pos of 4 corners*
0 Add a 4 corners polygon primitive as box body*
4,1,4,$2,$3,$4,$5,$6,$7,$8,$9,$2,$3,0*
0 Add four circle primitives for the rounded corners*
1,1,$1+$1,$2,$3*
1,1,$1+$1,$4,$5*
1,1,$1+$1,$6,$7*
1,1,$1+$1,$8,$9*
0 Add four rect primitives between the rounded corners*
20,1,$1+$1,$2,$3,$4,$5,0*
20,1,$1+$1,$4,$5,$6,$7,0*
20,1,$1+$1,$6,$7,$8,$9,0*
20,1,$1+$1,$8,$9,$2,$3,0*%
%AMFreePoly0*
4,1,7,1.500000,0.866025,1.500000,-0.866025,0.000000,-1.732051,-1.500000,-0.866025,-1.500000,0.866025,0.000000,1.732051,1.500000,0.866025,1.500000,0.866025,$1*%
G04 Aperture macros list end*
%ADD10RoundRect,0.150000X-0.150000X0.587500X-0.150000X-0.587500X0.150000X-0.587500X0.150000X0.587500X0*%
%ADD11RoundRect,0.243750X-0.456250X0.243750X-0.456250X-0.243750X0.456250X-0.243750X0.456250X0.243750X0*%
%ADD12RoundRect,0.250000X-0.625000X0.312500X-0.625000X-0.312500X0.625000X-0.312500X0.625000X0.312500X0*%
%ADD13FreePoly0,90.000000*%
%ADD14RoundRect,0.250000X0.450000X-0.262500X0.450000X0.262500X-0.450000X0.262500X-0.450000X-0.262500X0*%
%ADD15RoundRect,0.150000X-0.662500X-0.150000X0.662500X-0.150000X0.662500X0.150000X-0.662500X0.150000X0*%
%ADD16C,3.200000*%
%ADD17RoundRect,0.250000X0.262500X0.450000X-0.262500X0.450000X-0.262500X-0.450000X0.262500X-0.450000X0*%
%ADD18RoundRect,0.243750X0.243750X0.456250X-0.243750X0.456250X-0.243750X-0.456250X0.243750X-0.456250X0*%
%ADD19C,2.780000*%
%ADD20C,3.000000*%
%ADD21RoundRect,0.243750X-0.243750X-0.456250X0.243750X-0.456250X0.243750X0.456250X-0.243750X0.456250X0*%
%ADD22R,1.000000X2.100000*%
%ADD23RoundRect,0.100000X-0.225000X-0.100000X0.225000X-0.100000X0.225000X0.100000X-0.225000X0.100000X0*%
%ADD24RoundRect,0.250000X-0.250000X-0.475000X0.250000X-0.475000X0.250000X0.475000X-0.250000X0.475000X0*%
%ADD25C,1.270000*%
%ADD26C,1.700000*%
%ADD27C,1.066800*%
%ADD28C,1.574800*%
G04 APERTURE END LIST*
D10*
X118937500Y-103812500D03*
X117037500Y-103812500D03*
X117987500Y-105687500D03*
D11*
X120000000Y-81687500D03*
X120000000Y-83562500D03*
D12*
X113487500Y-95087500D03*
X113487500Y-98012500D03*
D13*
X116000000Y-83250000D03*
D12*
X113537500Y-107637500D03*
X113537500Y-110562500D03*
D13*
X123500000Y-105000000D03*
X132250000Y-109750000D03*
X123500000Y-113750000D03*
D14*
X124060000Y-97312500D03*
X124060000Y-95487500D03*
D15*
X124062500Y-99115000D03*
X124062500Y-100385000D03*
X130437500Y-100385000D03*
X130437500Y-99115000D03*
D13*
X111250000Y-83250000D03*
X132250000Y-105250000D03*
D16*
X103525000Y-126390000D03*
D17*
X115400000Y-99800000D03*
X113575000Y-99800000D03*
D18*
X141687500Y-79500000D03*
X139812500Y-79500000D03*
D19*
X107327500Y-88850000D03*
X107327500Y-92250000D03*
X117247500Y-88850000D03*
X117247500Y-92250000D03*
D20*
X142000000Y-129000000D03*
D21*
X139345498Y-96000000D03*
X141220498Y-96000000D03*
D22*
X132370000Y-79950000D03*
X129830000Y-79950000D03*
X124750000Y-79950000D03*
X124750000Y-90050000D03*
X132370000Y-90050000D03*
D13*
X123500000Y-110250000D03*
X106500000Y-83250000D03*
X132250000Y-94500000D03*
D16*
X82085000Y-86720000D03*
D19*
X107327500Y-113350000D03*
X107327500Y-116750000D03*
X117247500Y-113350000D03*
X117247500Y-116750000D03*
D23*
X113537500Y-102650000D03*
X113537500Y-103300000D03*
X113537500Y-103950000D03*
X115437500Y-103950000D03*
X115437500Y-102650000D03*
D20*
X142000000Y-72500000D03*
D24*
X117837500Y-101550000D03*
X119737500Y-101550000D03*
D25*
X143500000Y-117760000D03*
X131500000Y-117760000D03*
D26*
X140500000Y-115800000D03*
X137500000Y-115800000D03*
X134500000Y-115800000D03*
D27*
X137560000Y-110249997D03*
X137560000Y-98250001D03*
D28*
X141500000Y-101250000D03*
X141500000Y-104249999D03*
X141500000Y-107249998D03*
X138500001Y-101250000D03*
X138500001Y-104249999D03*
X138500001Y-107249998D03*
D25*
X105077500Y-109300000D03*
X105077500Y-97300000D03*
D26*
X107037500Y-106300000D03*
X107037500Y-103300000D03*
X107037500Y-100300000D03*
D25*
X142510000Y-82250000D03*
X142510000Y-91250000D03*
D26*
X140550000Y-85250000D03*
X140550000Y-88250000D03*
M02*
