%TF.GenerationSoftware,KiCad,Pcbnew,8.0.5*%
%TF.CreationDate,2024-11-25T00:57:53-06:00*%
%TF.ProjectId,ActivePrecharge,41637469-7665-4507-9265-636861726765,rev?*%
%TF.SameCoordinates,Original*%
%TF.FileFunction,Soldermask,Bot*%
%TF.FilePolarity,Negative*%
%FSLAX46Y46*%
G04 Gerber Fmt 4.6, Leading zero omitted, Abs format (unit mm)*
G04 Created by KiCad (PCBNEW 8.0.5) date 2024-11-25 00:57:53*
%MOMM*%
%LPD*%
G01*
G04 APERTURE LIST*
G04 Aperture macros list*
%AMRoundRect*
0 Rectangle with rounded corners*
0 $1 Rounding radius*
0 $2 $3 $4 $5 $6 $7 $8 $9 X,Y pos of 4 corners*
0 Add a 4 corners polygon primitive as box body*
4,1,4,$2,$3,$4,$5,$6,$7,$8,$9,$2,$3,0*
0 Add four circle primitives for the rounded corners*
1,1,$1+$1,$2,$3*
1,1,$1+$1,$4,$5*
1,1,$1+$1,$6,$7*
1,1,$1+$1,$8,$9*
0 Add four rect primitives between the rounded corners*
20,1,$1+$1,$2,$3,$4,$5,0*
20,1,$1+$1,$4,$5,$6,$7,0*
20,1,$1+$1,$6,$7,$8,$9,0*
20,1,$1+$1,$8,$9,$2,$3,0*%
G04 Aperture macros list end*
%ADD10RoundRect,0.150000X-0.150000X0.512500X-0.150000X-0.512500X0.150000X-0.512500X0.150000X0.512500X0*%
%ADD11C,1.270000*%
%ADD12C,1.700000*%
%ADD13C,3.000000*%
%ADD14C,3.200000*%
%ADD15RoundRect,0.150000X-0.150000X0.587500X-0.150000X-0.587500X0.150000X-0.587500X0.150000X0.587500X0*%
%ADD16RoundRect,0.150000X0.150000X-0.587500X0.150000X0.587500X-0.150000X0.587500X-0.150000X-0.587500X0*%
%ADD17RoundRect,0.250000X0.450000X-0.262500X0.450000X0.262500X-0.450000X0.262500X-0.450000X-0.262500X0*%
%ADD18RoundRect,0.250000X-0.312500X-0.625000X0.312500X-0.625000X0.312500X0.625000X-0.312500X0.625000X0*%
%ADD19R,1.220000X0.910000*%
%ADD20RoundRect,0.250000X0.300000X0.300000X-0.300000X0.300000X-0.300000X-0.300000X0.300000X-0.300000X0*%
%ADD21RoundRect,0.250000X0.475000X-0.250000X0.475000X0.250000X-0.475000X0.250000X-0.475000X-0.250000X0*%
%ADD22RoundRect,0.250000X-0.475000X0.250000X-0.475000X-0.250000X0.475000X-0.250000X0.475000X0.250000X0*%
%ADD23R,1.890000X1.140000*%
%ADD24RoundRect,0.250000X-0.262500X-0.450000X0.262500X-0.450000X0.262500X0.450000X-0.262500X0.450000X0*%
%ADD25RoundRect,0.250000X0.262500X0.450000X-0.262500X0.450000X-0.262500X-0.450000X0.262500X-0.450000X0*%
%ADD26RoundRect,0.250000X-0.450000X0.262500X-0.450000X-0.262500X0.450000X-0.262500X0.450000X0.262500X0*%
%ADD27RoundRect,0.250000X-0.300000X-0.300000X0.300000X-0.300000X0.300000X0.300000X-0.300000X0.300000X0*%
G04 APERTURE END LIST*
D10*
%TO.C,Q4*%
X137300000Y-96862500D03*
X139200000Y-96862500D03*
X138250000Y-99137500D03*
%TD*%
D11*
%TO.C,J3*%
X141760000Y-101750000D03*
X141760000Y-110750000D03*
D12*
X139800000Y-104750000D03*
X139800000Y-107750000D03*
%TD*%
D13*
%TO.C,H3*%
X85520000Y-124000000D03*
%TD*%
D14*
%TO.C,RH2*%
X106960000Y-122010000D03*
%TD*%
D13*
%TO.C,H2*%
X141000000Y-124000000D03*
%TD*%
D14*
%TO.C,RH1*%
X85520000Y-82340000D03*
%TD*%
D13*
%TO.C,H4*%
X85520000Y-72500000D03*
%TD*%
%TO.C,H1*%
X141000000Y-72500000D03*
%TD*%
D11*
%TO.C,J1*%
X108307500Y-106012500D03*
X108307500Y-94012500D03*
D12*
X110267500Y-103012500D03*
X110267500Y-100012500D03*
X110267500Y-97012500D03*
%TD*%
D11*
%TO.C,J2*%
X141760000Y-87750000D03*
X141760000Y-96750000D03*
D12*
X139800000Y-90750000D03*
X139800000Y-93750000D03*
%TD*%
D15*
%TO.C,Q3*%
X130500000Y-105062500D03*
X132400000Y-105062500D03*
X131450000Y-106937500D03*
%TD*%
D16*
%TO.C,Q1*%
X119250000Y-99812500D03*
X118300000Y-101687500D03*
X120200000Y-101687500D03*
%TD*%
D17*
%TO.C,R2*%
X118475000Y-88637500D03*
X118475000Y-90462500D03*
%TD*%
D18*
%TO.C,R6*%
X115347500Y-93860000D03*
X118272500Y-93860000D03*
%TD*%
D19*
%TO.C,D4*%
X135250000Y-99635000D03*
X135250000Y-96365000D03*
%TD*%
D20*
%TO.C,D3*%
X113587500Y-106112500D03*
X110787500Y-106112500D03*
%TD*%
D21*
%TO.C,C4*%
X136840000Y-93200000D03*
X136840000Y-91300000D03*
%TD*%
%TO.C,C1*%
X120500000Y-88600000D03*
X120500000Y-90500000D03*
%TD*%
D22*
%TO.C,C2*%
X118487500Y-106112500D03*
X118487500Y-108012500D03*
%TD*%
D23*
%TO.C,D5*%
X135550000Y-104750000D03*
X135550000Y-108950000D03*
%TD*%
D21*
%TO.C,C3*%
X134750000Y-93200000D03*
X134750000Y-91300000D03*
%TD*%
D24*
%TO.C,R11*%
X130487500Y-102937500D03*
X132312500Y-102937500D03*
%TD*%
D25*
%TO.C,R7*%
X122012500Y-93875000D03*
X120187500Y-93875000D03*
%TD*%
D24*
%TO.C,R13*%
X135425000Y-84750000D03*
X137250000Y-84750000D03*
%TD*%
D20*
%TO.C,D2*%
X113587500Y-93862500D03*
X110787500Y-93862500D03*
%TD*%
D25*
%TO.C,R9*%
X121802500Y-83550000D03*
X119977500Y-83550000D03*
%TD*%
D26*
%TO.C,R4*%
X116487500Y-106150000D03*
X116487500Y-107975000D03*
%TD*%
%TO.C,R10*%
X132500000Y-91337500D03*
X132500000Y-93162500D03*
%TD*%
D27*
%TO.C,D1*%
X112837500Y-100000000D03*
X115637500Y-100000000D03*
%TD*%
M02*
