M48
; DRILL file {KiCad 8.0.5} date 2025-01-06T01:13:17-0600
; FORMAT={-:-/ absolute / metric / decimal}
; #@! TF.CreationDate,2025-01-06T01:13:17-06:00
; #@! TF.GenerationSoftware,Kicad,Pcbnew,8.0.5
; #@! TF.FileFunction,Plated,1,2,PTH
FMAT,2
METRIC
; #@! TA.AperFunction,Plated,PTH,ViaDrill
T1C0.400
; #@! TA.AperFunction,Plated,PTH,ComponentDrill
T2C1.020
; #@! TA.AperFunction,Plated,PTH,ComponentDrill
T3C1.067
; #@! TA.AperFunction,Plated,PTH,ComponentDrill
T4C1.780
%
G90
G05
T1
X103.75Y-78.0
X103.75Y-79.0
X103.75Y-80.0
X103.75Y-81.0
X103.75Y-82.0
X103.75Y-83.0
X103.75Y-84.0
X103.75Y-85.0
X103.75Y-86.0
X103.75Y-87.0
X103.75Y-88.0
X103.75Y-89.0
X103.75Y-90.0
X103.75Y-91.0
X103.75Y-92.0
X103.75Y-93.0
X103.75Y-94.0
X103.75Y-95.0
X103.75Y-96.0
X103.75Y-98.5
X103.75Y-101.75
X103.75Y-105.0
X103.75Y-108.0
X103.75Y-110.75
X103.75Y-111.75
X103.75Y-112.75
X103.75Y-113.75
X103.75Y-114.75
X103.75Y-115.75
X103.75Y-116.75
X103.75Y-117.75
X103.75Y-118.75
X104.75Y-78.0
X104.75Y-118.75
X105.75Y-78.0
X106.75Y-78.0
X107.75Y-78.0
X108.75Y-78.0
X109.75Y-78.0
X109.75Y-118.75
X110.75Y-78.0
X110.75Y-118.75
X111.75Y-78.0
X111.75Y-118.75
X111.938Y-103.3
X112.75Y-78.0
X112.75Y-118.75
X113.487Y-95.087
X113.537Y-107.637
X113.537Y-110.562
X113.575Y-99.8
X113.75Y-78.0
X113.75Y-118.75
X114.75Y-78.0
X114.75Y-118.75
X115.4Y-99.8
X115.4Y-105.8
X115.75Y-78.0
X116.0Y-83.25
X116.75Y-78.0
X117.037Y-103.812
X117.75Y-78.0
X118.75Y-78.0
X118.938Y-103.812
X119.75Y-78.0
X120.0Y-83.562
X120.5Y-118.75
X120.75Y-78.0
X121.0Y-106.2
X121.45Y-101.3
X121.5Y-118.75
X121.75Y-78.0
X122.5Y-118.75
X122.75Y-78.0
X123.5Y-105.0
X123.5Y-118.75
X123.75Y-78.0
X124.06Y-99.112
X124.5Y-118.75
X124.75Y-90.05
X130.438Y-100.385
X132.25Y-109.75
X132.37Y-79.95
X134.0Y-118.75
X134.588Y-82.25
X135.0Y-118.75
X135.25Y-93.0
X135.25Y-94.0
X135.25Y-95.0
X135.25Y-96.0
X135.25Y-97.0
X135.25Y-98.0
X136.0Y-118.75
X137.0Y-118.75
X138.0Y-77.75
X138.0Y-118.75
X139.0Y-77.75
X139.0Y-118.75
X139.812Y-79.5
X140.0Y-77.75
X140.0Y-118.75
X141.0Y-77.75
X141.0Y-118.75
X142.0Y-77.75
X142.75Y-93.337
X143.0Y-77.75
X143.512Y-98.2
X144.0Y-77.75
X145.0Y-77.75
X145.0Y-78.75
X145.0Y-79.75
X145.0Y-80.75
X145.0Y-81.75
X145.0Y-82.75
X145.0Y-83.75
X145.0Y-86.5
X145.0Y-89.75
X145.0Y-90.75
X145.0Y-91.75
X145.0Y-92.75
X145.0Y-93.75
X145.0Y-94.75
X145.0Y-97.5
X145.0Y-101.25
X145.0Y-107.0
X145.0Y-110.75
X145.0Y-111.75
X145.0Y-112.75
T2
X107.037Y-100.3
X107.037Y-103.3
X107.037Y-106.3
X134.5Y-115.8
X137.5Y-115.8
X140.5Y-115.8
X140.55Y-85.25
X140.55Y-88.25
T3
X138.5Y-101.25
X138.5Y-104.25
X138.5Y-107.25
X141.5Y-101.25
X141.5Y-104.25
X141.5Y-107.25
T4
X107.328Y-88.85
X107.328Y-92.25
X107.328Y-113.35
X107.328Y-116.75
X117.247Y-88.85
X117.247Y-92.25
X117.247Y-113.35
X117.247Y-116.75
M30
