G04 #@! TF.GenerationSoftware,KiCad,Pcbnew,8.0.5*
G04 #@! TF.CreationDate,2025-01-06T01:12:58-06:00*
G04 #@! TF.ProjectId,ActivePrecharge,41637469-7665-4507-9265-636861726765,rev?*
G04 #@! TF.SameCoordinates,Original*
G04 #@! TF.FileFunction,Paste,Bot*
G04 #@! TF.FilePolarity,Positive*
%FSLAX46Y46*%
G04 Gerber Fmt 4.6, Leading zero omitted, Abs format (unit mm)*
G04 Created by KiCad (PCBNEW 8.0.5) date 2025-01-06 01:12:58*
%MOMM*%
%LPD*%
G01*
G04 APERTURE LIST*
G04 Aperture macros list*
%AMRoundRect*
0 Rectangle with rounded corners*
0 $1 Rounding radius*
0 $2 $3 $4 $5 $6 $7 $8 $9 X,Y pos of 4 corners*
0 Add a 4 corners polygon primitive as box body*
4,1,4,$2,$3,$4,$5,$6,$7,$8,$9,$2,$3,0*
0 Add four circle primitives for the rounded corners*
1,1,$1+$1,$2,$3*
1,1,$1+$1,$4,$5*
1,1,$1+$1,$6,$7*
1,1,$1+$1,$8,$9*
0 Add four rect primitives between the rounded corners*
20,1,$1+$1,$2,$3,$4,$5,0*
20,1,$1+$1,$4,$5,$6,$7,0*
20,1,$1+$1,$6,$7,$8,$9,0*
20,1,$1+$1,$8,$9,$2,$3,0*%
G04 Aperture macros list end*
%ADD10RoundRect,0.150000X-0.150000X0.587500X-0.150000X-0.587500X0.150000X-0.587500X0.150000X0.587500X0*%
%ADD11RoundRect,0.250000X0.262500X0.450000X-0.262500X0.450000X-0.262500X-0.450000X0.262500X-0.450000X0*%
%ADD12RoundRect,0.250000X-0.625000X0.312500X-0.625000X-0.312500X0.625000X-0.312500X0.625000X0.312500X0*%
%ADD13R,0.910000X1.220000*%
%ADD14RoundRect,0.250000X-0.300000X0.300000X-0.300000X-0.300000X0.300000X-0.300000X0.300000X0.300000X0*%
%ADD15RoundRect,0.250000X0.475000X-0.250000X0.475000X0.250000X-0.475000X0.250000X-0.475000X-0.250000X0*%
%ADD16RoundRect,0.250000X0.250000X0.475000X-0.250000X0.475000X-0.250000X-0.475000X0.250000X-0.475000X0*%
%ADD17R,1.890000X1.140000*%
%ADD18RoundRect,0.150000X0.150000X-0.512500X0.150000X0.512500X-0.150000X0.512500X-0.150000X-0.512500X0*%
%ADD19RoundRect,0.250000X-0.262500X-0.450000X0.262500X-0.450000X0.262500X0.450000X-0.262500X0.450000X0*%
%ADD20RoundRect,0.250000X0.300000X-0.300000X0.300000X0.300000X-0.300000X0.300000X-0.300000X-0.300000X0*%
%ADD21RoundRect,0.250000X-0.450000X0.262500X-0.450000X-0.262500X0.450000X-0.262500X0.450000X0.262500X0*%
%ADD22RoundRect,0.250000X-0.300000X-0.300000X0.300000X-0.300000X0.300000X0.300000X-0.300000X0.300000X0*%
G04 APERTURE END LIST*
D10*
X130500000Y-102806250D03*
X132400000Y-102806250D03*
X131450000Y-104681250D03*
D11*
X113587500Y-99793750D03*
X111762500Y-99793750D03*
D12*
X119537500Y-96587500D03*
X119537500Y-99512500D03*
D13*
X137365000Y-95500000D03*
X140635000Y-95500000D03*
D14*
X113537500Y-110550000D03*
X113537500Y-113350000D03*
D15*
X137590000Y-87700000D03*
X137590000Y-85800000D03*
D16*
X113625000Y-97768750D03*
X111725000Y-97768750D03*
X113487500Y-105550000D03*
X111587500Y-105550000D03*
D17*
X135467001Y-102000000D03*
X135467001Y-106200000D03*
D15*
X135500000Y-87700000D03*
X135500000Y-85800000D03*
D11*
X142412500Y-112750000D03*
X140587500Y-112750000D03*
D18*
X139500000Y-91112500D03*
X138550000Y-93387500D03*
X140450000Y-93387500D03*
D19*
X130487500Y-100681250D03*
X132312500Y-100681250D03*
D11*
X121450000Y-101300000D03*
X119625000Y-101300000D03*
D19*
X134587500Y-82250000D03*
X136412500Y-82250000D03*
D20*
X114287500Y-95050000D03*
X114287500Y-92250000D03*
D11*
X141687500Y-98200000D03*
X143512500Y-98200000D03*
X121802500Y-83550000D03*
X119977500Y-83550000D03*
X113450000Y-107550000D03*
X111625000Y-107550000D03*
D21*
X142750000Y-93337500D03*
X142750000Y-95162500D03*
D22*
X109137500Y-103300000D03*
X111937500Y-103300000D03*
M02*
