G04 #@! TF.GenerationSoftware,KiCad,Pcbnew,8.0.5*
G04 #@! TF.CreationDate,2025-01-06T01:12:58-06:00*
G04 #@! TF.ProjectId,ActivePrecharge,41637469-7665-4507-9265-636861726765,rev?*
G04 #@! TF.SameCoordinates,Original*
G04 #@! TF.FileFunction,Soldermask,Bot*
G04 #@! TF.FilePolarity,Negative*
%FSLAX46Y46*%
G04 Gerber Fmt 4.6, Leading zero omitted, Abs format (unit mm)*
G04 Created by KiCad (PCBNEW 8.0.5) date 2025-01-06 01:12:58*
%MOMM*%
%LPD*%
G01*
G04 APERTURE LIST*
G04 Aperture macros list*
%AMRoundRect*
0 Rectangle with rounded corners*
0 $1 Rounding radius*
0 $2 $3 $4 $5 $6 $7 $8 $9 X,Y pos of 4 corners*
0 Add a 4 corners polygon primitive as box body*
4,1,4,$2,$3,$4,$5,$6,$7,$8,$9,$2,$3,0*
0 Add four circle primitives for the rounded corners*
1,1,$1+$1,$2,$3*
1,1,$1+$1,$4,$5*
1,1,$1+$1,$6,$7*
1,1,$1+$1,$8,$9*
0 Add four rect primitives between the rounded corners*
20,1,$1+$1,$2,$3,$4,$5,0*
20,1,$1+$1,$4,$5,$6,$7,0*
20,1,$1+$1,$6,$7,$8,$9,0*
20,1,$1+$1,$8,$9,$2,$3,0*%
G04 Aperture macros list end*
%ADD10C,3.200000*%
%ADD11C,2.780000*%
%ADD12C,3.000000*%
%ADD13C,1.270000*%
%ADD14C,1.700000*%
%ADD15C,1.066800*%
%ADD16C,1.574800*%
%ADD17RoundRect,0.150000X-0.150000X0.587500X-0.150000X-0.587500X0.150000X-0.587500X0.150000X0.587500X0*%
%ADD18RoundRect,0.250000X0.262500X0.450000X-0.262500X0.450000X-0.262500X-0.450000X0.262500X-0.450000X0*%
%ADD19RoundRect,0.250000X-0.625000X0.312500X-0.625000X-0.312500X0.625000X-0.312500X0.625000X0.312500X0*%
%ADD20R,0.910000X1.220000*%
%ADD21RoundRect,0.250000X-0.300000X0.300000X-0.300000X-0.300000X0.300000X-0.300000X0.300000X0.300000X0*%
%ADD22RoundRect,0.250000X0.475000X-0.250000X0.475000X0.250000X-0.475000X0.250000X-0.475000X-0.250000X0*%
%ADD23RoundRect,0.250000X0.250000X0.475000X-0.250000X0.475000X-0.250000X-0.475000X0.250000X-0.475000X0*%
%ADD24R,1.890000X1.140000*%
%ADD25RoundRect,0.150000X0.150000X-0.512500X0.150000X0.512500X-0.150000X0.512500X-0.150000X-0.512500X0*%
%ADD26RoundRect,0.250000X-0.262500X-0.450000X0.262500X-0.450000X0.262500X0.450000X-0.262500X0.450000X0*%
%ADD27RoundRect,0.250000X0.300000X-0.300000X0.300000X0.300000X-0.300000X0.300000X-0.300000X-0.300000X0*%
%ADD28RoundRect,0.250000X-0.450000X0.262500X-0.450000X-0.262500X0.450000X-0.262500X0.450000X0.262500X0*%
%ADD29RoundRect,0.250000X-0.300000X-0.300000X0.300000X-0.300000X0.300000X0.300000X-0.300000X0.300000X0*%
G04 APERTURE END LIST*
D10*
X103525000Y-126390000D03*
D11*
X107327500Y-88850000D03*
X107327500Y-92250000D03*
X117247500Y-88850000D03*
X117247500Y-92250000D03*
D12*
X142000000Y-129000000D03*
D10*
X82085000Y-86720000D03*
D11*
X107327500Y-113350000D03*
X107327500Y-116750000D03*
X117247500Y-113350000D03*
X117247500Y-116750000D03*
D12*
X142000000Y-72500000D03*
D13*
X143500000Y-117760000D03*
X131500000Y-117760000D03*
D14*
X140500000Y-115800000D03*
X137500000Y-115800000D03*
X134500000Y-115800000D03*
D15*
X137560000Y-110249997D03*
X137560000Y-98250001D03*
D16*
X141500000Y-101250000D03*
X141500000Y-104249999D03*
X141500000Y-107249998D03*
X138500001Y-101250000D03*
X138500001Y-104249999D03*
X138500001Y-107249998D03*
D13*
X105077500Y-109300000D03*
X105077500Y-97300000D03*
D14*
X107037500Y-106300000D03*
X107037500Y-103300000D03*
X107037500Y-100300000D03*
D13*
X142510000Y-82250000D03*
X142510000Y-91250000D03*
D14*
X140550000Y-85250000D03*
X140550000Y-88250000D03*
D17*
X130500000Y-102806250D03*
X132400000Y-102806250D03*
X131450000Y-104681250D03*
D18*
X113587500Y-99793750D03*
X111762500Y-99793750D03*
D19*
X119537500Y-96587500D03*
X119537500Y-99512500D03*
D20*
X137365000Y-95500000D03*
X140635000Y-95500000D03*
D21*
X113537500Y-110550000D03*
X113537500Y-113350000D03*
D22*
X137590000Y-87700000D03*
X137590000Y-85800000D03*
D23*
X113625000Y-97768750D03*
X111725000Y-97768750D03*
X113487500Y-105550000D03*
X111587500Y-105550000D03*
D24*
X135467001Y-102000000D03*
X135467001Y-106200000D03*
D22*
X135500000Y-87700000D03*
X135500000Y-85800000D03*
D18*
X142412500Y-112750000D03*
X140587500Y-112750000D03*
D25*
X139500000Y-91112500D03*
X138550000Y-93387500D03*
X140450000Y-93387500D03*
D26*
X130487500Y-100681250D03*
X132312500Y-100681250D03*
D18*
X121450000Y-101300000D03*
X119625000Y-101300000D03*
D26*
X134587500Y-82250000D03*
X136412500Y-82250000D03*
D27*
X114287500Y-95050000D03*
X114287500Y-92250000D03*
D18*
X141687500Y-98200000D03*
X143512500Y-98200000D03*
X121802500Y-83550000D03*
X119977500Y-83550000D03*
X113450000Y-107550000D03*
X111625000Y-107550000D03*
D28*
X142750000Y-93337500D03*
X142750000Y-95162500D03*
D29*
X109137500Y-103300000D03*
X111937500Y-103300000D03*
M02*
