G04 #@! TF.GenerationSoftware,KiCad,Pcbnew,8.0.5*
G04 #@! TF.CreationDate,2025-02-17T00:08:13-06:00*
G04 #@! TF.ProjectId,ActivePrecharge,41637469-7665-4507-9265-636861726765,rev?*
G04 #@! TF.SameCoordinates,Original*
G04 #@! TF.FileFunction,Paste,Bot*
G04 #@! TF.FilePolarity,Positive*
%FSLAX46Y46*%
G04 Gerber Fmt 4.6, Leading zero omitted, Abs format (unit mm)*
G04 Created by KiCad (PCBNEW 8.0.5) date 2025-02-17 00:08:13*
%MOMM*%
%LPD*%
G01*
G04 APERTURE LIST*
G04 Aperture macros list*
%AMRoundRect*
0 Rectangle with rounded corners*
0 $1 Rounding radius*
0 $2 $3 $4 $5 $6 $7 $8 $9 X,Y pos of 4 corners*
0 Add a 4 corners polygon primitive as box body*
4,1,4,$2,$3,$4,$5,$6,$7,$8,$9,$2,$3,0*
0 Add four circle primitives for the rounded corners*
1,1,$1+$1,$2,$3*
1,1,$1+$1,$4,$5*
1,1,$1+$1,$6,$7*
1,1,$1+$1,$8,$9*
0 Add four rect primitives between the rounded corners*
20,1,$1+$1,$2,$3,$4,$5,0*
20,1,$1+$1,$4,$5,$6,$7,0*
20,1,$1+$1,$6,$7,$8,$9,0*
20,1,$1+$1,$8,$9,$2,$3,0*%
G04 Aperture macros list end*
%ADD10R,1.140000X1.890000*%
%ADD11RoundRect,0.250000X0.250000X0.475000X-0.250000X0.475000X-0.250000X-0.475000X0.250000X-0.475000X0*%
%ADD12RoundRect,0.250000X-0.262500X-0.450000X0.262500X-0.450000X0.262500X0.450000X-0.262500X0.450000X0*%
%ADD13RoundRect,0.150000X-0.587500X-0.150000X0.587500X-0.150000X0.587500X0.150000X-0.587500X0.150000X0*%
%ADD14RoundRect,0.250000X-0.450000X0.262500X-0.450000X-0.262500X0.450000X-0.262500X0.450000X0.262500X0*%
%ADD15RoundRect,0.250000X0.475000X-0.250000X0.475000X0.250000X-0.475000X0.250000X-0.475000X-0.250000X0*%
%ADD16RoundRect,0.250000X0.300000X0.300000X-0.300000X0.300000X-0.300000X-0.300000X0.300000X-0.300000X0*%
%ADD17RoundRect,0.250000X0.450000X-0.262500X0.450000X0.262500X-0.450000X0.262500X-0.450000X-0.262500X0*%
%ADD18RoundRect,0.150000X0.150000X-0.512500X0.150000X0.512500X-0.150000X0.512500X-0.150000X-0.512500X0*%
%ADD19RoundRect,0.150000X-0.512500X-0.150000X0.512500X-0.150000X0.512500X0.150000X-0.512500X0.150000X0*%
%ADD20RoundRect,0.250000X-0.300000X-0.300000X0.300000X-0.300000X0.300000X0.300000X-0.300000X0.300000X0*%
%ADD21RoundRect,0.250000X0.262500X0.450000X-0.262500X0.450000X-0.262500X-0.450000X0.262500X-0.450000X0*%
%ADD22RoundRect,0.250000X-0.475000X0.250000X-0.475000X-0.250000X0.475000X-0.250000X0.475000X0.250000X0*%
%ADD23RoundRect,0.250000X-0.250000X-0.475000X0.250000X-0.475000X0.250000X0.475000X-0.250000X0.475000X0*%
%ADD24R,1.220000X0.910000*%
%ADD25RoundRect,0.250000X-0.300000X0.300000X-0.300000X-0.300000X0.300000X-0.300000X0.300000X0.300000X0*%
%ADD26RoundRect,0.218750X0.381250X-0.218750X0.381250X0.218750X-0.381250X0.218750X-0.381250X-0.218750X0*%
%ADD27RoundRect,0.100000X-0.100000X0.225000X-0.100000X-0.225000X0.100000X-0.225000X0.100000X0.225000X0*%
%ADD28RoundRect,0.250000X0.300000X-0.300000X0.300000X0.300000X-0.300000X0.300000X-0.300000X-0.300000X0*%
G04 APERTURE END LIST*
D10*
X151350000Y-67200000D03*
X147150000Y-67200000D03*
D11*
X84750000Y-82830000D03*
X82850000Y-82830000D03*
D12*
X150837500Y-98450000D03*
X152662500Y-98450000D03*
D13*
X141125000Y-79650000D03*
X141125000Y-77750000D03*
X143000000Y-78700000D03*
D11*
X133775000Y-104200000D03*
X131875000Y-104200000D03*
D14*
X71720000Y-95377500D03*
X71720000Y-97202500D03*
D10*
X151350000Y-105450000D03*
X147150000Y-105450000D03*
D15*
X148500000Y-99950000D03*
X148500000Y-98050000D03*
D10*
X151350000Y-92700000D03*
X147150000Y-92700000D03*
D16*
X68870000Y-95290000D03*
X66070000Y-95290000D03*
D17*
X144750000Y-72412500D03*
X144750000Y-70587500D03*
D15*
X148500000Y-74450000D03*
X148500000Y-72550000D03*
D17*
X80050000Y-77952500D03*
X80050000Y-76127500D03*
D18*
X152200000Y-55087500D03*
X150300000Y-55087500D03*
X151250000Y-52812500D03*
D19*
X127437500Y-112150000D03*
X127437500Y-110250000D03*
X129712500Y-111200000D03*
D10*
X151350000Y-79950000D03*
X147150000Y-79950000D03*
D12*
X144837500Y-87000000D03*
X146662500Y-87000000D03*
D20*
X83570000Y-95290000D03*
X86370000Y-95290000D03*
D15*
X87050000Y-77990000D03*
X87050000Y-76090000D03*
D21*
X75712500Y-92265000D03*
X73887500Y-92265000D03*
D22*
X73720000Y-95340000D03*
X73720000Y-97240000D03*
D17*
X139000000Y-79612500D03*
X139000000Y-77787500D03*
X139000000Y-105112500D03*
X139000000Y-103287500D03*
D22*
X78720000Y-95340000D03*
X78720000Y-97240000D03*
D16*
X77200000Y-78040000D03*
X74400000Y-78040000D03*
D17*
X144750000Y-59662500D03*
X144750000Y-57837500D03*
D15*
X82050000Y-77990000D03*
X82050000Y-76090000D03*
D12*
X115587500Y-91580000D03*
X117412500Y-91580000D03*
X115587500Y-96830000D03*
X117412500Y-96830000D03*
D15*
X148500000Y-87200000D03*
X148500000Y-85300000D03*
D17*
X144750000Y-85162500D03*
X144750000Y-83337500D03*
D11*
X130025000Y-104200000D03*
X128125000Y-104200000D03*
X130025000Y-108450000D03*
X128125000Y-108450000D03*
D13*
X141125000Y-105150000D03*
X141125000Y-103250000D03*
X143000000Y-104200000D03*
D11*
X148200000Y-48200000D03*
X146300000Y-48200000D03*
D23*
X111350000Y-78330000D03*
X113250000Y-78330000D03*
D12*
X104137500Y-70830000D03*
X105962500Y-70830000D03*
D24*
X154250000Y-57335000D03*
X154250000Y-54065000D03*
D21*
X105212500Y-88750000D03*
X103387500Y-88750000D03*
D25*
X84550000Y-73390000D03*
X84550000Y-76190000D03*
D17*
X144750000Y-97912500D03*
X144750000Y-96087500D03*
D20*
X91900000Y-78040000D03*
X94700000Y-78040000D03*
D23*
X132375000Y-92700000D03*
X134275000Y-92700000D03*
D12*
X144837500Y-74250000D03*
X146662500Y-74250000D03*
D21*
X105212500Y-94000000D03*
X103387500Y-94000000D03*
D26*
X133825000Y-110012500D03*
X133825000Y-107887500D03*
D13*
X141125000Y-66900000D03*
X141125000Y-65000000D03*
X143000000Y-65950000D03*
D17*
X140000000Y-53412500D03*
X140000000Y-51587500D03*
X139000000Y-92362500D03*
X139000000Y-90537500D03*
D14*
X154250000Y-50287500D03*
X154250000Y-52112500D03*
D17*
X89050000Y-77952500D03*
X89050000Y-76127500D03*
D14*
X80720000Y-95377500D03*
X80720000Y-97202500D03*
D26*
X131825000Y-110012500D03*
X131825000Y-107887500D03*
D12*
X144837500Y-61500000D03*
X146662500Y-61500000D03*
D23*
X132375000Y-94700000D03*
X134275000Y-94700000D03*
D15*
X105300000Y-82030000D03*
X105300000Y-80130000D03*
D23*
X131375000Y-100950000D03*
X133275000Y-100950000D03*
D27*
X83900000Y-77840000D03*
X84550000Y-77840000D03*
X85200000Y-77840000D03*
X85200000Y-79740000D03*
X83900000Y-79740000D03*
D12*
X150837500Y-85700000D03*
X152662500Y-85700000D03*
D13*
X141125000Y-92400000D03*
X141125000Y-90500000D03*
X143000000Y-91450000D03*
D21*
X124662500Y-104250000D03*
X122837500Y-104250000D03*
D23*
X131375000Y-98950000D03*
X133275000Y-98950000D03*
D12*
X150837500Y-60250000D03*
X152662500Y-60250000D03*
D15*
X148500000Y-61700000D03*
X148500000Y-59800000D03*
D12*
X144837500Y-99750000D03*
X146662500Y-99750000D03*
D17*
X139000000Y-66862500D03*
X139000000Y-65037500D03*
D12*
X122587500Y-109250000D03*
X124412500Y-109250000D03*
X150837500Y-72950000D03*
X152662500Y-72950000D03*
D28*
X76220000Y-99940000D03*
X76220000Y-97140000D03*
M02*
