%TF.GenerationSoftware,KiCad,Pcbnew,8.0.5*%
%TF.CreationDate,2024-11-25T01:00:18-06:00*%
%TF.ProjectId,ActivePrecharge,41637469-7665-4507-9265-636861726765,rev?*%
%TF.SameCoordinates,Original*%
%TF.FileFunction,Drillmap*%
%TF.FilePolarity,Positive*%
%FSLAX45Y45*%
G04 Gerber Fmt 4.5, Leading zero omitted, Abs format (unit mm)*
G04 Created by KiCad (PCBNEW 8.0.5) date 2024-11-25 01:00:18*
%MOMM*%
%LPD*%
G01*
G04 APERTURE LIST*
%ADD10C,0.050000*%
%ADD11C,0.200000*%
%ADD12C,0.100000*%
%ADD13C,0.102000*%
G04 APERTURE END LIST*
D10*
X12825500Y-7550000D02*
X12645000Y-7550000D01*
X14600000Y-12500000D02*
G75*
G02*
X14200000Y-12900000I-400000J0D01*
G01*
X8050000Y-7150000D02*
G75*
G02*
X8450000Y-6750000I400000J0D01*
G01*
X12645000Y-11500000D02*
G75*
G02*
X12585000Y-11440000I-1210J58790D01*
G01*
X12882500Y-11440000D02*
X12882500Y-7610000D01*
X12585000Y-7610000D02*
X12585000Y-11440000D01*
X14600000Y-7150000D02*
X14600000Y-12500000D01*
X14200000Y-12900000D02*
X8450000Y-12900000D01*
X8450000Y-6750000D02*
X14200000Y-6750000D01*
X12645000Y-11500000D02*
X12822500Y-11500000D01*
X12585000Y-7610000D02*
G75*
G02*
X12645000Y-7550000I60000J0D01*
G01*
X14200000Y-6750000D02*
G75*
G02*
X14600000Y-7150000I0J-400000D01*
G01*
X12825500Y-7550000D02*
G75*
G02*
X12882500Y-7610000I-1500J-58500D01*
G01*
X8450000Y-12900000D02*
G75*
G02*
X8050000Y-12500000I0J400000D01*
G01*
X8050000Y-12500000D02*
X8050000Y-7150000D01*
X12882500Y-11440000D02*
G75*
G02*
X12822500Y-11500000I-60000J0D01*
G01*
D11*
D12*
X10730000Y-7755000D02*
X10770000Y-7795000D01*
X10770000Y-7755000D02*
X10730000Y-7795000D01*
X10730000Y-7855000D02*
X10770000Y-7895000D01*
X10770000Y-7855000D02*
X10730000Y-7895000D01*
X10730000Y-7955000D02*
X10770000Y-7995000D01*
X10770000Y-7955000D02*
X10730000Y-7995000D01*
X10730000Y-8305000D02*
X10770000Y-8345000D01*
X10770000Y-8305000D02*
X10730000Y-8345000D01*
X10730000Y-8405000D02*
X10770000Y-8445000D01*
X10770000Y-8405000D02*
X10730000Y-8445000D01*
X10730000Y-8505000D02*
X10770000Y-8545000D01*
X10770000Y-8505000D02*
X10730000Y-8545000D01*
X10730000Y-8605000D02*
X10770000Y-8645000D01*
X10770000Y-8605000D02*
X10730000Y-8645000D01*
X10730000Y-8955000D02*
X10770000Y-8995000D01*
X10770000Y-8955000D02*
X10730000Y-8995000D01*
X10730000Y-9055000D02*
X10770000Y-9095000D01*
X10770000Y-9055000D02*
X10730000Y-9095000D01*
X10730000Y-9155000D02*
X10770000Y-9195000D01*
X10770000Y-9155000D02*
X10730000Y-9195000D01*
X10730000Y-9805000D02*
X10770000Y-9845000D01*
X10770000Y-9805000D02*
X10730000Y-9845000D01*
X10730000Y-10130000D02*
X10770000Y-10170000D01*
X10770000Y-10130000D02*
X10730000Y-10170000D01*
X10730000Y-10805000D02*
X10770000Y-10845000D01*
X10770000Y-10805000D02*
X10730000Y-10845000D01*
X10730000Y-10905000D02*
X10770000Y-10945000D01*
X10770000Y-10905000D02*
X10730000Y-10945000D01*
X10730000Y-11255000D02*
X10770000Y-11295000D01*
X10770000Y-11255000D02*
X10730000Y-11295000D01*
X10830000Y-7755000D02*
X10870000Y-7795000D01*
X10870000Y-7755000D02*
X10830000Y-7795000D01*
X10930000Y-7755000D02*
X10970000Y-7795000D01*
X10970000Y-7755000D02*
X10930000Y-7795000D01*
X11030000Y-7755000D02*
X11070000Y-7795000D01*
X11070000Y-7755000D02*
X11030000Y-7795000D01*
X11130000Y-7755000D02*
X11170000Y-7795000D01*
X11170000Y-7755000D02*
X11130000Y-7795000D01*
X11130000Y-11255000D02*
X11170000Y-11295000D01*
X11170000Y-11255000D02*
X11130000Y-11295000D01*
X11230000Y-7755000D02*
X11270000Y-7795000D01*
X11270000Y-7755000D02*
X11230000Y-7795000D01*
X11230000Y-11255000D02*
X11270000Y-11295000D01*
X11270000Y-11255000D02*
X11230000Y-11295000D01*
X11330000Y-7755000D02*
X11370000Y-7795000D01*
X11370000Y-7755000D02*
X11330000Y-7795000D01*
X11330000Y-11255000D02*
X11370000Y-11295000D01*
X11370000Y-11255000D02*
X11330000Y-11295000D01*
X11337500Y-9368750D02*
X11377500Y-9408750D01*
X11377500Y-9368750D02*
X11337500Y-9408750D01*
X11337500Y-10591250D02*
X11377500Y-10631250D01*
X11377500Y-10591250D02*
X11337500Y-10631250D01*
X11430000Y-7755000D02*
X11470000Y-7795000D01*
X11470000Y-7755000D02*
X11430000Y-7795000D01*
X11430000Y-11255000D02*
X11470000Y-11295000D01*
X11470000Y-11255000D02*
X11430000Y-11295000D01*
X11530000Y-7755000D02*
X11570000Y-7795000D01*
X11570000Y-7755000D02*
X11530000Y-7795000D01*
X11540000Y-10081250D02*
X11580000Y-10121250D01*
X11580000Y-10081250D02*
X11540000Y-10121250D01*
X11580000Y-8130000D02*
X11620000Y-8170000D01*
X11620000Y-8130000D02*
X11580000Y-8170000D01*
X11628750Y-10595000D02*
X11668750Y-10635000D01*
X11668750Y-10595000D02*
X11628750Y-10635000D01*
X11630000Y-7755000D02*
X11670000Y-7795000D01*
X11670000Y-7755000D02*
X11630000Y-7795000D01*
X11730000Y-7755000D02*
X11770000Y-7795000D01*
X11770000Y-7755000D02*
X11730000Y-7795000D01*
X11730000Y-9770000D02*
X11770000Y-9810000D01*
X11770000Y-9770000D02*
X11730000Y-9810000D01*
X11810000Y-10148750D02*
X11850000Y-10188750D01*
X11850000Y-10148750D02*
X11810000Y-10188750D01*
X11830000Y-7755000D02*
X11870000Y-7795000D01*
X11870000Y-7755000D02*
X11830000Y-7795000D01*
X11830000Y-9030000D02*
X11870000Y-9070000D01*
X11870000Y-9030000D02*
X11830000Y-9070000D01*
X11830000Y-9546250D02*
X11870000Y-9586250D01*
X11870000Y-9546250D02*
X11830000Y-9586250D01*
X11830000Y-11255000D02*
X11870000Y-11295000D01*
X11870000Y-11255000D02*
X11830000Y-11295000D01*
X11905000Y-9961250D02*
X11945000Y-10001250D01*
X11945000Y-9961250D02*
X11905000Y-10001250D01*
X11930000Y-7755000D02*
X11970000Y-7795000D01*
X11970000Y-7755000D02*
X11930000Y-7795000D01*
X11930000Y-11255000D02*
X11970000Y-11295000D01*
X11970000Y-11255000D02*
X11930000Y-11295000D01*
X11980000Y-8336250D02*
X12020000Y-8376250D01*
X12020000Y-8336250D02*
X11980000Y-8376250D01*
X12027000Y-10385000D02*
X12067000Y-10425000D01*
X12067000Y-10385000D02*
X12027000Y-10425000D01*
X12030000Y-7755000D02*
X12070000Y-7795000D01*
X12070000Y-7755000D02*
X12030000Y-7795000D01*
X12030000Y-11255000D02*
X12070000Y-11295000D01*
X12070000Y-11255000D02*
X12030000Y-11295000D01*
X12130000Y-7755000D02*
X12170000Y-7795000D01*
X12170000Y-7755000D02*
X12130000Y-7795000D01*
X12130000Y-11255000D02*
X12170000Y-11295000D01*
X12170000Y-11255000D02*
X12130000Y-11295000D01*
X12230000Y-7755000D02*
X12270000Y-7795000D01*
X12270000Y-7755000D02*
X12230000Y-7795000D01*
X12330000Y-7755000D02*
X12370000Y-7795000D01*
X12370000Y-7755000D02*
X12330000Y-7795000D01*
X12330000Y-10480000D02*
X12370000Y-10520000D01*
X12370000Y-10480000D02*
X12330000Y-10520000D01*
X12386250Y-9676500D02*
X12426250Y-9716500D01*
X12426250Y-9676500D02*
X12386250Y-9716500D01*
X12430000Y-7755000D02*
X12470000Y-7795000D01*
X12470000Y-7755000D02*
X12430000Y-7795000D01*
X12455000Y-8985000D02*
X12495000Y-9025000D01*
X12495000Y-8985000D02*
X12455000Y-9025000D01*
X13005000Y-7755000D02*
X13045000Y-7795000D01*
X13045000Y-7755000D02*
X13005000Y-7795000D01*
X13005000Y-8505000D02*
X13045000Y-8545000D01*
X13045000Y-8505000D02*
X13005000Y-8545000D01*
X13005000Y-8605000D02*
X13045000Y-8645000D01*
X13045000Y-8605000D02*
X13005000Y-8645000D01*
X13005000Y-8705000D02*
X13045000Y-8745000D01*
X13045000Y-8705000D02*
X13005000Y-8745000D01*
X13005000Y-8805000D02*
X13045000Y-8845000D01*
X13045000Y-8805000D02*
X13005000Y-8845000D01*
X13005000Y-9005000D02*
X13045000Y-9045000D01*
X13045000Y-9005000D02*
X13005000Y-9045000D01*
X13005000Y-9105000D02*
X13045000Y-9145000D01*
X13045000Y-9105000D02*
X13005000Y-9145000D01*
X13005000Y-9205000D02*
X13045000Y-9245000D01*
X13045000Y-9205000D02*
X13005000Y-9245000D01*
X13005000Y-9305000D02*
X13045000Y-9345000D01*
X13045000Y-9305000D02*
X13005000Y-9345000D01*
X13005000Y-9405000D02*
X13045000Y-9445000D01*
X13045000Y-9405000D02*
X13005000Y-9445000D01*
X13005000Y-9505000D02*
X13045000Y-9545000D01*
X13045000Y-9505000D02*
X13005000Y-9545000D01*
X13023750Y-9803500D02*
X13063750Y-9843500D01*
X13063750Y-9803500D02*
X13023750Y-9843500D01*
X13105000Y-7755000D02*
X13145000Y-7795000D01*
X13145000Y-7755000D02*
X13105000Y-7795000D01*
X13105000Y-11055000D02*
X13145000Y-11095000D01*
X13145000Y-11055000D02*
X13105000Y-11095000D01*
X13205000Y-7755000D02*
X13245000Y-7795000D01*
X13245000Y-7755000D02*
X13205000Y-7795000D01*
X13305000Y-7755000D02*
X13345000Y-7795000D01*
X13345000Y-7755000D02*
X13305000Y-7795000D01*
X13355000Y-11255000D02*
X13395000Y-11295000D01*
X13395000Y-11255000D02*
X13355000Y-11295000D01*
X13405000Y-7755000D02*
X13445000Y-7795000D01*
X13445000Y-7755000D02*
X13405000Y-7795000D01*
X13455000Y-11255000D02*
X13495000Y-11295000D01*
X13495000Y-11255000D02*
X13455000Y-11295000D01*
X13505000Y-7755000D02*
X13545000Y-7795000D01*
X13545000Y-7755000D02*
X13505000Y-7795000D01*
X13505000Y-9943500D02*
X13545000Y-9983500D01*
X13545000Y-9943500D02*
X13505000Y-9983500D01*
X13522500Y-8455000D02*
X13562500Y-8495000D01*
X13562500Y-8455000D02*
X13522500Y-8495000D01*
X13535000Y-10453750D02*
X13575000Y-10493750D01*
X13575000Y-10453750D02*
X13535000Y-10493750D01*
X13535000Y-10998750D02*
X13575000Y-11038750D01*
X13575000Y-10998750D02*
X13535000Y-11038750D01*
X13555000Y-11255000D02*
X13595000Y-11295000D01*
X13595000Y-11255000D02*
X13555000Y-11295000D01*
X13605000Y-7755000D02*
X13645000Y-7795000D01*
X13645000Y-7755000D02*
X13605000Y-7795000D01*
X13655000Y-11255000D02*
X13695000Y-11295000D01*
X13695000Y-11255000D02*
X13655000Y-11295000D01*
X13705000Y-7755000D02*
X13745000Y-7795000D01*
X13745000Y-7755000D02*
X13705000Y-7795000D01*
X13755000Y-11255000D02*
X13795000Y-11295000D01*
X13795000Y-11255000D02*
X13755000Y-11295000D01*
X13805000Y-7755000D02*
X13845000Y-7795000D01*
X13845000Y-7755000D02*
X13805000Y-7795000D01*
X13855000Y-11255000D02*
X13895000Y-11295000D01*
X13895000Y-11255000D02*
X13855000Y-11295000D01*
X13886250Y-8455000D02*
X13926250Y-8495000D01*
X13926250Y-8455000D02*
X13886250Y-8495000D01*
X13905000Y-7755000D02*
X13945000Y-7795000D01*
X13945000Y-7755000D02*
X13905000Y-7795000D01*
X13955000Y-11255000D02*
X13995000Y-11295000D01*
X13995000Y-11255000D02*
X13955000Y-11295000D01*
X14055000Y-11255000D02*
X14095000Y-11295000D01*
X14095000Y-11255000D02*
X14055000Y-11295000D01*
X14155000Y-11255000D02*
X14195000Y-11295000D01*
X14195000Y-11255000D02*
X14155000Y-11295000D01*
X14255000Y-7755000D02*
X14295000Y-7795000D01*
X14295000Y-7755000D02*
X14255000Y-7795000D01*
X14255000Y-11255000D02*
X14295000Y-11295000D01*
X14295000Y-11255000D02*
X14255000Y-11295000D01*
X14355000Y-7755000D02*
X14395000Y-7795000D01*
X14395000Y-7755000D02*
X14355000Y-7795000D01*
X14355000Y-11255000D02*
X14395000Y-11295000D01*
X14395000Y-11255000D02*
X14355000Y-11295000D01*
X14455000Y-7755000D02*
X14495000Y-7795000D01*
X14495000Y-7755000D02*
X14455000Y-7795000D01*
X14455000Y-7855000D02*
X14495000Y-7895000D01*
X14495000Y-7855000D02*
X14455000Y-7895000D01*
X14455000Y-7955000D02*
X14495000Y-7995000D01*
X14495000Y-7955000D02*
X14455000Y-7995000D01*
X14455000Y-8055000D02*
X14495000Y-8095000D01*
X14495000Y-8055000D02*
X14455000Y-8095000D01*
X14455000Y-8155000D02*
X14495000Y-8195000D01*
X14495000Y-8155000D02*
X14455000Y-8195000D01*
X14455000Y-8255000D02*
X14495000Y-8295000D01*
X14495000Y-8255000D02*
X14455000Y-8295000D01*
X14455000Y-8355000D02*
X14495000Y-8395000D01*
X14495000Y-8355000D02*
X14455000Y-8395000D01*
X14455000Y-8455000D02*
X14495000Y-8495000D01*
X14495000Y-8455000D02*
X14455000Y-8495000D01*
X14455000Y-8555000D02*
X14495000Y-8595000D01*
X14495000Y-8555000D02*
X14455000Y-8595000D01*
X14455000Y-8655000D02*
X14495000Y-8695000D01*
X14495000Y-8655000D02*
X14455000Y-8695000D01*
X14455000Y-8755000D02*
X14495000Y-8795000D01*
X14495000Y-8755000D02*
X14455000Y-8795000D01*
X14455000Y-8855000D02*
X14495000Y-8895000D01*
X14495000Y-8855000D02*
X14455000Y-8895000D01*
X14455000Y-9180000D02*
X14495000Y-9220000D01*
X14495000Y-9180000D02*
X14455000Y-9220000D01*
X14455000Y-9505000D02*
X14495000Y-9545000D01*
X14495000Y-9505000D02*
X14455000Y-9545000D01*
X14455000Y-9605000D02*
X14495000Y-9645000D01*
X14495000Y-9605000D02*
X14455000Y-9645000D01*
X14455000Y-9705000D02*
X14495000Y-9745000D01*
X14495000Y-9705000D02*
X14455000Y-9745000D01*
X14455000Y-9805000D02*
X14495000Y-9845000D01*
X14495000Y-9805000D02*
X14455000Y-9845000D01*
X14455000Y-9905000D02*
X14495000Y-9945000D01*
X14495000Y-9905000D02*
X14455000Y-9945000D01*
X14455000Y-10005000D02*
X14495000Y-10045000D01*
X14495000Y-10005000D02*
X14455000Y-10045000D01*
X14455000Y-10105000D02*
X14495000Y-10145000D01*
X14495000Y-10105000D02*
X14455000Y-10145000D01*
X14455000Y-10205000D02*
X14495000Y-10245000D01*
X14495000Y-10205000D02*
X14455000Y-10245000D01*
X14455000Y-10305000D02*
X14495000Y-10345000D01*
X14495000Y-10305000D02*
X14455000Y-10345000D01*
X14455000Y-10605000D02*
X14495000Y-10645000D01*
X14495000Y-10605000D02*
X14455000Y-10645000D01*
X14455000Y-10855000D02*
X14495000Y-10895000D01*
X14495000Y-10855000D02*
X14455000Y-10895000D01*
X14455000Y-10955000D02*
X14495000Y-10995000D01*
X14495000Y-10955000D02*
X14455000Y-10995000D01*
X14455000Y-11055000D02*
X14495000Y-11095000D01*
X14495000Y-11055000D02*
X14455000Y-11095000D01*
X14455000Y-11155000D02*
X14495000Y-11195000D01*
X14495000Y-11155000D02*
X14455000Y-11195000D01*
X14455000Y-11255000D02*
X14495000Y-11295000D01*
X14495000Y-11255000D02*
X14455000Y-11295000D01*
D13*
X11077750Y-9701250D02*
G75*
G02*
X10975750Y-9701250I-51000J0D01*
G01*
X10975750Y-9701250D02*
G75*
G02*
X11077750Y-9701250I51000J0D01*
G01*
X11077750Y-10001250D02*
G75*
G02*
X10975750Y-10001250I-51000J0D01*
G01*
X10975750Y-10001250D02*
G75*
G02*
X11077750Y-10001250I51000J0D01*
G01*
X11077750Y-10301250D02*
G75*
G02*
X10975750Y-10301250I-51000J0D01*
G01*
X10975750Y-10301250D02*
G75*
G02*
X11077750Y-10301250I51000J0D01*
G01*
X14031000Y-9075000D02*
G75*
G02*
X13929000Y-9075000I-51000J0D01*
G01*
X13929000Y-9075000D02*
G75*
G02*
X14031000Y-9075000I51000J0D01*
G01*
X14031000Y-9375000D02*
G75*
G02*
X13929000Y-9375000I-51000J0D01*
G01*
X13929000Y-9375000D02*
G75*
G02*
X14031000Y-9375000I51000J0D01*
G01*
X14031000Y-10475000D02*
G75*
G02*
X13929000Y-10475000I-51000J0D01*
G01*
X13929000Y-10475000D02*
G75*
G02*
X14031000Y-10475000I51000J0D01*
G01*
X14031000Y-10775000D02*
G75*
G02*
X13929000Y-10775000I-51000J0D01*
G01*
X13929000Y-10775000D02*
G75*
G02*
X14031000Y-10775000I51000J0D01*
G01*
D11*
X8308277Y-13213984D02*
X8308277Y-13013984D01*
X8308277Y-13013984D02*
X8355896Y-13013984D01*
X8355896Y-13013984D02*
X8384467Y-13023508D01*
X8384467Y-13023508D02*
X8403515Y-13042555D01*
X8403515Y-13042555D02*
X8413039Y-13061603D01*
X8413039Y-13061603D02*
X8422563Y-13099698D01*
X8422563Y-13099698D02*
X8422563Y-13128269D01*
X8422563Y-13128269D02*
X8413039Y-13166365D01*
X8413039Y-13166365D02*
X8403515Y-13185412D01*
X8403515Y-13185412D02*
X8384467Y-13204460D01*
X8384467Y-13204460D02*
X8355896Y-13213984D01*
X8355896Y-13213984D02*
X8308277Y-13213984D01*
X8508277Y-13213984D02*
X8508277Y-13080650D01*
X8508277Y-13118746D02*
X8517801Y-13099698D01*
X8517801Y-13099698D02*
X8527324Y-13090174D01*
X8527324Y-13090174D02*
X8546372Y-13080650D01*
X8546372Y-13080650D02*
X8565420Y-13080650D01*
X8632086Y-13213984D02*
X8632086Y-13080650D01*
X8632086Y-13013984D02*
X8622563Y-13023508D01*
X8622563Y-13023508D02*
X8632086Y-13033031D01*
X8632086Y-13033031D02*
X8641610Y-13023508D01*
X8641610Y-13023508D02*
X8632086Y-13013984D01*
X8632086Y-13013984D02*
X8632086Y-13033031D01*
X8755896Y-13213984D02*
X8736848Y-13204460D01*
X8736848Y-13204460D02*
X8727324Y-13185412D01*
X8727324Y-13185412D02*
X8727324Y-13013984D01*
X8860658Y-13213984D02*
X8841610Y-13204460D01*
X8841610Y-13204460D02*
X8832086Y-13185412D01*
X8832086Y-13185412D02*
X8832086Y-13013984D01*
X9089229Y-13213984D02*
X9089229Y-13013984D01*
X9089229Y-13013984D02*
X9155896Y-13156841D01*
X9155896Y-13156841D02*
X9222563Y-13013984D01*
X9222563Y-13013984D02*
X9222563Y-13213984D01*
X9403515Y-13213984D02*
X9403515Y-13109222D01*
X9403515Y-13109222D02*
X9393991Y-13090174D01*
X9393991Y-13090174D02*
X9374944Y-13080650D01*
X9374944Y-13080650D02*
X9336848Y-13080650D01*
X9336848Y-13080650D02*
X9317801Y-13090174D01*
X9403515Y-13204460D02*
X9384467Y-13213984D01*
X9384467Y-13213984D02*
X9336848Y-13213984D01*
X9336848Y-13213984D02*
X9317801Y-13204460D01*
X9317801Y-13204460D02*
X9308277Y-13185412D01*
X9308277Y-13185412D02*
X9308277Y-13166365D01*
X9308277Y-13166365D02*
X9317801Y-13147317D01*
X9317801Y-13147317D02*
X9336848Y-13137793D01*
X9336848Y-13137793D02*
X9384467Y-13137793D01*
X9384467Y-13137793D02*
X9403515Y-13128269D01*
X9498753Y-13080650D02*
X9498753Y-13280650D01*
X9498753Y-13090174D02*
X9517801Y-13080650D01*
X9517801Y-13080650D02*
X9555896Y-13080650D01*
X9555896Y-13080650D02*
X9574944Y-13090174D01*
X9574944Y-13090174D02*
X9584467Y-13099698D01*
X9584467Y-13099698D02*
X9593991Y-13118746D01*
X9593991Y-13118746D02*
X9593991Y-13175888D01*
X9593991Y-13175888D02*
X9584467Y-13194936D01*
X9584467Y-13194936D02*
X9574944Y-13204460D01*
X9574944Y-13204460D02*
X9555896Y-13213984D01*
X9555896Y-13213984D02*
X9517801Y-13213984D01*
X9517801Y-13213984D02*
X9498753Y-13204460D01*
X9679705Y-13194936D02*
X9689229Y-13204460D01*
X9689229Y-13204460D02*
X9679705Y-13213984D01*
X9679705Y-13213984D02*
X9670182Y-13204460D01*
X9670182Y-13204460D02*
X9679705Y-13194936D01*
X9679705Y-13194936D02*
X9679705Y-13213984D01*
X9679705Y-13090174D02*
X9689229Y-13099698D01*
X9689229Y-13099698D02*
X9679705Y-13109222D01*
X9679705Y-13109222D02*
X9670182Y-13099698D01*
X9670182Y-13099698D02*
X9679705Y-13090174D01*
X9679705Y-13090174D02*
X9679705Y-13109222D01*
D12*
X8007500Y-13522500D02*
X8047500Y-13562500D01*
X8047500Y-13522500D02*
X8007500Y-13562500D01*
D11*
X8346372Y-13433984D02*
X8365420Y-13433984D01*
X8365420Y-13433984D02*
X8384467Y-13443508D01*
X8384467Y-13443508D02*
X8393991Y-13453031D01*
X8393991Y-13453031D02*
X8403515Y-13472079D01*
X8403515Y-13472079D02*
X8413039Y-13510174D01*
X8413039Y-13510174D02*
X8413039Y-13557793D01*
X8413039Y-13557793D02*
X8403515Y-13595888D01*
X8403515Y-13595888D02*
X8393991Y-13614936D01*
X8393991Y-13614936D02*
X8384467Y-13624460D01*
X8384467Y-13624460D02*
X8365420Y-13633984D01*
X8365420Y-13633984D02*
X8346372Y-13633984D01*
X8346372Y-13633984D02*
X8327324Y-13624460D01*
X8327324Y-13624460D02*
X8317801Y-13614936D01*
X8317801Y-13614936D02*
X8308277Y-13595888D01*
X8308277Y-13595888D02*
X8298753Y-13557793D01*
X8298753Y-13557793D02*
X8298753Y-13510174D01*
X8298753Y-13510174D02*
X8308277Y-13472079D01*
X8308277Y-13472079D02*
X8317801Y-13453031D01*
X8317801Y-13453031D02*
X8327324Y-13443508D01*
X8327324Y-13443508D02*
X8346372Y-13433984D01*
X8498753Y-13614936D02*
X8508277Y-13624460D01*
X8508277Y-13624460D02*
X8498753Y-13633984D01*
X8498753Y-13633984D02*
X8489229Y-13624460D01*
X8489229Y-13624460D02*
X8498753Y-13614936D01*
X8498753Y-13614936D02*
X8498753Y-13633984D01*
X8679705Y-13500650D02*
X8679705Y-13633984D01*
X8632086Y-13424460D02*
X8584467Y-13567317D01*
X8584467Y-13567317D02*
X8708277Y-13567317D01*
X8822563Y-13433984D02*
X8841610Y-13433984D01*
X8841610Y-13433984D02*
X8860658Y-13443508D01*
X8860658Y-13443508D02*
X8870182Y-13453031D01*
X8870182Y-13453031D02*
X8879705Y-13472079D01*
X8879705Y-13472079D02*
X8889229Y-13510174D01*
X8889229Y-13510174D02*
X8889229Y-13557793D01*
X8889229Y-13557793D02*
X8879705Y-13595888D01*
X8879705Y-13595888D02*
X8870182Y-13614936D01*
X8870182Y-13614936D02*
X8860658Y-13624460D01*
X8860658Y-13624460D02*
X8841610Y-13633984D01*
X8841610Y-13633984D02*
X8822563Y-13633984D01*
X8822563Y-13633984D02*
X8803515Y-13624460D01*
X8803515Y-13624460D02*
X8793991Y-13614936D01*
X8793991Y-13614936D02*
X8784467Y-13595888D01*
X8784467Y-13595888D02*
X8774944Y-13557793D01*
X8774944Y-13557793D02*
X8774944Y-13510174D01*
X8774944Y-13510174D02*
X8784467Y-13472079D01*
X8784467Y-13472079D02*
X8793991Y-13453031D01*
X8793991Y-13453031D02*
X8803515Y-13443508D01*
X8803515Y-13443508D02*
X8822563Y-13433984D01*
X9013039Y-13433984D02*
X9032086Y-13433984D01*
X9032086Y-13433984D02*
X9051134Y-13443508D01*
X9051134Y-13443508D02*
X9060658Y-13453031D01*
X9060658Y-13453031D02*
X9070182Y-13472079D01*
X9070182Y-13472079D02*
X9079705Y-13510174D01*
X9079705Y-13510174D02*
X9079705Y-13557793D01*
X9079705Y-13557793D02*
X9070182Y-13595888D01*
X9070182Y-13595888D02*
X9060658Y-13614936D01*
X9060658Y-13614936D02*
X9051134Y-13624460D01*
X9051134Y-13624460D02*
X9032086Y-13633984D01*
X9032086Y-13633984D02*
X9013039Y-13633984D01*
X9013039Y-13633984D02*
X8993991Y-13624460D01*
X8993991Y-13624460D02*
X8984467Y-13614936D01*
X8984467Y-13614936D02*
X8974944Y-13595888D01*
X8974944Y-13595888D02*
X8965420Y-13557793D01*
X8965420Y-13557793D02*
X8965420Y-13510174D01*
X8965420Y-13510174D02*
X8974944Y-13472079D01*
X8974944Y-13472079D02*
X8984467Y-13453031D01*
X8984467Y-13453031D02*
X8993991Y-13443508D01*
X8993991Y-13443508D02*
X9013039Y-13433984D01*
X9165420Y-13633984D02*
X9165420Y-13500650D01*
X9165420Y-13519698D02*
X9174944Y-13510174D01*
X9174944Y-13510174D02*
X9193991Y-13500650D01*
X9193991Y-13500650D02*
X9222563Y-13500650D01*
X9222563Y-13500650D02*
X9241610Y-13510174D01*
X9241610Y-13510174D02*
X9251134Y-13529222D01*
X9251134Y-13529222D02*
X9251134Y-13633984D01*
X9251134Y-13529222D02*
X9260658Y-13510174D01*
X9260658Y-13510174D02*
X9279705Y-13500650D01*
X9279705Y-13500650D02*
X9308277Y-13500650D01*
X9308277Y-13500650D02*
X9327325Y-13510174D01*
X9327325Y-13510174D02*
X9336848Y-13529222D01*
X9336848Y-13529222D02*
X9336848Y-13633984D01*
X9432086Y-13633984D02*
X9432086Y-13500650D01*
X9432086Y-13519698D02*
X9441610Y-13510174D01*
X9441610Y-13510174D02*
X9460658Y-13500650D01*
X9460658Y-13500650D02*
X9489229Y-13500650D01*
X9489229Y-13500650D02*
X9508277Y-13510174D01*
X9508277Y-13510174D02*
X9517801Y-13529222D01*
X9517801Y-13529222D02*
X9517801Y-13633984D01*
X9517801Y-13529222D02*
X9527325Y-13510174D01*
X9527325Y-13510174D02*
X9546372Y-13500650D01*
X9546372Y-13500650D02*
X9574944Y-13500650D01*
X9574944Y-13500650D02*
X9593991Y-13510174D01*
X9593991Y-13510174D02*
X9603515Y-13529222D01*
X9603515Y-13529222D02*
X9603515Y-13633984D01*
X9993991Y-13424460D02*
X9822563Y-13681603D01*
X10251134Y-13433984D02*
X10270182Y-13433984D01*
X10270182Y-13433984D02*
X10289229Y-13443508D01*
X10289229Y-13443508D02*
X10298753Y-13453031D01*
X10298753Y-13453031D02*
X10308277Y-13472079D01*
X10308277Y-13472079D02*
X10317801Y-13510174D01*
X10317801Y-13510174D02*
X10317801Y-13557793D01*
X10317801Y-13557793D02*
X10308277Y-13595888D01*
X10308277Y-13595888D02*
X10298753Y-13614936D01*
X10298753Y-13614936D02*
X10289229Y-13624460D01*
X10289229Y-13624460D02*
X10270182Y-13633984D01*
X10270182Y-13633984D02*
X10251134Y-13633984D01*
X10251134Y-13633984D02*
X10232087Y-13624460D01*
X10232087Y-13624460D02*
X10222563Y-13614936D01*
X10222563Y-13614936D02*
X10213039Y-13595888D01*
X10213039Y-13595888D02*
X10203515Y-13557793D01*
X10203515Y-13557793D02*
X10203515Y-13510174D01*
X10203515Y-13510174D02*
X10213039Y-13472079D01*
X10213039Y-13472079D02*
X10222563Y-13453031D01*
X10222563Y-13453031D02*
X10232087Y-13443508D01*
X10232087Y-13443508D02*
X10251134Y-13433984D01*
X10403515Y-13614936D02*
X10413039Y-13624460D01*
X10413039Y-13624460D02*
X10403515Y-13633984D01*
X10403515Y-13633984D02*
X10393991Y-13624460D01*
X10393991Y-13624460D02*
X10403515Y-13614936D01*
X10403515Y-13614936D02*
X10403515Y-13633984D01*
X10536848Y-13433984D02*
X10555896Y-13433984D01*
X10555896Y-13433984D02*
X10574944Y-13443508D01*
X10574944Y-13443508D02*
X10584468Y-13453031D01*
X10584468Y-13453031D02*
X10593991Y-13472079D01*
X10593991Y-13472079D02*
X10603515Y-13510174D01*
X10603515Y-13510174D02*
X10603515Y-13557793D01*
X10603515Y-13557793D02*
X10593991Y-13595888D01*
X10593991Y-13595888D02*
X10584468Y-13614936D01*
X10584468Y-13614936D02*
X10574944Y-13624460D01*
X10574944Y-13624460D02*
X10555896Y-13633984D01*
X10555896Y-13633984D02*
X10536848Y-13633984D01*
X10536848Y-13633984D02*
X10517801Y-13624460D01*
X10517801Y-13624460D02*
X10508277Y-13614936D01*
X10508277Y-13614936D02*
X10498753Y-13595888D01*
X10498753Y-13595888D02*
X10489229Y-13557793D01*
X10489229Y-13557793D02*
X10489229Y-13510174D01*
X10489229Y-13510174D02*
X10498753Y-13472079D01*
X10498753Y-13472079D02*
X10508277Y-13453031D01*
X10508277Y-13453031D02*
X10517801Y-13443508D01*
X10517801Y-13443508D02*
X10536848Y-13433984D01*
X10793991Y-13633984D02*
X10679706Y-13633984D01*
X10736848Y-13633984D02*
X10736848Y-13433984D01*
X10736848Y-13433984D02*
X10717801Y-13462555D01*
X10717801Y-13462555D02*
X10698753Y-13481603D01*
X10698753Y-13481603D02*
X10679706Y-13491127D01*
X10974944Y-13433984D02*
X10879706Y-13433984D01*
X10879706Y-13433984D02*
X10870182Y-13529222D01*
X10870182Y-13529222D02*
X10879706Y-13519698D01*
X10879706Y-13519698D02*
X10898753Y-13510174D01*
X10898753Y-13510174D02*
X10946372Y-13510174D01*
X10946372Y-13510174D02*
X10965420Y-13519698D01*
X10965420Y-13519698D02*
X10974944Y-13529222D01*
X10974944Y-13529222D02*
X10984468Y-13548269D01*
X10984468Y-13548269D02*
X10984468Y-13595888D01*
X10984468Y-13595888D02*
X10974944Y-13614936D01*
X10974944Y-13614936D02*
X10965420Y-13624460D01*
X10965420Y-13624460D02*
X10946372Y-13633984D01*
X10946372Y-13633984D02*
X10898753Y-13633984D01*
X10898753Y-13633984D02*
X10879706Y-13624460D01*
X10879706Y-13624460D02*
X10870182Y-13614936D01*
X11051134Y-13433984D02*
X11184468Y-13433984D01*
X11184468Y-13433984D02*
X11098753Y-13633984D01*
X11251134Y-13433984D02*
X11251134Y-13472079D01*
X11327325Y-13433984D02*
X11327325Y-13472079D01*
X11622563Y-13710174D02*
X11613039Y-13700650D01*
X11613039Y-13700650D02*
X11593991Y-13672079D01*
X11593991Y-13672079D02*
X11584468Y-13653031D01*
X11584468Y-13653031D02*
X11574944Y-13624460D01*
X11574944Y-13624460D02*
X11565420Y-13576841D01*
X11565420Y-13576841D02*
X11565420Y-13538746D01*
X11565420Y-13538746D02*
X11574944Y-13491127D01*
X11574944Y-13491127D02*
X11584468Y-13462555D01*
X11584468Y-13462555D02*
X11593991Y-13443508D01*
X11593991Y-13443508D02*
X11613039Y-13414936D01*
X11613039Y-13414936D02*
X11622563Y-13405412D01*
X11803515Y-13633984D02*
X11689229Y-13633984D01*
X11746372Y-13633984D02*
X11746372Y-13433984D01*
X11746372Y-13433984D02*
X11727325Y-13462555D01*
X11727325Y-13462555D02*
X11708277Y-13481603D01*
X11708277Y-13481603D02*
X11689229Y-13491127D01*
X11879706Y-13453031D02*
X11889229Y-13443508D01*
X11889229Y-13443508D02*
X11908277Y-13433984D01*
X11908277Y-13433984D02*
X11955896Y-13433984D01*
X11955896Y-13433984D02*
X11974944Y-13443508D01*
X11974944Y-13443508D02*
X11984468Y-13453031D01*
X11984468Y-13453031D02*
X11993991Y-13472079D01*
X11993991Y-13472079D02*
X11993991Y-13491127D01*
X11993991Y-13491127D02*
X11984468Y-13519698D01*
X11984468Y-13519698D02*
X11870182Y-13633984D01*
X11870182Y-13633984D02*
X11993991Y-13633984D01*
X12060658Y-13433984D02*
X12184468Y-13433984D01*
X12184468Y-13433984D02*
X12117801Y-13510174D01*
X12117801Y-13510174D02*
X12146372Y-13510174D01*
X12146372Y-13510174D02*
X12165420Y-13519698D01*
X12165420Y-13519698D02*
X12174944Y-13529222D01*
X12174944Y-13529222D02*
X12184468Y-13548269D01*
X12184468Y-13548269D02*
X12184468Y-13595888D01*
X12184468Y-13595888D02*
X12174944Y-13614936D01*
X12174944Y-13614936D02*
X12165420Y-13624460D01*
X12165420Y-13624460D02*
X12146372Y-13633984D01*
X12146372Y-13633984D02*
X12089229Y-13633984D01*
X12089229Y-13633984D02*
X12070182Y-13624460D01*
X12070182Y-13624460D02*
X12060658Y-13614936D01*
X12422563Y-13633984D02*
X12422563Y-13433984D01*
X12508277Y-13633984D02*
X12508277Y-13529222D01*
X12508277Y-13529222D02*
X12498753Y-13510174D01*
X12498753Y-13510174D02*
X12479706Y-13500650D01*
X12479706Y-13500650D02*
X12451134Y-13500650D01*
X12451134Y-13500650D02*
X12432087Y-13510174D01*
X12432087Y-13510174D02*
X12422563Y-13519698D01*
X12632087Y-13633984D02*
X12613039Y-13624460D01*
X12613039Y-13624460D02*
X12603515Y-13614936D01*
X12603515Y-13614936D02*
X12593991Y-13595888D01*
X12593991Y-13595888D02*
X12593991Y-13538746D01*
X12593991Y-13538746D02*
X12603515Y-13519698D01*
X12603515Y-13519698D02*
X12613039Y-13510174D01*
X12613039Y-13510174D02*
X12632087Y-13500650D01*
X12632087Y-13500650D02*
X12660658Y-13500650D01*
X12660658Y-13500650D02*
X12679706Y-13510174D01*
X12679706Y-13510174D02*
X12689230Y-13519698D01*
X12689230Y-13519698D02*
X12698753Y-13538746D01*
X12698753Y-13538746D02*
X12698753Y-13595888D01*
X12698753Y-13595888D02*
X12689230Y-13614936D01*
X12689230Y-13614936D02*
X12679706Y-13624460D01*
X12679706Y-13624460D02*
X12660658Y-13633984D01*
X12660658Y-13633984D02*
X12632087Y-13633984D01*
X12813039Y-13633984D02*
X12793991Y-13624460D01*
X12793991Y-13624460D02*
X12784468Y-13605412D01*
X12784468Y-13605412D02*
X12784468Y-13433984D01*
X12965420Y-13624460D02*
X12946372Y-13633984D01*
X12946372Y-13633984D02*
X12908277Y-13633984D01*
X12908277Y-13633984D02*
X12889230Y-13624460D01*
X12889230Y-13624460D02*
X12879706Y-13605412D01*
X12879706Y-13605412D02*
X12879706Y-13529222D01*
X12879706Y-13529222D02*
X12889230Y-13510174D01*
X12889230Y-13510174D02*
X12908277Y-13500650D01*
X12908277Y-13500650D02*
X12946372Y-13500650D01*
X12946372Y-13500650D02*
X12965420Y-13510174D01*
X12965420Y-13510174D02*
X12974944Y-13529222D01*
X12974944Y-13529222D02*
X12974944Y-13548269D01*
X12974944Y-13548269D02*
X12879706Y-13567317D01*
X13051134Y-13624460D02*
X13070182Y-13633984D01*
X13070182Y-13633984D02*
X13108277Y-13633984D01*
X13108277Y-13633984D02*
X13127325Y-13624460D01*
X13127325Y-13624460D02*
X13136849Y-13605412D01*
X13136849Y-13605412D02*
X13136849Y-13595888D01*
X13136849Y-13595888D02*
X13127325Y-13576841D01*
X13127325Y-13576841D02*
X13108277Y-13567317D01*
X13108277Y-13567317D02*
X13079706Y-13567317D01*
X13079706Y-13567317D02*
X13060658Y-13557793D01*
X13060658Y-13557793D02*
X13051134Y-13538746D01*
X13051134Y-13538746D02*
X13051134Y-13529222D01*
X13051134Y-13529222D02*
X13060658Y-13510174D01*
X13060658Y-13510174D02*
X13079706Y-13500650D01*
X13079706Y-13500650D02*
X13108277Y-13500650D01*
X13108277Y-13500650D02*
X13127325Y-13510174D01*
X13203515Y-13710174D02*
X13213039Y-13700650D01*
X13213039Y-13700650D02*
X13232087Y-13672079D01*
X13232087Y-13672079D02*
X13241611Y-13653031D01*
X13241611Y-13653031D02*
X13251134Y-13624460D01*
X13251134Y-13624460D02*
X13260658Y-13576841D01*
X13260658Y-13576841D02*
X13260658Y-13538746D01*
X13260658Y-13538746D02*
X13251134Y-13491127D01*
X13251134Y-13491127D02*
X13241611Y-13462555D01*
X13241611Y-13462555D02*
X13232087Y-13443508D01*
X13232087Y-13443508D02*
X13213039Y-13414936D01*
X13213039Y-13414936D02*
X13203515Y-13405412D01*
D13*
X8047500Y-13806500D02*
G75*
G02*
X7945500Y-13806500I-51000J0D01*
G01*
X7945500Y-13806500D02*
G75*
G02*
X8047500Y-13806500I51000J0D01*
G01*
D11*
X8413039Y-13897984D02*
X8298753Y-13897984D01*
X8355896Y-13897984D02*
X8355896Y-13697984D01*
X8355896Y-13697984D02*
X8336848Y-13726555D01*
X8336848Y-13726555D02*
X8317801Y-13745603D01*
X8317801Y-13745603D02*
X8298753Y-13755127D01*
X8498753Y-13878936D02*
X8508277Y-13888460D01*
X8508277Y-13888460D02*
X8498753Y-13897984D01*
X8498753Y-13897984D02*
X8489229Y-13888460D01*
X8489229Y-13888460D02*
X8498753Y-13878936D01*
X8498753Y-13878936D02*
X8498753Y-13897984D01*
X8632086Y-13697984D02*
X8651134Y-13697984D01*
X8651134Y-13697984D02*
X8670182Y-13707508D01*
X8670182Y-13707508D02*
X8679705Y-13717031D01*
X8679705Y-13717031D02*
X8689229Y-13736079D01*
X8689229Y-13736079D02*
X8698753Y-13774174D01*
X8698753Y-13774174D02*
X8698753Y-13821793D01*
X8698753Y-13821793D02*
X8689229Y-13859888D01*
X8689229Y-13859888D02*
X8679705Y-13878936D01*
X8679705Y-13878936D02*
X8670182Y-13888460D01*
X8670182Y-13888460D02*
X8651134Y-13897984D01*
X8651134Y-13897984D02*
X8632086Y-13897984D01*
X8632086Y-13897984D02*
X8613039Y-13888460D01*
X8613039Y-13888460D02*
X8603515Y-13878936D01*
X8603515Y-13878936D02*
X8593991Y-13859888D01*
X8593991Y-13859888D02*
X8584467Y-13821793D01*
X8584467Y-13821793D02*
X8584467Y-13774174D01*
X8584467Y-13774174D02*
X8593991Y-13736079D01*
X8593991Y-13736079D02*
X8603515Y-13717031D01*
X8603515Y-13717031D02*
X8613039Y-13707508D01*
X8613039Y-13707508D02*
X8632086Y-13697984D01*
X8774944Y-13717031D02*
X8784467Y-13707508D01*
X8784467Y-13707508D02*
X8803515Y-13697984D01*
X8803515Y-13697984D02*
X8851134Y-13697984D01*
X8851134Y-13697984D02*
X8870182Y-13707508D01*
X8870182Y-13707508D02*
X8879705Y-13717031D01*
X8879705Y-13717031D02*
X8889229Y-13736079D01*
X8889229Y-13736079D02*
X8889229Y-13755127D01*
X8889229Y-13755127D02*
X8879705Y-13783698D01*
X8879705Y-13783698D02*
X8765420Y-13897984D01*
X8765420Y-13897984D02*
X8889229Y-13897984D01*
X9013039Y-13697984D02*
X9032086Y-13697984D01*
X9032086Y-13697984D02*
X9051134Y-13707508D01*
X9051134Y-13707508D02*
X9060658Y-13717031D01*
X9060658Y-13717031D02*
X9070182Y-13736079D01*
X9070182Y-13736079D02*
X9079705Y-13774174D01*
X9079705Y-13774174D02*
X9079705Y-13821793D01*
X9079705Y-13821793D02*
X9070182Y-13859888D01*
X9070182Y-13859888D02*
X9060658Y-13878936D01*
X9060658Y-13878936D02*
X9051134Y-13888460D01*
X9051134Y-13888460D02*
X9032086Y-13897984D01*
X9032086Y-13897984D02*
X9013039Y-13897984D01*
X9013039Y-13897984D02*
X8993991Y-13888460D01*
X8993991Y-13888460D02*
X8984467Y-13878936D01*
X8984467Y-13878936D02*
X8974944Y-13859888D01*
X8974944Y-13859888D02*
X8965420Y-13821793D01*
X8965420Y-13821793D02*
X8965420Y-13774174D01*
X8965420Y-13774174D02*
X8974944Y-13736079D01*
X8974944Y-13736079D02*
X8984467Y-13717031D01*
X8984467Y-13717031D02*
X8993991Y-13707508D01*
X8993991Y-13707508D02*
X9013039Y-13697984D01*
X9165420Y-13897984D02*
X9165420Y-13764650D01*
X9165420Y-13783698D02*
X9174944Y-13774174D01*
X9174944Y-13774174D02*
X9193991Y-13764650D01*
X9193991Y-13764650D02*
X9222563Y-13764650D01*
X9222563Y-13764650D02*
X9241610Y-13774174D01*
X9241610Y-13774174D02*
X9251134Y-13793222D01*
X9251134Y-13793222D02*
X9251134Y-13897984D01*
X9251134Y-13793222D02*
X9260658Y-13774174D01*
X9260658Y-13774174D02*
X9279705Y-13764650D01*
X9279705Y-13764650D02*
X9308277Y-13764650D01*
X9308277Y-13764650D02*
X9327325Y-13774174D01*
X9327325Y-13774174D02*
X9336848Y-13793222D01*
X9336848Y-13793222D02*
X9336848Y-13897984D01*
X9432086Y-13897984D02*
X9432086Y-13764650D01*
X9432086Y-13783698D02*
X9441610Y-13774174D01*
X9441610Y-13774174D02*
X9460658Y-13764650D01*
X9460658Y-13764650D02*
X9489229Y-13764650D01*
X9489229Y-13764650D02*
X9508277Y-13774174D01*
X9508277Y-13774174D02*
X9517801Y-13793222D01*
X9517801Y-13793222D02*
X9517801Y-13897984D01*
X9517801Y-13793222D02*
X9527325Y-13774174D01*
X9527325Y-13774174D02*
X9546372Y-13764650D01*
X9546372Y-13764650D02*
X9574944Y-13764650D01*
X9574944Y-13764650D02*
X9593991Y-13774174D01*
X9593991Y-13774174D02*
X9603515Y-13793222D01*
X9603515Y-13793222D02*
X9603515Y-13897984D01*
X9993991Y-13688460D02*
X9822563Y-13945603D01*
X10251134Y-13697984D02*
X10270182Y-13697984D01*
X10270182Y-13697984D02*
X10289229Y-13707508D01*
X10289229Y-13707508D02*
X10298753Y-13717031D01*
X10298753Y-13717031D02*
X10308277Y-13736079D01*
X10308277Y-13736079D02*
X10317801Y-13774174D01*
X10317801Y-13774174D02*
X10317801Y-13821793D01*
X10317801Y-13821793D02*
X10308277Y-13859888D01*
X10308277Y-13859888D02*
X10298753Y-13878936D01*
X10298753Y-13878936D02*
X10289229Y-13888460D01*
X10289229Y-13888460D02*
X10270182Y-13897984D01*
X10270182Y-13897984D02*
X10251134Y-13897984D01*
X10251134Y-13897984D02*
X10232087Y-13888460D01*
X10232087Y-13888460D02*
X10222563Y-13878936D01*
X10222563Y-13878936D02*
X10213039Y-13859888D01*
X10213039Y-13859888D02*
X10203515Y-13821793D01*
X10203515Y-13821793D02*
X10203515Y-13774174D01*
X10203515Y-13774174D02*
X10213039Y-13736079D01*
X10213039Y-13736079D02*
X10222563Y-13717031D01*
X10222563Y-13717031D02*
X10232087Y-13707508D01*
X10232087Y-13707508D02*
X10251134Y-13697984D01*
X10403515Y-13878936D02*
X10413039Y-13888460D01*
X10413039Y-13888460D02*
X10403515Y-13897984D01*
X10403515Y-13897984D02*
X10393991Y-13888460D01*
X10393991Y-13888460D02*
X10403515Y-13878936D01*
X10403515Y-13878936D02*
X10403515Y-13897984D01*
X10536848Y-13697984D02*
X10555896Y-13697984D01*
X10555896Y-13697984D02*
X10574944Y-13707508D01*
X10574944Y-13707508D02*
X10584468Y-13717031D01*
X10584468Y-13717031D02*
X10593991Y-13736079D01*
X10593991Y-13736079D02*
X10603515Y-13774174D01*
X10603515Y-13774174D02*
X10603515Y-13821793D01*
X10603515Y-13821793D02*
X10593991Y-13859888D01*
X10593991Y-13859888D02*
X10584468Y-13878936D01*
X10584468Y-13878936D02*
X10574944Y-13888460D01*
X10574944Y-13888460D02*
X10555896Y-13897984D01*
X10555896Y-13897984D02*
X10536848Y-13897984D01*
X10536848Y-13897984D02*
X10517801Y-13888460D01*
X10517801Y-13888460D02*
X10508277Y-13878936D01*
X10508277Y-13878936D02*
X10498753Y-13859888D01*
X10498753Y-13859888D02*
X10489229Y-13821793D01*
X10489229Y-13821793D02*
X10489229Y-13774174D01*
X10489229Y-13774174D02*
X10498753Y-13736079D01*
X10498753Y-13736079D02*
X10508277Y-13717031D01*
X10508277Y-13717031D02*
X10517801Y-13707508D01*
X10517801Y-13707508D02*
X10536848Y-13697984D01*
X10774944Y-13764650D02*
X10774944Y-13897984D01*
X10727325Y-13688460D02*
X10679706Y-13831317D01*
X10679706Y-13831317D02*
X10803515Y-13831317D01*
X10917801Y-13697984D02*
X10936849Y-13697984D01*
X10936849Y-13697984D02*
X10955896Y-13707508D01*
X10955896Y-13707508D02*
X10965420Y-13717031D01*
X10965420Y-13717031D02*
X10974944Y-13736079D01*
X10974944Y-13736079D02*
X10984468Y-13774174D01*
X10984468Y-13774174D02*
X10984468Y-13821793D01*
X10984468Y-13821793D02*
X10974944Y-13859888D01*
X10974944Y-13859888D02*
X10965420Y-13878936D01*
X10965420Y-13878936D02*
X10955896Y-13888460D01*
X10955896Y-13888460D02*
X10936849Y-13897984D01*
X10936849Y-13897984D02*
X10917801Y-13897984D01*
X10917801Y-13897984D02*
X10898753Y-13888460D01*
X10898753Y-13888460D02*
X10889229Y-13878936D01*
X10889229Y-13878936D02*
X10879706Y-13859888D01*
X10879706Y-13859888D02*
X10870182Y-13821793D01*
X10870182Y-13821793D02*
X10870182Y-13774174D01*
X10870182Y-13774174D02*
X10879706Y-13736079D01*
X10879706Y-13736079D02*
X10889229Y-13717031D01*
X10889229Y-13717031D02*
X10898753Y-13707508D01*
X10898753Y-13707508D02*
X10917801Y-13697984D01*
X11060658Y-13717031D02*
X11070182Y-13707508D01*
X11070182Y-13707508D02*
X11089229Y-13697984D01*
X11089229Y-13697984D02*
X11136849Y-13697984D01*
X11136849Y-13697984D02*
X11155896Y-13707508D01*
X11155896Y-13707508D02*
X11165420Y-13717031D01*
X11165420Y-13717031D02*
X11174944Y-13736079D01*
X11174944Y-13736079D02*
X11174944Y-13755127D01*
X11174944Y-13755127D02*
X11165420Y-13783698D01*
X11165420Y-13783698D02*
X11051134Y-13897984D01*
X11051134Y-13897984D02*
X11174944Y-13897984D01*
X11251134Y-13697984D02*
X11251134Y-13736079D01*
X11327325Y-13697984D02*
X11327325Y-13736079D01*
X11622563Y-13974174D02*
X11613039Y-13964650D01*
X11613039Y-13964650D02*
X11593991Y-13936079D01*
X11593991Y-13936079D02*
X11584468Y-13917031D01*
X11584468Y-13917031D02*
X11574944Y-13888460D01*
X11574944Y-13888460D02*
X11565420Y-13840841D01*
X11565420Y-13840841D02*
X11565420Y-13802746D01*
X11565420Y-13802746D02*
X11574944Y-13755127D01*
X11574944Y-13755127D02*
X11584468Y-13726555D01*
X11584468Y-13726555D02*
X11593991Y-13707508D01*
X11593991Y-13707508D02*
X11613039Y-13678936D01*
X11613039Y-13678936D02*
X11622563Y-13669412D01*
X11679706Y-13697984D02*
X11813039Y-13697984D01*
X11813039Y-13697984D02*
X11727325Y-13897984D01*
X12041610Y-13897984D02*
X12041610Y-13697984D01*
X12127325Y-13897984D02*
X12127325Y-13793222D01*
X12127325Y-13793222D02*
X12117801Y-13774174D01*
X12117801Y-13774174D02*
X12098753Y-13764650D01*
X12098753Y-13764650D02*
X12070182Y-13764650D01*
X12070182Y-13764650D02*
X12051134Y-13774174D01*
X12051134Y-13774174D02*
X12041610Y-13783698D01*
X12251134Y-13897984D02*
X12232087Y-13888460D01*
X12232087Y-13888460D02*
X12222563Y-13878936D01*
X12222563Y-13878936D02*
X12213039Y-13859888D01*
X12213039Y-13859888D02*
X12213039Y-13802746D01*
X12213039Y-13802746D02*
X12222563Y-13783698D01*
X12222563Y-13783698D02*
X12232087Y-13774174D01*
X12232087Y-13774174D02*
X12251134Y-13764650D01*
X12251134Y-13764650D02*
X12279706Y-13764650D01*
X12279706Y-13764650D02*
X12298753Y-13774174D01*
X12298753Y-13774174D02*
X12308277Y-13783698D01*
X12308277Y-13783698D02*
X12317801Y-13802746D01*
X12317801Y-13802746D02*
X12317801Y-13859888D01*
X12317801Y-13859888D02*
X12308277Y-13878936D01*
X12308277Y-13878936D02*
X12298753Y-13888460D01*
X12298753Y-13888460D02*
X12279706Y-13897984D01*
X12279706Y-13897984D02*
X12251134Y-13897984D01*
X12432087Y-13897984D02*
X12413039Y-13888460D01*
X12413039Y-13888460D02*
X12403515Y-13869412D01*
X12403515Y-13869412D02*
X12403515Y-13697984D01*
X12584468Y-13888460D02*
X12565420Y-13897984D01*
X12565420Y-13897984D02*
X12527325Y-13897984D01*
X12527325Y-13897984D02*
X12508277Y-13888460D01*
X12508277Y-13888460D02*
X12498753Y-13869412D01*
X12498753Y-13869412D02*
X12498753Y-13793222D01*
X12498753Y-13793222D02*
X12508277Y-13774174D01*
X12508277Y-13774174D02*
X12527325Y-13764650D01*
X12527325Y-13764650D02*
X12565420Y-13764650D01*
X12565420Y-13764650D02*
X12584468Y-13774174D01*
X12584468Y-13774174D02*
X12593991Y-13793222D01*
X12593991Y-13793222D02*
X12593991Y-13812269D01*
X12593991Y-13812269D02*
X12498753Y-13831317D01*
X12670182Y-13888460D02*
X12689230Y-13897984D01*
X12689230Y-13897984D02*
X12727325Y-13897984D01*
X12727325Y-13897984D02*
X12746372Y-13888460D01*
X12746372Y-13888460D02*
X12755896Y-13869412D01*
X12755896Y-13869412D02*
X12755896Y-13859888D01*
X12755896Y-13859888D02*
X12746372Y-13840841D01*
X12746372Y-13840841D02*
X12727325Y-13831317D01*
X12727325Y-13831317D02*
X12698753Y-13831317D01*
X12698753Y-13831317D02*
X12679706Y-13821793D01*
X12679706Y-13821793D02*
X12670182Y-13802746D01*
X12670182Y-13802746D02*
X12670182Y-13793222D01*
X12670182Y-13793222D02*
X12679706Y-13774174D01*
X12679706Y-13774174D02*
X12698753Y-13764650D01*
X12698753Y-13764650D02*
X12727325Y-13764650D01*
X12727325Y-13764650D02*
X12746372Y-13774174D01*
X12822563Y-13974174D02*
X12832087Y-13964650D01*
X12832087Y-13964650D02*
X12851134Y-13936079D01*
X12851134Y-13936079D02*
X12860658Y-13917031D01*
X12860658Y-13917031D02*
X12870182Y-13888460D01*
X12870182Y-13888460D02*
X12879706Y-13840841D01*
X12879706Y-13840841D02*
X12879706Y-13802746D01*
X12879706Y-13802746D02*
X12870182Y-13755127D01*
X12870182Y-13755127D02*
X12860658Y-13726555D01*
X12860658Y-13726555D02*
X12851134Y-13707508D01*
X12851134Y-13707508D02*
X12832087Y-13678936D01*
X12832087Y-13678936D02*
X12822563Y-13669412D01*
M02*
